{
	"patcher" : 	{
		"fileversion" : 1,
		"appversion" : 		{
			"major" : 6,
			"minor" : 1,
			"revision" : 2,
			"architecture" : "x86"
		}
,
		"rect" : [ 305.0, 70.0, 526.0, 488.0 ],
		"bglocked" : 0,
		"openinpresentation" : 0,
		"default_fontsize" : 12.0,
		"default_fontface" : 0,
		"default_fontname" : "Arial",
		"gridonopen" : 0,
		"gridsize" : [ 5.0, 5.0 ],
		"gridsnaponopen" : 0,
		"statusbarvisible" : 2,
		"toolbarvisible" : 1,
		"boxanimatetime" : 200,
		"imprint" : 0,
		"enablehscroll" : 1,
		"enablevscroll" : 1,
		"devicewidth" : 0.0,
		"description" : "",
		"digest" : "",
		"tags" : "",
		"showrootpatcherontab" : 0,
		"showontab" : 0,
		"boxes" : [ 			{
				"box" : 				{
					"fontname" : "Arial",
					"fontsize" : 12.0,
					"id" : "obj-1",
					"maxclass" : "newobj",
					"numinlets" : 1,
					"numoutlets" : 1,
					"outlettype" : [ "" ],
					"patching_rect" : [ 299.0, 205.0, 175.0, 20.0 ],
					"saved_object_attributes" : 					{
						"filename" : "helpstarter.js",
						"parameter_enable" : 0
					}
,
					"text" : "js helpstarter.js bach.autoscale"
				}

			}
, 			{
				"box" : 				{
					"fontname" : "Arial",
					"fontsize" : 12.0,
					"id" : "obj-2",
					"maxclass" : "newobj",
					"numinlets" : 0,
					"numoutlets" : 0,
					"patcher" : 					{
						"fileversion" : 1,
						"appversion" : 						{
							"major" : 6,
							"minor" : 1,
							"revision" : 2,
							"architecture" : "x86"
						}
,
						"rect" : [ 305.0, 96.0, 526.0, 462.0 ],
						"bglocked" : 0,
						"openinpresentation" : 0,
						"default_fontsize" : 13.0,
						"default_fontface" : 0,
						"default_fontname" : "Arial",
						"gridonopen" : 0,
						"gridsize" : [ 5.0, 5.0 ],
						"gridsnaponopen" : 0,
						"statusbarvisible" : 2,
						"toolbarvisible" : 1,
						"boxanimatetime" : 200,
						"imprint" : 0,
						"enablehscroll" : 1,
						"enablevscroll" : 1,
						"devicewidth" : 0.0,
						"description" : "",
						"digest" : "",
						"tags" : "",
						"showontab" : 1,
						"boxes" : [ 							{
								"box" : 								{
									"fontname" : "Arial",
									"fontsize" : 13.0,
									"frgb" : 0.0,
									"id" : "obj-14",
									"linecount" : 3,
									"maxclass" : "comment",
									"numinlets" : 1,
									"numoutlets" : 0,
									"patching_rect" : [ 242.0, 138.0, 257.0, 50.0 ],
									"text" : "Differently from bach.scale, the input minimum and maximum are automatically inferred from the incoming llll",
									"textcolor" : [ 0.5, 0.5, 0.5, 1.0 ]
								}

							}
, 							{
								"box" : 								{
									"fontname" : "Arial",
									"fontsize" : 13.0,
									"id" : "obj-16",
									"maxclass" : "newobj",
									"numinlets" : 1,
									"numoutlets" : 0,
									"patching_rect" : [ 316.0, 417.0, 68.0, 21.0 ],
									"text" : "bach.print"
								}

							}
, 							{
								"box" : 								{
									"fontname" : "Arial",
									"fontsize" : 13.0,
									"id" : "obj-15",
									"maxclass" : "message",
									"numinlets" : 2,
									"numoutlets" : 1,
									"outlettype" : [ "" ],
									"patching_rect" : [ 316.0, 366.0, 123.0, 19.0 ],
									"text" : "20 20 [20 [[20] 20]]"
								}

							}
, 							{
								"box" : 								{
									"fontname" : "Arial",
									"fontsize" : 13.0,
									"id" : "obj-13",
									"maxclass" : "newobj",
									"numinlets" : 3,
									"numoutlets" : 1,
									"outlettype" : [ "" ],
									"patching_rect" : [ 316.0, 391.0, 120.0, 21.0 ],
									"text" : "bach.autoscale 0 5"
								}

							}
, 							{
								"box" : 								{
									"bubble" : 1,
									"fontname" : "Arial",
									"fontsize" : 13.0,
									"frgb" : 0.0,
									"id" : "obj-12",
									"maxclass" : "comment",
									"numinlets" : 1,
									"numoutlets" : 0,
									"patching_rect" : [ 59.0, 138.0, 145.0, 25.0 ],
									"text" : "Rescale incoming llll"
								}

							}
, 							{
								"box" : 								{
									"bubble" : 1,
									"fontname" : "Arial",
									"fontsize" : 13.0,
									"frgb" : 0.0,
									"id" : "obj-9",
									"maxclass" : "comment",
									"numinlets" : 1,
									"numoutlets" : 0,
									"patching_rect" : [ 245.0, 256.0, 147.0, 25.0 ],
									"text" : "Set output maximum"
								}

							}
, 							{
								"box" : 								{
									"bubble" : 1,
									"fontname" : "Arial",
									"fontsize" : 13.0,
									"frgb" : 0.0,
									"id" : "obj-6",
									"maxclass" : "comment",
									"numinlets" : 1,
									"numoutlets" : 0,
									"patching_rect" : [ 161.5, 224.0, 143.0, 25.0 ],
									"text" : "Set output minimum"
								}

							}
, 							{
								"box" : 								{
									"bubble" : 1,
									"bubbleside" : 3,
									"fontname" : "Arial",
									"fontsize" : 13.0,
									"frgb" : 0.0,
									"id" : "obj-11",
									"linecount" : 3,
									"maxclass" : "comment",
									"numinlets" : 1,
									"numoutlets" : 0,
									"patching_rect" : [ 74.75, 374.5, 227.0, 54.0 ],
									"text" : "If all the elements of the incoming llll are the same, they will be set to the mean of min and max."
								}

							}
, 							{
								"box" : 								{
									"fontname" : "Arial",
									"fontsize" : 13.0,
									"id" : "obj-5",
									"maxclass" : "newobj",
									"numinlets" : 1,
									"numoutlets" : 0,
									"patching_rect" : [ 30.0, 317.0, 69.0, 21.0 ],
									"text" : "bach.print"
								}

							}
, 							{
								"box" : 								{
									"id" : "obj-10",
									"maxclass" : "button",
									"numinlets" : 1,
									"numoutlets" : 1,
									"outlettype" : [ "bang" ],
									"patching_rect" : [ 30.0, 141.0, 20.0, 20.0 ]
								}

							}
, 							{
								"box" : 								{
									"fontname" : "Arial",
									"fontsize" : 13.0,
									"frgb" : 0.0,
									"id" : "obj-8",
									"linecount" : 2,
									"maxclass" : "textedit",
									"numinlets" : 1,
									"numoutlets" : 4,
									"outlettype" : [ "", "int", "", "" ],
									"parameter_enable" : 0,
									"patching_rect" : [ 30.0, 167.0, 174.0, 52.0 ],
									"text" : "100 [150 200] 110 [113 [198]]"
								}

							}
, 							{
								"box" : 								{
									"fontname" : "Arial",
									"fontsize" : 13.0,
									"id" : "obj-7",
									"maxclass" : "newobj",
									"numinlets" : 2,
									"numoutlets" : 2,
									"outlettype" : [ "", "" ],
									"patching_rect" : [ 30.0, 258.0, 66.0, 21.0 ],
									"text" : "route text"
								}

							}
, 							{
								"box" : 								{
									"fontname" : "Arial",
									"fontsize" : 13.0,
									"id" : "obj-30",
									"maxclass" : "flonum",
									"numinlets" : 1,
									"numoutlets" : 2,
									"outlettype" : [ "float", "bang" ],
									"parameter_enable" : 0,
									"patching_rect" : [ 193.0, 258.0, 45.0, 21.0 ]
								}

							}
, 							{
								"box" : 								{
									"fontname" : "Arial",
									"fontsize" : 13.0,
									"id" : "obj-28",
									"maxclass" : "flonum",
									"numinlets" : 1,
									"numoutlets" : 2,
									"outlettype" : [ "float", "bang" ],
									"parameter_enable" : 0,
									"patching_rect" : [ 111.5, 226.0, 45.0, 21.0 ]
								}

							}
, 							{
								"box" : 								{
									"fontname" : "Arial",
									"fontsize" : 13.0,
									"id" : "obj-1",
									"maxclass" : "newobj",
									"numinlets" : 3,
									"numoutlets" : 1,
									"outlettype" : [ "" ],
									"patching_rect" : [ 30.0, 287.0, 182.0, 21.0 ],
									"text" : "bach.autoscale 0 1"
								}

							}
, 							{
								"box" : 								{
									"border" : 0,
									"filename" : "helpargs.js",
									"id" : "obj-4",
									"ignoreclick" : 1,
									"jsarguments" : [ "bach.autoscale" ],
									"maxclass" : "jsui",
									"numinlets" : 1,
									"numoutlets" : 1,
									"outlettype" : [ "" ],
									"parameter_enable" : 0,
									"patching_rect" : [ 223.0, 287.0, 254.0, 65.0 ]
								}

							}
, 							{
								"box" : 								{
									"border" : 0,
									"filename" : "helpdetails.js",
									"id" : "obj-2",
									"ignoreclick" : 1,
									"jsarguments" : [ "bach.autoscale", 70 ],
									"maxclass" : "jsui",
									"numinlets" : 1,
									"numoutlets" : 1,
									"outlettype" : [ "" ],
									"parameter_enable" : 0,
									"patching_rect" : [ 10.0, 10.0, 485.0, 118.0 ]
								}

							}
 ],
						"lines" : [ 							{
								"patchline" : 								{
									"destination" : [ "obj-5", 0 ],
									"disabled" : 0,
									"hidden" : 0,
									"source" : [ "obj-1", 0 ]
								}

							}
, 							{
								"patchline" : 								{
									"destination" : [ "obj-8", 0 ],
									"disabled" : 0,
									"hidden" : 0,
									"source" : [ "obj-10", 0 ]
								}

							}
, 							{
								"patchline" : 								{
									"destination" : [ "obj-16", 0 ],
									"disabled" : 0,
									"hidden" : 0,
									"source" : [ "obj-13", 0 ]
								}

							}
, 							{
								"patchline" : 								{
									"destination" : [ "obj-13", 0 ],
									"disabled" : 0,
									"hidden" : 0,
									"source" : [ "obj-15", 0 ]
								}

							}
, 							{
								"patchline" : 								{
									"destination" : [ "obj-1", 1 ],
									"disabled" : 0,
									"hidden" : 0,
									"source" : [ "obj-28", 0 ]
								}

							}
, 							{
								"patchline" : 								{
									"destination" : [ "obj-1", 2 ],
									"disabled" : 0,
									"hidden" : 0,
									"source" : [ "obj-30", 0 ]
								}

							}
, 							{
								"patchline" : 								{
									"destination" : [ "obj-1", 0 ],
									"disabled" : 0,
									"hidden" : 0,
									"source" : [ "obj-7", 0 ]
								}

							}
, 							{
								"patchline" : 								{
									"destination" : [ "obj-7", 0 ],
									"disabled" : 0,
									"hidden" : 0,
									"source" : [ "obj-8", 0 ]
								}

							}
 ]
					}
,
					"patching_rect" : [ 10.0, 85.0, 50.0, 20.0 ],
					"saved_object_attributes" : 					{
						"default_fontface" : 0,
						"default_fontname" : "Arial",
						"default_fontsize" : 13.0,
						"description" : "",
						"digest" : "",
						"fontface" : 0,
						"fontname" : "Arial",
						"fontsize" : 13.0,
						"globalpatchername" : "",
						"tags" : ""
					}
,
					"text" : "p basic",
					"varname" : "basic_tab"
				}

			}
, 			{
				"box" : 				{
					"border" : 0,
					"filename" : "helpname.js",
					"id" : "obj-4",
					"ignoreclick" : 1,
					"jsarguments" : [ "bach.autoscale" ],
					"maxclass" : "jsui",
					"numinlets" : 1,
					"numoutlets" : 1,
					"outlettype" : [ "" ],
					"parameter_enable" : 0,
					"patching_rect" : [ 10.0, 10.0, 327.898438, 53.625 ]
				}

			}
, 			{
				"box" : 				{
					"fontname" : "Arial",
					"fontsize" : 12.0,
					"id" : "obj-8",
					"maxclass" : "newobj",
					"numinlets" : 0,
					"numoutlets" : 0,
					"patcher" : 					{
						"fileversion" : 1,
						"appversion" : 						{
							"major" : 6,
							"minor" : 1,
							"revision" : 2,
							"architecture" : "x86"
						}
,
						"rect" : [ 0.0, 26.0, 526.0, 462.0 ],
						"bglocked" : 0,
						"openinpresentation" : 0,
						"default_fontsize" : 13.0,
						"default_fontface" : 0,
						"default_fontname" : "Arial",
						"gridonopen" : 0,
						"gridsize" : [ 5.0, 5.0 ],
						"gridsnaponopen" : 0,
						"statusbarvisible" : 2,
						"toolbarvisible" : 1,
						"boxanimatetime" : 200,
						"imprint" : 0,
						"enablehscroll" : 1,
						"enablevscroll" : 1,
						"devicewidth" : 0.0,
						"description" : "",
						"digest" : "",
						"tags" : "",
						"showontab" : 1,
						"boxes" : [  ],
						"lines" : [  ]
					}
,
					"patching_rect" : [ 205.0, 205.0, 50.0, 20.0 ],
					"saved_object_attributes" : 					{
						"default_fontface" : 0,
						"default_fontname" : "Arial",
						"default_fontsize" : 13.0,
						"description" : "",
						"digest" : "",
						"fontface" : 0,
						"fontname" : "Arial",
						"fontsize" : 13.0,
						"globalpatchername" : "",
						"tags" : ""
					}
,
					"text" : "p ?",
					"varname" : "q_tab"
				}

			}
 ],
		"lines" : [  ],
		"dependency_cache" : [ 			{
				"name" : "helpname.js",
				"bootpath" : "/Applications/Max 6.1/Cycling '74/help-resources",
				"patcherrelativepath" : "../../../Cycling '74/help-resources",
				"type" : "TEXT",
				"implicit" : 1
			}
, 			{
				"name" : "helpdetails.js",
				"bootpath" : "/Applications/Max 6.1/Cycling '74/help-resources",
				"patcherrelativepath" : "../../../Cycling '74/help-resources",
				"type" : "TEXT",
				"implicit" : 1
			}
, 			{
				"name" : "helpargs.js",
				"bootpath" : "/Applications/Max 6.1/Cycling '74/help-resources",
				"patcherrelativepath" : "../../../Cycling '74/help-resources",
				"type" : "TEXT",
				"implicit" : 1
			}
, 			{
				"name" : "bach.autoscale.maxpat",
				"bootpath" : "/Applications/Max 6.1/packages/bach/patchers",
				"patcherrelativepath" : "../patchers",
				"type" : "TEXT",
				"implicit" : 1
			}
, 			{
				"name" : "bach.mapelem.maxpat",
				"bootpath" : "/Applications/Max 6.1/packages/bach/patchers",
				"patcherrelativepath" : "../patchers",
				"type" : "JSON",
				"implicit" : 1
			}
, 			{
				"name" : "bach.filternull.maxpat",
				"bootpath" : "/Applications/Max 6.1/packages/bach/patchers",
				"patcherrelativepath" : "../patchers",
				"type" : "JSON",
				"implicit" : 1
			}
, 			{
				"name" : "helpstarter.js",
				"bootpath" : "/Applications/Max 6.1/Cycling '74/help-resources",
				"patcherrelativepath" : "../../../Cycling '74/help-resources",
				"type" : "TEXT",
				"implicit" : 1
			}
, 			{
				"name" : "bach.expr.mxo",
				"type" : "iLaX"
			}
, 			{
				"name" : "bach.minmax.mxo",
				"type" : "iLaX"
			}
, 			{
				"name" : "bach.reg.mxo",
				"type" : "iLaX"
			}
, 			{
				"name" : "bach.portal.mxo",
				"type" : "iLaX"
			}
, 			{
				"name" : "bach.args.mxo",
				"type" : "iLaX"
			}
, 			{
				"name" : "bach.pick.mxo",
				"type" : "iLaX"
			}
, 			{
				"name" : "bach.eq.mxo",
				"type" : "iLaX"
			}
, 			{
				"name" : "bach.iter.mxo",
				"type" : "iLaX"
			}
, 			{
				"name" : "bach.collect.mxo",
				"type" : "iLaX"
			}
, 			{
				"name" : "bach.wrap.mxo",
				"type" : "iLaX"
			}
, 			{
				"name" : "bach.flat.mxo",
				"type" : "iLaX"
			}
, 			{
				"name" : "bach.print.mxo",
				"type" : "iLaX"
			}
 ]
	}

}
