{
	"patcher" : 	{
		"fileversion" : 1,
		"appversion" : 		{
			"major" : 7,
			"minor" : 1,
			"revision" : 0,
			"architecture" : "x64",
			"modernui" : 1
		}
,
		"rect" : [ 560.0, 79.0, 617.0, 539.0 ],
		"bglocked" : 0,
		"openinpresentation" : 0,
		"default_fontsize" : 12.0,
		"default_fontface" : 0,
		"default_fontname" : "Arial",
		"gridonopen" : 1,
		"gridsize" : [ 15.0, 15.0 ],
		"gridsnaponopen" : 1,
		"objectsnaponopen" : 1,
		"statusbarvisible" : 2,
		"toolbarvisible" : 1,
		"lefttoolbarpinned" : 0,
		"toptoolbarpinned" : 0,
		"righttoolbarpinned" : 0,
		"bottomtoolbarpinned" : 0,
		"toolbars_unpinned_last_save" : 0,
		"tallnewobj" : 0,
		"boxanimatetime" : 200,
		"enablehscroll" : 1,
		"enablevscroll" : 1,
		"devicewidth" : 0.0,
		"description" : "",
		"digest" : "",
		"tags" : "",
		"style" : "",
		"subpatcher_template" : "",
		"boxes" : [ 			{
				"box" : 				{
					"fontname" : "Arial",
					"fontsize" : 13.0,
					"id" : "obj-15",
					"linecount" : 2,
					"maxclass" : "comment",
					"numinlets" : 1,
					"numoutlets" : 0,
					"patching_rect" : [ 66.0, 329.0, 531.0, 36.0 ],
					"presentation_rect" : [ 66.0, 327.0, 0.0, 0.0 ],
					"style" : "",
					"text" : "For the two \"Merge\" situations, we also need to agree on what we mean by \"neighbor chords\". This is handled by the \"mergingpolicy\" attribute:",
					"textcolor" : [ 0.5, 0.5, 0.5, 1.0 ]
				}

			}
, 			{
				"box" : 				{
					"fontname" : "Arial",
					"fontsize" : 13.0,
					"id" : "obj-14",
					"linecount" : 2,
					"maxclass" : "comment",
					"numinlets" : 1,
					"numoutlets" : 0,
					"patching_rect" : [ 79.0, 401.0, 531.0, 36.0 ],
					"presentation_rect" : [ 216.0, 364.0, 0.0, 0.0 ],
					"style" : "",
					"text" : "In case of \"Merge to Both\", the small event duration is split in half, and assigned to both chords. In all other cases, all the small event duration is added entirely to either chord.",
					"textcolor" : [ 0.5, 0.5, 0.5, 1.0 ]
				}

			}
, 			{
				"box" : 				{
					"bubble" : 1,
					"fontname" : "Arial",
					"fontsize" : 13.0,
					"id" : "obj-9",
					"linecount" : 2,
					"maxclass" : "comment",
					"numinlets" : 1,
					"numoutlets" : 0,
					"patching_rect" : [ 333.0, 362.0, 277.0, 40.0 ],
					"presentation_rect" : [ 377.0, 372.0, 0.0, 0.0 ],
					"style" : "",
					"text" : "Decide to which of the left or right neighbor chord the small events should be merged"
				}

			}
, 			{
				"box" : 				{
					"bubble" : 1,
					"fontname" : "Arial",
					"fontsize" : 13.0,
					"id" : "obj-8",
					"linecount" : 3,
					"maxclass" : "comment",
					"numinlets" : 1,
					"numoutlets" : 0,
					"patching_rect" : [ 333.0, 191.0, 252.0, 54.0 ],
					"presentation_rect" : [ 244.0, 173.0, 0.0, 0.0 ],
					"style" : "",
					"text" : "What do we do of events which are too small to be quantized? By default they are turned into grace chords."
				}

			}
, 			{
				"box" : 				{
					"fontname" : "Arial",
					"fontsize" : 13.0,
					"id" : "obj-7",
					"linecount" : 3,
					"maxclass" : "comment",
					"numinlets" : 1,
					"numoutlets" : 0,
					"patching_rect" : [ 34.0, 130.0, 609.0, 50.0 ],
					"presentation_rect" : [ 34.0, 130.0, 0.0, 0.0 ],
					"style" : "",
					"text" : "... or it can also happen that events in a box are so numerous that, according to the currents minimal units, some of them simply cannot be quantize; in this case, the smallest ones are also considered \"small events\". For all these events the \"smalleventshandling\" attribute applies.",
					"textcolor" : [ 0.5, 0.5, 0.5, 1.0 ]
				}

			}
, 			{
				"box" : 				{
					"bubble" : 1,
					"fontname" : "Arial",
					"fontsize" : 13.0,
					"id" : "obj-6",
					"linecount" : 3,
					"maxclass" : "comment",
					"numinlets" : 1,
					"numoutlets" : 0,
					"patching_rect" : [ 171.0, 72.0, 431.0, 54.0 ],
					"presentation_rect" : [ 196.0, 77.0, 0.0, 0.0 ],
					"style" : "",
					"text" : "The \"durthresh\" attribute will set a duration threshold as a percentage of the smallest minimal unit. Events under this threshold are immediately considered as \"small events\""
				}

			}
, 			{
				"box" : 				{
					"attr" : "durthresh",
					"id" : "obj-5",
					"maxclass" : "attrui",
					"numinlets" : 1,
					"numoutlets" : 1,
					"outlettype" : [ "" ],
					"patching_rect" : [ 10.0, 88.0, 150.0, 22.0 ],
					"style" : ""
				}

			}
, 			{
				"box" : 				{
					"attr" : "smalleventshandling",
					"id" : "obj-31",
					"maxclass" : "attrui",
					"numinlets" : 1,
					"numoutlets" : 1,
					"outlettype" : [ "" ],
					"patching_rect" : [ 40.0, 211.0, 285.0, 22.0 ],
					"style" : "",
					"text_width" : 134.0
				}

			}
, 			{
				"box" : 				{
					"attr" : "mergingpolicy",
					"id" : "obj-20",
					"maxclass" : "attrui",
					"numinlets" : 1,
					"numoutlets" : 1,
					"outlettype" : [ "" ],
					"patching_rect" : [ 69.0, 371.0, 261.0, 22.0 ],
					"style" : ""
				}

			}
, 			{
				"box" : 				{
					"fontname" : "Arial",
					"fontsize" : 13.0,
					"id" : "obj-2",
					"linecount" : 6,
					"maxclass" : "comment",
					"numinlets" : 1,
					"numoutlets" : 0,
					"patching_rect" : [ 66.0, 236.0, 531.0, 94.0 ],
					"style" : "",
					"text" : "Four possibilities are available:\n- Delete: just delete any small events\n- Merge: add their notes to the neighbor chords (only if not already present)\n- Merge With Repetitions: add their notes to the neighbor chords (even if already present)\n- Make Grace Chords (default): turn the small events into grace chords (unless the event was a rest, in which case it is are deleted)",
					"textcolor" : [ 0.5, 0.5, 0.5, 1.0 ]
				}

			}
, 			{
				"box" : 				{
					"fontname" : "Arial",
					"fontsize" : 13.0,
					"id" : "obj-16",
					"maxclass" : "newobj",
					"numinlets" : 3,
					"numoutlets" : 1,
					"outlettype" : [ "" ],
					"patching_rect" : [ 22.0, 444.0, 218.0, 23.0 ],
					"style" : "",
					"text" : "bach.quantize"
				}

			}
, 			{
				"box" : 				{
					"fontname" : "Arial",
					"fontsize" : 13.0,
					"id" : "obj-76",
					"linecount" : 2,
					"maxclass" : "comment",
					"numinlets" : 1,
					"numoutlets" : 0,
					"patching_rect" : [ 6.0, 31.0, 609.0, 36.0 ],
					"style" : "",
					"text" : "Two attributes handle the way in which bach.quantize should deal with events that are \"too short to be quantized\". Such small events are either events that are shorter than the current duration threshold...",
					"textcolor" : [ 0.5, 0.5, 0.5, 1.0 ]
				}

			}
, 			{
				"box" : 				{
					"fontname" : "Arial",
					"fontsize" : 11.0,
					"id" : "obj-11",
					"maxclass" : "comment",
					"numinlets" : 1,
					"numoutlets" : 0,
					"patching_rect" : [ 6.0, 514.0, 602.0, 19.0 ],
					"style" : "",
					"text" : "See Also: quantizationpriority, ceilmeasures",
					"textcolor" : [ 0.5, 0.5, 0.5, 1.0 ],
					"varname" : "seealso"
				}

			}
, 			{
				"box" : 				{
					"fontname" : "Arial",
					"fontsize" : 11.0,
					"id" : "obj-10",
					"maxclass" : "comment",
					"numinlets" : 1,
					"numoutlets" : 0,
					"patching_rect" : [ 6.0, 495.0, 602.0, 19.0 ],
					"style" : "",
					"text" : "Objects: bach.roll, bach.score, bach.quantize",
					"textcolor" : [ 0.5, 0.5, 0.5, 1.0 ],
					"varname" : "objects"
				}

			}
, 			{
				"box" : 				{
					"fontface" : 1,
					"fontname" : "Arial",
					"fontsize" : 15.0,
					"id" : "obj-13",
					"maxclass" : "comment",
					"numinlets" : 1,
					"numoutlets" : 0,
					"patching_rect" : [ 6.0, 8.0, 312.0, 23.0 ],
					"style" : "",
					"text" : "Small events handling",
					"varname" : "title"
				}

			}
, 			{
				"box" : 				{
					"fontname" : "Arial",
					"fontsize" : 11.0,
					"id" : "obj-12",
					"linecount" : 2,
					"maxclass" : "comment",
					"numinlets" : 1,
					"numoutlets" : 0,
					"patching_rect" : [ 6.0, 476.0, 608.0, 31.0 ],
					"style" : "",
					"text" : "Tags: quantize, quantization, attribute, smalleventshandling, grace, note, chord, durthresh, mergingpolicy, merge, merging, policy, threshold, duration, too, small, event, drop, discard, duration, handle, handling, merge, repetition, delete, make",
					"textcolor" : [ 0.5, 0.5, 0.5, 1.0 ],
					"varname" : "tags"
				}

			}
 ],
		"lines" : [ 			{
				"patchline" : 				{
					"destination" : [ "obj-16", 0 ],
					"disabled" : 0,
					"hidden" : 0,
					"source" : [ "obj-20", 0 ]
				}

			}
, 			{
				"patchline" : 				{
					"destination" : [ "obj-16", 0 ],
					"disabled" : 0,
					"hidden" : 0,
					"source" : [ "obj-31", 0 ]
				}

			}
, 			{
				"patchline" : 				{
					"destination" : [ "obj-16", 0 ],
					"disabled" : 0,
					"hidden" : 0,
					"source" : [ "obj-5", 0 ]
				}

			}
 ],
		"dependency_cache" : [ 			{
				"name" : "bach.quantize.mxo",
				"type" : "iLaX"
			}
 ],
		"autosave" : 0
	}

}
