{
	"patcher" : 	{
		"fileversion" : 1,
		"appversion" : 		{
			"major" : 5,
			"minor" : 1,
			"revision" : 9
		}
,
		"rect" : [ 474.0, 97.0, 373.0, 530.0 ],
		"bglocked" : 0,
		"defrect" : [ 474.0, 97.0, 373.0, 530.0 ],
		"openrect" : [ 0.0, 0.0, 0.0, 0.0 ],
		"openinpresentation" : 0,
		"default_fontsize" : 12.0,
		"default_fontface" : 0,
		"default_fontname" : "Arial",
		"gridonopen" : 0,
		"gridsize" : [ 15.0, 15.0 ],
		"gridsnaponopen" : 0,
		"toolbarvisible" : 1,
		"boxanimatetime" : 200,
		"imprint" : 0,
		"enablehscroll" : 1,
		"enablevscroll" : 1,
		"devicewidth" : 0.0,
		"boxes" : [ 			{
				"box" : 				{
					"maxclass" : "message",
					"text" : "0 1",
					"id" : "obj-8",
					"fontname" : "Arial",
					"numinlets" : 2,
					"numoutlets" : 1,
					"fontsize" : 12.0,
					"outlettype" : [ "" ],
					"patching_rect" : [ 290.0, 93.0, 32.5, 18.0 ]
				}

			}
, 			{
				"box" : 				{
					"maxclass" : "newobj",
					"text" : "bach.args 2 2 0 1 @ins 4 @out t",
					"id" : "obj-7",
					"fontname" : "Arial",
					"numinlets" : 5,
					"numoutlets" : 7,
					"fontsize" : 12.0,
					"outlettype" : [ "bang", "", "", "", "", "", "" ],
					"patching_rect" : [ 15.0, 59.0, 254.0, 20.0 ]
				}

			}
, 			{
				"box" : 				{
					"maxclass" : "newobj",
					"text" : "zl slice 2",
					"id" : "obj-14",
					"fontname" : "Arial",
					"numinlets" : 2,
					"numoutlets" : 2,
					"fontsize" : 12.0,
					"outlettype" : [ "", "" ],
					"patching_rect" : [ 210.0, 120.0, 57.0, 20.0 ]
				}

			}
, 			{
				"box" : 				{
					"maxclass" : "newobj",
					"text" : "route list",
					"id" : "obj-5",
					"fontname" : "Arial",
					"numinlets" : 1,
					"numoutlets" : 2,
					"fontsize" : 12.0,
					"outlettype" : [ "", "" ],
					"patching_rect" : [ 210.0, 90.0, 56.0, 20.0 ]
				}

			}
, 			{
				"box" : 				{
					"maxclass" : "newobj",
					"text" : "bach.portal @out p",
					"id" : "obj-4",
					"fontname" : "Arial",
					"numinlets" : 1,
					"numoutlets" : 2,
					"fontsize" : 12.0,
					"outlettype" : [ "", "" ],
					"patching_rect" : [ 15.0, 430.0, 112.0, 20.0 ]
				}

			}
, 			{
				"box" : 				{
					"maxclass" : "newobj",
					"text" : "unpack i i",
					"id" : "obj-3",
					"fontname" : "Arial",
					"numinlets" : 1,
					"numoutlets" : 2,
					"fontsize" : 12.0,
					"outlettype" : [ "int", "int" ],
					"patching_rect" : [ 109.0, 145.0, 61.0, 20.0 ]
				}

			}
, 			{
				"box" : 				{
					"maxclass" : "newobj",
					"text" : "route list",
					"id" : "obj-2",
					"fontname" : "Arial",
					"numinlets" : 1,
					"numoutlets" : 2,
					"fontsize" : 12.0,
					"outlettype" : [ "", "" ],
					"patching_rect" : [ 92.0, 87.0, 56.0, 20.0 ]
				}

			}
, 			{
				"box" : 				{
					"maxclass" : "inlet",
					"id" : "obj-1",
					"numinlets" : 0,
					"numoutlets" : 1,
					"outlettype" : [ "" ],
					"patching_rect" : [ 132.5, 15.0, 25.0, 25.0 ],
					"comment" : "int: Number of Columns"
				}

			}
, 			{
				"box" : 				{
					"maxclass" : "newobj",
					"text" : "bach.wrap 1",
					"id" : "obj-43",
					"fontname" : "Arial",
					"numinlets" : 1,
					"numoutlets" : 1,
					"fontsize" : 12.0,
					"outlettype" : [ "" ],
					"patching_rect" : [ 55.0, 370.0, 76.0, 20.0 ]
				}

			}
, 			{
				"box" : 				{
					"maxclass" : "newobj",
					"text" : "uzi 3",
					"id" : "obj-37",
					"fontname" : "Arial",
					"numinlets" : 2,
					"numoutlets" : 3,
					"fontsize" : 12.0,
					"outlettype" : [ "bang", "bang", "int" ],
					"patching_rect" : [ 83.0, 261.0, 104.0, 20.0 ]
				}

			}
, 			{
				"box" : 				{
					"maxclass" : "newobj",
					"text" : "t b b clear",
					"id" : "obj-36",
					"fontname" : "Arial",
					"numinlets" : 1,
					"numoutlets" : 3,
					"fontsize" : 12.0,
					"outlettype" : [ "bang", "bang", "clear" ],
					"patching_rect" : [ 15.0, 180.0, 98.0, 20.0 ]
				}

			}
, 			{
				"box" : 				{
					"maxclass" : "newobj",
					"text" : "t b b clear",
					"id" : "obj-35",
					"fontname" : "Arial",
					"numinlets" : 1,
					"numoutlets" : 3,
					"fontsize" : 12.0,
					"outlettype" : [ "bang", "bang", "clear" ],
					"patching_rect" : [ 55.0, 235.0, 75.0, 20.0 ]
				}

			}
, 			{
				"box" : 				{
					"maxclass" : "newobj",
					"text" : "bach.reg",
					"id" : "obj-34",
					"fontname" : "Arial",
					"numinlets" : 2,
					"numoutlets" : 1,
					"fontsize" : 12.0,
					"outlettype" : [ "" ],
					"patching_rect" : [ 83.0, 289.0, 158.0, 20.0 ],
					"saved_object_attributes" : 					{
						"embed" : 0
					}

				}

			}
, 			{
				"box" : 				{
					"maxclass" : "newobj",
					"text" : "bach.random",
					"id" : "obj-33",
					"fontname" : "Arial",
					"numinlets" : 2,
					"numoutlets" : 2,
					"fontsize" : 12.0,
					"outlettype" : [ "", "" ],
					"patching_rect" : [ 83.0, 315.0, 81.0, 20.0 ]
				}

			}
, 			{
				"box" : 				{
					"maxclass" : "newobj",
					"text" : "uzi 3",
					"id" : "obj-28",
					"fontname" : "Arial",
					"numinlets" : 2,
					"numoutlets" : 3,
					"fontsize" : 12.0,
					"outlettype" : [ "bang", "bang", "int" ],
					"patching_rect" : [ 55.0, 207.0, 73.0, 20.0 ]
				}

			}
, 			{
				"box" : 				{
					"maxclass" : "newobj",
					"text" : "bach.collect",
					"id" : "obj-27",
					"fontname" : "Arial",
					"numinlets" : 3,
					"numoutlets" : 1,
					"fontsize" : 12.0,
					"outlettype" : [ "" ],
					"patching_rect" : [ 15.0, 405.0, 74.0, 20.0 ]
				}

			}
, 			{
				"box" : 				{
					"maxclass" : "newobj",
					"text" : "bach.collect",
					"id" : "obj-26",
					"fontname" : "Arial",
					"numinlets" : 3,
					"numoutlets" : 1,
					"fontsize" : 12.0,
					"outlettype" : [ "" ],
					"patching_rect" : [ 55.0, 345.0, 74.0, 20.0 ]
				}

			}
, 			{
				"box" : 				{
					"maxclass" : "inlet",
					"id" : "obj-82",
					"numinlets" : 0,
					"numoutlets" : 1,
					"outlettype" : [ "bang" ],
					"patching_rect" : [ 15.0, 15.0, 25.0, 25.0 ],
					"comment" : "bang to Build"
				}

			}
, 			{
				"box" : 				{
					"maxclass" : "inlet",
					"id" : "obj-83",
					"numinlets" : 0,
					"numoutlets" : 1,
					"outlettype" : [ "" ],
					"patching_rect" : [ 73.75, 15.0, 25.0, 25.0 ],
					"comment" : "int: Number of Rows"
				}

			}
, 			{
				"box" : 				{
					"maxclass" : "inlet",
					"id" : "obj-84",
					"numinlets" : 0,
					"numoutlets" : 1,
					"outlettype" : [ "" ],
					"patching_rect" : [ 191.25, 15.0, 25.0, 25.0 ],
					"comment" : "llll: Possible Coefficients"
				}

			}
, 			{
				"box" : 				{
					"maxclass" : "outlet",
					"id" : "obj-85",
					"numinlets" : 1,
					"numoutlets" : 0,
					"patching_rect" : [ 15.0, 461.0, 25.0, 25.0 ],
					"comment" : "llll: Random Matrix"
				}

			}
 ],
		"lines" : [ 			{
				"patchline" : 				{
					"source" : [ "obj-8", 0 ],
					"destination" : [ "obj-34", 1 ],
					"hidden" : 0,
					"midpoints" : [  ]
				}

			}
, 			{
				"patchline" : 				{
					"source" : [ "obj-7", 5 ],
					"destination" : [ "obj-8", 0 ],
					"hidden" : 0,
					"midpoints" : [  ]
				}

			}
, 			{
				"patchline" : 				{
					"source" : [ "obj-14", 1 ],
					"destination" : [ "obj-34", 1 ],
					"hidden" : 0,
					"color" : [ 1.0, 0.0, 0.0, 0.388235 ],
					"midpoints" : [  ]
				}

			}
, 			{
				"patchline" : 				{
					"source" : [ "obj-14", 0 ],
					"destination" : [ "obj-3", 0 ],
					"hidden" : 0,
					"color" : [ 1.0, 0.0, 0.0, 0.388235 ],
					"midpoints" : [  ]
				}

			}
, 			{
				"patchline" : 				{
					"source" : [ "obj-5", 0 ],
					"destination" : [ "obj-14", 0 ],
					"hidden" : 0,
					"midpoints" : [  ]
				}

			}
, 			{
				"patchline" : 				{
					"source" : [ "obj-5", 1 ],
					"destination" : [ "obj-37", 1 ],
					"hidden" : 0,
					"color" : [ 1.0, 0.0, 0.0, 0.388235 ],
					"midpoints" : [  ]
				}

			}
, 			{
				"patchline" : 				{
					"source" : [ "obj-5", 1 ],
					"destination" : [ "obj-28", 1 ],
					"hidden" : 0,
					"color" : [ 1.0, 0.0, 0.0, 0.388235 ],
					"midpoints" : [  ]
				}

			}
, 			{
				"patchline" : 				{
					"source" : [ "obj-4", 0 ],
					"destination" : [ "obj-85", 0 ],
					"hidden" : 0,
					"midpoints" : [  ]
				}

			}
, 			{
				"patchline" : 				{
					"source" : [ "obj-27", 0 ],
					"destination" : [ "obj-4", 0 ],
					"hidden" : 0,
					"midpoints" : [  ]
				}

			}
, 			{
				"patchline" : 				{
					"source" : [ "obj-3", 1 ],
					"destination" : [ "obj-37", 1 ],
					"hidden" : 0,
					"midpoints" : [  ]
				}

			}
, 			{
				"patchline" : 				{
					"source" : [ "obj-3", 0 ],
					"destination" : [ "obj-28", 1 ],
					"hidden" : 0,
					"midpoints" : [  ]
				}

			}
, 			{
				"patchline" : 				{
					"source" : [ "obj-2", 0 ],
					"destination" : [ "obj-3", 0 ],
					"hidden" : 0,
					"midpoints" : [  ]
				}

			}
, 			{
				"patchline" : 				{
					"source" : [ "obj-2", 1 ],
					"destination" : [ "obj-28", 1 ],
					"hidden" : 0,
					"midpoints" : [  ]
				}

			}
, 			{
				"patchline" : 				{
					"source" : [ "obj-37", 0 ],
					"destination" : [ "obj-34", 0 ],
					"hidden" : 0,
					"midpoints" : [  ]
				}

			}
, 			{
				"patchline" : 				{
					"source" : [ "obj-35", 1 ],
					"destination" : [ "obj-37", 0 ],
					"hidden" : 0,
					"midpoints" : [  ]
				}

			}
, 			{
				"patchline" : 				{
					"source" : [ "obj-36", 1 ],
					"destination" : [ "obj-28", 0 ],
					"hidden" : 0,
					"midpoints" : [  ]
				}

			}
, 			{
				"patchline" : 				{
					"source" : [ "obj-28", 0 ],
					"destination" : [ "obj-35", 0 ],
					"hidden" : 0,
					"midpoints" : [  ]
				}

			}
, 			{
				"patchline" : 				{
					"source" : [ "obj-35", 2 ],
					"destination" : [ "obj-26", 2 ],
					"hidden" : 0,
					"color" : [ 0.047059, 0.0, 1.0, 0.603922 ],
					"midpoints" : [ 120.5, 258.0, 250.0, 258.0, 250.0, 339.0, 119.5, 339.0 ]
				}

			}
, 			{
				"patchline" : 				{
					"source" : [ "obj-35", 0 ],
					"destination" : [ "obj-26", 0 ],
					"hidden" : 0,
					"color" : [ 1.0, 0.0, 0.0, 1.0 ],
					"midpoints" : [  ]
				}

			}
, 			{
				"patchline" : 				{
					"source" : [ "obj-26", 0 ],
					"destination" : [ "obj-43", 0 ],
					"hidden" : 0,
					"midpoints" : [  ]
				}

			}
, 			{
				"patchline" : 				{
					"source" : [ "obj-43", 0 ],
					"destination" : [ "obj-27", 1 ],
					"hidden" : 0,
					"midpoints" : [  ]
				}

			}
, 			{
				"patchline" : 				{
					"source" : [ "obj-36", 2 ],
					"destination" : [ "obj-27", 2 ],
					"hidden" : 0,
					"color" : [ 0.047059, 0.0, 1.0, 0.603922 ],
					"midpoints" : [ 103.5, 203.0, 274.0, 203.0, 274.0, 397.0, 79.5, 397.0 ]
				}

			}
, 			{
				"patchline" : 				{
					"source" : [ "obj-36", 0 ],
					"destination" : [ "obj-27", 0 ],
					"hidden" : 0,
					"color" : [ 1.0, 0.0, 0.0, 1.0 ],
					"midpoints" : [  ]
				}

			}
, 			{
				"patchline" : 				{
					"source" : [ "obj-33", 0 ],
					"destination" : [ "obj-26", 1 ],
					"hidden" : 0,
					"midpoints" : [  ]
				}

			}
, 			{
				"patchline" : 				{
					"source" : [ "obj-34", 0 ],
					"destination" : [ "obj-33", 0 ],
					"hidden" : 0,
					"midpoints" : [  ]
				}

			}
, 			{
				"patchline" : 				{
					"source" : [ "obj-82", 0 ],
					"destination" : [ "obj-7", 0 ],
					"hidden" : 0,
					"midpoints" : [  ]
				}

			}
, 			{
				"patchline" : 				{
					"source" : [ "obj-7", 1 ],
					"destination" : [ "obj-36", 0 ],
					"hidden" : 0,
					"midpoints" : [  ]
				}

			}
, 			{
				"patchline" : 				{
					"source" : [ "obj-83", 0 ],
					"destination" : [ "obj-7", 1 ],
					"hidden" : 0,
					"midpoints" : [  ]
				}

			}
, 			{
				"patchline" : 				{
					"source" : [ "obj-1", 0 ],
					"destination" : [ "obj-7", 2 ],
					"hidden" : 0,
					"midpoints" : [  ]
				}

			}
, 			{
				"patchline" : 				{
					"source" : [ "obj-84", 0 ],
					"destination" : [ "obj-7", 3 ],
					"hidden" : 0,
					"midpoints" : [  ]
				}

			}
, 			{
				"patchline" : 				{
					"source" : [ "obj-7", 2 ],
					"destination" : [ "obj-2", 0 ],
					"hidden" : 0,
					"midpoints" : [  ]
				}

			}
, 			{
				"patchline" : 				{
					"source" : [ "obj-7", 3 ],
					"destination" : [ "obj-37", 1 ],
					"hidden" : 0,
					"midpoints" : [  ]
				}

			}
, 			{
				"patchline" : 				{
					"source" : [ "obj-7", 4 ],
					"destination" : [ "obj-34", 1 ],
					"hidden" : 0,
					"midpoints" : [  ]
				}

			}
, 			{
				"patchline" : 				{
					"source" : [ "obj-7", 5 ],
					"destination" : [ "obj-5", 0 ],
					"hidden" : 0,
					"midpoints" : [  ]
				}

			}
 ]
	}

}
