{
	"patcher" : 	{
		"fileversion" : 1,
		"appversion" : 		{
			"major" : 7,
			"minor" : 3,
			"revision" : 4,
			"architecture" : "x64",
			"modernui" : 1
		}
,
		"rect" : [ 97.0, 79.0, 744.0, 553.0 ],
		"bglocked" : 0,
		"openinpresentation" : 0,
		"default_fontsize" : 12.0,
		"default_fontface" : 0,
		"default_fontname" : "Arial",
		"gridonopen" : 1,
		"gridsize" : [ 15.0, 15.0 ],
		"gridsnaponopen" : 1,
		"objectsnaponopen" : 1,
		"statusbarvisible" : 2,
		"toolbarvisible" : 1,
		"lefttoolbarpinned" : 0,
		"toptoolbarpinned" : 0,
		"righttoolbarpinned" : 0,
		"bottomtoolbarpinned" : 0,
		"toolbars_unpinned_last_save" : 0,
		"tallnewobj" : 0,
		"boxanimatetime" : 200,
		"enablehscroll" : 1,
		"enablevscroll" : 1,
		"devicewidth" : 0.0,
		"description" : "",
		"digest" : "",
		"tags" : "",
		"style" : "",
		"subpatcher_template" : "",
		"boxes" : [ 			{
				"box" : 				{
					"fontname" : "Arial",
					"fontsize" : 12.0,
					"hidden" : 1,
					"id" : "obj-37",
					"maxclass" : "newobj",
					"numinlets" : 1,
					"numoutlets" : 1,
					"outlettype" : [ "" ],
					"patching_rect" : [ 20.0, 207.0, 91.0, 22.0 ],
					"style" : "",
					"text" : "loadmess clear"
				}

			}
, 			{
				"box" : 				{
					"fontname" : "Arial",
					"fontsize" : 12.0,
					"hidden" : 1,
					"id" : "obj-23",
					"maxclass" : "message",
					"numinlets" : 2,
					"numoutlets" : 1,
					"outlettype" : [ "" ],
					"patching_rect" : [ 352.0, 558.0, 81.0, 22.0 ],
					"style" : "",
					"text" : "clean, wclose",
					"varname" : "wclose"
				}

			}
, 			{
				"box" : 				{
					"fontname" : "Arial Italic",
					"fontsize" : 7.978577,
					"id" : "obj-414",
					"maxclass" : "comment",
					"numinlets" : 1,
					"numoutlets" : 0,
					"patching_rect" : [ 150.0, 523.0, 37.0, 15.0 ],
					"style" : "",
					"text" : "chord...",
					"textcolor" : [ 0.756863, 0.0, 0.0, 1.0 ]
				}

			}
, 			{
				"box" : 				{
					"fontname" : "Arial Italic",
					"fontsize" : 7.978577,
					"id" : "obj-413",
					"maxclass" : "comment",
					"numinlets" : 1,
					"numoutlets" : 0,
					"patching_rect" : [ 127.0, 523.0, 33.0, 15.0 ],
					"style" : "",
					"text" : "chord",
					"textcolor" : [ 0.756863, 0.0, 0.0, 1.0 ]
				}

			}
, 			{
				"box" : 				{
					"fontname" : "Arial Italic",
					"fontsize" : 9.369385,
					"id" : "obj-411",
					"maxclass" : "comment",
					"numinlets" : 1,
					"numoutlets" : 0,
					"patching_rect" : [ 205.0, 467.289215, 37.0, 17.0 ],
					"style" : "",
					"text" : "voice",
					"textcolor" : [ 0.756863, 0.0, 0.0, 1.0 ]
				}

			}
, 			{
				"box" : 				{
					"fontname" : "Arial",
					"fontsize" : 12.0,
					"id" : "obj-412",
					"maxclass" : "comment",
					"numinlets" : 1,
					"numoutlets" : 0,
					"patching_rect" : [ 119.0, 467.0, 223.0, 20.0 ],
					"style" : "",
					"text" : "______________________________",
					"textcolor" : [ 0.890196, 0.0, 0.0, 1.0 ]
				}

			}
, 			{
				"box" : 				{
					"fontname" : "Arial Italic",
					"fontsize" : 9.369385,
					"id" : "obj-409",
					"maxclass" : "comment",
					"numinlets" : 1,
					"numoutlets" : 0,
					"patching_rect" : [ 258.0, 482.289215, 37.0, 17.0 ],
					"style" : "",
					"text" : "meas",
					"textcolor" : [ 0.756863, 0.0, 0.0, 1.0 ]
				}

			}
, 			{
				"box" : 				{
					"fontname" : "Arial Italic",
					"fontsize" : 9.369385,
					"id" : "obj-408",
					"maxclass" : "comment",
					"numinlets" : 1,
					"numoutlets" : 0,
					"patching_rect" : [ 159.0, 482.289215, 37.0, 17.0 ],
					"style" : "",
					"text" : "meas",
					"textcolor" : [ 0.756863, 0.0, 0.0, 1.0 ]
				}

			}
, 			{
				"box" : 				{
					"fontname" : "Arial",
					"fontsize" : 12.0,
					"id" : "obj-407",
					"maxclass" : "comment",
					"numinlets" : 1,
					"numoutlets" : 0,
					"patching_rect" : [ 127.0, 482.0, 193.0, 20.0 ],
					"style" : "",
					"text" : "_____________    ____________",
					"textcolor" : [ 0.890196, 0.0, 0.0, 1.0 ]
				}

			}
, 			{
				"box" : 				{
					"fontname" : "Arial",
					"fontsize" : 12.0,
					"id" : "obj-405",
					"maxclass" : "message",
					"numinlets" : 2,
					"numoutlets" : 1,
					"outlettype" : [ "" ],
					"patching_rect" : [ 119.0, 500.0, 211.0, 22.0 ],
					"style" : "",
					"text" : "( ( 1/4 1/4 1/4 1/4 ) ( 1/4 1/4 1/4 1/4 ) )"
				}

			}
, 			{
				"box" : 				{
					"fontname" : "Arial",
					"fontsize" : 12.0,
					"id" : "obj-404",
					"linecount" : 2,
					"maxclass" : "comment",
					"numinlets" : 1,
					"numoutlets" : 0,
					"patching_rect" : [ 14.0, 477.0, 110.0, 33.0 ],
					"style" : "",
					"text" : "...which is exactly our current case:"
				}

			}
, 			{
				"box" : 				{
					"hidden" : 1,
					"id" : "obj-397",
					"maxclass" : "button",
					"numinlets" : 1,
					"numoutlets" : 1,
					"outlettype" : [ "bang" ],
					"patching_rect" : [ 629.580627, 413.0, 20.0, 20.0 ],
					"style" : ""
				}

			}
, 			{
				"box" : 				{
					"hidden" : 1,
					"id" : "obj-398",
					"maxclass" : "button",
					"numinlets" : 1,
					"numoutlets" : 1,
					"outlettype" : [ "bang" ],
					"patching_rect" : [ 610.580627, 413.0, 20.0, 20.0 ],
					"style" : ""
				}

			}
, 			{
				"box" : 				{
					"hidden" : 1,
					"id" : "obj-399",
					"maxclass" : "button",
					"numinlets" : 1,
					"numoutlets" : 1,
					"outlettype" : [ "bang" ],
					"patching_rect" : [ 593.193542, 413.0, 20.0, 20.0 ],
					"style" : ""
				}

			}
, 			{
				"box" : 				{
					"hidden" : 1,
					"id" : "obj-400",
					"maxclass" : "button",
					"numinlets" : 1,
					"numoutlets" : 1,
					"outlettype" : [ "bang" ],
					"patching_rect" : [ 577.669373, 413.0, 20.0, 20.0 ],
					"style" : ""
				}

			}
, 			{
				"box" : 				{
					"fontname" : "Arial",
					"fontsize" : 11.085746,
					"hidden" : 1,
					"id" : "obj-401",
					"maxclass" : "newobj",
					"numinlets" : 1,
					"numoutlets" : 4,
					"outlettype" : [ "bang", "bang", "bang", "bang" ],
					"patching_rect" : [ 588.0, 378.207184, 53.0, 21.0 ],
					"style" : "",
					"text" : "t b b b b"
				}

			}
, 			{
				"box" : 				{
					"fontname" : "Arial Italic",
					"fontsize" : 19.456944,
					"id" : "obj-402",
					"maxclass" : "comment",
					"numinlets" : 1,
					"numoutlets" : 0,
					"patching_rect" : [ 584.0, 370.231659, 69.0, 28.0 ],
					"style" : "",
					"text" : "voice2",
					"textcolor" : [ 0.756863, 0.0, 0.0, 1.0 ]
				}

			}
, 			{
				"box" : 				{
					"fontname" : "Arial",
					"fontsize" : 17.971672,
					"id" : "obj-403",
					"maxclass" : "comment",
					"numinlets" : 1,
					"numoutlets" : 0,
					"patching_rect" : [ 579.0, 371.545441, 75.0, 27.0 ],
					"style" : "",
					"text" : "(           )",
					"textcolor" : [ 0.876173, 0.203235, 0.075868, 1.0 ]
				}

			}
, 			{
				"box" : 				{
					"hidden" : 1,
					"id" : "obj-396",
					"maxclass" : "button",
					"numinlets" : 1,
					"numoutlets" : 1,
					"outlettype" : [ "bang" ],
					"patching_rect" : [ 646.580627, 271.0, 20.0, 20.0 ],
					"style" : ""
				}

			}
, 			{
				"box" : 				{
					"hidden" : 1,
					"id" : "obj-393",
					"maxclass" : "button",
					"numinlets" : 1,
					"numoutlets" : 1,
					"outlettype" : [ "bang" ],
					"patching_rect" : [ 627.580627, 271.0, 20.0, 20.0 ],
					"style" : ""
				}

			}
, 			{
				"box" : 				{
					"hidden" : 1,
					"id" : "obj-394",
					"maxclass" : "button",
					"numinlets" : 1,
					"numoutlets" : 1,
					"outlettype" : [ "bang" ],
					"patching_rect" : [ 610.193542, 271.0, 20.0, 20.0 ],
					"style" : ""
				}

			}
, 			{
				"box" : 				{
					"hidden" : 1,
					"id" : "obj-395",
					"maxclass" : "button",
					"numinlets" : 1,
					"numoutlets" : 1,
					"outlettype" : [ "bang" ],
					"patching_rect" : [ 594.669373, 271.0, 20.0, 20.0 ],
					"style" : ""
				}

			}
, 			{
				"box" : 				{
					"fontname" : "Arial",
					"fontsize" : 8.251057,
					"hidden" : 1,
					"id" : "obj-356",
					"maxclass" : "newobj",
					"numinlets" : 1,
					"numoutlets" : 2,
					"outlettype" : [ "bang", "bang" ],
					"patching_rect" : [ 411.0, 450.414368, 32.5, 18.0 ],
					"style" : "",
					"text" : "t b b"
				}

			}
, 			{
				"box" : 				{
					"fontname" : "Arial",
					"fontsize" : 8.251057,
					"hidden" : 1,
					"id" : "obj-357",
					"maxclass" : "newobj",
					"numinlets" : 1,
					"numoutlets" : 2,
					"outlettype" : [ "bang", "bang" ],
					"patching_rect" : [ 362.0, 451.414368, 32.5, 18.0 ],
					"style" : "",
					"text" : "t b b"
				}

			}
, 			{
				"box" : 				{
					"hidden" : 1,
					"id" : "obj-361",
					"maxclass" : "button",
					"numinlets" : 1,
					"numoutlets" : 1,
					"outlettype" : [ "bang" ],
					"patching_rect" : [ 574.580627, 441.0, 20.0, 20.0 ],
					"style" : ""
				}

			}
, 			{
				"box" : 				{
					"hidden" : 1,
					"id" : "obj-362",
					"maxclass" : "button",
					"numinlets" : 1,
					"numoutlets" : 1,
					"outlettype" : [ "bang" ],
					"patching_rect" : [ 557.193542, 441.0, 20.0, 20.0 ],
					"style" : ""
				}

			}
, 			{
				"box" : 				{
					"hidden" : 1,
					"id" : "obj-363",
					"maxclass" : "button",
					"numinlets" : 1,
					"numoutlets" : 1,
					"outlettype" : [ "bang" ],
					"patching_rect" : [ 541.669373, 441.0, 20.0, 20.0 ],
					"style" : ""
				}

			}
, 			{
				"box" : 				{
					"hidden" : 1,
					"id" : "obj-364",
					"maxclass" : "button",
					"numinlets" : 1,
					"numoutlets" : 1,
					"outlettype" : [ "bang" ],
					"patching_rect" : [ 524.903198, 441.0, 20.0, 20.0 ],
					"style" : ""
				}

			}
, 			{
				"box" : 				{
					"hidden" : 1,
					"id" : "obj-365",
					"maxclass" : "button",
					"numinlets" : 1,
					"numoutlets" : 1,
					"outlettype" : [ "bang" ],
					"patching_rect" : [ 510.0, 441.0, 20.0, 20.0 ],
					"style" : ""
				}

			}
, 			{
				"box" : 				{
					"fontname" : "Arial",
					"fontsize" : 7.449851,
					"hidden" : 1,
					"id" : "obj-366",
					"maxclass" : "newobj",
					"numinlets" : 1,
					"numoutlets" : 5,
					"outlettype" : [ "bang", "bang", "bang", "bang", "bang" ],
					"patching_rect" : [ 521.0, 413.602753, 54.0, 17.0 ],
					"style" : "",
					"text" : "t b b b b b"
				}

			}
, 			{
				"box" : 				{
					"hidden" : 1,
					"id" : "obj-367",
					"maxclass" : "button",
					"numinlets" : 1,
					"numoutlets" : 1,
					"outlettype" : [ "bang" ],
					"patching_rect" : [ 483.0, 448.0, 20.0, 20.0 ],
					"style" : ""
				}

			}
, 			{
				"box" : 				{
					"hidden" : 1,
					"id" : "obj-368",
					"maxclass" : "button",
					"numinlets" : 1,
					"numoutlets" : 1,
					"outlettype" : [ "bang" ],
					"patching_rect" : [ 463.0, 448.0, 20.0, 20.0 ],
					"style" : ""
				}

			}
, 			{
				"box" : 				{
					"hidden" : 1,
					"id" : "obj-369",
					"maxclass" : "button",
					"numinlets" : 1,
					"numoutlets" : 1,
					"outlettype" : [ "bang" ],
					"patching_rect" : [ 444.0, 448.0, 20.0, 20.0 ],
					"style" : ""
				}

			}
, 			{
				"box" : 				{
					"fontname" : "Arial",
					"fontsize" : 8.251057,
					"hidden" : 1,
					"id" : "obj-370",
					"maxclass" : "newobj",
					"numinlets" : 1,
					"numoutlets" : 2,
					"outlettype" : [ "bang", "bang" ],
					"patching_rect" : [ 411.0, 448.0, 32.5, 18.0 ],
					"style" : "",
					"text" : "t b b"
				}

			}
, 			{
				"box" : 				{
					"hidden" : 1,
					"id" : "obj-371",
					"maxclass" : "button",
					"numinlets" : 1,
					"numoutlets" : 1,
					"outlettype" : [ "bang" ],
					"patching_rect" : [ 377.0, 448.0, 20.0, 20.0 ],
					"style" : ""
				}

			}
, 			{
				"box" : 				{
					"fontname" : "Arial",
					"fontsize" : 8.251057,
					"hidden" : 1,
					"id" : "obj-372",
					"maxclass" : "newobj",
					"numinlets" : 1,
					"numoutlets" : 5,
					"outlettype" : [ "bang", "bang", "bang", "bang", "bang" ],
					"patching_rect" : [ 427.0, 413.414368, 51.0, 18.0 ],
					"style" : "",
					"text" : "t b b b b b"
				}

			}
, 			{
				"box" : 				{
					"fontname" : "Arial",
					"fontsize" : 21.21883,
					"hidden" : 1,
					"id" : "obj-373",
					"maxclass" : "newobj",
					"numinlets" : 1,
					"numoutlets" : 2,
					"outlettype" : [ "bang", "bang" ],
					"patching_rect" : [ 458.0, 371.411774, 53.0, 32.0 ],
					"style" : "",
					"text" : "t b b"
				}

			}
, 			{
				"box" : 				{
					"fontname" : "Arial Italic",
					"fontsize" : 11.546928,
					"id" : "obj-374",
					"maxclass" : "comment",
					"numinlets" : 1,
					"numoutlets" : 0,
					"patching_rect" : [ 360.0, 447.855255, 109.0, 19.0 ],
					"style" : "",
					"text" : "(chord)  (chord)",
					"textcolor" : [ 0.756863, 0.0, 0.0, 1.0 ]
				}

			}
, 			{
				"box" : 				{
					"fontname" : "Arial Italic",
					"fontsize" : 12.600451,
					"id" : "obj-375",
					"maxclass" : "comment",
					"numinlets" : 1,
					"numoutlets" : 0,
					"patching_rect" : [ 522.0, 411.221649, 56.0, 21.0 ],
					"style" : "",
					"text" : "meas2 ",
					"textcolor" : [ 0.756863, 0.0, 0.0, 1.0 ]
				}

			}
, 			{
				"box" : 				{
					"fontname" : "Arial",
					"fontsize" : 12.0,
					"id" : "obj-376",
					"maxclass" : "comment",
					"numinlets" : 1,
					"numoutlets" : 0,
					"patching_rect" : [ 517.0, 411.0, 58.0, 20.0 ],
					"style" : "",
					"text" : "(            )",
					"textcolor" : [ 0.876173, 0.203235, 0.075868, 1.0 ]
				}

			}
, 			{
				"box" : 				{
					"fontname" : "Arial Italic",
					"fontsize" : 12.600451,
					"id" : "obj-377",
					"maxclass" : "comment",
					"numinlets" : 1,
					"numoutlets" : 0,
					"patching_rect" : [ 429.0, 411.221649, 56.0, 21.0 ],
					"style" : "",
					"text" : "meas1 ",
					"textcolor" : [ 0.756863, 0.0, 0.0, 1.0 ]
				}

			}
, 			{
				"box" : 				{
					"fontname" : "Arial",
					"fontsize" : 12.0,
					"id" : "obj-378",
					"maxclass" : "comment",
					"numinlets" : 1,
					"numoutlets" : 0,
					"patching_rect" : [ 424.0, 411.0, 58.0, 20.0 ],
					"style" : "",
					"text" : "(            )",
					"textcolor" : [ 0.876173, 0.203235, 0.075868, 1.0 ]
				}

			}
, 			{
				"box" : 				{
					"fontname" : "Arial",
					"fontsize" : 12.0,
					"id" : "obj-379",
					"maxclass" : "comment",
					"numinlets" : 1,
					"numoutlets" : 0,
					"patching_rect" : [ 642.0, 440.0, 24.0, 20.0 ],
					"style" : "",
					"text" : "__",
					"textcolor" : [ 0.922835, 0.096635, 0.064561, 1.0 ]
				}

			}
, 			{
				"box" : 				{
					"fontname" : "Arial",
					"fontsize" : 12.0,
					"id" : "obj-380",
					"maxclass" : "comment",
					"numinlets" : 1,
					"numoutlets" : 0,
					"patching_rect" : [ 639.0, 446.0, 19.0, 20.0 ],
					"style" : "",
					"text" : "<",
					"textcolor" : [ 0.922835, 0.096635, 0.064561, 1.0 ]
				}

			}
, 			{
				"box" : 				{
					"fontname" : "Arial Italic",
					"fontsize" : 9.369385,
					"id" : "obj-381",
					"maxclass" : "comment",
					"numinlets" : 1,
					"numoutlets" : 0,
					"patching_rect" : [ 658.0, 449.289215, 37.0, 17.0 ],
					"style" : "",
					"text" : "level3",
					"textcolor" : [ 0.756863, 0.0, 0.0, 1.0 ]
				}

			}
, 			{
				"box" : 				{
					"fontname" : "Arial",
					"fontsize" : 12.0,
					"id" : "obj-382",
					"maxclass" : "comment",
					"numinlets" : 1,
					"numoutlets" : 0,
					"patching_rect" : [ 650.0, 403.0, 24.0, 20.0 ],
					"style" : "",
					"text" : "__",
					"textcolor" : [ 0.922835, 0.096635, 0.064561, 1.0 ]
				}

			}
, 			{
				"box" : 				{
					"fontname" : "Arial",
					"fontsize" : 12.0,
					"id" : "obj-383",
					"maxclass" : "comment",
					"numinlets" : 1,
					"numoutlets" : 0,
					"patching_rect" : [ 647.0, 409.0, 19.0, 20.0 ],
					"style" : "",
					"text" : "<",
					"textcolor" : [ 0.922835, 0.096635, 0.064561, 1.0 ]
				}

			}
, 			{
				"box" : 				{
					"fontname" : "Arial",
					"fontsize" : 12.0,
					"id" : "obj-384",
					"maxclass" : "comment",
					"numinlets" : 1,
					"numoutlets" : 0,
					"patching_rect" : [ 662.0, 374.0, 24.0, 20.0 ],
					"style" : "",
					"text" : "__",
					"textcolor" : [ 0.922835, 0.096635, 0.064561, 1.0 ]
				}

			}
, 			{
				"box" : 				{
					"fontname" : "Arial",
					"fontsize" : 12.0,
					"id" : "obj-385",
					"maxclass" : "comment",
					"numinlets" : 1,
					"numoutlets" : 0,
					"patching_rect" : [ 659.0, 380.0, 19.0, 20.0 ],
					"style" : "",
					"text" : "<",
					"textcolor" : [ 0.922835, 0.096635, 0.064561, 1.0 ]
				}

			}
, 			{
				"box" : 				{
					"fontname" : "Arial Italic",
					"fontsize" : 9.369385,
					"id" : "obj-386",
					"maxclass" : "comment",
					"numinlets" : 1,
					"numoutlets" : 0,
					"patching_rect" : [ 666.0, 412.289215, 37.0, 17.0 ],
					"style" : "",
					"text" : "level 2",
					"textcolor" : [ 0.756863, 0.0, 0.0, 1.0 ]
				}

			}
, 			{
				"box" : 				{
					"fontname" : "Arial Italic",
					"fontsize" : 9.369385,
					"id" : "obj-387",
					"maxclass" : "comment",
					"numinlets" : 1,
					"numoutlets" : 0,
					"patching_rect" : [ 678.0, 383.289215, 37.0, 17.0 ],
					"style" : "",
					"text" : "level 1",
					"textcolor" : [ 0.756863, 0.0, 0.0, 1.0 ]
				}

			}
, 			{
				"box" : 				{
					"fontname" : "Arial Italic",
					"fontsize" : 19.456944,
					"id" : "obj-388",
					"maxclass" : "comment",
					"numinlets" : 1,
					"numoutlets" : 0,
					"patching_rect" : [ 452.0, 375.231659, 69.0, 28.0 ],
					"style" : "",
					"text" : "voice1",
					"textcolor" : [ 0.756863, 0.0, 0.0, 1.0 ]
				}

			}
, 			{
				"box" : 				{
					"fontname" : "Arial",
					"fontsize" : 17.971672,
					"id" : "obj-389",
					"maxclass" : "comment",
					"numinlets" : 1,
					"numoutlets" : 0,
					"patching_rect" : [ 447.0, 376.545441, 75.0, 27.0 ],
					"style" : "",
					"text" : "(           )",
					"textcolor" : [ 0.876173, 0.203235, 0.075868, 1.0 ]
				}

			}
, 			{
				"box" : 				{
					"fontname" : "Arial",
					"fontsize" : 12.0,
					"id" : "obj-355",
					"linecount" : 4,
					"maxclass" : "comment",
					"numinlets" : 1,
					"numoutlets" : 0,
					"patching_rect" : [ 5.0, 394.0, 352.0, 60.0 ],
					"style" : "",
					"text" : "However, not all parameters are note-related: some parameters (as the durations) just affect the whole chord, thus the 4th level will NOT be there, and the formatted list will stop at the first element. Thus the tree will only have the following shape:"
				}

			}
, 			{
				"box" : 				{
					"fontname" : "Arial",
					"fontsize" : 12.0,
					"hidden" : 1,
					"id" : "obj-198",
					"maxclass" : "newobj",
					"numinlets" : 1,
					"numoutlets" : 1,
					"outlettype" : [ "" ],
					"patching_rect" : [ 352.0, 610.5, 183.0, 22.0 ],
					"style" : "",
					"text" : "linksections 0 1 a \"Brother John\""
				}

			}
, 			{
				"box" : 				{
					"fontname" : "Arial",
					"fontsize" : 12.0,
					"hidden" : 1,
					"id" : "obj-51",
					"maxclass" : "newobj",
					"numinlets" : 1,
					"numoutlets" : 2,
					"outlettype" : [ "", "" ],
					"patching_rect" : [ 352.0, 583.0, 69.0, 22.0 ],
					"save" : [ "#N", "thispatcher", ";", "#Q", "end", ";" ],
					"style" : "",
					"text" : "thispatcher"
				}

			}
, 			{
				"box" : 				{
					"fontname" : "Arial",
					"fontsize" : 12.0,
					"id" : "obj-45",
					"maxclass" : "comment",
					"numinlets" : 1,
					"numoutlets" : 0,
					"patching_rect" : [ 664.0, 328.0, 24.0, 20.0 ],
					"style" : "",
					"text" : "__",
					"textcolor" : [ 0.922835, 0.096635, 0.064561, 1.0 ]
				}

			}
, 			{
				"box" : 				{
					"fontname" : "Arial",
					"fontsize" : 12.0,
					"id" : "obj-46",
					"maxclass" : "comment",
					"numinlets" : 1,
					"numoutlets" : 0,
					"patching_rect" : [ 661.0, 334.0, 19.0, 20.0 ],
					"style" : "",
					"text" : "<",
					"textcolor" : [ 0.922835, 0.096635, 0.064561, 1.0 ]
				}

			}
, 			{
				"box" : 				{
					"fontname" : "Arial Italic",
					"fontsize" : 9.369385,
					"id" : "obj-47",
					"maxclass" : "comment",
					"numinlets" : 1,
					"numoutlets" : 0,
					"patching_rect" : [ 680.0, 337.289215, 37.0, 17.0 ],
					"style" : "",
					"text" : "level4",
					"textcolor" : [ 0.756863, 0.0, 0.0, 1.0 ]
				}

			}
, 			{
				"box" : 				{
					"hidden" : 1,
					"id" : "obj-41",
					"maxclass" : "button",
					"numinlets" : 1,
					"numoutlets" : 1,
					"outlettype" : [ "bang" ],
					"patching_rect" : [ 445.0, 337.0, 20.0, 20.0 ],
					"style" : ""
				}

			}
, 			{
				"box" : 				{
					"hidden" : 1,
					"id" : "obj-42",
					"maxclass" : "button",
					"numinlets" : 1,
					"numoutlets" : 1,
					"outlettype" : [ "bang" ],
					"patching_rect" : [ 414.0, 338.0, 20.0, 20.0 ],
					"style" : ""
				}

			}
, 			{
				"box" : 				{
					"fontname" : "Arial",
					"fontsize" : 8.251057,
					"hidden" : 1,
					"id" : "obj-43",
					"maxclass" : "newobj",
					"numinlets" : 1,
					"numoutlets" : 2,
					"outlettype" : [ "bang", "bang" ],
					"patching_rect" : [ 412.0, 303.414368, 32.5, 18.0 ],
					"style" : "",
					"text" : "t b b"
				}

			}
, 			{
				"box" : 				{
					"fontname" : "Arial Italic",
					"fontsize" : 9.935838,
					"id" : "obj-39",
					"maxclass" : "comment",
					"numinlets" : 1,
					"numoutlets" : 0,
					"patching_rect" : [ 406.0, 338.047913, 68.0, 18.0 ],
					"style" : "",
					"text" : "(note)  (note)",
					"textcolor" : [ 0.756863, 0.0, 0.0, 1.0 ]
				}

			}
, 			{
				"box" : 				{
					"hidden" : 1,
					"id" : "obj-24",
					"maxclass" : "button",
					"numinlets" : 1,
					"numoutlets" : 1,
					"outlettype" : [ "bang" ],
					"patching_rect" : [ 371.0, 337.0, 20.0, 20.0 ],
					"style" : ""
				}

			}
, 			{
				"box" : 				{
					"hidden" : 1,
					"id" : "obj-25",
					"maxclass" : "button",
					"numinlets" : 1,
					"numoutlets" : 1,
					"outlettype" : [ "bang" ],
					"patching_rect" : [ 340.0, 337.0, 20.0, 20.0 ],
					"style" : ""
				}

			}
, 			{
				"box" : 				{
					"fontname" : "Arial",
					"fontsize" : 8.251057,
					"hidden" : 1,
					"id" : "obj-26",
					"maxclass" : "newobj",
					"numinlets" : 1,
					"numoutlets" : 2,
					"outlettype" : [ "bang", "bang" ],
					"patching_rect" : [ 363.0, 304.414368, 32.5, 18.0 ],
					"style" : "",
					"text" : "t b b"
				}

			}
, 			{
				"box" : 				{
					"fontname" : "Arial Italic",
					"fontsize" : 9.935838,
					"id" : "obj-31",
					"maxclass" : "comment",
					"numinlets" : 1,
					"numoutlets" : 0,
					"patching_rect" : [ 333.0, 338.047913, 68.0, 18.0 ],
					"style" : "",
					"text" : "(note)  (note)",
					"textcolor" : [ 0.756863, 0.0, 0.0, 1.0 ]
				}

			}
, 			{
				"box" : 				{
					"fontname" : "Arial",
					"fontsize" : 12.0,
					"id" : "obj-21",
					"linecount" : 3,
					"maxclass" : "comment",
					"numinlets" : 1,
					"numoutlets" : 0,
					"patching_rect" : [ 16.0, 310.0, 328.0, 47.0 ],
					"style" : "",
					"text" : "Notice that, when you've inserted all the parameters that you want to set, a bang must be sent (in ANY inlet) in order the modifications to be effective!"
				}

			}
, 			{
				"box" : 				{
					"fontname" : "Arial",
					"fontsize" : 12.0,
					"id" : "obj-16",
					"linecount" : 3,
					"maxclass" : "comment",
					"numinlets" : 1,
					"numoutlets" : 0,
					"patching_rect" : [ 398.0, 177.0, 319.0, 47.0 ],
					"style" : "",
					"text" : "This means that voices contain measures, which contain chords, which contain notes. Thus all lists given as parameters must obey to this nesting structure."
				}

			}
, 			{
				"box" : 				{
					"fontname" : "Arial",
					"fontsize" : 12.0,
					"id" : "obj-15",
					"maxclass" : "comment",
					"numinlets" : 1,
					"numoutlets" : 0,
					"patching_rect" : [ 421.0, 158.0, 207.0, 20.0 ],
					"style" : "",
					"text" : "voices > measures > chords > notes ",
					"textcolor" : [ 0.775479, 0.049729, 0.044373, 1.0 ]
				}

			}
, 			{
				"box" : 				{
					"fontname" : "Arial Italic",
					"fontsize" : 9.231937,
					"id" : "obj-12",
					"maxclass" : "comment",
					"numinlets" : 1,
					"numoutlets" : 0,
					"patching_rect" : [ 622.0, 160.547623, 71.0, 17.0 ],
					"style" : "",
					"text" : "( > more...!!! )",
					"textcolor" : [ 0.775479, 0.049729, 0.044373, 1.0 ]
				}

			}
, 			{
				"box" : 				{
					"fontname" : "Arial",
					"fontsize" : 12.0,
					"id" : "obj-9",
					"linecount" : 4,
					"maxclass" : "comment",
					"numinlets" : 1,
					"numoutlets" : 0,
					"patching_rect" : [ 5.0, 136.0, 163.0, 60.0 ],
					"style" : "",
					"text" : "If we send a list (formatted properly), [bach.score] understands that we want to assign some durations!"
				}

			}
, 			{
				"box" : 				{
					"fontname" : "Arial",
					"fontsize" : 11.085746,
					"hidden" : 1,
					"id" : "obj-3",
					"maxclass" : "newobj",
					"numinlets" : 1,
					"numoutlets" : 4,
					"outlettype" : [ "bang", "bang", "bang", "bang" ],
					"patching_rect" : [ 605.0, 236.207184, 53.0, 21.0 ],
					"style" : "",
					"text" : "t b b b b"
				}

			}
, 			{
				"box" : 				{
					"fontname" : "Arial Italic",
					"fontsize" : 19.456944,
					"id" : "obj-5",
					"maxclass" : "comment",
					"numinlets" : 1,
					"numoutlets" : 0,
					"patching_rect" : [ 601.0, 228.231659, 69.0, 28.0 ],
					"style" : "",
					"text" : "voice2",
					"textcolor" : [ 0.756863, 0.0, 0.0, 1.0 ]
				}

			}
, 			{
				"box" : 				{
					"fontname" : "Arial",
					"fontsize" : 17.971672,
					"id" : "obj-7",
					"maxclass" : "comment",
					"numinlets" : 1,
					"numoutlets" : 0,
					"patching_rect" : [ 596.0, 229.545441, 75.0, 27.0 ],
					"style" : "",
					"text" : "(           )",
					"textcolor" : [ 0.876173, 0.203235, 0.075868, 1.0 ]
				}

			}
, 			{
				"box" : 				{
					"fontname" : "Arial",
					"fontsize" : 12.0,
					"id" : "obj-2",
					"linecount" : 3,
					"maxclass" : "comment",
					"numinlets" : 1,
					"numoutlets" : 0,
					"patching_rect" : [ 3.0, 76.0, 717.0, 47.0 ],
					"style" : "",
					"text" : "[bach.score] has seven different inlets and even more outlets. The first seven inlets are coupled with the first seven outlets, meaning that they deal with the same parameter. Each inlet/outlet couple will allow you to set/get a given parameter. For example, the 4th inlet/outlet couple will be in charge for the durations."
				}

			}
, 			{
				"box" : 				{
					"fontname" : "Arial",
					"fontsize" : 12.0,
					"hidden" : 1,
					"id" : "obj-4",
					"maxclass" : "newobj",
					"numinlets" : 1,
					"numoutlets" : 0,
					"patching_rect" : [ 719.0, 7.0, 56.0, 22.0 ],
					"style" : "",
					"text" : "onecopy"
				}

			}
, 			{
				"box" : 				{
					"fontname" : "Arial",
					"fontsize" : 12.0,
					"id" : "obj-93",
					"linecount" : 2,
					"maxclass" : "comment",
					"numinlets" : 1,
					"numoutlets" : 0,
					"patching_rect" : [ 397.0, 126.0, 322.0, 33.0 ],
					"style" : "",
					"text" : "As we said, the list must be properly formatted. Score has a hierarchical structure underlying its elements:"
				}

			}
, 			{
				"box" : 				{
					"hidden" : 1,
					"id" : "obj-85",
					"maxclass" : "button",
					"numinlets" : 1,
					"numoutlets" : 1,
					"outlettype" : [ "bang" ],
					"patching_rect" : [ 568.580627, 297.0, 20.0, 20.0 ],
					"style" : ""
				}

			}
, 			{
				"box" : 				{
					"hidden" : 1,
					"id" : "obj-86",
					"maxclass" : "button",
					"numinlets" : 1,
					"numoutlets" : 1,
					"outlettype" : [ "bang" ],
					"patching_rect" : [ 551.193542, 297.0, 20.0, 20.0 ],
					"style" : ""
				}

			}
, 			{
				"box" : 				{
					"hidden" : 1,
					"id" : "obj-88",
					"maxclass" : "button",
					"numinlets" : 1,
					"numoutlets" : 1,
					"outlettype" : [ "bang" ],
					"patching_rect" : [ 535.669373, 297.0, 20.0, 20.0 ],
					"style" : ""
				}

			}
, 			{
				"box" : 				{
					"hidden" : 1,
					"id" : "obj-89",
					"maxclass" : "button",
					"numinlets" : 1,
					"numoutlets" : 1,
					"outlettype" : [ "bang" ],
					"patching_rect" : [ 518.903198, 297.0, 20.0, 20.0 ],
					"style" : ""
				}

			}
, 			{
				"box" : 				{
					"hidden" : 1,
					"id" : "obj-90",
					"maxclass" : "button",
					"numinlets" : 1,
					"numoutlets" : 1,
					"outlettype" : [ "bang" ],
					"patching_rect" : [ 504.0, 297.0, 20.0, 20.0 ],
					"style" : ""
				}

			}
, 			{
				"box" : 				{
					"fontname" : "Arial",
					"fontsize" : 7.449851,
					"hidden" : 1,
					"id" : "obj-91",
					"maxclass" : "newobj",
					"numinlets" : 1,
					"numoutlets" : 5,
					"outlettype" : [ "bang", "bang", "bang", "bang", "bang" ],
					"patching_rect" : [ 515.0, 269.602753, 54.0, 17.0 ],
					"style" : "",
					"text" : "t b b b b b"
				}

			}
, 			{
				"box" : 				{
					"hidden" : 1,
					"id" : "obj-84",
					"maxclass" : "button",
					"numinlets" : 1,
					"numoutlets" : 1,
					"outlettype" : [ "bang" ],
					"patching_rect" : [ 484.0, 301.0, 20.0, 20.0 ],
					"style" : ""
				}

			}
, 			{
				"box" : 				{
					"hidden" : 1,
					"id" : "obj-83",
					"maxclass" : "button",
					"numinlets" : 1,
					"numoutlets" : 1,
					"outlettype" : [ "bang" ],
					"patching_rect" : [ 464.0, 301.0, 20.0, 20.0 ],
					"style" : ""
				}

			}
, 			{
				"box" : 				{
					"hidden" : 1,
					"id" : "obj-82",
					"maxclass" : "button",
					"numinlets" : 1,
					"numoutlets" : 1,
					"outlettype" : [ "bang" ],
					"patching_rect" : [ 445.0, 301.0, 20.0, 20.0 ],
					"style" : ""
				}

			}
, 			{
				"box" : 				{
					"fontname" : "Arial",
					"fontsize" : 8.251057,
					"hidden" : 1,
					"id" : "obj-81",
					"maxclass" : "newobj",
					"numinlets" : 1,
					"numoutlets" : 2,
					"outlettype" : [ "bang", "bang" ],
					"patching_rect" : [ 412.0, 301.0, 32.5, 18.0 ],
					"style" : "",
					"text" : "t b b"
				}

			}
, 			{
				"box" : 				{
					"hidden" : 1,
					"id" : "obj-80",
					"maxclass" : "button",
					"numinlets" : 1,
					"numoutlets" : 1,
					"outlettype" : [ "bang" ],
					"patching_rect" : [ 378.0, 301.0, 20.0, 20.0 ],
					"style" : ""
				}

			}
, 			{
				"box" : 				{
					"fontname" : "Arial",
					"fontsize" : 8.251057,
					"hidden" : 1,
					"id" : "obj-78",
					"maxclass" : "newobj",
					"numinlets" : 1,
					"numoutlets" : 5,
					"outlettype" : [ "bang", "bang", "bang", "bang", "bang" ],
					"patching_rect" : [ 428.0, 266.414368, 51.0, 18.0 ],
					"style" : "",
					"text" : "t b b b b b"
				}

			}
, 			{
				"box" : 				{
					"fontname" : "Arial",
					"fontsize" : 21.21883,
					"hidden" : 1,
					"id" : "obj-77",
					"maxclass" : "newobj",
					"numinlets" : 1,
					"numoutlets" : 2,
					"outlettype" : [ "bang", "bang" ],
					"patching_rect" : [ 459.0, 224.411774, 53.0, 32.0 ],
					"style" : "",
					"text" : "t b b"
				}

			}
, 			{
				"box" : 				{
					"fontname" : "Arial Italic",
					"fontsize" : 11.546928,
					"id" : "obj-75",
					"maxclass" : "comment",
					"numinlets" : 1,
					"numoutlets" : 0,
					"patching_rect" : [ 361.0, 300.855255, 109.0, 19.0 ],
					"style" : "",
					"text" : "(chord)  (chord)",
					"textcolor" : [ 0.756863, 0.0, 0.0, 1.0 ]
				}

			}
, 			{
				"box" : 				{
					"fontname" : "Arial Italic",
					"fontsize" : 12.600451,
					"id" : "obj-71",
					"maxclass" : "comment",
					"numinlets" : 1,
					"numoutlets" : 0,
					"patching_rect" : [ 516.0, 267.221649, 56.0, 21.0 ],
					"style" : "",
					"text" : "meas2 ",
					"textcolor" : [ 0.756863, 0.0, 0.0, 1.0 ]
				}

			}
, 			{
				"box" : 				{
					"fontname" : "Arial",
					"fontsize" : 12.0,
					"id" : "obj-72",
					"maxclass" : "comment",
					"numinlets" : 1,
					"numoutlets" : 0,
					"patching_rect" : [ 511.0, 267.0, 58.0, 20.0 ],
					"style" : "",
					"text" : "(            )",
					"textcolor" : [ 0.876173, 0.203235, 0.075868, 1.0 ]
				}

			}
, 			{
				"box" : 				{
					"fontname" : "Arial Italic",
					"fontsize" : 12.600451,
					"id" : "obj-69",
					"maxclass" : "comment",
					"numinlets" : 1,
					"numoutlets" : 0,
					"patching_rect" : [ 430.0, 264.221649, 56.0, 21.0 ],
					"style" : "",
					"text" : "meas1 ",
					"textcolor" : [ 0.756863, 0.0, 0.0, 1.0 ]
				}

			}
, 			{
				"box" : 				{
					"fontname" : "Arial",
					"fontsize" : 12.0,
					"id" : "obj-70",
					"maxclass" : "comment",
					"numinlets" : 1,
					"numoutlets" : 0,
					"patching_rect" : [ 425.0, 264.0, 58.0, 20.0 ],
					"style" : "",
					"text" : "(            )",
					"textcolor" : [ 0.876173, 0.203235, 0.075868, 1.0 ]
				}

			}
, 			{
				"box" : 				{
					"fontname" : "Arial",
					"fontsize" : 12.0,
					"id" : "obj-33",
					"maxclass" : "comment",
					"numinlets" : 1,
					"numoutlets" : 0,
					"patching_rect" : [ 673.0, 293.0, 24.0, 20.0 ],
					"style" : "",
					"text" : "__",
					"textcolor" : [ 0.922835, 0.096635, 0.064561, 1.0 ]
				}

			}
, 			{
				"box" : 				{
					"fontname" : "Arial",
					"fontsize" : 12.0,
					"id" : "obj-34",
					"maxclass" : "comment",
					"numinlets" : 1,
					"numoutlets" : 0,
					"patching_rect" : [ 670.0, 299.0, 19.0, 20.0 ],
					"style" : "",
					"text" : "<",
					"textcolor" : [ 0.922835, 0.096635, 0.064561, 1.0 ]
				}

			}
, 			{
				"box" : 				{
					"fontname" : "Arial Italic",
					"fontsize" : 9.369385,
					"id" : "obj-36",
					"maxclass" : "comment",
					"numinlets" : 1,
					"numoutlets" : 0,
					"patching_rect" : [ 689.0, 302.289215, 37.0, 17.0 ],
					"style" : "",
					"text" : "level3",
					"textcolor" : [ 0.756863, 0.0, 0.0, 1.0 ]
				}

			}
, 			{
				"box" : 				{
					"fontname" : "Arial",
					"fontsize" : 12.0,
					"id" : "obj-17",
					"maxclass" : "comment",
					"numinlets" : 1,
					"numoutlets" : 0,
					"patching_rect" : [ 681.0, 256.0, 24.0, 20.0 ],
					"style" : "",
					"text" : "__",
					"textcolor" : [ 0.922835, 0.096635, 0.064561, 1.0 ]
				}

			}
, 			{
				"box" : 				{
					"fontname" : "Arial",
					"fontsize" : 12.0,
					"id" : "obj-18",
					"maxclass" : "comment",
					"numinlets" : 1,
					"numoutlets" : 0,
					"patching_rect" : [ 678.0, 262.0, 19.0, 20.0 ],
					"style" : "",
					"text" : "<",
					"textcolor" : [ 0.922835, 0.096635, 0.064561, 1.0 ]
				}

			}
, 			{
				"box" : 				{
					"fontname" : "Arial",
					"fontsize" : 12.0,
					"id" : "obj-27",
					"maxclass" : "comment",
					"numinlets" : 1,
					"numoutlets" : 0,
					"patching_rect" : [ 678.0, 227.0, 24.0, 20.0 ],
					"style" : "",
					"text" : "__",
					"textcolor" : [ 0.922835, 0.096635, 0.064561, 1.0 ]
				}

			}
, 			{
				"box" : 				{
					"fontname" : "Arial",
					"fontsize" : 12.0,
					"id" : "obj-28",
					"maxclass" : "comment",
					"numinlets" : 1,
					"numoutlets" : 0,
					"patching_rect" : [ 675.0, 233.0, 19.0, 20.0 ],
					"style" : "",
					"text" : "<",
					"textcolor" : [ 0.922835, 0.096635, 0.064561, 1.0 ]
				}

			}
, 			{
				"box" : 				{
					"fontname" : "Arial Italic",
					"fontsize" : 9.369385,
					"id" : "obj-29",
					"maxclass" : "comment",
					"numinlets" : 1,
					"numoutlets" : 0,
					"patching_rect" : [ 697.0, 265.289215, 37.0, 17.0 ],
					"style" : "",
					"text" : "level 2",
					"textcolor" : [ 0.756863, 0.0, 0.0, 1.0 ]
				}

			}
, 			{
				"box" : 				{
					"fontname" : "Arial Italic",
					"fontsize" : 9.369385,
					"id" : "obj-30",
					"maxclass" : "comment",
					"numinlets" : 1,
					"numoutlets" : 0,
					"patching_rect" : [ 694.0, 236.289215, 37.0, 17.0 ],
					"style" : "",
					"text" : "level 1",
					"textcolor" : [ 0.756863, 0.0, 0.0, 1.0 ]
				}

			}
, 			{
				"box" : 				{
					"fontname" : "Arial Italic",
					"fontsize" : 19.456944,
					"id" : "obj-35",
					"maxclass" : "comment",
					"numinlets" : 1,
					"numoutlets" : 0,
					"patching_rect" : [ 453.0, 228.231659, 69.0, 28.0 ],
					"style" : "",
					"text" : "voice1",
					"textcolor" : [ 0.756863, 0.0, 0.0, 1.0 ]
				}

			}
, 			{
				"box" : 				{
					"fontname" : "Arial",
					"fontsize" : 17.971672,
					"id" : "obj-44",
					"maxclass" : "comment",
					"numinlets" : 1,
					"numoutlets" : 0,
					"patching_rect" : [ 448.0, 229.545441, 75.0, 27.0 ],
					"style" : "",
					"text" : "(           )",
					"textcolor" : [ 0.876173, 0.203235, 0.075868, 1.0 ]
				}

			}
, 			{
				"box" : 				{
					"fontname" : "Arial",
					"fontsize" : 12.0,
					"id" : "obj-55",
					"linecount" : 2,
					"maxclass" : "message",
					"numinlets" : 2,
					"numoutlets" : 1,
					"outlettype" : [ "" ],
					"patching_rect" : [ 170.0, 161.0, 217.0, 35.0 ],
					"style" : "",
					"text" : "( ( 1/4 1/4 1/4 1/4 ) ( 1/4 1/4 1/4 1/4 ) ), bang"
				}

			}
, 			{
				"box" : 				{
					"bwcompatibility" : 70911,
					"constraintbeamsinspaces" : 0,
					"defaultnoteslots" : [ "null" ],
					"fontface" : 0,
					"fontname" : "Arial",
					"fontsize" : 12.0,
					"id" : "obj-52",
					"linkarticulationstoslot" : 0,
					"linkdynamicstoslot" : 0,
					"linklyricstoslot" : 7,
					"loop" : [ "(", 1, 1, 0, ")", "(", 1, 1, 0, ")" ],
					"maxclass" : "bach.score",
					"numinlets" : 7,
					"numoutlets" : 9,
					"numvoices" : 1,
					"out" : "nnnnnnnn",
					"outlettype" : [ "", "", "", "", "", "", "", "", "bang" ],
					"patching_rect" : [ 15.0, 201.0, 329.0, 107.0 ],
					"pitcheditrange" : [ "null" ],
					"stafflines" : [ 5 ],
					"textcolor" : [ 0.0, 0.0, 0.0, 1.0 ],
					"versionnumber" : 70911,
					"voicenames" : [ "(", ")" ],
					"voicespacing" : [ 0.0, 21.0 ],
					"vzoom" : 97.272728,
					"whole_score_data_0000000000" : [ "score", "(", "slotinfo", "(", 1, "(", "name", "amplitude envelope", ")", "(", "type", "function", ")", "(", "key", "a", ")", "(", "range", "_x_x_x_x_bach_float64_x_x_x_x_", 0, 0, "_x_x_x_x_bach_float64_x_x_x_x_", 0, 1080016896, ")", "(", "slope", "_x_x_x_x_bach_float64_x_x_x_x_", 0, 0, ")", "(", "representation", ")", "(", "grid", ")", "(", "ysnap", ")", "(", "domain", "_x_x_x_x_bach_float64_x_x_x_x_", 0, 0, "_x_x_x_x_bach_float64_x_x_x_x_", 0, 1072693248, ")", "(", "domainslope", "_x_x_x_x_bach_float64_x_x_x_x_", 0, 0, ")", "(", "temporalmode", "relative", ")", "(", "extend", 0, ")", "(", "width", "duration", ")", "(", "height", "auto", ")", "(", "singleslotfortiednotes", 1, ")", "(", "copywhensplit", 0, ")", "(", "access", "readandwrite", ")", ")", "(", 2, "(", "name", "slot function", ")", "(", "type", "function", ")", "(", "key", "q", ")", "(", "range", "_x_x_x_x_bach_float64_x_x_x_x_", 0, 0, "_x_x_x_x_bach_float64_x_x_x_x_", 0, 1072693248, ")", "(", "slope", "_x_x_x_x_bach_float64_x_x_x_x_", 0, 0, ")", "(", "representation", ")", "(", "grid", ")", "(", "ysnap", ")", "(", "domain", "_x_x_x_x_bach_float64_x_x_x_x_", 0, 0, "_x_x_x_x_bach_float64_x_x_x_x_", 0, 1072693248, ")", "(", "domainslope", "_x_x_x_x_bach_float64_x_x_x_x_", 0, 0, ")", "(", "temporalmode", "relative", ")", "(", "extend", 0, ")", "(", "width", "duration", ")", "(", "height", "auto", ")", "(", "singleslotfortiednotes", 1, ")", "(", "copywhensplit", 0, ")", "(", "access", "readandwrite", ")", ")", "(", 3, "(", "name", "slot longlist", ")", "(", "type", "intlist", ")", "(", "key", "w", ")", "(", "range", "_x_x_x_x_bach_float64_x_x_x_x_", 0, 0, "_x_x_x_x_bach_float64_x_x_x_x_", 0, 1080016896, ")", "(", "slope", "_x_x_x_x_bach_float64_x_x_x_x_", 0, 0, ")", "(", "representation", ")", "(", "default", "_x_x_x_x_bach_float64_x_x_x_x_", 0, 1078984704, ")", "(", "temporalmode", "none", ")", "(", "extend", 0, ")", "(", "width", "_x_x_x_x_bach_float64_x_x_x_x_", 0, 1079574528, ")", "(", "height", "auto", ")", "(", "singleslotfortiednotes", 1, ")", "(", "copywhensplit", 1, ")", "(", "access", "readandwrite", ")", ")", "(", 4, "(", "name", "slot floatlist", ")", "(", "type", "floatlist", ")", "(", "key", "e", ")", "(", "range", "_x_x_x_x_bach_float64_x_x_x_x_", 0, 0, "_x_x_x_x_bach_float64_x_x_x_x_", 0, 1072693248, ")", "(", "slope", "_x_x_x_x_bach_float64_x_x_x_x_", 0, 0, ")", "(", "representation", ")", "(", "default", "_x_x_x_x_bach_float64_x_x_x_x_", 0, 0, ")", "(", "temporalmode", "none", ")", "(", "extend", 0, ")", "(", "width", "_x_x_x_x_bach_float64_x_x_x_x_", 0, 1079574528, ")", "(", "height", "auto", ")", "(", "singleslotfortiednotes", 1, ")", "(", "copywhensplit", 1, ")", "(", "access", "readandwrite", ")", ")", "(", 5, "(", "name", "slot long", ")", "(", "type", "int", ")", "(", "key", "r", ")", "(", "range", "_x_x_x_x_bach_float64_x_x_x_x_", 0, 0, "_x_x_x_x_bach_float64_x_x_x_x_", 0, 1080016896, ")", "(", "slope", "_x_x_x_x_bach_float64_x_x_x_x_", 0, 0, ")", "(", "representation", ")", "(", "default", "_x_x_x_x_bach_float64_x_x_x_x_", 0, 1078984704, ")", "(", "temporalmode", "none", ")", "(", "extend", 0, ")", "(", "width", "_x_x_x_x_bach_float64_x_x_x_x_", 0, 1079574528, ")", "(", "height", "auto", ")", "(", "singleslotfortiednotes", 1, ")", "(", "copywhensplit", 1, ")", "(", "access", "readandwrite", ")", ")", "(", 6, "(", "name", "slot float", ")", "(", "type", "float", ")", "(", "key", "t", ")", "(", "range", "_x_x_x_x_bach_float64_x_x_x_x_", 0, 0, "_x_x_x_x_bach_float64_x_x_x_x_", 0, 1072693248, ")", "(", "slope", "_x_x_x_x_bach_float64_x_x_x_x_", 0, 0, ")", "(", "representation", ")", "(", "default", "_x_x_x_x_bach_float64_x_x_x_x_", 0, 0, ")", "(", "temporalmode", "none", ")", "(", "extend", 0, ")", "(", "width", "_x_x_x_x_bach_float64_x_x_x_x_", 0, 1079574528, ")", "(", "height", "auto", ")", "(", "singleslotfortiednotes", 1, ")", "(", "copywhensplit", 1, ")", "(", "access", "readandwrite", ")", ")", "(", 7, "(", "name", "slot text", ")", "(", "type", "text", ")", "(", "key", "y", ")", "(", "temporalmode", "none", ")", "(", "extend", 0, ")", "(", "width", "_x_x_x_x_bach_float64_x_x_x_x_", 0, 1079574528, ")", "(", "height", "auto", ")", "(", "singleslotfortiednotes", 1, ")", "(", "copywhensplit", 0, ")", "(", "access", "readandwrite", ")", ")", "(", 8, "(", "name", "filelist", ")", "(", "type", "filelist", ")", "(", "key", "u", ")", "(", "temporalmode", "none", ")", "(", "extend", 0, ")", "(", "width", "_x_x_x_x_bach_float64_x_x_x_x_", 0, 1080213504, ")", "(", "height", "auto", ")", "(", "singleslotfortiednotes", 1, ")", "(", "copywhensplit", 1, ")", "(", "access", "readandwrite", ")", ")", "(", 9, "(", "name", "spat", ")", "(", "type", "spat", ")", "(", "key", "i", ")", "(", "range", "_x_x_x_x_bach_float64_x_x_x_x_", 0, 0, "_x_x_x_x_bach_float64_x_x_x_x_", 0, 1076101120, ")", "(", "slope", "_x_x_x_x_bach_float64_x_x_x_x_", 0, 0, ")", "(", "representation", ")", "(", "temporalmode", "relative", ")", "(", "extend", 0, ")", "(", "width", "duration", ")", "(", "height", "auto", ")", "(", "singleslotfortiednotes", 1, ")", "(", "copywhensplit", 0, ")", "(", "access", "readandwrite", ")", ")", "(", 10, "(", "name", "slot 10", ")", "(", "type", "none", ")", "(", "key", 0, ")", "(", "temporalmode", "none", ")", "(", "extend", 0, ")", "(", "width", "_x_x_x_x_bach_float64_x_x_x_x_", 0, 1079574528, ")", "(", "height", "auto", ")", "(", "singleslotfortiednotes", 1, ")", "(", "copywhensplit", 0, ")", "(", "access", "readandwrite", ")", ")", "(", 11, "(", "name", "slot 11", ")", "(", "type", "none", ")", "(", "key", 0, ")", "(", "temporalmode", "none", ")", "(", "extend", 0, ")", "(", "width", "_x_x_x_x_bach_float64_x_x_x_x_", 0, 1079574528, ")", "(", "height", "auto", ")", "(", "singleslotfortiednotes", 1, ")", "(", "copywhensplit", 1, ")", "(", "access", "readandwrite", ")", ")", "(", 12, "(", "name", "slot 12", ")", "(", "type", "none", ")", "(", "key", 0, ")", "(", "temporalmode", "none", ")", "(", "extend", 0, ")", "(", "width", "_x_x_x_x_bach_float64_x_x_x_x_", 0, 1079574528, ")", "(", "height", "auto", ")", "(", "singleslotfortiednotes", 1, ")", "(", "copywhensplit", 1, ")", "(", "access", "readandwrite", ")", ")", "(", 13, "(", "name", "slot 13", ")", "(", "type", "none", ")", "(", "key", 0, ")", "(", "temporalmode", "none", ")", "(", "extend", 0, ")", "(", "width", "_x_x_x_x_bach_float64_x_x_x_x_", 0, 1079574528, ")", "(", "height", "auto", ")", "(", "singleslotfortiednotes", 1, ")", "(", "copywhensplit", 1, ")", "(", "access", "readandwrite", ")", ")", "(", 14, "(", "name", "slot 14", ")", "(", "type", "none", ")", "(", "key", 0, ")", "(", "temporalmode", "none", ")", "(", "extend", 0, ")", "(", "width", "_x_x_x_x_bach_float64_x_x_x_x_", 0, 1079574528, ")", "(", "height", "auto", ")", "(", "singleslotfortiednotes", 1, ")", "(", "copywhensplit", 1, ")", "(", "access", "readandwrite", ")", ")", "(", 15, "(", "name", "slot 15", ")", "(", "type", "none", ")", "(", "key", 0, ")", "(", "temporalmode", "none", ")", "(", "extend", 0, ")", "(", "width", "_x_x_x_x_bach_float64_x_x_x_x_", 0, 1079574528, ")", "(", "height", "auto", ")", "(", "singleslotfortiednotes", 1, ")", "(", "copywhensplit", 1, ")", "(", "access", "readandwrite", ")", ")", "(", 16, "(", "name", "slot 16", ")", "(", "type", "none", ")", "(", "key", 0, ")", "(", "temporalmode", "none", ")", "(", "extend", 0, ")", "(", "width", "_x_x_x_x_bach_float64_x_x_x_x_", 0, 1079574528, ")", "(", "height", "auto", ")", "(", "singleslotfortiednotes", 1, ")", "(", "copywhensplit", 1, ")", "(", "access", "readandwrite", ")", ")", "(", 17, "(", "name", "slot 17", ")", "(", "type", "none", ")", "(", "key", 0, ")", "(", "temporalmode", "none", ")", "(", "extend", 0, ")", "(", "width", "_x_x_x_x_bach_float64_x_x_x_x_", 0, 1079574528, ")", "(", "height", "auto", ")", "(", "singleslotfortiednotes", 1, ")", "(", "copywhensplit", 1, ")", "(", "access", "readandwrite", ")", ")", "(", 18, "(", "name", "slot 18", ")", "(", "type", "none", ")", "(", "key", 0, ")", "(", "temporalmode", "none", ")", "(", "extend", 0, ")", "(", "width", "_x_x_x_x_bach_float64_x_x_x_x_", 0, 1079574528, ")", "(", "height", "auto", ")", "(", "singleslotfortiednotes", 1, ")", "(", "copywhensplit", 1, ")", "(", "access", "readandwrite", ")", ")", "(", 19, "(", "name", "slot 19", ")", "(", "type", "none", ")", "(", "key", 0, ")", "(", "temporalmode", "none", ")", "(", "extend", 0, ")", "(", "width", "_x_x_x_x_bach_float64_x_x_x_x_", 0, 1079574528, ")", "(", "height", "auto", ")", "(", "singleslotfortiednotes", 1, ")", "(", "copywhensplit", 1, ")", "(", "access", "readandwrite", ")", ")", "(", 20, "(", "name", "slot 20", ")", "(", "type", "none", ")", "(", "key", 0, ")", "(", "temporalmode", "none", ")", "(", "extend", 0, ")", "(", "width", "_x_x_x_x_bach_float64_x_x_x_x_", 0, 1079574528, ")", "(", "height", "auto", ")", "(", "singleslotfortiednotes", 1, ")", "(", "copywhensplit", 0, ")", "(", "access", "readandwrite", ")", ")", "(", 21, "(", "name", "slot 21", ")", "(", "type", "none", ")", "(", "key", 0, ")", "(", "temporalmode", "none", ")", "(", "extend", 0, ")", "(", "width", "_x_x_x_x_bach_float64_x_x_x_x_", 0, 1079574528, ")", "(", "height", "auto", ")", "(", "singleslotfortiednotes", 1, ")", "(", "copywhensplit", 0, ")", "(", "access", "readandwrite", ")", ")", "(", 22, "(", "name", "slot 22", ")", "(", "type", "none", ")", "(", "key", 0, ")", "(", "temporalmode", "none", ")", "(", "extend", 0, ")", "(", "width", "_x_x_x_x_bach_float64_x_x_x_x_", 0, 1079574528, ")", "(", "height", "auto", ")", "(", "singleslotfortiednotes", 1, ")", "(", "copywhensplit", 1, ")", "(", "access", "readandwrite", ")", ")", "(", 23, "(", "name", "slot 23", ")", "(", "type", "none", ")", "(", "key", 0, ")", "(", "temporalmode", "none", ")", "(", "extend", 0, ")", "(", "width", "_x_x_x_x_bach_float64_x_x_x_x_", 0, 1079574528, ")", "(", "height", "auto", ")", "(", "singleslotfortiednotes", 1, ")", "(", "copywhensplit", 1, ")", "(", "access", "readandwrite", ")", ")", "(", 24, "(", "name", "slot 24", ")", "(", "type", "none", ")", "(", "key", 0, ")", "(", "temporalmode", "none", ")", "(", "extend", 0, ")", "(", "width", "_x_x_x_x_bach_float64_x_x_x_x_", 0, 1079574528, ")", "(", "height", "auto", ")", "(", "singleslotfortiednotes", 1, ")", "(", "copywhensplit", 1, ")", "(", "access", "readandwrite", ")", ")", "(", 25, "(", "name", "slot 25", ")", "(", "type", "none", ")", "(", "key", 0, ")", "(", "temporalmode", "none", ")", "(", "extend", 0, ")", "(", "width", "_x_x_x_x_bach_float64_x_x_x_x_", 0, 1079574528, ")", "(", "height", "auto", ")", "(", "singleslotfortiednotes", 1, ")", "(", "copywhensplit", 1, ")", "(", "access", "readandwrite", ")", ")", "(", 26, "(", "name", "slot 26", ")", "(", "type", "none", ")", "(", "key", 0, ")", "(", "temporalmode", "none", ")", "(", "extend", 0, ")", "(", "width", "_x_x_x_x_bach_float64_x_x_x_x_", 0, 1079574528, ")", "(", "height", "auto", ")", "(", "singleslotfortiednotes", 1, ")", "(", "copywhensplit", 1, ")", "(", "access", "readandwrite", ")", ")", "(", 27, "(", "name", "slot 27", ")", "(", "type", "none", ")", "(", "key", 0, ")", "(", "temporalmode", "none", ")", "(", "extend", 0, ")", "(", "width", "_x_x_x_x_bach_float64_x_x_x_x_", 0, 1079574528, ")", "(", "height", "auto", ")", "(", "singleslotfortiednotes", 1, ")", "(", "copywhensplit", 1, ")", "(", "access", "readandwrite", ")", ")", "(", 28, "(", "name", "slot 28", ")", "(", "type", "none", ")", "(", "key", 0, ")", "(", "temporalmode", "none", ")", "(", "extend", 0, ")", "(", "width", "_x_x_x_x_bach_float64_x_x_x_x_", 0, 1079574528, ")", "(", "height", "auto", ")", "(", "singleslotfortiednotes", 1, ")", "(", "copywhensplit", 1, ")", "(", "access", "readandwrite", ")", ")", "(", 29, "(", "name", "slot 29", ")", "(", "type", "none", ")", "(", "key", 0, ")", "(", "temporalmode", "none", ")", "(", "extend", 0, ")", "(", "width", "_x_x_x_x_bach_float64_x_x_x_x_", 0, 1079574528, ")", "(", "height", "auto", ")", "(", "singleslotfortiednotes", 1, ")", "(", "copywhensplit", 1, ")", "(", "access", "readandwrite", ")", ")", "(", 30, "(", "name", "slot 30", ")", "(", "type", "none", ")", "(", "key", 0, ")", "(", "temporalmode", "none", ")", "(", "extend", 0, ")", "(", "width", "_x_x_x_x_bach_float64_x_x_x_x_", 0, 1079574528, ")", "(", "height", "auto", ")", "(", "singleslotfortiednotes", 1, ")", "(", "copywhensplit", 1, ")", "(", "access", "readandwrite", ")", ")", ")", "(", "commands", "(", 1, "(", "note", "notecmd", ")", "(", "chord", "chordcmd", ")", "(", "rest", "rest", ")", "(", "key", 0, ")", ")", "(", 2, "(", "note", "notecmd", ")", "(", "chord", "chordcmd", ")", "(", "rest", "rest", ")", "(", "key", 0, ")", ")", "(", 3, "(", "note", "notecmd", ")", "(", "chord", "chordcmd", ")", "(", "rest", "rest", ")", "(", "key", 0, ")", ")", "(", 4, "(", "note", "notecmd", ")", "(", "chord", "chordcmd", ")", "(", "rest", "rest", ")", "(", "key", 0, ")", ")", "(", 5, "(", "note", "notecmd", ")", "(", "chord", "chordcmd", ")", "(", "rest", "rest", ")", "(", "key", 0, ")", ")", ")", "(", "markers", ")", "(", "midichannels", 1, ")", "(", "articulationinfo", ")", "(", "noteheadinfo", ")", "(", 0, ")" ],
					"whole_score_data_count" : [ 1 ]
				}

			}
, 			{
				"box" : 				{
					"fontname" : "Arial",
					"fontsize" : 12.0,
					"id" : "obj-6",
					"linecount" : 2,
					"maxclass" : "comment",
					"numinlets" : 1,
					"numoutlets" : 0,
					"patching_rect" : [ 3.0, 43.0, 716.0, 33.0 ],
					"style" : "",
					"text" : "We will move our first steps with the [bach.score] object with the help of the popular Brother John (or \"Frre Jacques\") traditional song. We'll try to display the full melody, and to have a little fun with it!"
				}

			}
, 			{
				"box" : 				{
					"fontname" : "Arial",
					"fontsize" : 12.0,
					"id" : "obj-87",
					"maxclass" : "comment",
					"numinlets" : 1,
					"numoutlets" : 0,
					"patching_rect" : [ 2.0, 19.0, 444.0, 20.0 ],
					"style" : "",
					"text" : "_________________________________________________________________"
				}

			}
, 			{
				"box" : 				{
					"fontface" : 2,
					"fontname" : "Arial",
					"fontsize" : 12.0,
					"id" : "obj-61",
					"linecount" : 2,
					"maxclass" : "comment",
					"numinlets" : 1,
					"numoutlets" : 0,
					"patching_rect" : [ 366.0, 514.0, 219.0, 33.0 ],
					"style" : "",
					"text" : "Good. But I'd like to set all parameters at once! And not just durations!",
					"textcolor" : [ 0.0, 0.168627, 0.67451, 1.0 ]
				}

			}
, 			{
				"box" : 				{
					"fontname" : "Arial Italic",
					"fontsize" : 16.787033,
					"id" : "obj-20",
					"maxclass" : "comment",
					"numinlets" : 1,
					"numoutlets" : 0,
					"patching_rect" : [ 167.0, 7.74086, 233.0, 25.0 ],
					"style" : "",
					"text" : "- or Frre Jacques, if you will"
				}

			}
, 			{
				"box" : 				{
					"fontname" : "Arial",
					"fontsize" : 22.256727,
					"id" : "obj-13",
					"maxclass" : "comment",
					"numinlets" : 1,
					"numoutlets" : 0,
					"patching_rect" : [ 2.0, 2.924051, 171.0, 31.0 ],
					"style" : "",
					"text" : "Brother John (a)"
				}

			}
, 			{
				"box" : 				{
					"hidden" : 1,
					"id" : "obj-1",
					"maxclass" : "newobj",
					"numinlets" : 1,
					"numoutlets" : 1,
					"outlettype" : [ "" ],
					"patching_rect" : [ 589.0, 653.0, 140.0, 22.0 ],
					"style" : "",
					"text" : "pcontrol",
					"varname" : "pcontrolB"
				}

			}
, 			{
				"box" : 				{
					"hidden" : 1,
					"id" : "obj-8",
					"maxclass" : "newobj",
					"numinlets" : 1,
					"numoutlets" : 1,
					"outlettype" : [ "" ],
					"patching_rect" : [ 589.0, 628.0, 140.0, 22.0 ],
					"style" : "",
					"text" : "prepend load",
					"varname" : "prependB"
				}

			}
, 			{
				"box" : 				{
					"hidden" : 1,
					"id" : "obj-10",
					"maxclass" : "newobj",
					"numinlets" : 1,
					"numoutlets" : 1,
					"outlettype" : [ "" ],
					"patching_rect" : [ 589.0, 603.0, 140.0, 22.0 ],
					"style" : "",
					"text" : "tosymbol",
					"varname" : "tosymbolB"
				}

			}
, 			{
				"box" : 				{
					"hidden" : 1,
					"id" : "obj-14",
					"maxclass" : "message",
					"numinlets" : 2,
					"numoutlets" : 1,
					"outlettype" : [ "" ],
					"patching_rect" : [ 589.0, 578.0, 140.0, 22.0 ],
					"style" : "",
					"text" : "Brother John (b)",
					"varname" : "messageB"
				}

			}
, 			{
				"box" : 				{
					"hidden" : 1,
					"id" : "obj-19",
					"maxclass" : "newobj",
					"numinlets" : 1,
					"numoutlets" : 2,
					"outlettype" : [ "bang", "bang" ],
					"patching_rect" : [ 589.0, 553.0, 40.0, 22.0 ],
					"style" : "",
					"text" : "t b b",
					"varname" : "triggerB"
				}

			}
, 			{
				"box" : 				{
					"bgcolor" : [ 0.75, 0.75, 0.75, 1.0 ],
					"bgoncolor" : [ 0.51, 0.59, 0.64, 1.0 ],
					"fontface" : 2,
					"id" : "obj-32",
					"maxclass" : "textbutton",
					"numinlets" : 1,
					"numoutlets" : 3,
					"outlettype" : [ "", "", "int" ],
					"parameter_enable" : 0,
					"patching_rect" : [ 589.0, 528.0, 151.0, 20.0 ],
					"style" : "",
					"text" : "Continue to section (b)",
					"varname" : "textbuttonB"
				}

			}
 ],
		"lines" : [ 			{
				"patchline" : 				{
					"destination" : [ "obj-8", 0 ],
					"hidden" : 1,
					"source" : [ "obj-10", 0 ]
				}

			}
, 			{
				"patchline" : 				{
					"destination" : [ "obj-10", 0 ],
					"hidden" : 1,
					"source" : [ "obj-14", 0 ]
				}

			}
, 			{
				"patchline" : 				{
					"destination" : [ "obj-14", 0 ],
					"hidden" : 1,
					"source" : [ "obj-19", 1 ]
				}

			}
, 			{
				"patchline" : 				{
					"destination" : [ "obj-23", 0 ],
					"hidden" : 1,
					"source" : [ "obj-19", 0 ]
				}

			}
, 			{
				"patchline" : 				{
					"destination" : [ "obj-51", 0 ],
					"hidden" : 1,
					"midpoints" : [ 361.5, 636.5, 343.5, 636.5, 343.5, 578.0, 361.5, 578.0 ],
					"source" : [ "obj-198", 0 ]
				}

			}
, 			{
				"patchline" : 				{
					"destination" : [ "obj-51", 0 ],
					"hidden" : 1,
					"source" : [ "obj-23", 0 ]
				}

			}
, 			{
				"patchline" : 				{
					"color" : [ 0.639216, 0.0, 0.0, 1.0 ],
					"destination" : [ "obj-24", 0 ],
					"source" : [ "obj-26", 1 ]
				}

			}
, 			{
				"patchline" : 				{
					"color" : [ 0.639216, 0.0, 0.0, 1.0 ],
					"destination" : [ "obj-25", 0 ],
					"source" : [ "obj-26", 0 ]
				}

			}
, 			{
				"patchline" : 				{
					"color" : [ 0.756863, 0.0, 0.0, 1.0 ],
					"destination" : [ "obj-393", 0 ],
					"source" : [ "obj-3", 2 ]
				}

			}
, 			{
				"patchline" : 				{
					"color" : [ 0.756863, 0.0, 0.0, 1.0 ],
					"destination" : [ "obj-394", 0 ],
					"source" : [ "obj-3", 1 ]
				}

			}
, 			{
				"patchline" : 				{
					"color" : [ 0.756863, 0.0, 0.0, 1.0 ],
					"destination" : [ "obj-395", 0 ],
					"source" : [ "obj-3", 0 ]
				}

			}
, 			{
				"patchline" : 				{
					"color" : [ 0.756863, 0.0, 0.0, 1.0 ],
					"destination" : [ "obj-396", 0 ],
					"source" : [ "obj-3", 3 ]
				}

			}
, 			{
				"patchline" : 				{
					"destination" : [ "obj-19", 0 ],
					"hidden" : 1,
					"source" : [ "obj-32", 0 ]
				}

			}
, 			{
				"patchline" : 				{
					"color" : [ 0.639216, 0.0, 0.0, 1.0 ],
					"destination" : [ "obj-361", 0 ],
					"source" : [ "obj-366", 4 ]
				}

			}
, 			{
				"patchline" : 				{
					"color" : [ 0.639216, 0.0, 0.0, 1.0 ],
					"destination" : [ "obj-362", 0 ],
					"source" : [ "obj-366", 3 ]
				}

			}
, 			{
				"patchline" : 				{
					"color" : [ 0.639216, 0.0, 0.0, 1.0 ],
					"destination" : [ "obj-363", 0 ],
					"source" : [ "obj-366", 2 ]
				}

			}
, 			{
				"patchline" : 				{
					"color" : [ 0.639216, 0.0, 0.0, 1.0 ],
					"destination" : [ "obj-364", 0 ],
					"source" : [ "obj-366", 1 ]
				}

			}
, 			{
				"patchline" : 				{
					"color" : [ 0.639216, 0.0, 0.0, 1.0 ],
					"destination" : [ "obj-365", 0 ],
					"source" : [ "obj-366", 0 ]
				}

			}
, 			{
				"patchline" : 				{
					"destination" : [ "obj-52", 0 ],
					"hidden" : 1,
					"source" : [ "obj-37", 0 ]
				}

			}
, 			{
				"patchline" : 				{
					"color" : [ 0.639216, 0.0, 0.0, 1.0 ],
					"destination" : [ "obj-367", 0 ],
					"source" : [ "obj-372", 4 ]
				}

			}
, 			{
				"patchline" : 				{
					"color" : [ 0.639216, 0.0, 0.0, 1.0 ],
					"destination" : [ "obj-368", 0 ],
					"source" : [ "obj-372", 3 ]
				}

			}
, 			{
				"patchline" : 				{
					"color" : [ 0.639216, 0.0, 0.0, 1.0 ],
					"destination" : [ "obj-369", 0 ],
					"source" : [ "obj-372", 2 ]
				}

			}
, 			{
				"patchline" : 				{
					"color" : [ 0.639216, 0.0, 0.0, 1.0 ],
					"destination" : [ "obj-370", 0 ],
					"source" : [ "obj-372", 1 ]
				}

			}
, 			{
				"patchline" : 				{
					"color" : [ 0.639216, 0.0, 0.0, 1.0 ],
					"destination" : [ "obj-371", 0 ],
					"source" : [ "obj-372", 0 ]
				}

			}
, 			{
				"patchline" : 				{
					"color" : [ 0.639216, 0.0, 0.0, 1.0 ],
					"destination" : [ "obj-366", 0 ],
					"source" : [ "obj-373", 1 ]
				}

			}
, 			{
				"patchline" : 				{
					"color" : [ 0.639216, 0.0, 0.0, 1.0 ],
					"destination" : [ "obj-372", 0 ],
					"source" : [ "obj-373", 0 ]
				}

			}
, 			{
				"patchline" : 				{
					"color" : [ 0.756863, 0.0, 0.0, 1.0 ],
					"destination" : [ "obj-397", 0 ],
					"source" : [ "obj-401", 3 ]
				}

			}
, 			{
				"patchline" : 				{
					"color" : [ 0.756863, 0.0, 0.0, 1.0 ],
					"destination" : [ "obj-398", 0 ],
					"source" : [ "obj-401", 2 ]
				}

			}
, 			{
				"patchline" : 				{
					"color" : [ 0.756863, 0.0, 0.0, 1.0 ],
					"destination" : [ "obj-399", 0 ],
					"source" : [ "obj-401", 1 ]
				}

			}
, 			{
				"patchline" : 				{
					"color" : [ 0.756863, 0.0, 0.0, 1.0 ],
					"destination" : [ "obj-400", 0 ],
					"source" : [ "obj-401", 0 ]
				}

			}
, 			{
				"patchline" : 				{
					"color" : [ 0.639216, 0.0, 0.0, 1.0 ],
					"destination" : [ "obj-41", 0 ],
					"source" : [ "obj-43", 1 ]
				}

			}
, 			{
				"patchline" : 				{
					"color" : [ 0.639216, 0.0, 0.0, 1.0 ],
					"destination" : [ "obj-42", 0 ],
					"source" : [ "obj-43", 0 ]
				}

			}
, 			{
				"patchline" : 				{
					"destination" : [ "obj-198", 0 ],
					"hidden" : 1,
					"source" : [ "obj-51", 0 ]
				}

			}
, 			{
				"patchline" : 				{
					"destination" : [ "obj-52", 3 ],
					"source" : [ "obj-55", 0 ]
				}

			}
, 			{
				"patchline" : 				{
					"color" : [ 0.639216, 0.0, 0.0, 1.0 ],
					"destination" : [ "obj-78", 0 ],
					"source" : [ "obj-77", 0 ]
				}

			}
, 			{
				"patchline" : 				{
					"color" : [ 0.639216, 0.0, 0.0, 1.0 ],
					"destination" : [ "obj-91", 0 ],
					"source" : [ "obj-77", 1 ]
				}

			}
, 			{
				"patchline" : 				{
					"color" : [ 0.639216, 0.0, 0.0, 1.0 ],
					"destination" : [ "obj-80", 0 ],
					"source" : [ "obj-78", 0 ]
				}

			}
, 			{
				"patchline" : 				{
					"color" : [ 0.639216, 0.0, 0.0, 1.0 ],
					"destination" : [ "obj-81", 0 ],
					"source" : [ "obj-78", 1 ]
				}

			}
, 			{
				"patchline" : 				{
					"color" : [ 0.639216, 0.0, 0.0, 1.0 ],
					"destination" : [ "obj-82", 0 ],
					"source" : [ "obj-78", 2 ]
				}

			}
, 			{
				"patchline" : 				{
					"color" : [ 0.639216, 0.0, 0.0, 1.0 ],
					"destination" : [ "obj-83", 0 ],
					"source" : [ "obj-78", 3 ]
				}

			}
, 			{
				"patchline" : 				{
					"color" : [ 0.639216, 0.0, 0.0, 1.0 ],
					"destination" : [ "obj-84", 0 ],
					"source" : [ "obj-78", 4 ]
				}

			}
, 			{
				"patchline" : 				{
					"destination" : [ "obj-1", 0 ],
					"hidden" : 1,
					"source" : [ "obj-8", 0 ]
				}

			}
, 			{
				"patchline" : 				{
					"color" : [ 0.639216, 0.0, 0.0, 1.0 ],
					"destination" : [ "obj-85", 0 ],
					"source" : [ "obj-91", 4 ]
				}

			}
, 			{
				"patchline" : 				{
					"color" : [ 0.639216, 0.0, 0.0, 1.0 ],
					"destination" : [ "obj-86", 0 ],
					"source" : [ "obj-91", 3 ]
				}

			}
, 			{
				"patchline" : 				{
					"color" : [ 0.639216, 0.0, 0.0, 1.0 ],
					"destination" : [ "obj-88", 0 ],
					"source" : [ "obj-91", 2 ]
				}

			}
, 			{
				"patchline" : 				{
					"color" : [ 0.639216, 0.0, 0.0, 1.0 ],
					"destination" : [ "obj-89", 0 ],
					"source" : [ "obj-91", 1 ]
				}

			}
, 			{
				"patchline" : 				{
					"color" : [ 0.639216, 0.0, 0.0, 1.0 ],
					"destination" : [ "obj-90", 0 ],
					"source" : [ "obj-91", 0 ]
				}

			}
 ],
		"dependency_cache" : [ 			{
				"name" : "linksections.maxpat",
				"bootpath" : "~/Documents/Max 7/Packages/bach/docs/tutorial-patchers",
				"patcherrelativepath" : ".",
				"type" : "JSON",
				"implicit" : 1
			}
, 			{
				"name" : "bach.score.mxo",
				"type" : "iLaX"
			}
, 			{
				"name" : "bach.args.mxo",
				"type" : "iLaX"
			}
 ],
		"autosave" : 0
	}

}
