{
	"patcher" : 	{
		"fileversion" : 1,
		"appversion" : 		{
			"major" : 5,
			"minor" : 1,
			"revision" : 9
		}
,
		"rect" : [ 196.0, 44.0, 621.0, 481.0 ],
		"bglocked" : 0,
		"defrect" : [ 196.0, 44.0, 621.0, 481.0 ],
		"openrect" : [ 0.0, 0.0, 0.0, 0.0 ],
		"openinpresentation" : 0,
		"default_fontsize" : 12.0,
		"default_fontface" : 0,
		"default_fontname" : "Arial",
		"gridonopen" : 0,
		"gridsize" : [ 15.0, 15.0 ],
		"gridsnaponopen" : 0,
		"toolbarvisible" : 1,
		"boxanimatetime" : 200,
		"imprint" : 0,
		"enablehscroll" : 1,
		"enablevscroll" : 1,
		"devicewidth" : 0.0,
		"boxes" : [ 			{
				"box" : 				{
					"maxclass" : "message",
					"varname" : "wclose",
					"text" : "clean, wclose",
					"fontsize" : 12.0,
					"numinlets" : 2,
					"numoutlets" : 1,
					"patching_rect" : [ 242.0, 529.0, 81.0, 18.0 ],
					"outlettype" : [ "" ],
					"hidden" : 1,
					"id" : "obj-31",
					"fontname" : "Arial"
				}

			}
, 			{
				"box" : 				{
					"maxclass" : "newobj",
					"text" : "linksections 1 1 i \"Into The Matrix\"",
					"fontsize" : 12.0,
					"numinlets" : 1,
					"numoutlets" : 1,
					"patching_rect" : [ 242.0, 581.5, 190.0, 20.0 ],
					"outlettype" : [ "" ],
					"hidden" : 1,
					"id" : "obj-198",
					"fontname" : "Arial"
				}

			}
, 			{
				"box" : 				{
					"maxclass" : "newobj",
					"text" : "thispatcher",
					"fontsize" : 12.0,
					"numinlets" : 1,
					"numoutlets" : 2,
					"patching_rect" : [ 242.0, 554.0, 69.0, 20.0 ],
					"outlettype" : [ "", "" ],
					"hidden" : 1,
					"id" : "obj-90",
					"fontname" : "Arial",
					"save" : [ "#N", "thispatcher", ";", "#Q", "end", ";" ]
				}

			}
, 			{
				"box" : 				{
					"maxclass" : "comment",
					"text" : "blue vector is the \"original\", red vector is the image via the matrix product",
					"linecount" : 6,
					"fontsize" : 12.0,
					"numinlets" : 1,
					"numoutlets" : 0,
					"patching_rect" : [ 290.0, 217.0, 91.0, 89.0 ],
					"id" : "obj-63",
					"fontname" : "Arial"
				}

			}
, 			{
				"box" : 				{
					"maxclass" : "comment",
					"text" : "As before, the red vector (automatically updated, via the \"dump\" messages) is the result of the matricial product Av, where A is the same old matrix, and v is the blue vector. \n\nIf you scroll the blue bar, the blue vector will be forced to stay in the kernel of the matrix. As you see, for ANY vector in this space, its image via the matrix product (i.e. our red Av) is a zero vector! (the arrow even hides the vector body... since there is no body at all!) That's what we mean when we say that those blue vectors are the kernel of the matrix A: for any of them, the result of Av is zero!\n\nIf you move aroung the blue vector by dragging its tip, you'll notice immediately that for no other vector undergoes this very same behavior! This means that the kernel is uniquely generated by a (-k, k) vector.",
					"linecount" : 23,
					"fontsize" : 12.0,
					"numinlets" : 1,
					"numoutlets" : 0,
					"patching_rect" : [ 383.0, 76.0, 229.0, 324.0 ],
					"id" : "obj-62",
					"fontname" : "Arial"
				}

			}
, 			{
				"box" : 				{
					"maxclass" : "message",
					"text" : "set 1 $1 $2, dump",
					"fontsize" : 12.0,
					"numinlets" : 2,
					"numoutlets" : 1,
					"patching_rect" : [ 273.0, 414.0, 107.0, 18.0 ],
					"outlettype" : [ "" ],
					"id" : "obj-59",
					"fontname" : "Arial"
				}

			}
, 			{
				"box" : 				{
					"maxclass" : "message",
					"fontsize" : 12.0,
					"numinlets" : 2,
					"numoutlets" : 1,
					"patching_rect" : [ 384.0, 413.0, 78.0, 18.0 ],
					"outlettype" : [ "" ],
					"id" : "obj-55",
					"fontname" : "Arial"
				}

			}
, 			{
				"box" : 				{
					"maxclass" : "message",
					"text" : "set 1 $1 $2",
					"fontsize" : 12.0,
					"numinlets" : 2,
					"numoutlets" : 1,
					"patching_rect" : [ 14.0, 396.0, 70.0, 18.0 ],
					"outlettype" : [ "" ],
					"id" : "obj-52",
					"fontname" : "Arial"
				}

			}
, 			{
				"box" : 				{
					"maxclass" : "comment",
					"text" : "scrolling this bar spans all the kernel of vectors (-k, k):",
					"linecount" : 4,
					"fontsize" : 12.0,
					"numinlets" : 1,
					"numoutlets" : 0,
					"patching_rect" : [ 292.0, 104.0, 91.0, 62.0 ],
					"id" : "obj-51",
					"fontname" : "Arial"
				}

			}
, 			{
				"box" : 				{
					"maxclass" : "newobj",
					"text" : "* -1.",
					"fontsize" : 12.0,
					"numinlets" : 2,
					"numoutlets" : 1,
					"patching_rect" : [ 273.0, 366.0, 33.0, 20.0 ],
					"outlettype" : [ "float" ],
					"id" : "obj-19",
					"fontname" : "Arial"
				}

			}
, 			{
				"box" : 				{
					"maxclass" : "multislider",
					"contdata" : 1,
					"ghostbar" : 37,
					"numinlets" : 1,
					"slidercolor" : [ 0.176471, 0.101961, 0.843137, 1.0 ],
					"numoutlets" : 2,
					"patching_rect" : [ 277.0, 103.0, 14.0, 238.0 ],
					"outlettype" : [ "", "" ],
					"id" : "obj-44",
					"setminmax" : [ -30.0, 30.0 ]
				}

			}
, 			{
				"box" : 				{
					"maxclass" : "comment",
					"text" : "We can visualize what the kernel is, exactly how we did for eigenvectors. After all, the kernel is an eigenvector subspace, isn't it? A very particular one, though. Let's take as usual our good matrix (1 1) (2 2).",
					"linecount" : 2,
					"fontsize" : 12.0,
					"numinlets" : 1,
					"numoutlets" : 0,
					"patching_rect" : [ 6.0, 41.0, 595.0, 34.0 ],
					"id" : "obj-42",
					"fontname" : "Arial"
				}

			}
, 			{
				"box" : 				{
					"maxclass" : "newobj",
					"text" : "loadmess (1 1) (2 2)",
					"fontsize" : 12.0,
					"numinlets" : 1,
					"numoutlets" : 1,
					"patching_rect" : [ 115.0, 345.0, 118.0, 20.0 ],
					"outlettype" : [ "" ],
					"id" : "obj-40",
					"fontname" : "Arial"
				}

			}
, 			{
				"box" : 				{
					"maxclass" : "bach.graph",
					"textcolor" : [ 0.0, 0.0, 0.0, 0.0 ],
					"out" : "n",
					"showmode" : 3,
					"axiscolor" : [ 0.0, 0.0, 0.0, 0.0 ],
					"fontsize" : 12.0,
					"bgcolor" : [ 1.0, 1.0, 1.0, 0.0 ],
					"maxx" : 30.0,
					"minx" : -30.0,
					"numinlets" : 2,
					"presentation_rect" : [ 280.0, 90.0, 260.0, 260.0 ],
					"graphtype" : 3,
					"gridxstep" : 5.0,
					"bordercolor" : [ 0.301961, 0.301961, 0.301961, 0.0 ],
					"maxy" : 30.0,
					"labelsxstep" : 10.0,
					"miny" : -30.0,
					"numoutlets" : 2,
					"gridystep" : 5.0,
					"gridcolor" : [ 0.698039, 0.698039, 0.698039, 0.0 ],
					"patching_rect" : [ 14.0, 102.0, 251.0, 238.449997 ],
					"labelsystep" : 10.0,
					"outlettype" : [ "", "bang" ],
					"id" : "obj-23",
					"fontname" : "Arial",
					"graphcolor" : [ 0.0, 0.243137, 0.815686, 1.0 ],
					"whole_graph_data_0000000000" : [ "_x_x_x_x_bach_float64_x_x_x_x_", 0, 1075208053, "_x_x_x_x_bach_float64_x_x_x_x_", 0, -1072275595 ],
					"whole_graph_data_count" : [ 1 ]
				}

			}
, 			{
				"box" : 				{
					"maxclass" : "message",
					"text" : "dump",
					"fontsize" : 12.0,
					"numinlets" : 2,
					"numoutlets" : 1,
					"patching_rect" : [ 14.0, 81.0, 41.0, 18.0 ],
					"outlettype" : [ "" ],
					"id" : "obj-20",
					"fontname" : "Arial"
				}

			}
, 			{
				"box" : 				{
					"maxclass" : "bach.graph",
					"out" : "n",
					"showmode" : 3,
					"fontsize" : 12.0,
					"maxx" : 30.0,
					"minx" : -30.0,
					"numinlets" : 2,
					"graphtype" : 3,
					"gridxstep" : 5.0,
					"maxy" : 30.0,
					"labelsxstep" : 10.0,
					"miny" : -30.0,
					"numoutlets" : 2,
					"ignoreclick" : 1,
					"gridystep" : 5.0,
					"patching_rect" : [ 14.0, 102.0, 251.0, 238.449997 ],
					"labelsystep" : 10.0,
					"outlettype" : [ "", "bang" ],
					"id" : "obj-36",
					"fontname" : "Arial",
					"graphcolor" : [ 0.823529, 0.121569, 0.121569, 1.0 ],
					"whole_graph_data_0000000000" : [ "_x_x_x_x_bach_float64_x_x_x_x_", 0, 0, "_x_x_x_x_bach_float64_x_x_x_x_", 0, 0 ],
					"whole_graph_data_count" : [ 1 ]
				}

			}
, 			{
				"box" : 				{
					"maxclass" : "newobj",
					"text" : "bach.mtimes @out t",
					"fontsize" : 12.0,
					"numinlets" : 2,
					"numoutlets" : 1,
					"patching_rect" : [ 14.0, 373.0, 120.0, 20.0 ],
					"outlettype" : [ "" ],
					"id" : "obj-169",
					"fontname" : "Arial"
				}

			}
, 			{
				"box" : 				{
					"maxclass" : "newobj",
					"text" : "pack f f",
					"fontsize" : 12.0,
					"numinlets" : 2,
					"numoutlets" : 1,
					"patching_rect" : [ 273.0, 388.0, 56.0, 20.0 ],
					"outlettype" : [ "" ],
					"id" : "obj-48",
					"fontname" : "Arial"
				}

			}
, 			{
				"box" : 				{
					"maxclass" : "newobj",
					"text" : "t f f",
					"fontsize" : 12.0,
					"numinlets" : 1,
					"numoutlets" : 2,
					"patching_rect" : [ 273.0, 344.0, 55.5, 20.0 ],
					"outlettype" : [ "float", "float" ],
					"id" : "obj-46",
					"fontname" : "Arial"
				}

			}
, 			{
				"box" : 				{
					"maxclass" : "comment",
					"text" : "Ok. You spoke about \"singular\" matrix, and about determinant and rank...",
					"linecount" : 2,
					"frgb" : [ 0.0, 0.168627, 0.67451, 1.0 ],
					"textcolor" : [ 0.0, 0.168627, 0.67451, 1.0 ],
					"fontface" : 2,
					"fontsize" : 12.0,
					"numinlets" : 1,
					"numoutlets" : 0,
					"patching_rect" : [ 245.0, 447.0, 217.0, 34.0 ],
					"id" : "obj-61",
					"fontname" : "Arial"
				}

			}
, 			{
				"box" : 				{
					"maxclass" : "newobj",
					"text" : "loadbang",
					"fontsize" : 12.0,
					"numinlets" : 1,
					"numoutlets" : 1,
					"patching_rect" : [ -153.0, 73.0, 60.0, 20.0 ],
					"outlettype" : [ "bang" ],
					"hidden" : 1,
					"id" : "obj-57",
					"fontname" : "Arial"
				}

			}
, 			{
				"box" : 				{
					"maxclass" : "message",
					"text" : "clear, add 10 10",
					"fontsize" : 12.0,
					"numinlets" : 2,
					"numoutlets" : 1,
					"patching_rect" : [ -153.0, 98.0, 96.0, 18.0 ],
					"outlettype" : [ "" ],
					"hidden" : 1,
					"id" : "obj-56",
					"fontname" : "Arial"
				}

			}
, 			{
				"box" : 				{
					"maxclass" : "comment",
					"text" : "_________________________________________________________________",
					"fontsize" : 12.0,
					"numinlets" : 1,
					"numoutlets" : 0,
					"patching_rect" : [ 5.0, 19.0, 444.0, 20.0 ],
					"id" : "obj-87",
					"fontname" : "Arial"
				}

			}
, 			{
				"box" : 				{
					"maxclass" : "comment",
					"text" : "- kernelstuff is easy!",
					"fontsize" : 16.787033,
					"numinlets" : 1,
					"numoutlets" : 0,
					"patching_rect" : [ 190.0, 7.74086, 215.0, 26.0 ],
					"id" : "obj-2",
					"fontname" : "Arial Italic"
				}

			}
, 			{
				"box" : 				{
					"maxclass" : "comment",
					"text" : "Into The Matrix (i)",
					"fontsize" : 22.256727,
					"numinlets" : 1,
					"numoutlets" : 0,
					"patching_rect" : [ 5.0, 2.924051, 192.0, 32.0 ],
					"id" : "obj-3",
					"fontname" : "Arial"
				}

			}
, 			{
				"box" : 				{
					"maxclass" : "newobj",
					"varname" : "pcontrolA",
					"text" : "pcontrol",
					"fontsize" : 12.0,
					"numinlets" : 1,
					"numoutlets" : 1,
					"patching_rect" : [ 5.0, 581.0, 140.0, 20.0 ],
					"outlettype" : [ "" ],
					"hidden" : 1,
					"id" : "obj-1",
					"fontname" : "Arial"
				}

			}
, 			{
				"box" : 				{
					"maxclass" : "newobj",
					"varname" : "prependA",
					"text" : "prepend load",
					"fontsize" : 12.0,
					"numinlets" : 1,
					"numoutlets" : 1,
					"patching_rect" : [ 5.0, 556.0, 140.0, 20.0 ],
					"outlettype" : [ "" ],
					"hidden" : 1,
					"id" : "obj-4",
					"fontname" : "Arial"
				}

			}
, 			{
				"box" : 				{
					"maxclass" : "newobj",
					"varname" : "tosymbolA",
					"text" : "tosymbol",
					"fontsize" : 12.0,
					"numinlets" : 1,
					"numoutlets" : 1,
					"patching_rect" : [ 5.0, 531.0, 140.0, 20.0 ],
					"outlettype" : [ "" ],
					"hidden" : 1,
					"id" : "obj-5",
					"fontname" : "Arial"
				}

			}
, 			{
				"box" : 				{
					"maxclass" : "message",
					"varname" : "messageA",
					"text" : "Into The Matrix (h)",
					"fontsize" : 12.0,
					"numinlets" : 2,
					"numoutlets" : 1,
					"patching_rect" : [ 5.0, 506.0, 140.0, 18.0 ],
					"outlettype" : [ "" ],
					"hidden" : 1,
					"id" : "obj-7",
					"fontname" : "Arial"
				}

			}
, 			{
				"box" : 				{
					"maxclass" : "newobj",
					"varname" : "triggerA",
					"text" : "t b b",
					"fontsize" : 12.0,
					"numinlets" : 1,
					"numoutlets" : 2,
					"patching_rect" : [ 5.0, 481.0, 40.0, 20.0 ],
					"outlettype" : [ "bang", "bang" ],
					"hidden" : 1,
					"id" : "obj-8",
					"fontname" : "Arial"
				}

			}
, 			{
				"box" : 				{
					"maxclass" : "textbutton",
					"varname" : "textbuttonA",
					"text" : "Back to section (h)",
					"fontface" : 2,
					"fontsize" : 12.0,
					"bgovercolor" : [ 0.64, 0.65, 0.72, 1.0 ],
					"numinlets" : 1,
					"bordercolor" : [ 0.63, 0.7, 0.75, 1.0 ],
					"numoutlets" : 3,
					"patching_rect" : [ 5.0, 456.0, 151.0, 20.0 ],
					"bgoncolor" : [ 0.51, 0.59, 0.64, 1.0 ],
					"outlettype" : [ "", "", "int" ],
					"id" : "obj-10",
					"fontname" : "Arial"
				}

			}
, 			{
				"box" : 				{
					"maxclass" : "newobj",
					"varname" : "pcontrolB",
					"text" : "pcontrol",
					"fontsize" : 12.0,
					"numinlets" : 1,
					"numoutlets" : 1,
					"patching_rect" : [ 466.0, 581.0, 140.0, 20.0 ],
					"outlettype" : [ "" ],
					"hidden" : 1,
					"id" : "obj-11",
					"fontname" : "Arial"
				}

			}
, 			{
				"box" : 				{
					"maxclass" : "newobj",
					"varname" : "prependB",
					"text" : "prepend load",
					"fontsize" : 12.0,
					"numinlets" : 1,
					"numoutlets" : 1,
					"patching_rect" : [ 466.0, 556.0, 140.0, 20.0 ],
					"outlettype" : [ "" ],
					"hidden" : 1,
					"id" : "obj-12",
					"fontname" : "Arial"
				}

			}
, 			{
				"box" : 				{
					"maxclass" : "newobj",
					"varname" : "tosymbolB",
					"text" : "tosymbol",
					"fontsize" : 12.0,
					"numinlets" : 1,
					"numoutlets" : 1,
					"patching_rect" : [ 466.0, 531.0, 140.0, 20.0 ],
					"outlettype" : [ "" ],
					"hidden" : 1,
					"id" : "obj-13",
					"fontname" : "Arial"
				}

			}
, 			{
				"box" : 				{
					"maxclass" : "message",
					"varname" : "messageB",
					"text" : "Into The Matrix (j)",
					"fontsize" : 12.0,
					"numinlets" : 2,
					"numoutlets" : 1,
					"patching_rect" : [ 466.0, 506.0, 140.0, 18.0 ],
					"outlettype" : [ "" ],
					"hidden" : 1,
					"id" : "obj-15",
					"fontname" : "Arial"
				}

			}
, 			{
				"box" : 				{
					"maxclass" : "newobj",
					"varname" : "triggerB",
					"text" : "t b b",
					"fontsize" : 12.0,
					"numinlets" : 1,
					"numoutlets" : 2,
					"patching_rect" : [ 466.0, 481.0, 40.0, 20.0 ],
					"outlettype" : [ "bang", "bang" ],
					"hidden" : 1,
					"id" : "obj-16",
					"fontname" : "Arial"
				}

			}
, 			{
				"box" : 				{
					"maxclass" : "textbutton",
					"varname" : "textbuttonB",
					"text" : "Continue to section (j)",
					"fontface" : 2,
					"fontsize" : 12.0,
					"bgovercolor" : [ 0.64, 0.65, 0.72, 1.0 ],
					"numinlets" : 1,
					"bordercolor" : [ 0.63, 0.7, 0.75, 1.0 ],
					"numoutlets" : 3,
					"patching_rect" : [ 466.0, 456.0, 151.0, 20.0 ],
					"bgoncolor" : [ 0.51, 0.59, 0.64, 1.0 ],
					"outlettype" : [ "", "", "int" ],
					"id" : "obj-18",
					"fontname" : "Arial"
				}

			}
 ],
		"lines" : [ 			{
				"patchline" : 				{
					"source" : [ "obj-16", 0 ],
					"destination" : [ "obj-31", 0 ],
					"hidden" : 1,
					"midpoints" : [  ]
				}

			}
, 			{
				"patchline" : 				{
					"source" : [ "obj-12", 0 ],
					"destination" : [ "obj-11", 0 ],
					"hidden" : 1,
					"midpoints" : [  ]
				}

			}
, 			{
				"patchline" : 				{
					"source" : [ "obj-13", 0 ],
					"destination" : [ "obj-12", 0 ],
					"hidden" : 1,
					"midpoints" : [  ]
				}

			}
, 			{
				"patchline" : 				{
					"source" : [ "obj-15", 0 ],
					"destination" : [ "obj-13", 0 ],
					"hidden" : 1,
					"midpoints" : [  ]
				}

			}
, 			{
				"patchline" : 				{
					"source" : [ "obj-16", 1 ],
					"destination" : [ "obj-15", 0 ],
					"hidden" : 1,
					"midpoints" : [  ]
				}

			}
, 			{
				"patchline" : 				{
					"source" : [ "obj-18", 0 ],
					"destination" : [ "obj-16", 0 ],
					"hidden" : 1,
					"midpoints" : [  ]
				}

			}
, 			{
				"patchline" : 				{
					"source" : [ "obj-8", 0 ],
					"destination" : [ "obj-31", 0 ],
					"hidden" : 1,
					"midpoints" : [  ]
				}

			}
, 			{
				"patchline" : 				{
					"source" : [ "obj-4", 0 ],
					"destination" : [ "obj-1", 0 ],
					"hidden" : 1,
					"midpoints" : [  ]
				}

			}
, 			{
				"patchline" : 				{
					"source" : [ "obj-5", 0 ],
					"destination" : [ "obj-4", 0 ],
					"hidden" : 1,
					"midpoints" : [  ]
				}

			}
, 			{
				"patchline" : 				{
					"source" : [ "obj-7", 0 ],
					"destination" : [ "obj-5", 0 ],
					"hidden" : 1,
					"midpoints" : [  ]
				}

			}
, 			{
				"patchline" : 				{
					"source" : [ "obj-8", 1 ],
					"destination" : [ "obj-7", 0 ],
					"hidden" : 1,
					"midpoints" : [  ]
				}

			}
, 			{
				"patchline" : 				{
					"source" : [ "obj-10", 0 ],
					"destination" : [ "obj-8", 0 ],
					"hidden" : 1,
					"midpoints" : [  ]
				}

			}
, 			{
				"patchline" : 				{
					"source" : [ "obj-90", 0 ],
					"destination" : [ "obj-198", 0 ],
					"hidden" : 1,
					"midpoints" : [  ]
				}

			}
, 			{
				"patchline" : 				{
					"source" : [ "obj-198", 0 ],
					"destination" : [ "obj-90", 0 ],
					"hidden" : 1,
					"midpoints" : [ 251.5, 607.5, 233.5, 607.5, 233.5, 549.0, 251.5, 549.0 ]
				}

			}
, 			{
				"patchline" : 				{
					"source" : [ "obj-31", 0 ],
					"destination" : [ "obj-90", 0 ],
					"hidden" : 1,
					"midpoints" : [  ]
				}

			}
, 			{
				"patchline" : 				{
					"source" : [ "obj-57", 0 ],
					"destination" : [ "obj-56", 0 ],
					"hidden" : 1,
					"midpoints" : [  ]
				}

			}
, 			{
				"patchline" : 				{
					"source" : [ "obj-40", 0 ],
					"destination" : [ "obj-169", 1 ],
					"hidden" : 0,
					"midpoints" : [  ]
				}

			}
, 			{
				"patchline" : 				{
					"source" : [ "obj-23", 0 ],
					"destination" : [ "obj-169", 0 ],
					"hidden" : 0,
					"midpoints" : [  ]
				}

			}
, 			{
				"patchline" : 				{
					"source" : [ "obj-46", 1 ],
					"destination" : [ "obj-48", 1 ],
					"hidden" : 0,
					"midpoints" : [  ]
				}

			}
, 			{
				"patchline" : 				{
					"source" : [ "obj-44", 0 ],
					"destination" : [ "obj-46", 0 ],
					"hidden" : 0,
					"midpoints" : [  ]
				}

			}
, 			{
				"patchline" : 				{
					"source" : [ "obj-169", 0 ],
					"destination" : [ "obj-52", 0 ],
					"hidden" : 0,
					"midpoints" : [  ]
				}

			}
, 			{
				"patchline" : 				{
					"source" : [ "obj-52", 0 ],
					"destination" : [ "obj-36", 0 ],
					"hidden" : 0,
					"midpoints" : [ 23.5, 415.0, 7.5, 415.0, 7.5, 101.0, 23.5, 101.0 ]
				}

			}
, 			{
				"patchline" : 				{
					"source" : [ "obj-48", 0 ],
					"destination" : [ "obj-55", 1 ],
					"hidden" : 0,
					"midpoints" : [  ]
				}

			}
, 			{
				"patchline" : 				{
					"source" : [ "obj-59", 0 ],
					"destination" : [ "obj-23", 0 ],
					"hidden" : 0,
					"midpoints" : [ 282.5, 437.0, 269.0, 437.0, 269.0, 100.0, 23.5, 100.0 ]
				}

			}
, 			{
				"patchline" : 				{
					"source" : [ "obj-48", 0 ],
					"destination" : [ "obj-59", 0 ],
					"hidden" : 0,
					"midpoints" : [  ]
				}

			}
, 			{
				"patchline" : 				{
					"source" : [ "obj-20", 0 ],
					"destination" : [ "obj-23", 0 ],
					"hidden" : 0,
					"midpoints" : [  ]
				}

			}
, 			{
				"patchline" : 				{
					"source" : [ "obj-23", 1 ],
					"destination" : [ "obj-20", 0 ],
					"hidden" : 0,
					"midpoints" : [ 255.5, 344.0, 269.0, 344.0, 269.0, 78.0, 23.5, 78.0 ]
				}

			}
, 			{
				"patchline" : 				{
					"source" : [ "obj-19", 0 ],
					"destination" : [ "obj-48", 0 ],
					"hidden" : 0,
					"midpoints" : [  ]
				}

			}
, 			{
				"patchline" : 				{
					"source" : [ "obj-46", 0 ],
					"destination" : [ "obj-19", 0 ],
					"hidden" : 0,
					"midpoints" : [  ]
				}

			}
 ]
	}

}
