{
	"patcher" : 	{
		"fileversion" : 1,
		"rect" : [ 228.0, 82.0, 583.0, 446.0 ],
		"bglocked" : 0,
		"defrect" : [ 228.0, 82.0, 583.0, 446.0 ],
		"openrect" : [ 0.0, 0.0, 0.0, 0.0 ],
		"openinpresentation" : 0,
		"default_fontsize" : 12.0,
		"default_fontface" : 0,
		"default_fontname" : "Arial",
		"gridonopen" : 0,
		"gridsize" : [ 15.0, 15.0 ],
		"gridsnaponopen" : 0,
		"toolbarvisible" : 1,
		"boxanimatetime" : 200,
		"imprint" : 0,
		"enablehscroll" : 1,
		"enablevscroll" : 1,
		"devicewidth" : 0.0,
		"boxes" : [ 			{
				"box" : 				{
					"maxclass" : "message",
					"varname" : "wclose",
					"text" : "clean, wclose",
					"id" : "obj-22",
					"numinlets" : 2,
					"numoutlets" : 1,
					"fontname" : "Arial",
					"hidden" : 1,
					"patching_rect" : [ 207.0, 472.0, 81.0, 18.0 ],
					"outlettype" : [ "" ],
					"fontsize" : 12.0
				}

			}
, 			{
				"box" : 				{
					"maxclass" : "comment",
					"text" : "Ok, too many definitions. Can you SHOW me what an eigenvalue is?",
					"linecount" : 2,
					"id" : "obj-61",
					"numinlets" : 1,
					"numoutlets" : 0,
					"fontname" : "Arial",
					"patching_rect" : [ 229.0, 410.0, 212.0, 34.0 ],
					"frgb" : [ 0.0, 0.168627, 0.67451, 1.0 ],
					"textcolor" : [ 0.0, 0.168627, 0.67451, 1.0 ],
					"fontface" : 2,
					"fontsize" : 12.0
				}

			}
, 			{
				"box" : 				{
					"maxclass" : "newobj",
					"text" : "print Eigenvalues",
					"id" : "obj-53",
					"numinlets" : 1,
					"numoutlets" : 0,
					"fontname" : "Arial",
					"patching_rect" : [ 97.0, 282.0, 103.0, 20.0 ],
					"fontsize" : 12.0
				}

			}
, 			{
				"box" : 				{
					"maxclass" : "comment",
					"text" : "As you see, this matrix has two eigenvalues: 3 and 0. To the eigenvalue 3 corresponds the space generated by vector (-0.447 -0.894), which is the space of vectors having the y = 2x, i.e. all vectors like (-1 -2), (1 2), (2 4), (5 0). Do we know what happens to these vectors when mapped via the matrix? Yes we do: they're all eigenvectors for λ = 3, and thus they will be mapped on a vector on the same line, but with a module which is 3 times the previous one! Have a look back to previous section, that's exactly what happened!",
					"linecount" : 6,
					"id" : "obj-52",
					"numinlets" : 1,
					"numoutlets" : 0,
					"fontname" : "Arial",
					"patching_rect" : [ 4.0, 318.0, 568.0, 89.0 ],
					"fontsize" : 12.0
				}

			}
, 			{
				"box" : 				{
					"maxclass" : "newobj",
					"text" : "print Eigenvectors",
					"id" : "obj-51",
					"numinlets" : 1,
					"numoutlets" : 0,
					"fontname" : "Arial",
					"patching_rect" : [ 219.0, 282.0, 107.0, 20.0 ],
					"fontsize" : 12.0
				}

			}
, 			{
				"box" : 				{
					"maxclass" : "comment",
					"text" : "bach has an object which is able to find eigenvalues:",
					"linecount" : 4,
					"id" : "obj-45",
					"numinlets" : 1,
					"numoutlets" : 0,
					"fontname" : "Arial",
					"patching_rect" : [ 4.0, 239.0, 97.0, 62.0 ],
					"fontsize" : 12.0
				}

			}
, 			{
				"box" : 				{
					"maxclass" : "comment",
					"text" : "Since eigenvectors form a \"subspace\", bach outputs only the so-called \"generators\" of this space, i.e. a bunch of vectors whose linear combinations will span the whole eigenvectors subspace.",
					"linecount" : 5,
					"id" : "obj-29",
					"numinlets" : 1,
					"numoutlets" : 0,
					"fontname" : "Arial",
					"patching_rect" : [ 332.0, 233.0, 246.0, 75.0 ],
					"fontsize" : 12.0
				}

			}
, 			{
				"box" : 				{
					"maxclass" : "newobj",
					"text" : "bach.eig @out t",
					"id" : "obj-26",
					"numinlets" : 1,
					"numoutlets" : 2,
					"fontname" : "Arial",
					"patching_rect" : [ 97.0, 257.0, 141.0, 20.0 ],
					"outlettype" : [ "", "" ],
					"fontsize" : 12.0,
					"saved_object_attributes" : 					{
						"numiter" : 20,
						"maxcoeffrandvect" : 100
					}

				}

			}
, 			{
				"box" : 				{
					"maxclass" : "message",
					"text" : "(1 1) (2 2)",
					"id" : "obj-27",
					"numinlets" : 2,
					"numoutlets" : 1,
					"fontname" : "Arial",
					"patching_rect" : [ 97.0, 235.0, 63.0, 18.0 ],
					"outlettype" : [ "" ],
					"fontsize" : 12.0
				}

			}
, 			{
				"box" : 				{
					"maxclass" : "comment",
					"text" : "which means: the incoming vector v, multiplied by matrix A, returns a given multiple of the same vector v, scaled by a factor λ.",
					"linecount" : 2,
					"id" : "obj-25",
					"numinlets" : 1,
					"numoutlets" : 0,
					"fontname" : "Arial",
					"patching_rect" : [ 5.0, 111.0, 555.0, 34.0 ],
					"fontsize" : 12.0
				}

			}
, 			{
				"box" : 				{
					"maxclass" : "comment",
					"text" : "Av = λv, ",
					"id" : "obj-23",
					"numinlets" : 1,
					"numoutlets" : 0,
					"fontname" : "Arial",
					"patching_rect" : [ 238.0, 83.151215, 87.0, 30.0 ],
					"fontsize" : 20.733154
				}

			}
, 			{
				"box" : 				{
					"maxclass" : "comment",
					"text" : "Mathematicians call this λ \"eigenvalue\" of the matrix and this vector v \"eigenvector\" of the matrix. It turns out that a matrix of range n has at most n real eigenvalues (well, yes... eigenvalues can me complex too, but bach doesn't handle the complex case). It turns out, also, that eigenvectors are not isolated vectors, but form a \"subspace\": for example, if a vector is an eigenvector for a certain λ, then all the vectors on the very same line will be eigenvectors for λ. too",
					"linecount" : 5,
					"id" : "obj-20",
					"numinlets" : 1,
					"numoutlets" : 0,
					"fontname" : "Arial",
					"patching_rect" : [ 5.0, 149.0, 556.0, 75.0 ],
					"fontsize" : 12.0
				}

			}
, 			{
				"box" : 				{
					"maxclass" : "newobj",
					"text" : "loadbang",
					"id" : "obj-57",
					"numinlets" : 1,
					"numoutlets" : 1,
					"fontname" : "Arial",
					"hidden" : 1,
					"patching_rect" : [ -153.0, 73.0, 60.0, 20.0 ],
					"outlettype" : [ "bang" ],
					"fontsize" : 12.0
				}

			}
, 			{
				"box" : 				{
					"maxclass" : "message",
					"text" : "clear, add 10 10",
					"id" : "obj-56",
					"numinlets" : 2,
					"numoutlets" : 1,
					"fontname" : "Arial",
					"hidden" : 1,
					"patching_rect" : [ -153.0, 98.0, 96.0, 18.0 ],
					"outlettype" : [ "" ],
					"fontsize" : 12.0
				}

			}
, 			{
				"box" : 				{
					"maxclass" : "newobj",
					"text" : "s matrix",
					"id" : "obj-218",
					"numinlets" : 1,
					"numoutlets" : 0,
					"fontname" : "Arial",
					"hidden" : 1,
					"patching_rect" : [ 558.0, 567.615417, 83.0, 31.0 ],
					"fontsize" : 21.289431
				}

			}
, 			{
				"box" : 				{
					"maxclass" : "comment",
					"text" : "The answer to the final question of the previous section is a complicate word: eigenvalues! There was nothing weird about the (1 1) (2 2) matrix. Only, when you input a vector having y double of x (like (10 20) or (-5 -10)), it was mapped to a vector \"on the same line\". Writing it as mathematician would write it, this means that ",
					"linecount" : 4,
					"id" : "obj-13",
					"numinlets" : 1,
					"numoutlets" : 0,
					"fontname" : "Arial",
					"patching_rect" : [ 5.0, 38.0, 560.0, 62.0 ],
					"fontsize" : 12.0
				}

			}
, 			{
				"box" : 				{
					"maxclass" : "newobj",
					"text" : "linksections 1 1 f \"Into The Matrix\"",
					"id" : "obj-198",
					"numinlets" : 1,
					"numoutlets" : 1,
					"fontname" : "Arial",
					"hidden" : 1,
					"patching_rect" : [ 207.0, 526.5, 191.0, 20.0 ],
					"outlettype" : [ "" ],
					"fontsize" : 12.0
				}

			}
, 			{
				"box" : 				{
					"maxclass" : "newobj",
					"text" : "thispatcher",
					"id" : "obj-14",
					"numinlets" : 1,
					"numoutlets" : 2,
					"fontname" : "Arial",
					"hidden" : 1,
					"patching_rect" : [ 207.0, 499.0, 69.0, 20.0 ],
					"outlettype" : [ "", "" ],
					"fontsize" : 12.0,
					"save" : [ "#N", "thispatcher", ";", "#Q", "end", ";" ]
				}

			}
, 			{
				"box" : 				{
					"maxclass" : "comment",
					"text" : "_________________________________________________________________",
					"id" : "obj-87",
					"numinlets" : 1,
					"numoutlets" : 0,
					"fontname" : "Arial",
					"patching_rect" : [ 5.0, 19.0, 444.0, 20.0 ],
					"fontsize" : 12.0
				}

			}
, 			{
				"box" : 				{
					"maxclass" : "comment",
					"text" : "- eigenvalues, eigenvectors",
					"id" : "obj-2",
					"numinlets" : 1,
					"numoutlets" : 0,
					"fontname" : "Arial Italic",
					"patching_rect" : [ 193.0, 7.74086, 215.0, 26.0 ],
					"fontsize" : 16.787033
				}

			}
, 			{
				"box" : 				{
					"maxclass" : "comment",
					"text" : "Into The Matrix (f)",
					"id" : "obj-3",
					"numinlets" : 1,
					"numoutlets" : 0,
					"fontname" : "Arial",
					"patching_rect" : [ 5.0, 2.924051, 192.0, 32.0 ],
					"fontsize" : 22.256727
				}

			}
, 			{
				"box" : 				{
					"maxclass" : "newobj",
					"varname" : "pcontrolA",
					"text" : "pcontrol",
					"id" : "obj-1",
					"numinlets" : 1,
					"numoutlets" : 1,
					"fontname" : "Arial",
					"hidden" : 1,
					"patching_rect" : [ 5.0, 546.0, 140.0, 20.0 ],
					"outlettype" : [ "" ],
					"fontsize" : 12.0
				}

			}
, 			{
				"box" : 				{
					"maxclass" : "newobj",
					"varname" : "prependA",
					"text" : "prepend load",
					"id" : "obj-4",
					"numinlets" : 1,
					"numoutlets" : 1,
					"fontname" : "Arial",
					"hidden" : 1,
					"patching_rect" : [ 5.0, 521.0, 140.0, 20.0 ],
					"outlettype" : [ "" ],
					"fontsize" : 12.0
				}

			}
, 			{
				"box" : 				{
					"maxclass" : "newobj",
					"varname" : "tosymbolA",
					"text" : "tosymbol",
					"id" : "obj-5",
					"numinlets" : 1,
					"numoutlets" : 1,
					"fontname" : "Arial",
					"hidden" : 1,
					"patching_rect" : [ 5.0, 496.0, 140.0, 20.0 ],
					"outlettype" : [ "" ],
					"fontsize" : 12.0
				}

			}
, 			{
				"box" : 				{
					"maxclass" : "message",
					"varname" : "messageA",
					"text" : "Into The Matrix (e)",
					"id" : "obj-7",
					"numinlets" : 2,
					"numoutlets" : 1,
					"fontname" : "Arial",
					"hidden" : 1,
					"patching_rect" : [ 5.0, 471.0, 140.0, 18.0 ],
					"outlettype" : [ "" ],
					"fontsize" : 12.0
				}

			}
, 			{
				"box" : 				{
					"maxclass" : "newobj",
					"varname" : "triggerA",
					"text" : "t b b",
					"id" : "obj-8",
					"numinlets" : 1,
					"numoutlets" : 2,
					"fontname" : "Arial",
					"hidden" : 1,
					"patching_rect" : [ 5.0, 446.0, 40.0, 20.0 ],
					"outlettype" : [ "bang", "bang" ],
					"fontsize" : 12.0
				}

			}
, 			{
				"box" : 				{
					"maxclass" : "textbutton",
					"varname" : "textbuttonA",
					"id" : "obj-10",
					"numinlets" : 1,
					"bordercolor" : [ 0.63, 0.7, 0.75, 1.0 ],
					"numoutlets" : 3,
					"fontname" : "Arial",
					"bgovercolor" : [ 0.64, 0.65, 0.72, 1.0 ],
					"patching_rect" : [ 5.0, 421.0, 151.0, 20.0 ],
					"outlettype" : [ "", "", "int" ],
					"fontface" : 2,
					"fontsize" : 12.0,
					"text" : "Back to section (e)",
					"bgoncolor" : [ 0.51, 0.59, 0.64, 1.0 ]
				}

			}
, 			{
				"box" : 				{
					"maxclass" : "newobj",
					"varname" : "pcontrolB",
					"text" : "pcontrol",
					"id" : "obj-11",
					"numinlets" : 1,
					"numoutlets" : 1,
					"fontname" : "Arial",
					"hidden" : 1,
					"patching_rect" : [ 428.0, 546.0, 140.0, 20.0 ],
					"outlettype" : [ "" ],
					"fontsize" : 12.0
				}

			}
, 			{
				"box" : 				{
					"maxclass" : "newobj",
					"varname" : "prependB",
					"text" : "prepend load",
					"id" : "obj-12",
					"numinlets" : 1,
					"numoutlets" : 1,
					"fontname" : "Arial",
					"hidden" : 1,
					"patching_rect" : [ 428.0, 521.0, 140.0, 20.0 ],
					"outlettype" : [ "" ],
					"fontsize" : 12.0
				}

			}
, 			{
				"box" : 				{
					"maxclass" : "newobj",
					"varname" : "tosymbolB",
					"text" : "tosymbol",
					"id" : "obj-15",
					"numinlets" : 1,
					"numoutlets" : 1,
					"fontname" : "Arial",
					"hidden" : 1,
					"patching_rect" : [ 428.0, 496.0, 140.0, 20.0 ],
					"outlettype" : [ "" ],
					"fontsize" : 12.0
				}

			}
, 			{
				"box" : 				{
					"maxclass" : "message",
					"varname" : "messageB",
					"text" : "Into The Matrix (g)",
					"id" : "obj-17",
					"numinlets" : 2,
					"numoutlets" : 1,
					"fontname" : "Arial",
					"hidden" : 1,
					"patching_rect" : [ 428.0, 471.0, 140.0, 18.0 ],
					"outlettype" : [ "" ],
					"fontsize" : 12.0
				}

			}
, 			{
				"box" : 				{
					"maxclass" : "newobj",
					"varname" : "triggerB",
					"text" : "t b b",
					"id" : "obj-18",
					"numinlets" : 1,
					"numoutlets" : 2,
					"fontname" : "Arial",
					"hidden" : 1,
					"patching_rect" : [ 428.0, 446.0, 40.0, 20.0 ],
					"outlettype" : [ "bang", "bang" ],
					"fontsize" : 12.0
				}

			}
, 			{
				"box" : 				{
					"maxclass" : "textbutton",
					"varname" : "textbuttonB",
					"id" : "obj-21",
					"numinlets" : 1,
					"bordercolor" : [ 0.63, 0.7, 0.75, 1.0 ],
					"numoutlets" : 3,
					"fontname" : "Arial",
					"bgovercolor" : [ 0.64, 0.65, 0.72, 1.0 ],
					"patching_rect" : [ 428.0, 421.0, 151.0, 20.0 ],
					"outlettype" : [ "", "", "int" ],
					"fontface" : 2,
					"fontsize" : 12.0,
					"text" : "Continue to section (g)",
					"bgoncolor" : [ 0.51, 0.59, 0.64, 1.0 ]
				}

			}
 ],
		"lines" : [ 			{
				"patchline" : 				{
					"source" : [ "obj-18", 0 ],
					"destination" : [ "obj-22", 0 ],
					"hidden" : 1,
					"midpoints" : [  ]
				}

			}
, 			{
				"patchline" : 				{
					"source" : [ "obj-12", 0 ],
					"destination" : [ "obj-11", 0 ],
					"hidden" : 1,
					"midpoints" : [  ]
				}

			}
, 			{
				"patchline" : 				{
					"source" : [ "obj-15", 0 ],
					"destination" : [ "obj-12", 0 ],
					"hidden" : 1,
					"midpoints" : [  ]
				}

			}
, 			{
				"patchline" : 				{
					"source" : [ "obj-17", 0 ],
					"destination" : [ "obj-15", 0 ],
					"hidden" : 1,
					"midpoints" : [  ]
				}

			}
, 			{
				"patchline" : 				{
					"source" : [ "obj-18", 1 ],
					"destination" : [ "obj-17", 0 ],
					"hidden" : 1,
					"midpoints" : [  ]
				}

			}
, 			{
				"patchline" : 				{
					"source" : [ "obj-21", 0 ],
					"destination" : [ "obj-18", 0 ],
					"hidden" : 1,
					"midpoints" : [  ]
				}

			}
, 			{
				"patchline" : 				{
					"source" : [ "obj-8", 0 ],
					"destination" : [ "obj-22", 0 ],
					"hidden" : 1,
					"midpoints" : [  ]
				}

			}
, 			{
				"patchline" : 				{
					"source" : [ "obj-4", 0 ],
					"destination" : [ "obj-1", 0 ],
					"hidden" : 1,
					"midpoints" : [  ]
				}

			}
, 			{
				"patchline" : 				{
					"source" : [ "obj-5", 0 ],
					"destination" : [ "obj-4", 0 ],
					"hidden" : 1,
					"midpoints" : [  ]
				}

			}
, 			{
				"patchline" : 				{
					"source" : [ "obj-7", 0 ],
					"destination" : [ "obj-5", 0 ],
					"hidden" : 1,
					"midpoints" : [  ]
				}

			}
, 			{
				"patchline" : 				{
					"source" : [ "obj-8", 1 ],
					"destination" : [ "obj-7", 0 ],
					"hidden" : 1,
					"midpoints" : [  ]
				}

			}
, 			{
				"patchline" : 				{
					"source" : [ "obj-10", 0 ],
					"destination" : [ "obj-8", 0 ],
					"hidden" : 1,
					"midpoints" : [  ]
				}

			}
, 			{
				"patchline" : 				{
					"source" : [ "obj-22", 0 ],
					"destination" : [ "obj-14", 0 ],
					"hidden" : 1,
					"midpoints" : [  ]
				}

			}
, 			{
				"patchline" : 				{
					"source" : [ "obj-57", 0 ],
					"destination" : [ "obj-56", 0 ],
					"hidden" : 1,
					"midpoints" : [  ]
				}

			}
, 			{
				"patchline" : 				{
					"source" : [ "obj-27", 0 ],
					"destination" : [ "obj-26", 0 ],
					"hidden" : 0,
					"midpoints" : [  ]
				}

			}
, 			{
				"patchline" : 				{
					"source" : [ "obj-26", 1 ],
					"destination" : [ "obj-51", 0 ],
					"hidden" : 0,
					"midpoints" : [  ]
				}

			}
, 			{
				"patchline" : 				{
					"source" : [ "obj-26", 0 ],
					"destination" : [ "obj-53", 0 ],
					"hidden" : 0,
					"midpoints" : [  ]
				}

			}
, 			{
				"patchline" : 				{
					"source" : [ "obj-14", 0 ],
					"destination" : [ "obj-198", 0 ],
					"hidden" : 1,
					"midpoints" : [  ]
				}

			}
, 			{
				"patchline" : 				{
					"source" : [ "obj-198", 0 ],
					"destination" : [ "obj-14", 0 ],
					"hidden" : 1,
					"midpoints" : [ 216.5, 552.5, 200.5, 552.5, 200.5, 494.0, 216.5, 494.0 ]
				}

			}
 ]
	}

}
