{
	"patcher" : 	{
		"fileversion" : 1,
		"rect" : [ 264.0, 44.0, 791.0, 550.0 ],
		"bglocked" : 0,
		"defrect" : [ 264.0, 44.0, 791.0, 550.0 ],
		"openrect" : [ 0.0, 0.0, 0.0, 0.0 ],
		"openinpresentation" : 0,
		"default_fontsize" : 12.0,
		"default_fontface" : 0,
		"default_fontname" : "Arial",
		"gridonopen" : 0,
		"gridsize" : [ 15.0, 15.0 ],
		"gridsnaponopen" : 0,
		"toolbarvisible" : 1,
		"boxanimatetime" : 200,
		"imprint" : 0,
		"enablehscroll" : 1,
		"enablevscroll" : 1,
		"devicewidth" : 0.0,
		"boxes" : [ 			{
				"box" : 				{
					"maxclass" : "newobj",
					"text" : "t b b",
					"fontsize" : 12.0,
					"numinlets" : 1,
					"patching_rect" : [ 383.0, 520.0, 34.0, 20.0 ],
					"numoutlets" : 2,
					"hidden" : 1,
					"outlettype" : [ "bang", "bang" ],
					"id" : "obj-81",
					"fontname" : "Arial"
				}

			}
, 			{
				"box" : 				{
					"maxclass" : "newobj",
					"text" : "t b b",
					"fontsize" : 12.0,
					"numinlets" : 1,
					"patching_rect" : [ 383.0, 72.0, 34.0, 20.0 ],
					"numoutlets" : 2,
					"hidden" : 1,
					"outlettype" : [ "bang", "bang" ],
					"id" : "obj-80",
					"fontname" : "Arial"
				}

			}
, 			{
				"box" : 				{
					"maxclass" : "comment",
					"text" : "change comparison element",
					"linecount" : 3,
					"fontsize" : 12.0,
					"numinlets" : 1,
					"patching_rect" : [ 292.0, 267.0, 74.0, 48.0 ],
					"numoutlets" : 0,
					"id" : "obj-79",
					"fontname" : "Arial"
				}

			}
, 			{
				"box" : 				{
					"maxclass" : "number",
					"fontsize" : 12.0,
					"numinlets" : 1,
					"patching_rect" : [ 243.0, 279.0, 50.0, 20.0 ],
					"numoutlets" : 2,
					"outlettype" : [ "int", "bang" ],
					"id" : "obj-77",
					"fontname" : "Arial"
				}

			}
, 			{
				"box" : 				{
					"maxclass" : "comment",
					"text" : "retains only numbers != 5",
					"fontsize" : 12.0,
					"numinlets" : 1,
					"patching_rect" : [ 181.0, 397.0, 150.0, 20.0 ],
					"numoutlets" : 0,
					"id" : "obj-75",
					"fontname" : "Arial"
				}

			}
, 			{
				"box" : 				{
					"maxclass" : "comment",
					"text" : "retains only number == 5",
					"fontsize" : 12.0,
					"numinlets" : 1,
					"patching_rect" : [ 181.0, 326.0, 156.0, 20.0 ],
					"numoutlets" : 0,
					"id" : "obj-74",
					"fontname" : "Arial"
				}

			}
, 			{
				"box" : 				{
					"maxclass" : "comment",
					"text" : "or a lambda-condition:",
					"linecount" : 2,
					"fontsize" : 12.0,
					"numinlets" : 1,
					"patching_rect" : [ 6.0, 430.0, 116.0, 34.0 ],
					"numoutlets" : 0,
					"id" : "obj-72",
					"fontname" : "Arial"
				}

			}
, 			{
				"box" : 				{
					"maxclass" : "comment",
					"text" : "or an operational condition:",
					"linecount" : 2,
					"fontsize" : 12.0,
					"numinlets" : 1,
					"patching_rect" : [ 6.0, 350.0, 116.0, 34.0 ],
					"numoutlets" : 0,
					"id" : "obj-71",
					"fontname" : "Arial"
				}

			}
, 			{
				"box" : 				{
					"maxclass" : "message",
					"text" : "1 2 (4 5 5) 5 ((4 5))",
					"fontsize" : 12.0,
					"numinlets" : 2,
					"patching_rect" : [ 117.0, 353.0, 111.0, 18.0 ],
					"numoutlets" : 1,
					"outlettype" : [ "" ],
					"id" : "obj-64",
					"fontname" : "Arial"
				}

			}
, 			{
				"box" : 				{
					"maxclass" : "newobj",
					"text" : "bach.print",
					"fontsize" : 12.0,
					"numinlets" : 1,
					"patching_rect" : [ 117.0, 401.0, 63.0, 20.0 ],
					"numoutlets" : 0,
					"id" : "obj-69",
					"fontname" : "Arial"
				}

			}
, 			{
				"box" : 				{
					"maxclass" : "newobj",
					"text" : "bach.sieve 5 @op != @out t",
					"fontsize" : 12.0,
					"numinlets" : 3,
					"patching_rect" : [ 117.0, 375.0, 159.0, 20.0 ],
					"numoutlets" : 2,
					"outlettype" : [ "", "" ],
					"id" : "obj-70",
					"fontname" : "Arial"
				}

			}
, 			{
				"box" : 				{
					"maxclass" : "comment",
					"text" : "As usual, the condition can be either a standard equality condition:",
					"linecount" : 4,
					"fontsize" : 12.0,
					"numinlets" : 1,
					"patching_rect" : [ 6.0, 278.0, 116.0, 62.0 ],
					"numoutlets" : 0,
					"id" : "obj-59",
					"fontname" : "Arial"
				}

			}
, 			{
				"box" : 				{
					"maxclass" : "message",
					"text" : "1 2 (4 5 5) 5 ((4 5))",
					"fontsize" : 12.0,
					"numinlets" : 2,
					"patching_rect" : [ 117.0, 279.0, 111.0, 18.0 ],
					"numoutlets" : 1,
					"outlettype" : [ "" ],
					"id" : "obj-57",
					"fontname" : "Arial"
				}

			}
, 			{
				"box" : 				{
					"maxclass" : "newobj",
					"text" : "bach.print",
					"fontsize" : 12.0,
					"numinlets" : 1,
					"patching_rect" : [ 117.0, 327.0, 63.0, 20.0 ],
					"numoutlets" : 0,
					"id" : "obj-56",
					"fontname" : "Arial"
				}

			}
, 			{
				"box" : 				{
					"maxclass" : "newobj",
					"text" : "bach.sieve 5 @out t",
					"fontsize" : 12.0,
					"numinlets" : 3,
					"patching_rect" : [ 117.0, 305.0, 117.0, 20.0 ],
					"numoutlets" : 2,
					"outlettype" : [ "", "" ],
					"id" : "obj-55",
					"fontname" : "Arial"
				}

			}
, 			{
				"box" : 				{
					"maxclass" : "comment",
					"text" : "This is our first example, but with just 4 objects!",
					"linecount" : 3,
					"fontsize" : 12.0,
					"numinlets" : 1,
					"patching_rect" : [ 253.0, 452.0, 107.0, 48.0 ],
					"numoutlets" : 0,
					"id" : "obj-54",
					"fontname" : "Arial"
				}

			}
, 			{
				"box" : 				{
					"maxclass" : "comment",
					"text" : "You can achieve the same thing via [bach.sieve], which retains only elements satisfying a given condition. ",
					"linecount" : 2,
					"fontsize" : 12.0,
					"numinlets" : 1,
					"patching_rect" : [ 8.0, 241.0, 347.0, 34.0 ],
					"numoutlets" : 0,
					"id" : "obj-49",
					"fontname" : "Arial"
				}

			}
, 			{
				"box" : 				{
					"maxclass" : "newobj",
					"text" : "bach.print",
					"fontsize" : 12.0,
					"numinlets" : 1,
					"patching_rect" : [ 117.0, 484.0, 63.0, 20.0 ],
					"numoutlets" : 0,
					"id" : "obj-32",
					"fontname" : "Arial"
				}

			}
, 			{
				"box" : 				{
					"maxclass" : "message",
					"text" : "1 2 3 (4 5 6) (8 9 (10 12))",
					"fontsize" : 12.0,
					"numinlets" : 2,
					"patching_rect" : [ 117.0, 432.0, 145.0, 18.0 ],
					"numoutlets" : 1,
					"outlettype" : [ "" ],
					"id" : "obj-30",
					"fontname" : "Arial"
				}

			}
, 			{
				"box" : 				{
					"maxclass" : "newobj",
					"text" : "% 2",
					"fontsize" : 12.0,
					"numinlets" : 2,
					"patching_rect" : [ 205.0, 482.0, 32.5, 20.0 ],
					"numoutlets" : 1,
					"outlettype" : [ "int" ],
					"id" : "obj-29",
					"fontname" : "Arial"
				}

			}
, 			{
				"box" : 				{
					"maxclass" : "newobj",
					"text" : "bach.sieve @out t",
					"fontsize" : 12.0,
					"numinlets" : 3,
					"patching_rect" : [ 117.0, 457.0, 107.0, 20.0 ],
					"numoutlets" : 2,
					"outlettype" : [ "", "" ],
					"id" : "obj-28",
					"fontname" : "Arial"
				}

			}
, 			{
				"box" : 				{
					"maxclass" : "comment",
					"text" : "bach.filter does the trick automatically, replacing the:",
					"linecount" : 4,
					"fontsize" : 12.0,
					"numinlets" : 1,
					"patching_rect" : [ 588.0, 379.0, 93.0, 62.0 ],
					"numoutlets" : 0,
					"id" : "obj-27",
					"fontname" : "Arial"
				}

			}
, 			{
				"box" : 				{
					"maxclass" : "newobj",
					"text" : "gate",
					"fontsize" : 12.0,
					"numinlets" : 2,
					"patching_rect" : [ 690.0, 442.0, 34.0, 20.0 ],
					"numoutlets" : 1,
					"outlettype" : [ "" ],
					"id" : "obj-22",
					"fontname" : "Arial"
				}

			}
, 			{
				"box" : 				{
					"maxclass" : "newobj",
					"text" : "== 16",
					"fontsize" : 12.0,
					"numinlets" : 2,
					"patching_rect" : [ 701.0, 416.0, 41.0, 20.0 ],
					"numoutlets" : 1,
					"outlettype" : [ "int" ],
					"id" : "obj-23",
					"fontname" : "Arial"
				}

			}
, 			{
				"box" : 				{
					"maxclass" : "newobj",
					"text" : "bach.is",
					"fontsize" : 12.0,
					"numinlets" : 1,
					"patching_rect" : [ 701.0, 392.0, 49.0, 20.0 ],
					"numoutlets" : 1,
					"outlettype" : [ "int" ],
					"id" : "obj-24",
					"fontname" : "Arial"
				}

			}
, 			{
				"box" : 				{
					"maxclass" : "newobj",
					"text" : "t l l",
					"fontsize" : 12.0,
					"numinlets" : 1,
					"patching_rect" : [ 687.0, 369.0, 32.5, 20.0 ],
					"numoutlets" : 2,
					"outlettype" : [ "", "" ],
					"id" : "obj-25",
					"fontname" : "Arial"
				}

			}
, 			{
				"box" : 				{
					"maxclass" : "newobj",
					"text" : "bach.filter 16",
					"fontsize" : 12.0,
					"numinlets" : 2,
					"patching_rect" : [ 451.0, 400.0, 79.0, 20.0 ],
					"numoutlets" : 2,
					"outlettype" : [ "", "" ],
					"id" : "obj-68",
					"fontname" : "Arial"
				}

			}
, 			{
				"box" : 				{
					"maxclass" : "newobj",
					"text" : "bach.print",
					"fontsize" : 12.0,
					"numinlets" : 1,
					"patching_rect" : [ 423.0, 456.0, 63.0, 20.0 ],
					"numoutlets" : 0,
					"id" : "obj-62",
					"fontname" : "Arial"
				}

			}
, 			{
				"box" : 				{
					"maxclass" : "newobj",
					"text" : "t b l clear",
					"fontsize" : 12.0,
					"numinlets" : 1,
					"patching_rect" : [ 423.0, 347.0, 74.0, 20.0 ],
					"numoutlets" : 3,
					"outlettype" : [ "bang", "", "clear" ],
					"id" : "obj-63",
					"fontname" : "Arial"
				}

			}
, 			{
				"box" : 				{
					"maxclass" : "newobj",
					"text" : "bach.collect",
					"fontsize" : 12.0,
					"numinlets" : 3,
					"patching_rect" : [ 423.0, 432.0, 75.0, 20.0 ],
					"numoutlets" : 1,
					"outlettype" : [ "" ],
					"id" : "obj-65",
					"fontname" : "Arial"
				}

			}
, 			{
				"box" : 				{
					"maxclass" : "message",
					"text" : "1 foo 3 (toto 5 tutu) (8 9 (ii 12))",
					"fontsize" : 12.0,
					"numinlets" : 2,
					"patching_rect" : [ 423.0, 325.0, 173.0, 18.0 ],
					"numoutlets" : 1,
					"outlettype" : [ "" ],
					"id" : "obj-66",
					"fontname" : "Arial"
				}

			}
, 			{
				"box" : 				{
					"maxclass" : "newobj",
					"text" : "bach.iter @out t",
					"fontsize" : 12.0,
					"numinlets" : 2,
					"patching_rect" : [ 451.0, 375.0, 125.0, 20.0 ],
					"numoutlets" : 3,
					"outlettype" : [ "", "", "int" ],
					"id" : "obj-67",
					"fontname" : "Arial"
				}

			}
, 			{
				"box" : 				{
					"maxclass" : "newobj",
					"text" : "gate",
					"fontsize" : 12.0,
					"numinlets" : 2,
					"patching_rect" : [ 454.0, 228.0, 34.0, 20.0 ],
					"numoutlets" : 1,
					"outlettype" : [ "" ],
					"id" : "obj-52",
					"fontname" : "Arial"
				}

			}
, 			{
				"box" : 				{
					"maxclass" : "newobj",
					"text" : "== 16",
					"fontsize" : 12.0,
					"numinlets" : 2,
					"patching_rect" : [ 465.0, 202.0, 41.0, 20.0 ],
					"numoutlets" : 1,
					"outlettype" : [ "int" ],
					"id" : "obj-51",
					"fontname" : "Arial"
				}

			}
, 			{
				"box" : 				{
					"maxclass" : "newobj",
					"text" : "bach.is",
					"fontsize" : 12.0,
					"numinlets" : 1,
					"patching_rect" : [ 465.0, 178.0, 49.0, 20.0 ],
					"numoutlets" : 1,
					"outlettype" : [ "int" ],
					"id" : "obj-50",
					"fontname" : "Arial"
				}

			}
, 			{
				"box" : 				{
					"maxclass" : "comment",
					"text" : "here we collect symbols only: [bach.is] returns a number depending on the type of the incoming elements (see its help for details), and 16 is the number related to symbols",
					"linecount" : 6,
					"fontsize" : 12.0,
					"numinlets" : 1,
					"patching_rect" : [ 586.0, 150.0, 180.0, 89.0 ],
					"numoutlets" : 0,
					"id" : "obj-42",
					"fontname" : "Arial"
				}

			}
, 			{
				"box" : 				{
					"maxclass" : "newobj",
					"text" : "bach.print",
					"fontsize" : 12.0,
					"numinlets" : 1,
					"patching_rect" : [ 423.0, 278.0, 63.0, 20.0 ],
					"numoutlets" : 0,
					"id" : "obj-43",
					"fontname" : "Arial"
				}

			}
, 			{
				"box" : 				{
					"maxclass" : "newobj",
					"text" : "t b l clear",
					"fontsize" : 12.0,
					"numinlets" : 1,
					"patching_rect" : [ 423.0, 104.0, 74.0, 20.0 ],
					"numoutlets" : 3,
					"outlettype" : [ "bang", "", "clear" ],
					"id" : "obj-44",
					"fontname" : "Arial"
				}

			}
, 			{
				"box" : 				{
					"maxclass" : "newobj",
					"text" : "t l l",
					"fontsize" : 12.0,
					"numinlets" : 1,
					"patching_rect" : [ 451.0, 155.0, 32.5, 20.0 ],
					"numoutlets" : 2,
					"outlettype" : [ "", "" ],
					"id" : "obj-45",
					"fontname" : "Arial"
				}

			}
, 			{
				"box" : 				{
					"maxclass" : "newobj",
					"text" : "bach.collect",
					"fontsize" : 12.0,
					"numinlets" : 3,
					"patching_rect" : [ 423.0, 253.0, 81.0, 20.0 ],
					"numoutlets" : 1,
					"outlettype" : [ "" ],
					"id" : "obj-46",
					"fontname" : "Arial"
				}

			}
, 			{
				"box" : 				{
					"maxclass" : "message",
					"text" : "1 foo 3 (toto 5 tutu) (8 9 (ii 12))",
					"fontsize" : 12.0,
					"numinlets" : 2,
					"patching_rect" : [ 423.0, 82.0, 173.0, 18.0 ],
					"numoutlets" : 1,
					"outlettype" : [ "" ],
					"id" : "obj-47",
					"fontname" : "Arial"
				}

			}
, 			{
				"box" : 				{
					"maxclass" : "newobj",
					"text" : "bach.iter @out t",
					"fontsize" : 12.0,
					"numinlets" : 2,
					"patching_rect" : [ 451.0, 130.0, 125.0, 20.0 ],
					"numoutlets" : 3,
					"outlettype" : [ "", "", "int" ],
					"id" : "obj-48",
					"fontname" : "Arial"
				}

			}
, 			{
				"box" : 				{
					"maxclass" : "comment",
					"text" : "here we collect only odd numbers, i.e. numbers n such that n % 2 = 1",
					"linecount" : 3,
					"fontsize" : 12.0,
					"numinlets" : 1,
					"patching_rect" : [ 169.0, 136.0, 150.0, 48.0 ],
					"numoutlets" : 0,
					"id" : "obj-41",
					"fontname" : "Arial"
				}

			}
, 			{
				"box" : 				{
					"maxclass" : "newobj",
					"text" : "bach.print",
					"fontsize" : 12.0,
					"numinlets" : 1,
					"patching_rect" : [ 10.0, 218.0, 63.0, 20.0 ],
					"numoutlets" : 0,
					"id" : "obj-39",
					"fontname" : "Arial"
				}

			}
, 			{
				"box" : 				{
					"maxclass" : "newobj",
					"text" : "t b l clear",
					"fontsize" : 12.0,
					"numinlets" : 1,
					"patching_rect" : [ 10.0, 104.0, 74.0, 20.0 ],
					"numoutlets" : 3,
					"outlettype" : [ "bang", "", "clear" ],
					"id" : "obj-38",
					"fontname" : "Arial"
				}

			}
, 			{
				"box" : 				{
					"maxclass" : "newobj",
					"text" : "if $i1 % 2 then $i1",
					"fontsize" : 12.0,
					"numinlets" : 1,
					"patching_rect" : [ 38.0, 161.0, 106.0, 20.0 ],
					"numoutlets" : 1,
					"outlettype" : [ "" ],
					"id" : "obj-37",
					"fontname" : "Arial"
				}

			}
, 			{
				"box" : 				{
					"maxclass" : "newobj",
					"text" : "bach.collect",
					"fontsize" : 12.0,
					"numinlets" : 3,
					"patching_rect" : [ 10.0, 193.0, 74.0, 20.0 ],
					"numoutlets" : 1,
					"outlettype" : [ "" ],
					"id" : "obj-36",
					"fontname" : "Arial"
				}

			}
, 			{
				"box" : 				{
					"maxclass" : "message",
					"text" : "1 2 3 (4 5 6) (8 9 (10 12))",
					"fontsize" : 12.0,
					"numinlets" : 2,
					"patching_rect" : [ 10.0, 82.0, 145.0, 18.0 ],
					"numoutlets" : 1,
					"outlettype" : [ "" ],
					"id" : "obj-34",
					"fontname" : "Arial"
				}

			}
, 			{
				"box" : 				{
					"maxclass" : "newobj",
					"text" : "bach.iter @out t",
					"fontsize" : 12.0,
					"numinlets" : 2,
					"patching_rect" : [ 38.0, 132.0, 125.0, 20.0 ],
					"numoutlets" : 3,
					"outlettype" : [ "", "", "int" ],
					"id" : "obj-35",
					"fontname" : "Arial"
				}

			}
, 			{
				"box" : 				{
					"maxclass" : "message",
					"varname" : "wclose",
					"text" : "clean, wclose",
					"fontsize" : 12.0,
					"numinlets" : 2,
					"patching_rect" : [ 254.5, 567.0, 81.0, 18.0 ],
					"numoutlets" : 1,
					"hidden" : 1,
					"outlettype" : [ "" ],
					"id" : "obj-89",
					"fontname" : "Arial"
				}

			}
, 			{
				"box" : 				{
					"maxclass" : "newobj",
					"text" : "linksections 1 1 v Iterations",
					"fontsize" : 12.0,
					"numinlets" : 1,
					"patching_rect" : [ 254.5, 619.5, 155.0, 20.0 ],
					"numoutlets" : 1,
					"hidden" : 1,
					"outlettype" : [ "" ],
					"id" : "obj-198",
					"fontname" : "Arial"
				}

			}
, 			{
				"box" : 				{
					"maxclass" : "newobj",
					"text" : "thispatcher",
					"fontsize" : 12.0,
					"numinlets" : 1,
					"patching_rect" : [ 254.5, 592.0, 69.0, 20.0 ],
					"numoutlets" : 2,
					"hidden" : 1,
					"outlettype" : [ "", "" ],
					"id" : "obj-90",
					"fontname" : "Arial",
					"save" : [ "#N", "thispatcher", ";", "#Q", "end", ";" ]
				}

			}
, 			{
				"box" : 				{
					"maxclass" : "comment",
					"text" : "Filtering might also mean removing duplicates...",
					"linecount" : 2,
					"fontsize" : 12.0,
					"textcolor" : [ 0.0, 0.168627, 0.67451, 1.0 ],
					"numinlets" : 1,
					"patching_rect" : [ 457.0, 516.0, 181.0, 34.0 ],
					"numoutlets" : 0,
					"frgb" : [ 0.0, 0.168627, 0.67451, 1.0 ],
					"id" : "obj-61",
					"fontname" : "Arial",
					"fontface" : 2
				}

			}
, 			{
				"box" : 				{
					"maxclass" : "comment",
					"text" : "_________________________________________________________________",
					"fontsize" : 12.0,
					"numinlets" : 1,
					"patching_rect" : [ 5.0, 19.0, 444.0, 20.0 ],
					"numoutlets" : 0,
					"id" : "obj-87",
					"fontname" : "Arial"
				}

			}
, 			{
				"box" : 				{
					"maxclass" : "comment",
					"text" : "- filtering",
					"fontsize" : 16.787033,
					"numinlets" : 1,
					"patching_rect" : [ 138.0, 7.74086, 292.0, 26.0 ],
					"numoutlets" : 0,
					"id" : "obj-2",
					"fontname" : "Arial Italic"
				}

			}
, 			{
				"box" : 				{
					"maxclass" : "comment",
					"text" : "Iterations (v)",
					"fontsize" : 22.256727,
					"numinlets" : 1,
					"patching_rect" : [ 5.0, 2.924051, 142.0, 32.0 ],
					"numoutlets" : 0,
					"id" : "obj-3",
					"fontname" : "Arial"
				}

			}
, 			{
				"box" : 				{
					"maxclass" : "comment",
					"text" : "Another iter-like process is a filtering process: one might iter a llll and decide to retain only elements which satisfy some given conditions. A way to do that is the direct way, where we really iterate on the list, and collect only some elements. Two examples:",
					"linecount" : 2,
					"fontsize" : 12.0,
					"numinlets" : 1,
					"patching_rect" : [ 5.0, 43.0, 707.0, 34.0 ],
					"numoutlets" : 0,
					"id" : "obj-13",
					"fontname" : "Arial"
				}

			}
, 			{
				"box" : 				{
					"maxclass" : "panel",
					"bgcolor" : [ 0.92549, 0.917647, 0.85098, 1.0 ],
					"numinlets" : 1,
					"patching_rect" : [ 446.0, 152.0, 71.0, 99.0 ],
					"numoutlets" : 0,
					"id" : "obj-21",
					"border" : 1,
					"background" : 1
				}

			}
, 			{
				"box" : 				{
					"maxclass" : "panel",
					"bgcolor" : [ 0.92549, 0.917647, 0.85098, 1.0 ],
					"numinlets" : 1,
					"patching_rect" : [ 682.0, 366.0, 71.0, 99.0 ],
					"numoutlets" : 0,
					"id" : "obj-26",
					"border" : 1,
					"background" : 1
				}

			}
, 			{
				"box" : 				{
					"maxclass" : "newobj",
					"varname" : "pcontrolA",
					"text" : "pcontrol",
					"fontsize" : 12.0,
					"numinlets" : 1,
					"patching_rect" : [ 5.0, 650.0, 140.0, 20.0 ],
					"numoutlets" : 1,
					"hidden" : 1,
					"outlettype" : [ "" ],
					"id" : "obj-1",
					"fontname" : "Arial"
				}

			}
, 			{
				"box" : 				{
					"maxclass" : "newobj",
					"varname" : "prependA",
					"text" : "prepend load",
					"fontsize" : 12.0,
					"numinlets" : 1,
					"patching_rect" : [ 5.0, 625.0, 140.0, 20.0 ],
					"numoutlets" : 1,
					"hidden" : 1,
					"outlettype" : [ "" ],
					"id" : "obj-4",
					"fontname" : "Arial"
				}

			}
, 			{
				"box" : 				{
					"maxclass" : "newobj",
					"varname" : "tosymbolA",
					"text" : "tosymbol",
					"fontsize" : 12.0,
					"numinlets" : 1,
					"patching_rect" : [ 5.0, 600.0, 140.0, 20.0 ],
					"numoutlets" : 1,
					"hidden" : 1,
					"outlettype" : [ "" ],
					"id" : "obj-5",
					"fontname" : "Arial"
				}

			}
, 			{
				"box" : 				{
					"maxclass" : "message",
					"varname" : "messageA",
					"text" : "Iterations (u)",
					"fontsize" : 12.0,
					"numinlets" : 2,
					"patching_rect" : [ 5.0, 575.0, 140.0, 18.0 ],
					"numoutlets" : 1,
					"hidden" : 1,
					"outlettype" : [ "" ],
					"id" : "obj-7",
					"fontname" : "Arial"
				}

			}
, 			{
				"box" : 				{
					"maxclass" : "newobj",
					"varname" : "triggerA",
					"text" : "t b b",
					"fontsize" : 12.0,
					"numinlets" : 1,
					"patching_rect" : [ 5.0, 550.0, 40.0, 20.0 ],
					"numoutlets" : 2,
					"hidden" : 1,
					"outlettype" : [ "bang", "bang" ],
					"id" : "obj-8",
					"fontname" : "Arial"
				}

			}
, 			{
				"box" : 				{
					"maxclass" : "textbutton",
					"varname" : "textbuttonA",
					"fontsize" : 12.0,
					"bgovercolor" : [ 0.64, 0.65, 0.72, 1.0 ],
					"numinlets" : 1,
					"patching_rect" : [ 5.0, 525.0, 151.0, 20.0 ],
					"bordercolor" : [ 0.63, 0.7, 0.75, 1.0 ],
					"numoutlets" : 3,
					"bgoncolor" : [ 0.51, 0.59, 0.64, 1.0 ],
					"outlettype" : [ "", "", "int" ],
					"id" : "obj-10",
					"fontname" : "Arial",
					"text" : "Back to section (u)",
					"fontface" : 2
				}

			}
, 			{
				"box" : 				{
					"maxclass" : "newobj",
					"varname" : "pcontrolB",
					"text" : "pcontrol",
					"fontsize" : 12.0,
					"numinlets" : 1,
					"patching_rect" : [ 636.0, 650.0, 140.0, 20.0 ],
					"numoutlets" : 1,
					"hidden" : 1,
					"outlettype" : [ "" ],
					"id" : "obj-11",
					"fontname" : "Arial"
				}

			}
, 			{
				"box" : 				{
					"maxclass" : "newobj",
					"varname" : "prependB",
					"text" : "prepend load",
					"fontsize" : 12.0,
					"numinlets" : 1,
					"patching_rect" : [ 636.0, 625.0, 140.0, 20.0 ],
					"numoutlets" : 1,
					"hidden" : 1,
					"outlettype" : [ "" ],
					"id" : "obj-12",
					"fontname" : "Arial"
				}

			}
, 			{
				"box" : 				{
					"maxclass" : "newobj",
					"varname" : "tosymbolB",
					"text" : "tosymbol",
					"fontsize" : 12.0,
					"numinlets" : 1,
					"patching_rect" : [ 636.0, 600.0, 140.0, 20.0 ],
					"numoutlets" : 1,
					"hidden" : 1,
					"outlettype" : [ "" ],
					"id" : "obj-14",
					"fontname" : "Arial"
				}

			}
, 			{
				"box" : 				{
					"maxclass" : "message",
					"varname" : "messageB",
					"text" : "Iterations (w)",
					"fontsize" : 12.0,
					"numinlets" : 2,
					"patching_rect" : [ 636.0, 575.0, 140.0, 18.0 ],
					"numoutlets" : 1,
					"hidden" : 1,
					"outlettype" : [ "" ],
					"id" : "obj-16",
					"fontname" : "Arial"
				}

			}
, 			{
				"box" : 				{
					"maxclass" : "newobj",
					"varname" : "triggerB",
					"text" : "t b b",
					"fontsize" : 12.0,
					"numinlets" : 1,
					"patching_rect" : [ 636.0, 550.0, 40.0, 20.0 ],
					"numoutlets" : 2,
					"hidden" : 1,
					"outlettype" : [ "bang", "bang" ],
					"id" : "obj-17",
					"fontname" : "Arial"
				}

			}
, 			{
				"box" : 				{
					"maxclass" : "textbutton",
					"varname" : "textbuttonB",
					"fontsize" : 12.0,
					"bgovercolor" : [ 0.64, 0.65, 0.72, 1.0 ],
					"numinlets" : 1,
					"patching_rect" : [ 636.0, 525.0, 151.0, 20.0 ],
					"bordercolor" : [ 0.63, 0.7, 0.75, 1.0 ],
					"numoutlets" : 3,
					"bgoncolor" : [ 0.51, 0.59, 0.64, 1.0 ],
					"outlettype" : [ "", "", "int" ],
					"id" : "obj-19",
					"fontname" : "Arial",
					"text" : "Continue to section (w)",
					"fontface" : 2
				}

			}
 ],
		"lines" : [ 			{
				"patchline" : 				{
					"source" : [ "obj-17", 0 ],
					"destination" : [ "obj-89", 0 ],
					"hidden" : 1,
					"midpoints" : [  ]
				}

			}
, 			{
				"patchline" : 				{
					"source" : [ "obj-12", 0 ],
					"destination" : [ "obj-11", 0 ],
					"hidden" : 1,
					"midpoints" : [  ]
				}

			}
, 			{
				"patchline" : 				{
					"source" : [ "obj-14", 0 ],
					"destination" : [ "obj-12", 0 ],
					"hidden" : 1,
					"midpoints" : [  ]
				}

			}
, 			{
				"patchline" : 				{
					"source" : [ "obj-16", 0 ],
					"destination" : [ "obj-14", 0 ],
					"hidden" : 1,
					"midpoints" : [  ]
				}

			}
, 			{
				"patchline" : 				{
					"source" : [ "obj-17", 1 ],
					"destination" : [ "obj-16", 0 ],
					"hidden" : 1,
					"midpoints" : [  ]
				}

			}
, 			{
				"patchline" : 				{
					"source" : [ "obj-19", 0 ],
					"destination" : [ "obj-17", 0 ],
					"hidden" : 1,
					"midpoints" : [  ]
				}

			}
, 			{
				"patchline" : 				{
					"source" : [ "obj-8", 0 ],
					"destination" : [ "obj-89", 0 ],
					"hidden" : 1,
					"midpoints" : [  ]
				}

			}
, 			{
				"patchline" : 				{
					"source" : [ "obj-4", 0 ],
					"destination" : [ "obj-1", 0 ],
					"hidden" : 1,
					"midpoints" : [  ]
				}

			}
, 			{
				"patchline" : 				{
					"source" : [ "obj-5", 0 ],
					"destination" : [ "obj-4", 0 ],
					"hidden" : 1,
					"midpoints" : [  ]
				}

			}
, 			{
				"patchline" : 				{
					"source" : [ "obj-7", 0 ],
					"destination" : [ "obj-5", 0 ],
					"hidden" : 1,
					"midpoints" : [  ]
				}

			}
, 			{
				"patchline" : 				{
					"source" : [ "obj-8", 1 ],
					"destination" : [ "obj-7", 0 ],
					"hidden" : 1,
					"midpoints" : [  ]
				}

			}
, 			{
				"patchline" : 				{
					"source" : [ "obj-10", 0 ],
					"destination" : [ "obj-8", 0 ],
					"hidden" : 1,
					"midpoints" : [  ]
				}

			}
, 			{
				"patchline" : 				{
					"source" : [ "obj-90", 0 ],
					"destination" : [ "obj-198", 0 ],
					"hidden" : 1,
					"midpoints" : [  ]
				}

			}
, 			{
				"patchline" : 				{
					"source" : [ "obj-198", 0 ],
					"destination" : [ "obj-90", 0 ],
					"hidden" : 1,
					"midpoints" : [ 264.0, 645.5, 246.0, 645.5, 246.0, 587.0, 264.0, 587.0 ]
				}

			}
, 			{
				"patchline" : 				{
					"source" : [ "obj-80", 0 ],
					"destination" : [ "obj-81", 0 ],
					"hidden" : 0,
					"color" : [ 0.603922, 0.603922, 0.603922, 1.0 ],
					"midpoints" : [  ]
				}

			}
, 			{
				"patchline" : 				{
					"source" : [ "obj-77", 0 ],
					"destination" : [ "obj-55", 1 ],
					"hidden" : 0,
					"midpoints" : [ 252.5, 301.5, 175.5, 301.5 ]
				}

			}
, 			{
				"patchline" : 				{
					"source" : [ "obj-64", 0 ],
					"destination" : [ "obj-70", 0 ],
					"hidden" : 0,
					"midpoints" : [  ]
				}

			}
, 			{
				"patchline" : 				{
					"source" : [ "obj-70", 0 ],
					"destination" : [ "obj-69", 0 ],
					"hidden" : 0,
					"midpoints" : [  ]
				}

			}
, 			{
				"patchline" : 				{
					"source" : [ "obj-57", 0 ],
					"destination" : [ "obj-55", 0 ],
					"hidden" : 0,
					"midpoints" : [  ]
				}

			}
, 			{
				"patchline" : 				{
					"source" : [ "obj-55", 0 ],
					"destination" : [ "obj-56", 0 ],
					"hidden" : 0,
					"midpoints" : [  ]
				}

			}
, 			{
				"patchline" : 				{
					"source" : [ "obj-28", 0 ],
					"destination" : [ "obj-32", 0 ],
					"hidden" : 0,
					"midpoints" : [  ]
				}

			}
, 			{
				"patchline" : 				{
					"source" : [ "obj-30", 0 ],
					"destination" : [ "obj-28", 0 ],
					"hidden" : 0,
					"midpoints" : [  ]
				}

			}
, 			{
				"patchline" : 				{
					"source" : [ "obj-29", 0 ],
					"destination" : [ "obj-28", 2 ],
					"hidden" : 0,
					"color" : [ 1.0, 0.0, 0.0, 1.0 ],
					"midpoints" : [ 214.5, 505.0, 245.0, 505.0, 245.0, 452.0, 214.5, 452.0 ]
				}

			}
, 			{
				"patchline" : 				{
					"source" : [ "obj-28", 1 ],
					"destination" : [ "obj-29", 0 ],
					"hidden" : 0,
					"midpoints" : [  ]
				}

			}
, 			{
				"patchline" : 				{
					"source" : [ "obj-24", 0 ],
					"destination" : [ "obj-23", 0 ],
					"hidden" : 0,
					"midpoints" : [  ]
				}

			}
, 			{
				"patchline" : 				{
					"source" : [ "obj-23", 0 ],
					"destination" : [ "obj-22", 0 ],
					"hidden" : 0,
					"midpoints" : [  ]
				}

			}
, 			{
				"patchline" : 				{
					"source" : [ "obj-25", 0 ],
					"destination" : [ "obj-22", 1 ],
					"hidden" : 0,
					"midpoints" : [ 696.5, 440.0, 714.5, 440.0 ]
				}

			}
, 			{
				"patchline" : 				{
					"source" : [ "obj-25", 1 ],
					"destination" : [ "obj-24", 0 ],
					"hidden" : 0,
					"midpoints" : [  ]
				}

			}
, 			{
				"patchline" : 				{
					"source" : [ "obj-89", 0 ],
					"destination" : [ "obj-90", 0 ],
					"hidden" : 1,
					"midpoints" : [  ]
				}

			}
, 			{
				"patchline" : 				{
					"source" : [ "obj-35", 0 ],
					"destination" : [ "obj-37", 0 ],
					"hidden" : 0,
					"midpoints" : [  ]
				}

			}
, 			{
				"patchline" : 				{
					"source" : [ "obj-37", 0 ],
					"destination" : [ "obj-36", 1 ],
					"hidden" : 0,
					"midpoints" : [  ]
				}

			}
, 			{
				"patchline" : 				{
					"source" : [ "obj-35", 2 ],
					"destination" : [ "obj-36", 2 ],
					"hidden" : 0,
					"color" : [ 1.0, 0.0, 0.0, 1.0 ],
					"midpoints" : [ 153.5, 187.0, 74.5, 187.0 ]
				}

			}
, 			{
				"patchline" : 				{
					"source" : [ "obj-34", 0 ],
					"destination" : [ "obj-38", 0 ],
					"hidden" : 0,
					"midpoints" : [  ]
				}

			}
, 			{
				"patchline" : 				{
					"source" : [ "obj-38", 1 ],
					"destination" : [ "obj-35", 0 ],
					"hidden" : 0,
					"midpoints" : [  ]
				}

			}
, 			{
				"patchline" : 				{
					"source" : [ "obj-38", 2 ],
					"destination" : [ "obj-36", 2 ],
					"hidden" : 0,
					"color" : [ 0.0, 0.023529, 1.0, 1.0 ],
					"midpoints" : [ 74.5, 124.0, 169.0, 124.0, 169.0, 187.0, 74.5, 187.0 ]
				}

			}
, 			{
				"patchline" : 				{
					"source" : [ "obj-38", 0 ],
					"destination" : [ "obj-36", 0 ],
					"hidden" : 0,
					"midpoints" : [  ]
				}

			}
, 			{
				"patchline" : 				{
					"source" : [ "obj-36", 0 ],
					"destination" : [ "obj-39", 0 ],
					"hidden" : 0,
					"midpoints" : [  ]
				}

			}
, 			{
				"patchline" : 				{
					"source" : [ "obj-46", 0 ],
					"destination" : [ "obj-43", 0 ],
					"hidden" : 0,
					"midpoints" : [  ]
				}

			}
, 			{
				"patchline" : 				{
					"source" : [ "obj-44", 0 ],
					"destination" : [ "obj-46", 0 ],
					"hidden" : 0,
					"midpoints" : [  ]
				}

			}
, 			{
				"patchline" : 				{
					"source" : [ "obj-44", 2 ],
					"destination" : [ "obj-46", 2 ],
					"hidden" : 0,
					"color" : [ 0.0, 0.023529, 1.0, 1.0 ],
					"midpoints" : [ 487.5, 124.0, 582.0, 124.0, 582.0, 243.0, 494.5, 243.0 ]
				}

			}
, 			{
				"patchline" : 				{
					"source" : [ "obj-44", 1 ],
					"destination" : [ "obj-48", 0 ],
					"hidden" : 0,
					"midpoints" : [  ]
				}

			}
, 			{
				"patchline" : 				{
					"source" : [ "obj-47", 0 ],
					"destination" : [ "obj-44", 0 ],
					"hidden" : 0,
					"midpoints" : [  ]
				}

			}
, 			{
				"patchline" : 				{
					"source" : [ "obj-48", 2 ],
					"destination" : [ "obj-46", 2 ],
					"hidden" : 0,
					"color" : [ 1.0, 0.0, 0.0, 1.0 ],
					"midpoints" : [ 566.5, 243.0, 494.5, 243.0 ]
				}

			}
, 			{
				"patchline" : 				{
					"source" : [ "obj-48", 0 ],
					"destination" : [ "obj-45", 0 ],
					"hidden" : 0,
					"midpoints" : [  ]
				}

			}
, 			{
				"patchline" : 				{
					"source" : [ "obj-45", 1 ],
					"destination" : [ "obj-50", 0 ],
					"hidden" : 0,
					"midpoints" : [  ]
				}

			}
, 			{
				"patchline" : 				{
					"source" : [ "obj-45", 0 ],
					"destination" : [ "obj-52", 1 ],
					"hidden" : 0,
					"midpoints" : [ 460.5, 226.0, 478.5, 226.0 ]
				}

			}
, 			{
				"patchline" : 				{
					"source" : [ "obj-52", 0 ],
					"destination" : [ "obj-46", 1 ],
					"hidden" : 0,
					"midpoints" : [  ]
				}

			}
, 			{
				"patchline" : 				{
					"source" : [ "obj-51", 0 ],
					"destination" : [ "obj-52", 0 ],
					"hidden" : 0,
					"midpoints" : [  ]
				}

			}
, 			{
				"patchline" : 				{
					"source" : [ "obj-50", 0 ],
					"destination" : [ "obj-51", 0 ],
					"hidden" : 0,
					"midpoints" : [  ]
				}

			}
, 			{
				"patchline" : 				{
					"source" : [ "obj-67", 2 ],
					"destination" : [ "obj-65", 2 ],
					"hidden" : 0,
					"color" : [ 1.0, 0.0, 0.0, 1.0 ],
					"midpoints" : [ 566.5, 426.0, 488.5, 426.0 ]
				}

			}
, 			{
				"patchline" : 				{
					"source" : [ "obj-66", 0 ],
					"destination" : [ "obj-63", 0 ],
					"hidden" : 0,
					"midpoints" : [  ]
				}

			}
, 			{
				"patchline" : 				{
					"source" : [ "obj-63", 1 ],
					"destination" : [ "obj-67", 0 ],
					"hidden" : 0,
					"midpoints" : [  ]
				}

			}
, 			{
				"patchline" : 				{
					"source" : [ "obj-63", 2 ],
					"destination" : [ "obj-65", 2 ],
					"hidden" : 0,
					"color" : [ 0.0, 0.023529, 1.0, 1.0 ],
					"midpoints" : [ 487.5, 367.0, 582.0, 367.0, 582.0, 426.0, 488.5, 426.0 ]
				}

			}
, 			{
				"patchline" : 				{
					"source" : [ "obj-63", 0 ],
					"destination" : [ "obj-65", 0 ],
					"hidden" : 0,
					"midpoints" : [  ]
				}

			}
, 			{
				"patchline" : 				{
					"source" : [ "obj-65", 0 ],
					"destination" : [ "obj-62", 0 ],
					"hidden" : 0,
					"midpoints" : [  ]
				}

			}
, 			{
				"patchline" : 				{
					"source" : [ "obj-67", 0 ],
					"destination" : [ "obj-68", 0 ],
					"hidden" : 0,
					"midpoints" : [  ]
				}

			}
, 			{
				"patchline" : 				{
					"source" : [ "obj-68", 0 ],
					"destination" : [ "obj-65", 1 ],
					"hidden" : 0,
					"midpoints" : [  ]
				}

			}
 ]
	}

}
