{
	"patcher" : 	{
		"fileversion" : 1,
		"appversion" : 		{
			"major" : 5,
			"minor" : 1,
			"revision" : 9
		}
,
		"rect" : [ 48.0, 44.0, 756.0, 561.0 ],
		"bglocked" : 0,
		"defrect" : [ 48.0, 44.0, 756.0, 561.0 ],
		"openrect" : [ 0.0, 0.0, 0.0, 0.0 ],
		"openinpresentation" : 0,
		"default_fontsize" : 12.0,
		"default_fontface" : 0,
		"default_fontname" : "Arial",
		"gridonopen" : 0,
		"gridsize" : [ 15.0, 15.0 ],
		"gridsnaponopen" : 0,
		"toolbarvisible" : 1,
		"boxanimatetime" : 200,
		"imprint" : 0,
		"enablehscroll" : 1,
		"enablevscroll" : 1,
		"devicewidth" : 0.0,
		"boxes" : [ 			{
				"box" : 				{
					"maxclass" : "newobj",
					"text" : "loadmess 10",
					"numoutlets" : 1,
					"patching_rect" : [ 646.0, 149.0, 79.0, 20.0 ],
					"id" : "obj-17",
					"fontname" : "Arial",
					"outlettype" : [ "" ],
					"fontsize" : 12.0,
					"numinlets" : 1,
					"hidden" : 1
				}

			}
, 			{
				"box" : 				{
					"maxclass" : "comment",
					"text" : "Beware: updating stuff while mousedragging can look awesome, but can also be quite heavy. Avoid doing that if you need the best cpu performance.",
					"linecount" : 3,
					"numoutlets" : 0,
					"patching_rect" : [ 16.0, 446.0, 320.0, 48.0 ],
					"id" : "obj-15",
					"fontname" : "Arial",
					"fontsize" : 12.0,
					"numinlets" : 1
				}

			}
, 			{
				"box" : 				{
					"maxclass" : "comment",
					"text" : "...and you can also set the fontsize:",
					"numoutlets" : 0,
					"patching_rect" : [ 377.0, 154.0, 199.0, 20.0 ],
					"id" : "obj-18",
					"fontname" : "Arial",
					"fontsize" : 12.0,
					"numinlets" : 1
				}

			}
, 			{
				"box" : 				{
					"maxclass" : "message",
					"text" : "bgslotfontsize $1",
					"numoutlets" : 1,
					"patching_rect" : [ 573.0, 179.0, 157.0, 18.0 ],
					"id" : "obj-16",
					"fontname" : "Arial",
					"outlettype" : [ "" ],
					"fontsize" : 12.0,
					"numinlets" : 2
				}

			}
, 			{
				"box" : 				{
					"maxclass" : "number",
					"minimum" : 1,
					"numoutlets" : 2,
					"patching_rect" : [ 573.0, 155.0, 50.0, 20.0 ],
					"id" : "obj-14",
					"fontname" : "Arial",
					"maximum" : 100,
					"outlettype" : [ "int", "bang" ],
					"fontsize" : 12.0,
					"numinlets" : 1
				}

			}
, 			{
				"box" : 				{
					"maxclass" : "newobj",
					"text" : "loadbang",
					"numoutlets" : 1,
					"patching_rect" : [ 13.0, 157.0, 60.0, 20.0 ],
					"id" : "obj-31",
					"fontname" : "Arial",
					"outlettype" : [ "bang" ],
					"fontsize" : 12.0,
					"numinlets" : 1
				}

			}
, 			{
				"box" : 				{
					"maxclass" : "message",
					"text" : "lambda changeslotvalue 1 1 $1",
					"numoutlets" : 1,
					"patching_rect" : [ 566.0, 502.0, 177.0, 18.0 ],
					"id" : "obj-64",
					"fontname" : "Arial",
					"outlettype" : [ "" ],
					"fontsize" : 12.0,
					"numinlets" : 2
				}

			}
, 			{
				"box" : 				{
					"maxclass" : "newobj",
					"text" : "bach.mc2f @out t",
					"numoutlets" : 1,
					"patching_rect" : [ 566.0, 479.0, 105.0, 20.0 ],
					"id" : "obj-62",
					"fontname" : "Arial",
					"outlettype" : [ "" ],
					"fontsize" : 12.0,
					"numinlets" : 2
				}

			}
, 			{
				"box" : 				{
					"maxclass" : "newobj",
					"text" : "bach.unpacknote",
					"numoutlets" : 9,
					"patching_rect" : [ 566.0, 456.0, 127.0, 20.0 ],
					"id" : "obj-58",
					"fontname" : "Arial",
					"outlettype" : [ "float", "int", "float", "int", "", "", "", "int", "" ],
					"fontsize" : 12.0,
					"numinlets" : 1
				}

			}
, 			{
				"box" : 				{
					"maxclass" : "bach.roll",
					"stafflines" : "5",
					"numoutlets" : 8,
					"patching_rect" : [ 13.0, 206.0, 664.0, 241.833328 ],
					"id" : "obj-1",
					"fontname" : "Arial",
					"vzoom" : 116.666664,
					"textcolor" : [ 0.0, 0.0, 0.0, 1.0 ],
					"outlettype" : [ "", "", "", "", "", "", "", "bang" ],
					"bgslots" : [ 1 ],
					"out" : "nnnnnnn",
					"preventedit" : [  ],
					"popupmenuslots" : [  ],
					"clefs" : [ "FFGG" ],
					"numvoices" : 1,
					"fontsize" : 12.0,
					"bgslotfontsize" : 10.0,
					"numinlets" : 6,
					"voicespacing" : [ -19.714285, 6.714286 ],
					"automessage" : [ "dumpselection" ],
					"continuouslyoutputbangifchanged" : 1,
					"versionnumber" : 6750,
					"whole_roll_data_0000000000" : [ "roll", "(", "slotinfo", "(", 1, "(", "name", "frequency", ")", "(", "type", "float", ")", "(", "key", "a", ")", "(", "range", "_x_x_x_x_bach_float64_x_x_x_x_", 0, 0, "_x_x_x_x_bach_float64_x_x_x_x_", 0, 1087764736, ")", "(", "slope", "_x_x_x_x_bach_float64_x_x_x_x_", 0, 0, ")", "(", "representation", "Hz", ")", "(", "default", "_x_x_x_x_bach_float64_x_x_x_x_", 0, 0, ")", "(", "width", "_x_x_x_x_bach_float64_x_x_x_x_", 0, 1079574528, ")", ")", "(", 2, "(", "name", "slot function", ")", "(", "type", "function", ")", "(", "key", "q", ")", "(", "range", "_x_x_x_x_bach_float64_x_x_x_x_", 0, 0, "_x_x_x_x_bach_float64_x_x_x_x_", 0, 1072693248, ")", "(", "slope", "_x_x_x_x_bach_float64_x_x_x_x_", 0, 0, ")", "(", "representation", ")", "(", "ysnap", "(", ")", ")", "(", "domain", "_x_x_x_x_bach_float64_x_x_x_x_", 0, 0, "_x_x_x_x_bach_float64_x_x_x_x_", 0, 1072693248, ")", "(", "domainslope", "_x_x_x_x_bach_float64_x_x_x_x_", 0, 0, ")", "(", "width", "temporal", ")", ")", "(", 3, "(", "name", "slot longlist", ")", "(", "type", "intlist", ")", "(", "key", "w", ")", "(", "range", "_x_x_x_x_bach_float64_x_x_x_x_", 0, 0, "_x_x_x_x_bach_float64_x_x_x_x_", 0, 1080016896, ")", "(", "slope", "_x_x_x_x_bach_float64_x_x_x_x_", 0, 0, ")", "(", "representation", ")", "(", "default", "_x_x_x_x_bach_float64_x_x_x_x_", 0, 1078984704, ")", "(", "width", "_x_x_x_x_bach_float64_x_x_x_x_", 0, 1079574528, ")", ")", "(", 4, "(", "name", "slot floatlist", ")", "(", "type", "floatlist", ")", "(", "key", "e", ")", "(", "range", "_x_x_x_x_bach_float64_x_x_x_x_", 0, 0, "_x_x_x_x_bach_float64_x_x_x_x_", 0, 1072693248, ")", "(", "slope", "_x_x_x_x_bach_float64_x_x_x_x_", 0, 0, ")", "(", "representation", ")", "(", "default", "_x_x_x_x_bach_float64_x_x_x_x_", 0, 0, ")", "(", "width", "_x_x_x_x_bach_float64_x_x_x_x_", 0, 1079574528, ")", ")", "(", 5, "(", "name", "slot long", ")", "(", "type", "int", ")", "(", "key", "r", ")", "(", "range", "_x_x_x_x_bach_float64_x_x_x_x_", 0, 0, "_x_x_x_x_bach_float64_x_x_x_x_", 0, 1080016896, ")", "(", "slope", "_x_x_x_x_bach_float64_x_x_x_x_", 0, 0, ")", "(", "representation", ")", "(", "default", "_x_x_x_x_bach_float64_x_x_x_x_", 0, 1078984704, ")", "(", "width", "_x_x_x_x_bach_float64_x_x_x_x_", 0, 1079574528, ")", ")", "(", 6, "(", "name", "slot float", ")", "(", "type", "float", ")", "(", "key", "t", ")", "(", "range", "_x_x_x_x_bach_float64_x_x_x_x_", 0, 0, "_x_x_x_x_bach_float64_x_x_x_x_", 0, 1072693248, ")", "(", "slope", "_x_x_x_x_bach_float64_x_x_x_x_", 0, 0, ")", "(", "representation", ")", "(", "default", "_x_x_x_x_bach_float64_x_x_x_x_", 0, 0, ")", "(", "width", "_x_x_x_x_bach_float64_x_x_x_x_", 0, 1079574528, ")", ")", "(", 7, "(", "name", "slot text", ")", "(", "type", "text", ")", "(", "key", "y", ")", "(", "width", "_x_x_x_x_bach_float64_x_x_x_x_", 0, 1079574528, ")", ")", "(", 8, "(", "name", "filelist", ")", "(", "type", "filelist", ")", "(", "key", "u", ")", "(", "width", "_x_x_x_x_bach_float64_x_x_x_x_", 0, 1080213504, ")", ")", "(", 9, "(", "name", "spat", ")", "(", "type", "spat", ")", "(", "key", "i", ")", "(", "range", "_x_x_x_x_bach_float64_x_x_x_x_", 0, 0, "_x_x_x_x_bach_float64_x_x_x_x_", 0, 1076101120, ")", "(", "slope", "_x_x_x_x_bach_float64_x_x_x_x_", 0, 0, ")", "(", "representation", ")", "(", "width", "temporal", ")", ")", "(", 10, "(", "name", "slot 10", ")", "(", "type", "none", ")", "(", "key", 0, ")", "(", "width", "_x_x_x_x_bach_float64_x_x_x_x_", 0, 1079574528, ")", ")", "(", 11, "(", "name", "slot 11", ")", "(", "type", "none", ")", "(", "key", 0, ")", "(", "width", "_x_x_x_x_bach_float64_x_x_x_x_", 0, 1079574528, ")", ")", "(", 12, "(", "name", "slot 12", ")", "(", "type", "none", ")", "(", "key", 0, ")", "(", "width", "_x_x_x_x_bach_float64_x_x_x_x_", 0, 1079574528, ")", ")", "(", 13, "(", "name", "slot 13", ")", "(", "type", "none", ")", "(", "key", 0, ")", "(", "width", "_x_x_x_x_bach_float64_x_x_x_x_", 0, 1079574528, ")", ")", "(", 14, "(", "name", "slot 14", ")", "(", "type", "none", ")", "(", "key", 0, ")", "(", "width", "_x_x_x_x_bach_float64_x_x_x_x_", 0, 1079574528, ")", ")", "(", 15, "(", "name", "slot 15", ")", "(", "type", "none", ")", "(", "key", 0, ")", "(", "width", "_x_x_x_x_bach_float64_x_x_x_x_", 0, 1079574528, ")", ")", "(", 16, "(", "name", "slot 16", ")", "(", "type", "none", ")", "(", "key", 0, ")", "(", "width", "_x_x_x_x_bach_float64_x_x_x_x_", 0, 1079574528, ")", ")", "(", 17, "(", "name", "slot 17", ")", "(", "type", "none", ")", "(", "key", 0, ")", "(", "width", "_x_x_x_x_bach_float64_x_x_x_x_", 0, 1079574528, ")", ")", "(", 18, "(", "name", "slot 18", ")", "(", "type", "none", ")", "(", "key", 0, ")", "(", "width", "_x_x_x_x_bach_float64_x_x_x_x_", 0, 1079574528, ")", ")", "(", 19, "(", "name", "slot 19", ")", "(", "type", "none", ")", "(", "key", 0, ")", "(", "width", "_x_x_x_x_bach_float64_x_x_x_x_", 0, 1079574528, ")", ")", "(", 20, "(", "name", "slot 20", ")", "(", "type", "none", ")", "(", "key", 0, ")", "(", "width", "_x_x_x_x_bach_float64_x_x_x_x_", 0, 1079574528, ")", ")", "(", 21, "(", "name", "slot 21", ")", "(", "type", "none", ")", "(", "key", 0, ")", "(", "width", "_x_x_x_x_bach_float64_x_x_x_x_", 0, 1079574528, ")", ")", "(", 22, "(", "name", "slot 22", ")", "(", "type", "none", ")", "(", "key", 0, ")", "(", "width", "_x_x_x_x_bach_float64_x_x_x_x_", 0, 1079574528, ")", ")", "(", 23, "(", "name", "slot 23", ")", "(", "type", "none", ")", "(", "key", 0, ")", "(", "width", "_x_x_x_x_bach_float64_x_x_x_x_", 0, 1079574528, ")", ")", "(", 24, "(", "name", "slot 24", ")", "(", "type", "none", ")", "(", "key", 0, ")", "(", "width", "_x_x_x_x_bach_float64_x_x_x_x_", 0, 1079574528, ")", ")", "(", 25, "(", "name", "slot 25", ")", "(", "type", "none", ")", "(", "key", 0, ")", "(", "width", "_x_x_x_x_bach_float64_x_x_x_x_", 0, 1079574528, ")", ")", "(", 26, "(", "name", "slot 26", ")", "(", "type", "none", ")", "(", "key", 0, ")", "(", "width", "_x_x_x_x_bach_float64_x_x_x_x_", 0, 1079574528, ")", ")", "(", 27, "(", "name", "slot 27", ")", "(", "type", "none", ")", "(", "key", 0, ")", "(", "width", "_x_x_x_x_bach_float64_x_x_x_x_", 0, 1079574528, ")", ")", "(", 28, "(", "name", "slot 28", ")", "(", "type", "none", ")", "(", "key", 0, ")", "(", "width", "_x_x_x_x_bach_float64_x_x_x_x_", 0, 1079574528, ")", ")", "(", 29, "(", "name", "slot 29", ")", "(", "type", "none", ")", "(", "key", 0, ")", "(", "width", "_x_x_x_x_bach_float64_x_x_x_x_", 0, 1079574528, ")", ")", "(", 30, "(", "name", "slot 30", ")", "(", "type", "none", ")", "(", "key", 0, ")", "(", "width", "_x_x_x_x_bach_float64_x_x_x_x_", 0, 1079574528, ")", ")", ")", "(", "commands", "(", 1, "notecmd", "chordcmd", 0, ")", "(", 2, "notecmd", "chordcmd", 0, ")", "(", 3, "notecmd", "chordcmd", 0, ")", "(", 4, "notecmd", "chordcmd", 0, ")", "(", 5, "notecmd", "chordcmd", 0, ")", ")", "(", "groups", ")", "(", "markers", ")", "(", "midichannels", 1, ")", "(", "(", "_x_x_x_x_bach_float64_x_x_x_x_", 42133, 1080412452, "(", "_x_x_x_x_bach_float64_x_x_x_x_", 0, 1085073408, "_x_x_x_x_bach_float64_x_x_x_x_", 0, 1083466752, 100, "(", "slots", "(", 1, "_x_x_x_x_bach_float64_x_x_x_x_", 0, 1079071468, ")", ")", 0, ")", 0, ")", "(", "_x_x_x_x_bach_float64_x_x_x_x_", 46812, 1082158518, "(", "_x_x_x_x_bach_float64_x_x_x_x_", 0, 1085456384, "_x_x_x_x_bach_float64_x_x_x_x_", 0, 1081692160, 100, "(", "slots", "(", 1, "_x_x_x_x_bach_float64_x_x_x_x_", 0, 1080056322, ")", ")", 0, ")", 0, ")", "(", "_x_x_x_x_bach_float64_x_x_x_x_", 18724, 1083265607, "(", "_x_x_x_x_bach_float64_x_x_x_x_", 0, 1085840384, "_x_x_x_x_bach_float64_x_x_x_x_", 0, 1083466752, 100, "(", "slots", "(", 1, "_x_x_x_x_bach_float64_x_x_x_x_", 0, 1081307656, ")", ")", 0, ")", 0, ")", "(", "_x_x_x_x_bach_float64_x_x_x_x_", 9361, 1083476260, "(", "_x_x_x_x_bach_float64_x_x_x_x_", 0, 1084612608, "_x_x_x_x_bach_float64_x_x_x_x_", 0, 1083261952, 100, "(", "slots", "(", 1, "_x_x_x_x_bach_float64_x_x_x_x_", 0, 1078237706, ")", ")", 0, ")", 0, ")", "(", "_x_x_x_x_bach_float64_x_x_x_x_", 56174, 1083905241, "(", "_x_x_x_x_bach_float64_x_x_x_x_", 0, 1086173184, "_x_x_x_x_bach_float64_x_x_x_x_", 0, 1081692160, 100, "(", "slots", "(", 1, "_x_x_x_x_bach_float64_x_x_x_x_", 0, 1082432010, ")", ")", 0, ")", 0, ")", "(", "_x_x_x_x_bach_float64_x_x_x_x_", 56173, 1084229338, "(", "_x_x_x_x_bach_float64_x_x_x_x_", 0, 1085379584, "_x_x_x_x_bach_float64_x_x_x_x_", 0, 1083261952, 100, "(", "slots", "(", 1, "_x_x_x_x_bach_float64_x_x_x_x_", 0, 1079738368, ")", ")", 0, ")", 0, ")", 0, ")" ],
					"whole_roll_data_count" : [ 1 ]
				}

			}
, 			{
				"box" : 				{
					"maxclass" : "message",
					"varname" : "wclose",
					"text" : "clean, wclose",
					"numoutlets" : 1,
					"patching_rect" : [ 362.0, 706.0, 81.0, 18.0 ],
					"id" : "obj-19",
					"fontname" : "Arial",
					"outlettype" : [ "" ],
					"fontsize" : 12.0,
					"numinlets" : 2,
					"hidden" : 1
				}

			}
, 			{
				"box" : 				{
					"maxclass" : "newobj",
					"text" : "linksections 1 1 e \"Lambda Scores\"",
					"numoutlets" : 1,
					"patching_rect" : [ 360.0, 757.5, 198.0, 20.0 ],
					"id" : "obj-198",
					"fontname" : "Arial",
					"outlettype" : [ "" ],
					"fontsize" : 12.0,
					"numinlets" : 1,
					"hidden" : 1
				}

			}
, 			{
				"box" : 				{
					"maxclass" : "newobj",
					"text" : "thispatcher",
					"numoutlets" : 2,
					"patching_rect" : [ 362.0, 731.0, 69.0, 20.0 ],
					"id" : "obj-90",
					"fontname" : "Arial",
					"outlettype" : [ "", "" ],
					"fontsize" : 12.0,
					"numinlets" : 1,
					"hidden" : 1,
					"save" : [ "#N", "thispatcher", ";", "#Q", "end", ";" ]
				}

			}
, 			{
				"box" : 				{
					"maxclass" : "comment",
					"text" : "So, what to do?",
					"frgb" : [ 0.0, 0.168627, 0.67451, 1.0 ],
					"numoutlets" : 0,
					"patching_rect" : [ 466.0, 537.0, 94.0, 20.0 ],
					"id" : "obj-61",
					"fontname" : "Arial",
					"textcolor" : [ 0.0, 0.168627, 0.67451, 1.0 ],
					"fontface" : 2,
					"fontsize" : 12.0,
					"numinlets" : 1,
					"hidden" : 1
				}

			}
, 			{
				"box" : 				{
					"maxclass" : "comment",
					"text" : "_________________________________________________________________",
					"numoutlets" : 0,
					"patching_rect" : [ 5.0, 19.0, 444.0, 20.0 ],
					"id" : "obj-87",
					"fontname" : "Arial",
					"fontsize" : 12.0,
					"numinlets" : 1
				}

			}
, 			{
				"box" : 				{
					"maxclass" : "comment",
					"text" : "- later improvements",
					"numoutlets" : 0,
					"patching_rect" : [ 198.0, 7.74086, 477.0, 26.0 ],
					"id" : "obj-2",
					"fontname" : "Arial Italic",
					"fontsize" : 16.787033,
					"numinlets" : 1
				}

			}
, 			{
				"box" : 				{
					"maxclass" : "comment",
					"text" : "Lambda Scores (e)",
					"numoutlets" : 0,
					"patching_rect" : [ 5.0, 2.924051, 220.0, 32.0 ],
					"id" : "obj-3",
					"fontname" : "Arial",
					"fontsize" : 22.256727,
					"numinlets" : 1
				}

			}
, 			{
				"box" : 				{
					"maxclass" : "comment",
					"text" : "A couple of final improvements: \n- we can dump all the roll content at the loadbang, in order to retrieve the correct values.\n- we can avoid the \"dumpselection\" loop by using the automessage attribute: look at the roll inspector, and you'll notice an attribute named Automatically Send Message When Changed. If you fill this attribute with a message, it'll be send each time the roll was changed. We just need to set the \"dumpselection\" message in it!\n- we can use the \"continuouslyoutputbangifchanged\" attribute to tell roll that it has to output the bang through the last outlet also during mousedragging. This is essential to keep the information up-to-date also while dragging notes.",
					"linecount" : 7,
					"numoutlets" : 0,
					"patching_rect" : [ 5.0, 43.0, 697.0, 103.0 ],
					"id" : "obj-13",
					"fontname" : "Arial",
					"fontsize" : 12.0,
					"numinlets" : 1
				}

			}
, 			{
				"box" : 				{
					"maxclass" : "message",
					"text" : "continuouslyoutputbangifchanged 1, clearselection, select nil nil nil nil, dumpselection, clearselection",
					"numoutlets" : 1,
					"patching_rect" : [ 13.0, 182.0, 543.0, 18.0 ],
					"id" : "obj-28",
					"fontname" : "Arial",
					"outlettype" : [ "" ],
					"fontsize" : 12.0,
					"numinlets" : 2
				}

			}
, 			{
				"box" : 				{
					"maxclass" : "newobj",
					"varname" : "pcontrolA",
					"text" : "pcontrol",
					"numoutlets" : 1,
					"patching_rect" : [ 5.0, 661.0, 140.0, 20.0 ],
					"id" : "obj-4",
					"fontname" : "Arial",
					"outlettype" : [ "" ],
					"fontsize" : 12.0,
					"numinlets" : 1,
					"hidden" : 1
				}

			}
, 			{
				"box" : 				{
					"maxclass" : "newobj",
					"varname" : "prependA",
					"text" : "prepend load",
					"numoutlets" : 1,
					"patching_rect" : [ 5.0, 636.0, 140.0, 20.0 ],
					"id" : "obj-5",
					"fontname" : "Arial",
					"outlettype" : [ "" ],
					"fontsize" : 12.0,
					"numinlets" : 1,
					"hidden" : 1
				}

			}
, 			{
				"box" : 				{
					"maxclass" : "newobj",
					"varname" : "tosymbolA",
					"text" : "tosymbol",
					"numoutlets" : 1,
					"patching_rect" : [ 5.0, 611.0, 140.0, 20.0 ],
					"id" : "obj-6",
					"fontname" : "Arial",
					"outlettype" : [ "" ],
					"fontsize" : 12.0,
					"numinlets" : 1,
					"hidden" : 1
				}

			}
, 			{
				"box" : 				{
					"maxclass" : "message",
					"varname" : "messageA",
					"text" : "Lambda Scores (d)",
					"numoutlets" : 1,
					"patching_rect" : [ 5.0, 586.0, 140.0, 18.0 ],
					"id" : "obj-8",
					"fontname" : "Arial",
					"outlettype" : [ "" ],
					"fontsize" : 12.0,
					"numinlets" : 2,
					"hidden" : 1
				}

			}
, 			{
				"box" : 				{
					"maxclass" : "newobj",
					"varname" : "triggerA",
					"text" : "t b b",
					"numoutlets" : 2,
					"patching_rect" : [ 5.0, 561.0, 40.0, 20.0 ],
					"id" : "obj-9",
					"fontname" : "Arial",
					"outlettype" : [ "bang", "bang" ],
					"fontsize" : 12.0,
					"numinlets" : 1,
					"hidden" : 1
				}

			}
, 			{
				"box" : 				{
					"maxclass" : "textbutton",
					"varname" : "textbuttonA",
					"bgoncolor" : [ 0.51, 0.59, 0.64, 1.0 ],
					"numoutlets" : 3,
					"patching_rect" : [ 5.0, 536.0, 151.0, 20.0 ],
					"id" : "obj-11",
					"fontname" : "Arial",
					"outlettype" : [ "", "", "int" ],
					"text" : "Back to section (d)",
					"bordercolor" : [ 0.63, 0.7, 0.75, 1.0 ],
					"fontface" : 2,
					"fontsize" : 12.0,
					"bgovercolor" : [ 0.64, 0.65, 0.72, 1.0 ],
					"numinlets" : 1
				}

			}
, 			{
				"box" : 				{
					"maxclass" : "newobj",
					"varname" : "pcontrolB",
					"text" : "pcontrol",
					"numoutlets" : 1,
					"patching_rect" : [ 601.0, 661.0, 140.0, 20.0 ],
					"id" : "obj-12",
					"fontname" : "Arial",
					"outlettype" : [ "" ],
					"fontsize" : 12.0,
					"numinlets" : 1,
					"hidden" : 1
				}

			}
, 			{
				"box" : 				{
					"maxclass" : "newobj",
					"varname" : "prependB",
					"text" : "prepend load",
					"numoutlets" : 1,
					"patching_rect" : [ 601.0, 636.0, 140.0, 20.0 ],
					"id" : "obj-20",
					"fontname" : "Arial",
					"outlettype" : [ "" ],
					"fontsize" : 12.0,
					"numinlets" : 1,
					"hidden" : 1
				}

			}
, 			{
				"box" : 				{
					"maxclass" : "newobj",
					"varname" : "tosymbolB",
					"text" : "tosymbol",
					"numoutlets" : 1,
					"patching_rect" : [ 601.0, 611.0, 140.0, 20.0 ],
					"id" : "obj-21",
					"fontname" : "Arial",
					"outlettype" : [ "" ],
					"fontsize" : 12.0,
					"numinlets" : 1,
					"hidden" : 1
				}

			}
, 			{
				"box" : 				{
					"maxclass" : "message",
					"varname" : "messageB",
					"text" : "Lambda Scores (f)",
					"numoutlets" : 1,
					"patching_rect" : [ 601.0, 586.0, 140.0, 18.0 ],
					"id" : "obj-23",
					"fontname" : "Arial",
					"outlettype" : [ "" ],
					"fontsize" : 12.0,
					"numinlets" : 2,
					"hidden" : 1
				}

			}
, 			{
				"box" : 				{
					"maxclass" : "newobj",
					"varname" : "triggerB",
					"text" : "t b b",
					"numoutlets" : 2,
					"patching_rect" : [ 601.0, 561.0, 40.0, 20.0 ],
					"id" : "obj-24",
					"fontname" : "Arial",
					"outlettype" : [ "bang", "bang" ],
					"fontsize" : 12.0,
					"numinlets" : 1,
					"hidden" : 1
				}

			}
, 			{
				"box" : 				{
					"maxclass" : "textbutton",
					"varname" : "textbuttonB",
					"bgoncolor" : [ 0.51, 0.59, 0.64, 1.0 ],
					"numoutlets" : 3,
					"patching_rect" : [ 601.0, 536.0, 151.0, 20.0 ],
					"id" : "obj-26",
					"fontname" : "Arial",
					"outlettype" : [ "", "", "int" ],
					"text" : "Continue to section (f)",
					"bordercolor" : [ 0.63, 0.7, 0.75, 1.0 ],
					"fontface" : 2,
					"fontsize" : 12.0,
					"bgovercolor" : [ 0.64, 0.65, 0.72, 1.0 ],
					"numinlets" : 1
				}

			}
 ],
		"lines" : [ 			{
				"patchline" : 				{
					"source" : [ "obj-24", 0 ],
					"destination" : [ "obj-19", 0 ],
					"hidden" : 1,
					"midpoints" : [  ]
				}

			}
, 			{
				"patchline" : 				{
					"source" : [ "obj-20", 0 ],
					"destination" : [ "obj-12", 0 ],
					"hidden" : 1,
					"midpoints" : [  ]
				}

			}
, 			{
				"patchline" : 				{
					"source" : [ "obj-21", 0 ],
					"destination" : [ "obj-20", 0 ],
					"hidden" : 1,
					"midpoints" : [  ]
				}

			}
, 			{
				"patchline" : 				{
					"source" : [ "obj-23", 0 ],
					"destination" : [ "obj-21", 0 ],
					"hidden" : 1,
					"midpoints" : [  ]
				}

			}
, 			{
				"patchline" : 				{
					"source" : [ "obj-24", 1 ],
					"destination" : [ "obj-23", 0 ],
					"hidden" : 1,
					"midpoints" : [  ]
				}

			}
, 			{
				"patchline" : 				{
					"source" : [ "obj-26", 0 ],
					"destination" : [ "obj-24", 0 ],
					"hidden" : 1,
					"midpoints" : [  ]
				}

			}
, 			{
				"patchline" : 				{
					"source" : [ "obj-9", 0 ],
					"destination" : [ "obj-19", 0 ],
					"hidden" : 1,
					"midpoints" : [  ]
				}

			}
, 			{
				"patchline" : 				{
					"source" : [ "obj-5", 0 ],
					"destination" : [ "obj-4", 0 ],
					"hidden" : 1,
					"midpoints" : [  ]
				}

			}
, 			{
				"patchline" : 				{
					"source" : [ "obj-6", 0 ],
					"destination" : [ "obj-5", 0 ],
					"hidden" : 1,
					"midpoints" : [  ]
				}

			}
, 			{
				"patchline" : 				{
					"source" : [ "obj-8", 0 ],
					"destination" : [ "obj-6", 0 ],
					"hidden" : 1,
					"midpoints" : [  ]
				}

			}
, 			{
				"patchline" : 				{
					"source" : [ "obj-9", 1 ],
					"destination" : [ "obj-8", 0 ],
					"hidden" : 1,
					"midpoints" : [  ]
				}

			}
, 			{
				"patchline" : 				{
					"source" : [ "obj-11", 0 ],
					"destination" : [ "obj-9", 0 ],
					"hidden" : 1,
					"midpoints" : [  ]
				}

			}
, 			{
				"patchline" : 				{
					"source" : [ "obj-198", 0 ],
					"destination" : [ "obj-90", 0 ],
					"hidden" : 1,
					"midpoints" : [ 369.5, 784.5, 353.5, 784.5, 353.5, 726.0, 371.5, 726.0 ]
				}

			}
, 			{
				"patchline" : 				{
					"source" : [ "obj-90", 0 ],
					"destination" : [ "obj-198", 0 ],
					"hidden" : 1,
					"midpoints" : [  ]
				}

			}
, 			{
				"patchline" : 				{
					"source" : [ "obj-16", 0 ],
					"destination" : [ "obj-1", 0 ],
					"hidden" : 0,
					"midpoints" : [ 582.5, 203.0, 22.5, 203.0 ]
				}

			}
, 			{
				"patchline" : 				{
					"source" : [ "obj-14", 0 ],
					"destination" : [ "obj-16", 0 ],
					"hidden" : 0,
					"midpoints" : [  ]
				}

			}
, 			{
				"patchline" : 				{
					"source" : [ "obj-1", 6 ],
					"destination" : [ "obj-58", 0 ],
					"hidden" : 0,
					"midpoints" : [  ]
				}

			}
, 			{
				"patchline" : 				{
					"source" : [ "obj-31", 0 ],
					"destination" : [ "obj-28", 0 ],
					"hidden" : 0,
					"midpoints" : [  ]
				}

			}
, 			{
				"patchline" : 				{
					"source" : [ "obj-28", 0 ],
					"destination" : [ "obj-1", 0 ],
					"hidden" : 0,
					"midpoints" : [  ]
				}

			}
, 			{
				"patchline" : 				{
					"source" : [ "obj-64", 0 ],
					"destination" : [ "obj-1", 0 ],
					"hidden" : 0,
					"midpoints" : [ 575.5, 525.0, 8.0, 525.0, 8.0, 202.0, 22.5, 202.0 ]
				}

			}
, 			{
				"patchline" : 				{
					"source" : [ "obj-62", 0 ],
					"destination" : [ "obj-64", 0 ],
					"hidden" : 0,
					"midpoints" : [  ]
				}

			}
, 			{
				"patchline" : 				{
					"source" : [ "obj-58", 0 ],
					"destination" : [ "obj-62", 0 ],
					"hidden" : 0,
					"midpoints" : [  ]
				}

			}
, 			{
				"patchline" : 				{
					"source" : [ "obj-19", 0 ],
					"destination" : [ "obj-90", 0 ],
					"hidden" : 1,
					"midpoints" : [  ]
				}

			}
, 			{
				"patchline" : 				{
					"source" : [ "obj-17", 0 ],
					"destination" : [ "obj-14", 0 ],
					"hidden" : 1,
					"midpoints" : [  ]
				}

			}
 ]
	}

}
