{
	"patcher" : 	{
		"fileversion" : 1,
		"appversion" : 		{
			"major" : 5,
			"minor" : 1,
			"revision" : 9
		}
,
		"rect" : [ 46.0, 44.0, 771.0, 395.0 ],
		"bglocked" : 0,
		"defrect" : [ 46.0, 44.0, 771.0, 395.0 ],
		"openrect" : [ 0.0, 0.0, 0.0, 0.0 ],
		"openinpresentation" : 0,
		"default_fontsize" : 12.0,
		"default_fontface" : 0,
		"default_fontname" : "Arial",
		"gridonopen" : 0,
		"gridsize" : [ 15.0, 15.0 ],
		"gridsnaponopen" : 0,
		"toolbarvisible" : 1,
		"boxanimatetime" : 200,
		"imprint" : 0,
		"enablehscroll" : 1,
		"enablevscroll" : 1,
		"devicewidth" : 0.0,
		"boxes" : [ 			{
				"box" : 				{
					"maxclass" : "comment",
					"text" : "... et voila. \nThe only tiny-tiny issue is that all the slot values are \"wrong\", in the sense that they're obviously NOT automatically linked to the note pitch. Our big task is now to make the proper link, so that when we change a note, or a group of notes, the correspondance between pitch and frequency is never lost.",
					"linecount" : 8,
					"numoutlets" : 0,
					"patching_rect" : [ 479.0, 183.0, 248.0, 117.0 ],
					"id" : "obj-36",
					"fontname" : "Arial",
					"fontsize" : 12.0,
					"numinlets" : 1
				}

			}
, 			{
				"box" : 				{
					"maxclass" : "bach.roll",
					"stafflines" : "5",
					"numoutlets" : 8,
					"patching_rect" : [ 6.0, 184.0, 471.0, 165.666672 ],
					"id" : "obj-1",
					"fontname" : "Arial",
					"vzoom" : 115.850822,
					"textcolor" : [ 0.0, 0.0, 0.0, 1.0 ],
					"outlettype" : [ "", "", "", "", "", "", "", "bang" ],
					"bgslots" : [ 1 ],
					"out" : "nnnnnnn",
					"preventedit" : [  ],
					"popupmenuslots" : [  ],
					"clefs" : [ "FG" ],
					"numvoices" : 1,
					"fontsize" : 12.0,
					"numinlets" : 6,
					"voicespacing" : [ 0.0, -12.142858 ],
					"automessage" : [  ],
					"continuouslyoutputbangifchanged" : 1,
					"versionnumber" : 6750,
					"whole_roll_data_0000000000" : [ "roll", "(", "slotinfo", "(", 1, "(", "name", "frequency", ")", "(", "type", "float", ")", "(", "key", "a", ")", "(", "range", "_x_x_x_x_bach_float64_x_x_x_x_", 0, 0, "_x_x_x_x_bach_float64_x_x_x_x_", 0, 1087764736, ")", "(", "slope", "_x_x_x_x_bach_float64_x_x_x_x_", 0, 0, ")", "(", "representation", "Hz", ")", "(", "default", "_x_x_x_x_bach_float64_x_x_x_x_", 0, 0, ")", "(", "width", "_x_x_x_x_bach_float64_x_x_x_x_", 0, 1079574528, ")", ")", "(", 2, "(", "name", "slot function", ")", "(", "type", "function", ")", "(", "key", "q", ")", "(", "range", "_x_x_x_x_bach_float64_x_x_x_x_", 0, 0, "_x_x_x_x_bach_float64_x_x_x_x_", 0, 1072693248, ")", "(", "slope", "_x_x_x_x_bach_float64_x_x_x_x_", 0, 0, ")", "(", "representation", ")", "(", "ysnap", "(", ")", ")", "(", "domain", "_x_x_x_x_bach_float64_x_x_x_x_", 0, 0, "_x_x_x_x_bach_float64_x_x_x_x_", 0, 1072693248, ")", "(", "domainslope", "_x_x_x_x_bach_float64_x_x_x_x_", 0, 0, ")", "(", "width", "temporal", ")", ")", "(", 3, "(", "name", "slot longlist", ")", "(", "type", "intlist", ")", "(", "key", "w", ")", "(", "range", "_x_x_x_x_bach_float64_x_x_x_x_", 0, 0, "_x_x_x_x_bach_float64_x_x_x_x_", 0, 1080016896, ")", "(", "slope", "_x_x_x_x_bach_float64_x_x_x_x_", 0, 0, ")", "(", "representation", ")", "(", "default", "_x_x_x_x_bach_float64_x_x_x_x_", 0, 1078984704, ")", "(", "width", "_x_x_x_x_bach_float64_x_x_x_x_", 0, 1079574528, ")", ")", "(", 4, "(", "name", "slot floatlist", ")", "(", "type", "floatlist", ")", "(", "key", "e", ")", "(", "range", "_x_x_x_x_bach_float64_x_x_x_x_", 0, 0, "_x_x_x_x_bach_float64_x_x_x_x_", 0, 1072693248, ")", "(", "slope", "_x_x_x_x_bach_float64_x_x_x_x_", 0, 0, ")", "(", "representation", ")", "(", "default", "_x_x_x_x_bach_float64_x_x_x_x_", 0, 0, ")", "(", "width", "_x_x_x_x_bach_float64_x_x_x_x_", 0, 1079574528, ")", ")", "(", 5, "(", "name", "slot long", ")", "(", "type", "int", ")", "(", "key", "r", ")", "(", "range", "_x_x_x_x_bach_float64_x_x_x_x_", 0, 0, "_x_x_x_x_bach_float64_x_x_x_x_", 0, 1080016896, ")", "(", "slope", "_x_x_x_x_bach_float64_x_x_x_x_", 0, 0, ")", "(", "representation", ")", "(", "default", "_x_x_x_x_bach_float64_x_x_x_x_", 0, 1078984704, ")", "(", "width", "_x_x_x_x_bach_float64_x_x_x_x_", 0, 1079574528, ")", ")", "(", 6, "(", "name", "slot float", ")", "(", "type", "float", ")", "(", "key", "t", ")", "(", "range", "_x_x_x_x_bach_float64_x_x_x_x_", 0, 0, "_x_x_x_x_bach_float64_x_x_x_x_", 0, 1072693248, ")", "(", "slope", "_x_x_x_x_bach_float64_x_x_x_x_", 0, 0, ")", "(", "representation", ")", "(", "default", "_x_x_x_x_bach_float64_x_x_x_x_", 0, 0, ")", "(", "width", "_x_x_x_x_bach_float64_x_x_x_x_", 0, 1079574528, ")", ")", "(", 7, "(", "name", "slot text", ")", "(", "type", "text", ")", "(", "key", "y", ")", "(", "width", "_x_x_x_x_bach_float64_x_x_x_x_", 0, 1079574528, ")", ")", "(", 8, "(", "name", "filelist", ")", "(", "type", "filelist", ")", "(", "key", "u", ")", "(", "width", "_x_x_x_x_bach_float64_x_x_x_x_", 0, 1080213504, ")", ")", "(", 9, "(", "name", "spat", ")", "(", "type", "spat", ")", "(", "key", "i", ")", "(", "range", "_x_x_x_x_bach_float64_x_x_x_x_", 0, 0, "_x_x_x_x_bach_float64_x_x_x_x_", 0, 1076101120, ")", "(", "slope", "_x_x_x_x_bach_float64_x_x_x_x_", 0, 0, ")", "(", "representation", ")", "(", "width", "temporal", ")", ")", "(", 10, "(", "name", "slot 10", ")", "(", "type", "none", ")", "(", "key", 0, ")", "(", "width", "_x_x_x_x_bach_float64_x_x_x_x_", 0, 1079574528, ")", ")", "(", 11, "(", "name", "slot 11", ")", "(", "type", "none", ")", "(", "key", 0, ")", "(", "width", "_x_x_x_x_bach_float64_x_x_x_x_", 0, 1079574528, ")", ")", "(", 12, "(", "name", "slot 12", ")", "(", "type", "none", ")", "(", "key", 0, ")", "(", "width", "_x_x_x_x_bach_float64_x_x_x_x_", 0, 1079574528, ")", ")", "(", 13, "(", "name", "slot 13", ")", "(", "type", "none", ")", "(", "key", 0, ")", "(", "width", "_x_x_x_x_bach_float64_x_x_x_x_", 0, 1079574528, ")", ")", "(", 14, "(", "name", "slot 14", ")", "(", "type", "none", ")", "(", "key", 0, ")", "(", "width", "_x_x_x_x_bach_float64_x_x_x_x_", 0, 1079574528, ")", ")", "(", 15, "(", "name", "slot 15", ")", "(", "type", "none", ")", "(", "key", 0, ")", "(", "width", "_x_x_x_x_bach_float64_x_x_x_x_", 0, 1079574528, ")", ")", "(", 16, "(", "name", "slot 16", ")", "(", "type", "none", ")", "(", "key", 0, ")", "(", "width", "_x_x_x_x_bach_float64_x_x_x_x_", 0, 1079574528, ")", ")", "(", 17, "(", "name", "slot 17", ")", "(", "type", "none", ")", "(", "key", 0, ")", "(", "width", "_x_x_x_x_bach_float64_x_x_x_x_", 0, 1079574528, ")", ")", "(", 18, "(", "name", "slot 18", ")", "(", "type", "none", ")", "(", "key", 0, ")", "(", "width", "_x_x_x_x_bach_float64_x_x_x_x_", 0, 1079574528, ")", ")", "(", 19, "(", "name", "slot 19", ")", "(", "type", "none", ")", "(", "key", 0, ")", "(", "width", "_x_x_x_x_bach_float64_x_x_x_x_", 0, 1079574528, ")", ")", "(", 20, "(", "name", "slot 20", ")", "(", "type", "none", ")", "(", "key", 0, ")", "(", "width", "_x_x_x_x_bach_float64_x_x_x_x_", 0, 1079574528, ")", ")", "(", 21, "(", "name", "slot 21", ")", "(", "type", "none", ")", "(", "key", 0, ")", "(", "width", "_x_x_x_x_bach_float64_x_x_x_x_", 0, 1079574528, ")", ")", "(", 22, "(", "name", "slot 22", ")", "(", "type", "none", ")", "(", "key", 0, ")", "(", "width", "_x_x_x_x_bach_float64_x_x_x_x_", 0, 1079574528, ")", ")", "(", 23, "(", "name", "slot 23", ")", "(", "type", "none", ")", "(", "key", 0, ")", "(", "width", "_x_x_x_x_bach_float64_x_x_x_x_", 0, 1079574528, ")", ")", "(", 24, "(", "name", "slot 24", ")", "(", "type", "none", ")", "(", "key", 0, ")", "(", "width", "_x_x_x_x_bach_float64_x_x_x_x_", 0, 1079574528, ")", ")", "(", 25, "(", "name", "slot 25", ")", "(", "type", "none", ")", "(", "key", 0, ")", "(", "width", "_x_x_x_x_bach_float64_x_x_x_x_", 0, 1079574528, ")", ")", "(", 26, "(", "name", "slot 26", ")", "(", "type", "none", ")", "(", "key", 0, ")", "(", "width", "_x_x_x_x_bach_float64_x_x_x_x_", 0, 1079574528, ")", ")", "(", 27, "(", "name", "slot 27", ")", "(", "type", "none", ")", "(", "key", 0, ")", "(", "width", "_x_x_x_x_bach_float64_x_x_x_x_", 0, 1079574528, ")", ")", "(", 28, "(", "name", "slot 28", ")", "(", "type", "none", ")", "(", "key", 0, ")", "(", "width", "_x_x_x_x_bach_float64_x_x_x_x_", 0, 1079574528, ")", ")", "(", 29, "(", "name", "slot 29", ")", "(", "type", "none", ")", "(", "key", 0, ")", "(", "width", "_x_x_x_x_bach_float64_x_x_x_x_", 0, 1079574528, ")", ")", "(", 30, "(", "name", "slot 30", ")", "(", "type", "none", ")", "(", "key", 0, ")", "(", "width", "_x_x_x_x_bach_float64_x_x_x_x_", 0, 1079574528, ")", ")", ")", "(", "commands", "(", 1, "notecmd", "chordcmd", 0, ")", "(", 2, "notecmd", "chordcmd", 0, ")", "(", 3, "notecmd", "chordcmd", 0, ")", "(", 4, "notecmd", "chordcmd", 0, ")", "(", 5, "notecmd", "chordcmd", 0, ")", ")", "(", "groups", ")", "(", "markers", ")", "(", "midichannels", 1, ")", "(", "(", "_x_x_x_x_bach_float64_x_x_x_x_", 56168, 1079949019, "(", "_x_x_x_x_bach_float64_x_x_x_x_", 0, 1084612608, "_x_x_x_x_bach_float64_x_x_x_x_", 0, 1083466752, 100, "(", "slots", "(", 1, "_x_x_x_x_bach_float64_x_x_x_x_", 27574, 1086510445, ")", ")", 0, ")", 0, ")", "(", "_x_x_x_x_bach_float64_x_x_x_x_", 56173, 1082562267, "(", "_x_x_x_x_bach_float64_x_x_x_x_", 0, 1085353984, "_x_x_x_x_bach_float64_x_x_x_x_", 0, 1081692160, 100, "(", "slots", "(", 1, "_x_x_x_x_bach_float64_x_x_x_x_", 42717, 1087102903, ")", ")", 0, ")", 0, ")", "(", "_x_x_x_x_bach_float64_x_x_x_x_", 65535, 1083256831, "(", "_x_x_x_x_bach_float64_x_x_x_x_", 0, 1085712384, "_x_x_x_x_bach_float64_x_x_x_x_", 0, 1083466752, 100, "(", "slots", "(", 1, "_x_x_x_x_bach_float64_x_x_x_x_", 49151, 1085252619, ")", ")", 0, ")", 0, ")", "(", "_x_x_x_x_bach_float64_x_x_x_x_", 37448, 1083397266, "(", "_x_x_x_x_bach_float64_x_x_x_x_", 0, 1085073408, "_x_x_x_x_bach_float64_x_x_x_x_", 0, 1083261952, 100, "(", "slots", "(", 1, "_x_x_x_x_bach_float64_x_x_x_x_", 50321, 1087571364, ")", ")", 0, ")", 0, ")", "(", "_x_x_x_x_bach_float64_x_x_x_x_", 18724, 1084010568, "(", "_x_x_x_x_bach_float64_x_x_x_x_", 0, 1086121984, "_x_x_x_x_bach_float64_x_x_x_x_", 0, 1081692160, 100, "(", "slots", "(", 1, "_x_x_x_x_bach_float64_x_x_x_x_", 29840, 1087474166, ")", ")", 0, ")", 0, ")", "(", "_x_x_x_x_bach_float64_x_x_x_x_", 37449, 1084134545, "(", "_x_x_x_x_bach_float64_x_x_x_x_", 0, 1085558784, "_x_x_x_x_bach_float64_x_x_x_x_", 0, 1083261952, 100, "(", "slots", "(", 1, "_x_x_x_x_bach_float64_x_x_x_x_", 0, 1087764736, ")", ")", 0, ")", 0, ")", 0, ")" ],
					"whole_roll_data_count" : [ 1 ]
				}

			}
, 			{
				"box" : 				{
					"maxclass" : "message",
					"text" : "[slotinfo [1 [name frequency] [type float] [range 0 22500] [representation Hz]]], bgslots 1",
					"linecount" : 2,
					"numoutlets" : 1,
					"patching_rect" : [ 6.0, 147.0, 432.0, 32.0 ],
					"id" : "obj-34",
					"fontname" : "Arial",
					"outlettype" : [ "" ],
					"fontsize" : 12.0,
					"numinlets" : 2
				}

			}
, 			{
				"box" : 				{
					"maxclass" : "comment",
					"text" : "One idea immediately jumps to our mind: we can use a slot to keep the frequency information for each note. If we are smart enough, we make it of type float, of a proper range, and we give it a \"Hz\" extension (representation). If we're even smarter, we know that we can keep some slot always in background, and we'll assign this slot as a background slot.",
					"linecount" : 3,
					"numoutlets" : 0,
					"patching_rect" : [ 5.0, 94.0, 717.0, 48.0 ],
					"id" : "obj-33",
					"fontname" : "Arial",
					"fontsize" : 12.0,
					"numinlets" : 1
				}

			}
, 			{
				"box" : 				{
					"maxclass" : "message",
					"varname" : "wclose",
					"text" : "clean, wclose",
					"numoutlets" : 1,
					"patching_rect" : [ 362.0, 625.0, 81.0, 18.0 ],
					"id" : "obj-19",
					"fontname" : "Arial",
					"outlettype" : [ "" ],
					"fontsize" : 12.0,
					"numinlets" : 2,
					"hidden" : 1
				}

			}
, 			{
				"box" : 				{
					"maxclass" : "newobj",
					"text" : "linksections 1 1 b \"Lambda Scores\"",
					"numoutlets" : 1,
					"patching_rect" : [ 362.0, 677.5, 198.0, 20.0 ],
					"id" : "obj-198",
					"fontname" : "Arial",
					"outlettype" : [ "" ],
					"fontsize" : 12.0,
					"numinlets" : 1,
					"hidden" : 1
				}

			}
, 			{
				"box" : 				{
					"maxclass" : "newobj",
					"text" : "thispatcher",
					"numoutlets" : 2,
					"patching_rect" : [ 362.0, 650.0, 69.0, 20.0 ],
					"id" : "obj-90",
					"fontname" : "Arial",
					"outlettype" : [ "", "" ],
					"fontsize" : 12.0,
					"numinlets" : 1,
					"hidden" : 1,
					"save" : [ "#N", "thispatcher", ";", "#Q", "end", ";" ]
				}

			}
, 			{
				"box" : 				{
					"maxclass" : "comment",
					"text" : "So, what to do?",
					"frgb" : [ 0.0, 0.168627, 0.67451, 1.0 ],
					"numoutlets" : 0,
					"patching_rect" : [ 511.0, 371.0, 94.0, 20.0 ],
					"id" : "obj-61",
					"fontname" : "Arial",
					"textcolor" : [ 0.0, 0.168627, 0.67451, 1.0 ],
					"fontface" : 2,
					"fontsize" : 12.0,
					"numinlets" : 1
				}

			}
, 			{
				"box" : 				{
					"maxclass" : "comment",
					"text" : "_________________________________________________________________",
					"numoutlets" : 0,
					"patching_rect" : [ 5.0, 19.0, 444.0, 20.0 ],
					"id" : "obj-87",
					"fontname" : "Arial",
					"fontsize" : 12.0,
					"numinlets" : 1
				}

			}
, 			{
				"box" : 				{
					"maxclass" : "comment",
					"text" : "- a practical problem",
					"numoutlets" : 0,
					"patching_rect" : [ 198.0, 7.74086, 477.0, 26.0 ],
					"id" : "obj-2",
					"fontname" : "Arial Italic",
					"fontsize" : 16.787033,
					"numinlets" : 1
				}

			}
, 			{
				"box" : 				{
					"maxclass" : "comment",
					"text" : "Lambda Scores (b)",
					"numoutlets" : 0,
					"patching_rect" : [ 5.0, 2.924051, 220.0, 32.0 ],
					"id" : "obj-3",
					"fontname" : "Arial",
					"fontsize" : 22.256727,
					"numinlets" : 1
				}

			}
, 			{
				"box" : 				{
					"maxclass" : "comment",
					"text" : "As an example, suppose that you want to work with pitch and frequencies at the same time. So you might want to see the Hertz value of each pitch at every given moment on your [bach.roll] or your [bach.score]. This could be very common and useful, for instance when dealing with spectral musical content.",
					"linecount" : 3,
					"numoutlets" : 0,
					"patching_rect" : [ 5.0, 43.0, 711.0, 48.0 ],
					"id" : "obj-13",
					"fontname" : "Arial",
					"fontsize" : 12.0,
					"numinlets" : 1
				}

			}
, 			{
				"box" : 				{
					"maxclass" : "newobj",
					"varname" : "pcontrolA",
					"text" : "pcontrol",
					"numoutlets" : 1,
					"patching_rect" : [ 5.0, 495.0, 140.0, 20.0 ],
					"id" : "obj-4",
					"fontname" : "Arial",
					"outlettype" : [ "" ],
					"fontsize" : 12.0,
					"numinlets" : 1,
					"hidden" : 1
				}

			}
, 			{
				"box" : 				{
					"maxclass" : "newobj",
					"varname" : "prependA",
					"text" : "prepend load",
					"numoutlets" : 1,
					"patching_rect" : [ 5.0, 470.0, 140.0, 20.0 ],
					"id" : "obj-5",
					"fontname" : "Arial",
					"outlettype" : [ "" ],
					"fontsize" : 12.0,
					"numinlets" : 1,
					"hidden" : 1
				}

			}
, 			{
				"box" : 				{
					"maxclass" : "newobj",
					"varname" : "tosymbolA",
					"text" : "tosymbol",
					"numoutlets" : 1,
					"patching_rect" : [ 5.0, 445.0, 140.0, 20.0 ],
					"id" : "obj-6",
					"fontname" : "Arial",
					"outlettype" : [ "" ],
					"fontsize" : 12.0,
					"numinlets" : 1,
					"hidden" : 1
				}

			}
, 			{
				"box" : 				{
					"maxclass" : "message",
					"varname" : "messageA",
					"text" : "Lambda Scores [a]",
					"numoutlets" : 1,
					"patching_rect" : [ 5.0, 420.0, 140.0, 18.0 ],
					"id" : "obj-8",
					"fontname" : "Arial",
					"outlettype" : [ "" ],
					"fontsize" : 12.0,
					"numinlets" : 2,
					"hidden" : 1
				}

			}
, 			{
				"box" : 				{
					"maxclass" : "newobj",
					"varname" : "triggerA",
					"text" : "t b b",
					"numoutlets" : 2,
					"patching_rect" : [ 5.0, 395.0, 40.0, 20.0 ],
					"id" : "obj-9",
					"fontname" : "Arial",
					"outlettype" : [ "bang", "bang" ],
					"fontsize" : 12.0,
					"numinlets" : 1,
					"hidden" : 1
				}

			}
, 			{
				"box" : 				{
					"maxclass" : "textbutton",
					"varname" : "textbuttonA",
					"bgoncolor" : [ 0.51, 0.59, 0.64, 1.0 ],
					"numoutlets" : 3,
					"patching_rect" : [ 5.0, 370.0, 151.0, 20.0 ],
					"id" : "obj-11",
					"fontname" : "Arial",
					"outlettype" : [ "", "", "int" ],
					"text" : "Back to section (a)",
					"bordercolor" : [ 0.63, 0.7, 0.75, 1.0 ],
					"fontface" : 2,
					"fontsize" : 12.0,
					"bgovercolor" : [ 0.64, 0.65, 0.72, 1.0 ],
					"numinlets" : 1
				}

			}
, 			{
				"box" : 				{
					"maxclass" : "newobj",
					"varname" : "pcontrolB",
					"text" : "pcontrol",
					"numoutlets" : 1,
					"patching_rect" : [ 616.0, 495.0, 140.0, 20.0 ],
					"id" : "obj-12",
					"fontname" : "Arial",
					"outlettype" : [ "" ],
					"fontsize" : 12.0,
					"numinlets" : 1,
					"hidden" : 1
				}

			}
, 			{
				"box" : 				{
					"maxclass" : "newobj",
					"varname" : "prependB",
					"text" : "prepend load",
					"numoutlets" : 1,
					"patching_rect" : [ 616.0, 470.0, 140.0, 20.0 ],
					"id" : "obj-14",
					"fontname" : "Arial",
					"outlettype" : [ "" ],
					"fontsize" : 12.0,
					"numinlets" : 1,
					"hidden" : 1
				}

			}
, 			{
				"box" : 				{
					"maxclass" : "newobj",
					"varname" : "tosymbolB",
					"text" : "tosymbol",
					"numoutlets" : 1,
					"patching_rect" : [ 616.0, 445.0, 140.0, 20.0 ],
					"id" : "obj-15",
					"fontname" : "Arial",
					"outlettype" : [ "" ],
					"fontsize" : 12.0,
					"numinlets" : 1,
					"hidden" : 1
				}

			}
, 			{
				"box" : 				{
					"maxclass" : "message",
					"varname" : "messageB",
					"text" : "Lambda Scores [c]",
					"numoutlets" : 1,
					"patching_rect" : [ 616.0, 420.0, 140.0, 18.0 ],
					"id" : "obj-17",
					"fontname" : "Arial",
					"outlettype" : [ "" ],
					"fontsize" : 12.0,
					"numinlets" : 2,
					"hidden" : 1
				}

			}
, 			{
				"box" : 				{
					"maxclass" : "newobj",
					"varname" : "triggerB",
					"text" : "t b b",
					"numoutlets" : 2,
					"patching_rect" : [ 616.0, 395.0, 40.0, 20.0 ],
					"id" : "obj-18",
					"fontname" : "Arial",
					"outlettype" : [ "bang", "bang" ],
					"fontsize" : 12.0,
					"numinlets" : 1,
					"hidden" : 1
				}

			}
, 			{
				"box" : 				{
					"maxclass" : "textbutton",
					"varname" : "textbuttonB",
					"bgoncolor" : [ 0.51, 0.59, 0.64, 1.0 ],
					"numoutlets" : 3,
					"patching_rect" : [ 616.0, 370.0, 151.0, 20.0 ],
					"id" : "obj-21",
					"fontname" : "Arial",
					"outlettype" : [ "", "", "int" ],
					"text" : "Continue to section (c)",
					"bordercolor" : [ 0.63, 0.7, 0.75, 1.0 ],
					"fontface" : 2,
					"fontsize" : 12.0,
					"bgovercolor" : [ 0.64, 0.65, 0.72, 1.0 ],
					"numinlets" : 1
				}

			}
 ],
		"lines" : [ 			{
				"patchline" : 				{
					"source" : [ "obj-18", 0 ],
					"destination" : [ "obj-19", 0 ],
					"hidden" : 1,
					"midpoints" : [  ]
				}

			}
, 			{
				"patchline" : 				{
					"source" : [ "obj-14", 0 ],
					"destination" : [ "obj-12", 0 ],
					"hidden" : 1,
					"midpoints" : [  ]
				}

			}
, 			{
				"patchline" : 				{
					"source" : [ "obj-15", 0 ],
					"destination" : [ "obj-14", 0 ],
					"hidden" : 1,
					"midpoints" : [  ]
				}

			}
, 			{
				"patchline" : 				{
					"source" : [ "obj-17", 0 ],
					"destination" : [ "obj-15", 0 ],
					"hidden" : 1,
					"midpoints" : [  ]
				}

			}
, 			{
				"patchline" : 				{
					"source" : [ "obj-18", 1 ],
					"destination" : [ "obj-17", 0 ],
					"hidden" : 1,
					"midpoints" : [  ]
				}

			}
, 			{
				"patchline" : 				{
					"source" : [ "obj-21", 0 ],
					"destination" : [ "obj-18", 0 ],
					"hidden" : 1,
					"midpoints" : [  ]
				}

			}
, 			{
				"patchline" : 				{
					"source" : [ "obj-9", 0 ],
					"destination" : [ "obj-19", 0 ],
					"hidden" : 1,
					"midpoints" : [  ]
				}

			}
, 			{
				"patchline" : 				{
					"source" : [ "obj-5", 0 ],
					"destination" : [ "obj-4", 0 ],
					"hidden" : 1,
					"midpoints" : [  ]
				}

			}
, 			{
				"patchline" : 				{
					"source" : [ "obj-6", 0 ],
					"destination" : [ "obj-5", 0 ],
					"hidden" : 1,
					"midpoints" : [  ]
				}

			}
, 			{
				"patchline" : 				{
					"source" : [ "obj-8", 0 ],
					"destination" : [ "obj-6", 0 ],
					"hidden" : 1,
					"midpoints" : [  ]
				}

			}
, 			{
				"patchline" : 				{
					"source" : [ "obj-9", 1 ],
					"destination" : [ "obj-8", 0 ],
					"hidden" : 1,
					"midpoints" : [  ]
				}

			}
, 			{
				"patchline" : 				{
					"source" : [ "obj-11", 0 ],
					"destination" : [ "obj-9", 0 ],
					"hidden" : 1,
					"midpoints" : [  ]
				}

			}
, 			{
				"patchline" : 				{
					"source" : [ "obj-90", 0 ],
					"destination" : [ "obj-198", 0 ],
					"hidden" : 1,
					"midpoints" : [  ]
				}

			}
, 			{
				"patchline" : 				{
					"source" : [ "obj-198", 0 ],
					"destination" : [ "obj-90", 0 ],
					"hidden" : 1,
					"midpoints" : [ 371.5, 703.5, 353.5, 703.5, 353.5, 645.0, 371.5, 645.0 ]
				}

			}
, 			{
				"patchline" : 				{
					"source" : [ "obj-34", 0 ],
					"destination" : [ "obj-1", 0 ],
					"hidden" : 0,
					"midpoints" : [  ]
				}

			}
, 			{
				"patchline" : 				{
					"source" : [ "obj-19", 0 ],
					"destination" : [ "obj-90", 0 ],
					"hidden" : 1,
					"midpoints" : [  ]
				}

			}
 ]
	}

}
