{
	"patcher" : 	{
		"fileversion" : 1,
		"appversion" : 		{
			"major" : 5,
			"minor" : 1,
			"revision" : 9
		}
,
		"rect" : [ 182.0, 58.0, 904.0, 558.0 ],
		"bglocked" : 0,
		"defrect" : [ 182.0, 58.0, 904.0, 558.0 ],
		"openrect" : [ 0.0, 0.0, 0.0, 0.0 ],
		"openinpresentation" : 0,
		"default_fontsize" : 12.0,
		"default_fontface" : 0,
		"default_fontname" : "Arial",
		"gridonopen" : 0,
		"gridsize" : [ 15.0, 15.0 ],
		"gridsnaponopen" : 0,
		"toolbarvisible" : 1,
		"boxanimatetime" : 200,
		"imprint" : 0,
		"enablehscroll" : 1,
		"enablevscroll" : 1,
		"devicewidth" : 0.0,
		"boxes" : [ 			{
				"box" : 				{
					"maxclass" : "message",
					"varname" : "wclose",
					"text" : "clean, wclose",
					"fontsize" : 12.0,
					"numinlets" : 2,
					"numoutlets" : 1,
					"patching_rect" : [ 278.0, 559.0, 81.0, 18.0 ],
					"id" : "obj-24",
					"outlettype" : [ "" ],
					"fontname" : "Arial",
					"hidden" : 1
				}

			}
, 			{
				"box" : 				{
					"maxclass" : "comment",
					"text" : "(2)",
					"fontface" : 1,
					"fontsize" : 14.439197,
					"numinlets" : 1,
					"numoutlets" : 0,
					"patching_rect" : [ 285.0, 194.399994, 29.0, 23.0 ],
					"id" : "obj-53",
					"fontname" : "Arial"
				}

			}
, 			{
				"box" : 				{
					"maxclass" : "comment",
					"text" : "(3)",
					"fontface" : 1,
					"fontsize" : 14.439197,
					"numinlets" : 1,
					"numoutlets" : 0,
					"patching_rect" : [ 405.0, 299.399994, 29.0, 23.0 ],
					"id" : "obj-52",
					"fontname" : "Arial"
				}

			}
, 			{
				"box" : 				{
					"maxclass" : "comment",
					"text" : "As you'll have noticed, for the time being, we're just giving a default duration of 1000ms for every note. Deceiving isn't it?",
					"linecount" : 2,
					"fontsize" : 12.0,
					"numinlets" : 1,
					"numoutlets" : 0,
					"patching_rect" : [ 493.0, 344.0, 404.0, 34.0 ],
					"id" : "obj-51",
					"fontname" : "Arial"
				}

			}
, 			{
				"box" : 				{
					"maxclass" : "comment",
					"text" : "addchord <voice_num> ( <onset> ( <midicents> <duration> <velocity> ) )",
					"fontsize" : 12.0,
					"numinlets" : 1,
					"numoutlets" : 0,
					"patching_rect" : [ 493.0, 322.0, 404.0, 20.0 ],
					"id" : "obj-50",
					"fontname" : "Arial"
				}

			}
, 			{
				"box" : 				{
					"maxclass" : "comment",
					"text" : "The \"addchord\" message allows you to add a chord in a roll. Its simplest syntax is:",
					"linecount" : 2,
					"fontsize" : 12.0,
					"numinlets" : 1,
					"numoutlets" : 0,
					"patching_rect" : [ 493.0, 292.0, 279.0, 34.0 ],
					"id" : "obj-48",
					"fontname" : "Arial"
				}

			}
, 			{
				"box" : 				{
					"maxclass" : "comment",
					"text" : "When the status turns to 1 (i.e. we start transcribing), as a very first thing we clear the roll content (1).\nThen, when a note is played, we'd love to display it on our object. \n\nTo do so, we need to know the onset, the pitch and the velocity of the note.\nWe already have velocity and pitch, so let's concentrate on the onset. To obtain the onset, we just use a timer, precisely the [p cputimer] subpatch that you find in the [cpuclock] help. \nThis timer is set to 0 when we start transcribing, and then, every time a pitch comes out, the time interval is updated (2), and output, and packed with pitch and velocity (3).\n\nThis information is given to the addchord message, which is in charge of updating the roll content accordingly.",
					"linecount" : 23,
					"fontsize" : 12.0,
					"numinlets" : 1,
					"numoutlets" : 0,
					"patching_rect" : [ 4.0, 153.0, 212.0, 324.0 ],
					"id" : "obj-45",
					"fontname" : "Arial"
				}

			}
, 			{
				"box" : 				{
					"maxclass" : "comment",
					"text" : "onset",
					"fontsize" : 12.0,
					"numinlets" : 1,
					"numoutlets" : 0,
					"patching_rect" : [ 265.0, 278.0, 40.0, 20.0 ],
					"id" : "obj-84",
					"fontname" : "Arial"
				}

			}
, 			{
				"box" : 				{
					"maxclass" : "comment",
					"text" : "velocity",
					"fontsize" : 12.0,
					"numinlets" : 1,
					"numoutlets" : 0,
					"patching_rect" : [ 392.0, 278.0, 51.0, 20.0 ],
					"id" : "obj-83",
					"fontname" : "Arial"
				}

			}
, 			{
				"box" : 				{
					"maxclass" : "comment",
					"text" : "pitch",
					"fontsize" : 12.0,
					"numinlets" : 1,
					"numoutlets" : 0,
					"patching_rect" : [ 322.0, 278.0, 36.0, 20.0 ],
					"id" : "obj-81",
					"fontname" : "Arial"
				}

			}
, 			{
				"box" : 				{
					"maxclass" : "comment",
					"text" : "(1)",
					"fontface" : 1,
					"fontsize" : 14.439197,
					"numinlets" : 1,
					"numoutlets" : 0,
					"patching_rect" : [ 213.0, 336.399994, 29.0, 23.0 ],
					"id" : "obj-75",
					"fontname" : "Arial"
				}

			}
, 			{
				"box" : 				{
					"maxclass" : "button",
					"numinlets" : 1,
					"numoutlets" : 1,
					"patching_rect" : [ 322.0, 189.0, 20.0, 20.0 ],
					"id" : "obj-67",
					"outlettype" : [ "bang" ]
				}

			}
, 			{
				"box" : 				{
					"maxclass" : "comment",
					"text" : "First of all we prepare a \"Start transcribing\" button, which will always tell us whether we're in a transcription mode, or lecture mode.",
					"linecount" : 4,
					"fontsize" : 12.0,
					"numinlets" : 1,
					"numoutlets" : 0,
					"patching_rect" : [ 4.0, 83.0, 201.0, 62.0 ],
					"id" : "obj-32",
					"fontname" : "Arial"
				}

			}
, 			{
				"box" : 				{
					"maxclass" : "newobj",
					"text" : "stripnote",
					"fontsize" : 12.0,
					"numinlets" : 2,
					"numoutlets" : 2,
					"patching_rect" : [ 346.0, 143.0, 252.0, 20.0 ],
					"id" : "obj-98",
					"outlettype" : [ "int", "int" ],
					"fontname" : "Arial"
				}

			}
, 			{
				"box" : 				{
					"maxclass" : "newobj",
					"text" : "* 100.",
					"fontsize" : 12.0,
					"numinlets" : 2,
					"numoutlets" : 1,
					"patching_rect" : [ 346.0, 254.0, 42.0, 20.0 ],
					"id" : "obj-27",
					"outlettype" : [ "float" ],
					"fontname" : "Arial"
				}

			}
, 			{
				"box" : 				{
					"maxclass" : "comment",
					"text" : "velocity",
					"fontsize" : 12.0,
					"numinlets" : 1,
					"numoutlets" : 0,
					"patching_rect" : [ 597.0, 122.0, 51.0, 20.0 ],
					"id" : "obj-8",
					"fontname" : "Arial"
				}

			}
, 			{
				"box" : 				{
					"maxclass" : "newobj",
					"text" : "loadmess clear",
					"fontsize" : 12.0,
					"numinlets" : 1,
					"numoutlets" : 1,
					"patching_rect" : [ 233.0, 393.0, 91.0, 20.0 ],
					"id" : "obj-5",
					"outlettype" : [ "" ],
					"fontname" : "Arial",
					"hidden" : 1
				}

			}
, 			{
				"box" : 				{
					"maxclass" : "newobj",
					"text" : "change",
					"fontsize" : 12.0,
					"numinlets" : 1,
					"numoutlets" : 3,
					"patching_rect" : [ 218.0, 180.0, 50.0, 20.0 ],
					"id" : "obj-56",
					"outlettype" : [ "", "int", "int" ],
					"fontname" : "Arial"
				}

			}
, 			{
				"box" : 				{
					"maxclass" : "newobj",
					"text" : "r status",
					"fontsize" : 12.0,
					"numinlets" : 0,
					"numoutlets" : 1,
					"color" : [ 0.709804, 0.729412, 0.839216, 1.0 ],
					"patching_rect" : [ 218.0, 157.0, 50.0, 20.0 ],
					"id" : "obj-60",
					"outlettype" : [ "" ],
					"fontname" : "Arial"
				}

			}
, 			{
				"box" : 				{
					"maxclass" : "newobj",
					"text" : "s status",
					"fontsize" : 12.0,
					"numinlets" : 1,
					"numoutlets" : 0,
					"color" : [ 0.709804, 0.729412, 0.839216, 1.0 ],
					"patching_rect" : [ 217.0, 112.0, 52.0, 20.0 ],
					"id" : "obj-59",
					"fontname" : "Arial"
				}

			}
, 			{
				"box" : 				{
					"maxclass" : "textbutton",
					"mode" : 1,
					"fontsize" : 12.0,
					"text" : "Start transcribing",
					"numinlets" : 1,
					"numoutlets" : 3,
					"patching_rect" : [ 217.0, 85.0, 116.0, 23.0 ],
					"id" : "obj-58",
					"outlettype" : [ "", "", "int" ],
					"fontname" : "Arial",
					"texton" : "Stop transcribing"
				}

			}
, 			{
				"box" : 				{
					"maxclass" : "newobj",
					"text" : "gate",
					"fontsize" : 12.0,
					"numinlets" : 2,
					"numoutlets" : 1,
					"patching_rect" : [ 218.0, 241.0, 77.0, 20.0 ],
					"id" : "obj-57",
					"outlettype" : [ "" ],
					"fontname" : "Arial"
				}

			}
, 			{
				"box" : 				{
					"maxclass" : "newobj",
					"text" : "p cputimer",
					"fontsize" : 11.595187,
					"numinlets" : 2,
					"numoutlets" : 1,
					"patching_rect" : [ 276.0, 216.0, 65.0, 20.0 ],
					"id" : "obj-62",
					"outlettype" : [ "float" ],
					"fontname" : "Arial",
					"patcher" : 					{
						"fileversion" : 1,
						"appversion" : 						{
							"major" : 5,
							"minor" : 1,
							"revision" : 9
						}
,
						"rect" : [ 525.0, 182.0, 197.0, 237.0 ],
						"bglocked" : 0,
						"defrect" : [ 525.0, 182.0, 197.0, 237.0 ],
						"openrect" : [ 0.0, 0.0, 0.0, 0.0 ],
						"openinpresentation" : 0,
						"default_fontsize" : 11.595187,
						"default_fontface" : 0,
						"default_fontname" : "Arial",
						"gridonopen" : 0,
						"gridsize" : [ 15.0, 15.0 ],
						"gridsnaponopen" : 0,
						"toolbarvisible" : 1,
						"boxanimatetime" : 200,
						"imprint" : 0,
						"enablehscroll" : 1,
						"enablevscroll" : 1,
						"devicewidth" : 0.0,
						"boxes" : [ 							{
								"box" : 								{
									"maxclass" : "outlet",
									"numinlets" : 1,
									"numoutlets" : 0,
									"patching_rect" : [ 34.0, 173.0, 25.0, 25.0 ],
									"id" : "obj-1",
									"comment" : "interval in ms is reported here"
								}

							}
, 							{
								"box" : 								{
									"maxclass" : "newobj",
									"text" : "b 1",
									"fontsize" : 11.595187,
									"numinlets" : 1,
									"numoutlets" : 1,
									"patching_rect" : [ 107.0, 78.0, 27.0, 20.0 ],
									"id" : "obj-2",
									"outlettype" : [ "bang" ],
									"fontname" : "Arial"
								}

							}
, 							{
								"box" : 								{
									"maxclass" : "newobj",
									"text" : "cpuclock",
									"fontsize" : 11.595187,
									"numinlets" : 1,
									"numoutlets" : 1,
									"patching_rect" : [ 107.0, 104.0, 56.0, 20.0 ],
									"id" : "obj-3",
									"outlettype" : [ "float" ],
									"fontname" : "Arial"
								}

							}
, 							{
								"box" : 								{
									"maxclass" : "newobj",
									"text" : "- 0.",
									"fontsize" : 11.595187,
									"numinlets" : 2,
									"numoutlets" : 1,
									"patching_rect" : [ 34.0, 143.0, 32.5, 20.0 ],
									"id" : "obj-4",
									"outlettype" : [ "float" ],
									"fontname" : "Arial"
								}

							}
, 							{
								"box" : 								{
									"maxclass" : "newobj",
									"text" : "b 1",
									"fontsize" : 11.595187,
									"numinlets" : 1,
									"numoutlets" : 1,
									"patching_rect" : [ 48.0, 78.0, 27.0, 20.0 ],
									"id" : "obj-5",
									"outlettype" : [ "bang" ],
									"fontname" : "Arial"
								}

							}
, 							{
								"box" : 								{
									"maxclass" : "newobj",
									"text" : "cpuclock",
									"fontsize" : 11.595187,
									"numinlets" : 1,
									"numoutlets" : 1,
									"patching_rect" : [ 47.5, 104.0, 56.0, 20.0 ],
									"id" : "obj-6",
									"outlettype" : [ "float" ],
									"fontname" : "Arial"
								}

							}
, 							{
								"box" : 								{
									"maxclass" : "inlet",
									"numinlets" : 0,
									"numoutlets" : 1,
									"patching_rect" : [ 107.0, 47.0, 25.0, 25.0 ],
									"id" : "obj-7",
									"outlettype" : [ "bang" ],
									"comment" : "bang stops timing and reports interval"
								}

							}
, 							{
								"box" : 								{
									"maxclass" : "inlet",
									"numinlets" : 0,
									"numoutlets" : 1,
									"patching_rect" : [ 48.0, 47.0, 25.0, 25.0 ],
									"id" : "obj-8",
									"outlettype" : [ "int" ],
									"comment" : "bang starts timing interval"
								}

							}
 ],
						"lines" : [ 							{
								"patchline" : 								{
									"source" : [ "obj-6", 0 ],
									"destination" : [ "obj-4", 1 ],
									"hidden" : 0,
									"midpoints" : [  ]
								}

							}
, 							{
								"patchline" : 								{
									"source" : [ "obj-4", 0 ],
									"destination" : [ "obj-1", 0 ],
									"hidden" : 0,
									"midpoints" : [  ]
								}

							}
, 							{
								"patchline" : 								{
									"source" : [ "obj-3", 0 ],
									"destination" : [ "obj-4", 0 ],
									"hidden" : 0,
									"midpoints" : [  ]
								}

							}
, 							{
								"patchline" : 								{
									"source" : [ "obj-7", 0 ],
									"destination" : [ "obj-2", 0 ],
									"hidden" : 0,
									"midpoints" : [  ]
								}

							}
, 							{
								"patchline" : 								{
									"source" : [ "obj-2", 0 ],
									"destination" : [ "obj-3", 0 ],
									"hidden" : 0,
									"midpoints" : [  ]
								}

							}
, 							{
								"patchline" : 								{
									"source" : [ "obj-5", 0 ],
									"destination" : [ "obj-6", 0 ],
									"hidden" : 0,
									"midpoints" : [  ]
								}

							}
, 							{
								"patchline" : 								{
									"source" : [ "obj-8", 0 ],
									"destination" : [ "obj-5", 0 ],
									"hidden" : 0,
									"midpoints" : [  ]
								}

							}
 ]
					}
,
					"saved_object_attributes" : 					{
						"fontface" : 0,
						"fontsize" : 11.595187,
						"default_fontface" : 0,
						"default_fontname" : "Arial",
						"fontname" : "Arial",
						"default_fontsize" : 11.595187,
						"globalpatchername" : ""
					}

				}

			}
, 			{
				"box" : 				{
					"maxclass" : "newobj",
					"text" : "pack f f f",
					"fontsize" : 12.0,
					"numinlets" : 3,
					"numoutlets" : 1,
					"patching_rect" : [ 307.0, 303.0, 96.0, 20.0 ],
					"id" : "obj-63",
					"outlettype" : [ "" ],
					"fontname" : "Arial"
				}

			}
, 			{
				"box" : 				{
					"maxclass" : "message",
					"text" : "addchord 1 ( $1 ( $2 1000 $3 ) )",
					"fontsize" : 12.0,
					"numinlets" : 2,
					"numoutlets" : 1,
					"patching_rect" : [ 307.0, 356.0, 180.0, 18.0 ],
					"id" : "obj-31",
					"outlettype" : [ "" ],
					"fontname" : "Arial"
				}

			}
, 			{
				"box" : 				{
					"maxclass" : "message",
					"text" : "clear",
					"fontsize" : 12.0,
					"numinlets" : 2,
					"numoutlets" : 1,
					"patching_rect" : [ 228.0, 360.0, 37.0, 18.0 ],
					"id" : "obj-64",
					"outlettype" : [ "" ],
					"fontname" : "Arial"
				}

			}
, 			{
				"box" : 				{
					"maxclass" : "bach.roll",
					"automessage" : [  ],
					"fontsize" : 12.0,
					"zoom" : 57.03125,
					"legend" : 0,
					"numinlets" : 6,
					"bgslots" : [  ],
					"numoutlets" : 8,
					"clefs" : [ "FG" ],
					"vzoom" : 96.270401,
					"voicespacing" : [ 0.0, 5.0 ],
					"patching_rect" : [ 228.0, 386.0, 571.0, 137.666672 ],
					"showstems" : 0,
					"id" : "obj-26",
					"outlettype" : [ "", "", "", "", "", "", "", "bang" ],
					"fontname" : "Arial",
					"versionnumber" : 6500,
					"popupmenuslots" : [  ],
					"textcolor" : [ 0.0, 0.0, 0.0, 1.0 ],
					"whole_roll_data_0000000000" : [ "roll", "(", "slotinfo", "(", 1, "(", "name", "amplitude envelope", ")", "(", "type", "function", ")", "(", "key", "a", ")", "(", "range", "_x_x_x_x_bach_float64_x_x_x_x_", 0, 0, "_x_x_x_x_bach_float64_x_x_x_x_", 0, 1080016896, ")", "(", "slope", "_x_x_x_x_bach_float64_x_x_x_x_", 0, 0, ")", "(", "representation", ")", "(", "ysnap", "(", ")", ")", "(", "domain", "_x_x_x_x_bach_float64_x_x_x_x_", 0, 0, "_x_x_x_x_bach_float64_x_x_x_x_", 0, 1072693248, ")", "(", "domainslope", "_x_x_x_x_bach_float64_x_x_x_x_", 0, 0, ")", "(", "width", "temporal", ")", "(", "singleslotfortiednotes", 1, ")", ")", "(", 2, "(", "name", "slot function", ")", "(", "type", "function", ")", "(", "key", "q", ")", "(", "range", "_x_x_x_x_bach_float64_x_x_x_x_", 0, 0, "_x_x_x_x_bach_float64_x_x_x_x_", 0, 1072693248, ")", "(", "slope", "_x_x_x_x_bach_float64_x_x_x_x_", 0, 0, ")", "(", "representation", ")", "(", "ysnap", "(", ")", ")", "(", "domain", "_x_x_x_x_bach_float64_x_x_x_x_", 0, 0, "_x_x_x_x_bach_float64_x_x_x_x_", 0, 1072693248, ")", "(", "domainslope", "_x_x_x_x_bach_float64_x_x_x_x_", 0, 0, ")", "(", "width", "temporal", ")", "(", "singleslotfortiednotes", 1, ")", ")", "(", 3, "(", "name", "slot longlist", ")", "(", "type", "intlist", ")", "(", "key", "w", ")", "(", "range", "_x_x_x_x_bach_float64_x_x_x_x_", 0, 0, "_x_x_x_x_bach_float64_x_x_x_x_", 0, 1080016896, ")", "(", "slope", "_x_x_x_x_bach_float64_x_x_x_x_", 0, 0, ")", "(", "representation", ")", "(", "default", "_x_x_x_x_bach_float64_x_x_x_x_", 0, 1078984704, ")", "(", "width", "_x_x_x_x_bach_float64_x_x_x_x_", 0, 1079574528, ")", "(", "singleslotfortiednotes", 1, ")", ")", "(", 4, "(", "name", "slot floatlist", ")", "(", "type", "floatlist", ")", "(", "key", "e", ")", "(", "range", "_x_x_x_x_bach_float64_x_x_x_x_", 0, 0, "_x_x_x_x_bach_float64_x_x_x_x_", 0, 1072693248, ")", "(", "slope", "_x_x_x_x_bach_float64_x_x_x_x_", 0, 0, ")", "(", "representation", ")", "(", "default", "_x_x_x_x_bach_float64_x_x_x_x_", 0, 0, ")", "(", "width", "_x_x_x_x_bach_float64_x_x_x_x_", 0, 1079574528, ")", "(", "singleslotfortiednotes", 1, ")", ")", "(", 5, "(", "name", "slot long", ")", "(", "type", "int", ")", "(", "key", "r", ")", "(", "range", "_x_x_x_x_bach_float64_x_x_x_x_", 0, 0, "_x_x_x_x_bach_float64_x_x_x_x_", 0, 1080016896, ")", "(", "slope", "_x_x_x_x_bach_float64_x_x_x_x_", 0, 0, ")", "(", "representation", ")", "(", "default", "_x_x_x_x_bach_float64_x_x_x_x_", 0, 1078984704, ")", "(", "width", "_x_x_x_x_bach_float64_x_x_x_x_", 0, 1079574528, ")", "(", "singleslotfortiednotes", 1, ")", ")", "(", 6, "(", "name", "slot float", ")", "(", "type", "float", ")", "(", "key", "t", ")", "(", "range", "_x_x_x_x_bach_float64_x_x_x_x_", 0, 0, "_x_x_x_x_bach_float64_x_x_x_x_", 0, 1072693248, ")", "(", "slope", "_x_x_x_x_bach_float64_x_x_x_x_", 0, 0, ")", "(", "representation", ")", "(", "default", "_x_x_x_x_bach_float64_x_x_x_x_", 0, 0, ")", "(", "width", "_x_x_x_x_bach_float64_x_x_x_x_", 0, 1079574528, ")", "(", "singleslotfortiednotes", 1, ")", ")", "(", 7, "(", "name", "slot text", ")", "(", "type", "text", ")", "(", "key", "y", ")", "(", "width", "_x_x_x_x_bach_float64_x_x_x_x_", 0, 1079574528, ")", "(", "singleslotfortiednotes", 1, ")", ")", "(", 8, "(", "name", "filelist", ")", "(", "type", "filelist", ")", "(", "key", "u", ")", "(", "width", "_x_x_x_x_bach_float64_x_x_x_x_", 0, 1080213504, ")", "(", "singleslotfortiednotes", 1, ")", ")", "(", 9, "(", "name", "spat", ")", "(", "type", "spat", ")", "(", "key", "i", ")", "(", "range", "_x_x_x_x_bach_float64_x_x_x_x_", 0, 0, "_x_x_x_x_bach_float64_x_x_x_x_", 0, 1076101120, ")", "(", "slope", "_x_x_x_x_bach_float64_x_x_x_x_", 0, 0, ")", "(", "representation", ")", "(", "width", "temporal", ")", "(", "singleslotfortiednotes", 1, ")", ")", "(", 10, "(", "name", "slot 10", ")", "(", "type", "none", ")", "(", "key", 0, ")", "(", "width", "_x_x_x_x_bach_float64_x_x_x_x_", 0, 1079574528, ")", "(", "singleslotfortiednotes", 1, ")", ")", "(", 11, "(", "name", "slot 11", ")", "(", "type", "none", ")", "(", "key", 0, ")", "(", "width", "_x_x_x_x_bach_float64_x_x_x_x_", 0, 1079574528, ")", "(", "singleslotfortiednotes", 1, ")", ")", "(", 12, "(", "name", "slot 12", ")", "(", "type", "none", ")", "(", "key", 0, ")", "(", "width", "_x_x_x_x_bach_float64_x_x_x_x_", 0, 1079574528, ")", "(", "singleslotfortiednotes", 1, ")", ")", "(", 13, "(", "name", "slot 13", ")", "(", "type", "none", ")", "(", "key", 0, ")", "(", "width", "_x_x_x_x_bach_float64_x_x_x_x_", 0, 1079574528, ")", "(", "singleslotfortiednotes", 1, ")", ")", "(", 14, "(", "name", "slot 14", ")", "(", "type", "none", ")", "(", "key", 0, ")", "(", "width", "_x_x_x_x_bach_float64_x_x_x_x_", 0, 1079574528, ")", "(", "singleslotfortiednotes", 1, ")", ")", "(", 15, "(", "name", "slot 15", ")", "(", "type", "none", ")", "(", "key", 0, ")", "(", "width", "_x_x_x_x_bach_float64_x_x_x_x_", 0, 1079574528, ")", "(", "singleslotfortiednotes", 1, ")", ")", "(", 16, "(", "name", "slot 16", ")", "(", "type", "none", ")", "(", "key", 0, ")", "(", "width", "_x_x_x_x_bach_float64_x_x_x_x_", 0, 1079574528, ")", "(", "singleslotfortiednotes", 1, ")", ")", "(", 17, "(", "name", "slot 17", ")", "(", "type", "none", ")", "(", "key", 0, ")", "(", "width", "_x_x_x_x_bach_float64_x_x_x_x_", 0, 1079574528, ")", "(", "singleslotfortiednotes", 1, ")", ")", "(", 18, "(", "name", "slot 18", ")", "(", "type", "none", ")", "(", "key", 0, ")", "(", "width", "_x_x_x_x_bach_float64_x_x_x_x_", 0, 1079574528, ")", "(", "singleslotfortiednotes", 1, ")", ")", "(", 19, "(", "name", "slot 19", ")", "(", "type", "none", ")", "(", "key", 0, ")", "(", "width", "_x_x_x_x_bach_float64_x_x_x_x_", 0, 1079574528, ")", "(", "singleslotfortiednotes", 1, ")", ")", "(", 20, "(", "name", "slot 20", ")", "(", "type", "none", ")", "(", "key", 0, ")", "(", "width", "_x_x_x_x_bach_float64_x_x_x_x_", 0, 1079574528, ")", "(", "singleslotfortiednotes", 1, ")", ")", "(", 21, "(", "name", "slot 21", ")", "(", "type", "none", ")", "(", "key", 0, ")", "(", "width", "_x_x_x_x_bach_float64_x_x_x_x_", 0, 1079574528, ")", "(", "singleslotfortiednotes", 1, ")", ")", "(", 22, "(", "name", "slot 22", ")", "(", "type", "none", ")", "(", "key", 0, ")", "(", "width", "_x_x_x_x_bach_float64_x_x_x_x_", 0, 1079574528, ")", "(", "singleslotfortiednotes", 1, ")", ")", "(", 23, "(", "name", "slot 23", ")", "(", "type", "none", ")", "(", "key", 0, ")", "(", "width", "_x_x_x_x_bach_float64_x_x_x_x_", 0, 1079574528, ")", "(", "singleslotfortiednotes", 1, ")", ")", "(", 24, "(", "name", "slot 24", ")", "(", "type", "none", ")", "(", "key", 0, ")", "(", "width", "_x_x_x_x_bach_float64_x_x_x_x_", 0, 1079574528, ")", "(", "singleslotfortiednotes", 1, ")", ")", "(", 25, "(", "name", "slot 25", ")", "(", "type", "none", ")", "(", "key", 0, ")", "(", "width", "_x_x_x_x_bach_float64_x_x_x_x_", 0, 1079574528, ")", "(", "singleslotfortiednotes", 1, ")", ")", "(", 26, "(", "name", "slot 26", ")", "(", "type", "none", ")", "(", "key", 0, ")", "(", "width", "_x_x_x_x_bach_float64_x_x_x_x_", 0, 1079574528, ")", "(", "singleslotfortiednotes", 1, ")", ")", "(", 27, "(", "name", "slot 27", ")", "(", "type", "none", ")", "(", "key", 0, ")", "(", "width", "_x_x_x_x_bach_float64_x_x_x_x_", 0, 1079574528, ")", "(", "singleslotfortiednotes", 1, ")", ")", "(", 28, "(", "name", "slot 28", ")", "(", "type", "none", ")", "(", "key", 0, ")", "(", "width", "_x_x_x_x_bach_float64_x_x_x_x_", 0, 1079574528, ")", "(", "singleslotfortiednotes", 1, ")", ")", "(", 29, "(", "name", "slot 29", ")", "(", "type", "none", ")", "(", "key", 0, ")", "(", "width", "_x_x_x_x_bach_float64_x_x_x_x_", 0, 1079574528, ")", "(", "singleslotfortiednotes", 1, ")", ")", "(", 30, "(", "name", "slot 30", ")", "(", "type", "none", ")", "(", "key", 0, ")", "(", "width", "_x_x_x_x_bach_float64_x_x_x_x_", 0, 1079574528, ")", "(", "singleslotfortiednotes", 1, ")", ")", ")", "(", "commands", "(", 1, "notecmd", "chordcmd", 0, ")", "(", 2, "notecmd", "chordcmd", 0, ")", "(", 3, "notecmd", "chordcmd", 0, ")", "(", 4, "notecmd", "chordcmd", 0, ")", "(", 5, "notecmd", "chordcmd", 0, ")", ")", "(", "markers", ")", "(", "midichannels", 1, ")", "(", 0, ")" ],
					"whole_roll_data_count" : [ 1 ]
				}

			}
, 			{
				"box" : 				{
					"maxclass" : "kslider",
					"presentation_rect" : [ 15.0, 15.0, 252.0, 53.0 ],
					"numinlets" : 2,
					"numoutlets" : 2,
					"patching_rect" : [ 346.0, 84.0, 252.0, 53.0 ],
					"offset" : 48,
					"range" : 36,
					"id" : "obj-1",
					"outlettype" : [ "int", "int" ]
				}

			}
, 			{
				"box" : 				{
					"maxclass" : "newobj",
					"text" : "linksections 1 1 b \"Real Time Stories\"",
					"fontsize" : 12.0,
					"numinlets" : 1,
					"numoutlets" : 1,
					"patching_rect" : [ 278.0, 613.5, 209.0, 20.0 ],
					"id" : "obj-198",
					"outlettype" : [ "" ],
					"fontname" : "Arial",
					"hidden" : 1
				}

			}
, 			{
				"box" : 				{
					"maxclass" : "newobj",
					"text" : "thispatcher",
					"fontsize" : 12.0,
					"numinlets" : 1,
					"numoutlets" : 2,
					"patching_rect" : [ 278.0, 586.0, 69.0, 20.0 ],
					"id" : "obj-14",
					"outlettype" : [ "", "" ],
					"fontname" : "Arial",
					"hidden" : 1,
					"save" : [ "#N", "thispatcher", ";", "#Q", "end", ";" ]
				}

			}
, 			{
				"box" : 				{
					"maxclass" : "comment",
					"text" : "Well, default durations really suck. Could we do it better please?",
					"linecount" : 2,
					"frgb" : [ 0.0, 0.168627, 0.67451, 1.0 ],
					"fontface" : 2,
					"fontsize" : 12.0,
					"numinlets" : 1,
					"numoutlets" : 0,
					"patching_rect" : [ 543.0, 524.0, 212.0, 34.0 ],
					"id" : "obj-61",
					"fontname" : "Arial",
					"textcolor" : [ 0.0, 0.168627, 0.67451, 1.0 ]
				}

			}
, 			{
				"box" : 				{
					"maxclass" : "comment",
					"text" : "_________________________________________________________________",
					"fontsize" : 12.0,
					"numinlets" : 1,
					"numoutlets" : 0,
					"patching_rect" : [ 5.0, 19.0, 444.0, 20.0 ],
					"id" : "obj-87",
					"fontname" : "Arial"
				}

			}
, 			{
				"box" : 				{
					"maxclass" : "comment",
					"text" : "- first steps with live transcription",
					"fontsize" : 16.787033,
					"numinlets" : 1,
					"numoutlets" : 0,
					"patching_rect" : [ 225.0, 7.74086, 253.0, 26.0 ],
					"id" : "obj-2",
					"fontname" : "Arial Italic"
				}

			}
, 			{
				"box" : 				{
					"maxclass" : "comment",
					"text" : "Real Time Stories (b)",
					"fontsize" : 22.256727,
					"numinlets" : 1,
					"numoutlets" : 0,
					"patching_rect" : [ 5.0, 2.924051, 220.0, 32.0 ],
					"id" : "obj-3",
					"fontname" : "Arial"
				}

			}
, 			{
				"box" : 				{
					"maxclass" : "comment",
					"text" : "Aware of these main rules, we can start to build a little machine to display some real-time musical content. The first thing we might want to do is to have a keyboard to play and have bach to transcribe live the melody. We do our first attempts!",
					"linecount" : 2,
					"fontsize" : 12.0,
					"numinlets" : 1,
					"numoutlets" : 0,
					"patching_rect" : [ 5.0, 43.0, 777.0, 34.0 ],
					"id" : "obj-13",
					"fontname" : "Arial"
				}

			}
, 			{
				"box" : 				{
					"maxclass" : "newobj",
					"varname" : "pcontrolA",
					"text" : "pcontrol",
					"fontsize" : 12.0,
					"numinlets" : 1,
					"numoutlets" : 1,
					"patching_rect" : [ 5.0, 658.0, 140.0, 20.0 ],
					"id" : "obj-4",
					"outlettype" : [ "" ],
					"fontname" : "Arial",
					"hidden" : 1
				}

			}
, 			{
				"box" : 				{
					"maxclass" : "newobj",
					"varname" : "prependA",
					"text" : "prepend load",
					"fontsize" : 12.0,
					"numinlets" : 1,
					"numoutlets" : 1,
					"patching_rect" : [ 5.0, 633.0, 140.0, 20.0 ],
					"id" : "obj-6",
					"outlettype" : [ "" ],
					"fontname" : "Arial",
					"hidden" : 1
				}

			}
, 			{
				"box" : 				{
					"maxclass" : "newobj",
					"varname" : "tosymbolA",
					"text" : "tosymbol",
					"fontsize" : 12.0,
					"numinlets" : 1,
					"numoutlets" : 1,
					"patching_rect" : [ 5.0, 608.0, 140.0, 20.0 ],
					"id" : "obj-7",
					"outlettype" : [ "" ],
					"fontname" : "Arial",
					"hidden" : 1
				}

			}
, 			{
				"box" : 				{
					"maxclass" : "message",
					"varname" : "messageA",
					"text" : "Real Time Stories (a)",
					"fontsize" : 12.0,
					"numinlets" : 2,
					"numoutlets" : 1,
					"patching_rect" : [ 5.0, 583.0, 140.0, 18.0 ],
					"id" : "obj-10",
					"outlettype" : [ "" ],
					"fontname" : "Arial",
					"hidden" : 1
				}

			}
, 			{
				"box" : 				{
					"maxclass" : "newobj",
					"varname" : "triggerA",
					"text" : "t b b",
					"fontsize" : 12.0,
					"numinlets" : 1,
					"numoutlets" : 2,
					"patching_rect" : [ 5.0, 558.0, 40.0, 20.0 ],
					"id" : "obj-11",
					"outlettype" : [ "bang", "bang" ],
					"fontname" : "Arial",
					"hidden" : 1
				}

			}
, 			{
				"box" : 				{
					"maxclass" : "textbutton",
					"varname" : "textbuttonA",
					"fontface" : 2,
					"bordercolor" : [ 0.63, 0.7, 0.75, 1.0 ],
					"fontsize" : 12.0,
					"text" : "Back to section (a)",
					"numinlets" : 1,
					"bgovercolor" : [ 0.64, 0.65, 0.72, 1.0 ],
					"numoutlets" : 3,
					"patching_rect" : [ 5.0, 533.0, 151.0, 20.0 ],
					"id" : "obj-15",
					"outlettype" : [ "", "", "int" ],
					"fontname" : "Arial",
					"bgoncolor" : [ 0.51, 0.59, 0.64, 1.0 ]
				}

			}
, 			{
				"box" : 				{
					"maxclass" : "newobj",
					"varname" : "pcontrolB",
					"text" : "pcontrol",
					"fontsize" : 12.0,
					"numinlets" : 1,
					"numoutlets" : 1,
					"patching_rect" : [ 749.0, 658.0, 140.0, 20.0 ],
					"id" : "obj-16",
					"outlettype" : [ "" ],
					"fontname" : "Arial",
					"hidden" : 1
				}

			}
, 			{
				"box" : 				{
					"maxclass" : "newobj",
					"varname" : "prependB",
					"text" : "prepend load",
					"fontsize" : 12.0,
					"numinlets" : 1,
					"numoutlets" : 1,
					"patching_rect" : [ 749.0, 633.0, 140.0, 20.0 ],
					"id" : "obj-17",
					"outlettype" : [ "" ],
					"fontname" : "Arial",
					"hidden" : 1
				}

			}
, 			{
				"box" : 				{
					"maxclass" : "newobj",
					"varname" : "tosymbolB",
					"text" : "tosymbol",
					"fontsize" : 12.0,
					"numinlets" : 1,
					"numoutlets" : 1,
					"patching_rect" : [ 749.0, 608.0, 140.0, 20.0 ],
					"id" : "obj-18",
					"outlettype" : [ "" ],
					"fontname" : "Arial",
					"hidden" : 1
				}

			}
, 			{
				"box" : 				{
					"maxclass" : "message",
					"varname" : "messageB",
					"text" : "Real Time Stories (c)",
					"fontsize" : 12.0,
					"numinlets" : 2,
					"numoutlets" : 1,
					"patching_rect" : [ 749.0, 583.0, 140.0, 18.0 ],
					"id" : "obj-20",
					"outlettype" : [ "" ],
					"fontname" : "Arial",
					"hidden" : 1
				}

			}
, 			{
				"box" : 				{
					"maxclass" : "newobj",
					"varname" : "triggerB",
					"text" : "t b b",
					"fontsize" : 12.0,
					"numinlets" : 1,
					"numoutlets" : 2,
					"patching_rect" : [ 749.0, 558.0, 40.0, 20.0 ],
					"id" : "obj-21",
					"outlettype" : [ "bang", "bang" ],
					"fontname" : "Arial",
					"hidden" : 1
				}

			}
, 			{
				"box" : 				{
					"maxclass" : "textbutton",
					"varname" : "textbuttonB",
					"fontface" : 2,
					"bordercolor" : [ 0.63, 0.7, 0.75, 1.0 ],
					"fontsize" : 12.0,
					"text" : "Continue to section (c)",
					"numinlets" : 1,
					"bgovercolor" : [ 0.64, 0.65, 0.72, 1.0 ],
					"numoutlets" : 3,
					"patching_rect" : [ 749.0, 533.0, 151.0, 20.0 ],
					"id" : "obj-23",
					"outlettype" : [ "", "", "int" ],
					"fontname" : "Arial",
					"bgoncolor" : [ 0.51, 0.59, 0.64, 1.0 ]
				}

			}
 ],
		"lines" : [ 			{
				"patchline" : 				{
					"source" : [ "obj-21", 0 ],
					"destination" : [ "obj-24", 0 ],
					"hidden" : 1,
					"midpoints" : [  ]
				}

			}
, 			{
				"patchline" : 				{
					"source" : [ "obj-17", 0 ],
					"destination" : [ "obj-16", 0 ],
					"hidden" : 1,
					"midpoints" : [  ]
				}

			}
, 			{
				"patchline" : 				{
					"source" : [ "obj-18", 0 ],
					"destination" : [ "obj-17", 0 ],
					"hidden" : 1,
					"midpoints" : [  ]
				}

			}
, 			{
				"patchline" : 				{
					"source" : [ "obj-20", 0 ],
					"destination" : [ "obj-18", 0 ],
					"hidden" : 1,
					"midpoints" : [  ]
				}

			}
, 			{
				"patchline" : 				{
					"source" : [ "obj-21", 1 ],
					"destination" : [ "obj-20", 0 ],
					"hidden" : 1,
					"midpoints" : [  ]
				}

			}
, 			{
				"patchline" : 				{
					"source" : [ "obj-23", 0 ],
					"destination" : [ "obj-21", 0 ],
					"hidden" : 1,
					"midpoints" : [  ]
				}

			}
, 			{
				"patchline" : 				{
					"source" : [ "obj-11", 0 ],
					"destination" : [ "obj-24", 0 ],
					"hidden" : 1,
					"midpoints" : [  ]
				}

			}
, 			{
				"patchline" : 				{
					"source" : [ "obj-6", 0 ],
					"destination" : [ "obj-4", 0 ],
					"hidden" : 1,
					"midpoints" : [  ]
				}

			}
, 			{
				"patchline" : 				{
					"source" : [ "obj-7", 0 ],
					"destination" : [ "obj-6", 0 ],
					"hidden" : 1,
					"midpoints" : [  ]
				}

			}
, 			{
				"patchline" : 				{
					"source" : [ "obj-10", 0 ],
					"destination" : [ "obj-7", 0 ],
					"hidden" : 1,
					"midpoints" : [  ]
				}

			}
, 			{
				"patchline" : 				{
					"source" : [ "obj-11", 1 ],
					"destination" : [ "obj-10", 0 ],
					"hidden" : 1,
					"midpoints" : [  ]
				}

			}
, 			{
				"patchline" : 				{
					"source" : [ "obj-15", 0 ],
					"destination" : [ "obj-11", 0 ],
					"hidden" : 1,
					"midpoints" : [  ]
				}

			}
, 			{
				"patchline" : 				{
					"source" : [ "obj-98", 0 ],
					"destination" : [ "obj-27", 0 ],
					"hidden" : 0,
					"color" : [ 0.870588, 0.0, 0.0, 1.0 ],
					"midpoints" : [  ]
				}

			}
, 			{
				"patchline" : 				{
					"source" : [ "obj-98", 1 ],
					"destination" : [ "obj-63", 2 ],
					"hidden" : 0,
					"color" : [ 0.745098, 0.682353, 0.086275, 1.0 ],
					"midpoints" : [ 588.5, 190.0, 393.5, 190.0 ]
				}

			}
, 			{
				"patchline" : 				{
					"source" : [ "obj-1", 1 ],
					"destination" : [ "obj-98", 1 ],
					"hidden" : 0,
					"color" : [ 0.745098, 0.682353, 0.086275, 1.0 ],
					"midpoints" : [  ]
				}

			}
, 			{
				"patchline" : 				{
					"source" : [ "obj-1", 0 ],
					"destination" : [ "obj-98", 0 ],
					"hidden" : 0,
					"color" : [ 0.847059, 0.027451, 0.027451, 1.0 ],
					"midpoints" : [  ]
				}

			}
, 			{
				"patchline" : 				{
					"source" : [ "obj-63", 0 ],
					"destination" : [ "obj-31", 0 ],
					"hidden" : 0,
					"midpoints" : [  ]
				}

			}
, 			{
				"patchline" : 				{
					"source" : [ "obj-5", 0 ],
					"destination" : [ "obj-26", 0 ],
					"hidden" : 1,
					"midpoints" : [  ]
				}

			}
, 			{
				"patchline" : 				{
					"source" : [ "obj-64", 0 ],
					"destination" : [ "obj-26", 0 ],
					"hidden" : 0,
					"midpoints" : [ 237.5, 381.5, 237.5, 381.5 ]
				}

			}
, 			{
				"patchline" : 				{
					"source" : [ "obj-31", 0 ],
					"destination" : [ "obj-26", 0 ],
					"hidden" : 0,
					"midpoints" : [ 316.5, 381.5, 237.5, 381.5 ]
				}

			}
, 			{
				"patchline" : 				{
					"source" : [ "obj-62", 0 ],
					"destination" : [ "obj-57", 1 ],
					"hidden" : 0,
					"midpoints" : [  ]
				}

			}
, 			{
				"patchline" : 				{
					"source" : [ "obj-58", 0 ],
					"destination" : [ "obj-59", 0 ],
					"hidden" : 0,
					"midpoints" : [  ]
				}

			}
, 			{
				"patchline" : 				{
					"source" : [ "obj-60", 0 ],
					"destination" : [ "obj-56", 0 ],
					"hidden" : 0,
					"midpoints" : [  ]
				}

			}
, 			{
				"patchline" : 				{
					"source" : [ "obj-56", 0 ],
					"destination" : [ "obj-57", 0 ],
					"hidden" : 0,
					"color" : [ 0.227451, 0.431373, 0.329412, 1.0 ],
					"midpoints" : [  ]
				}

			}
, 			{
				"patchline" : 				{
					"source" : [ "obj-56", 1 ],
					"destination" : [ "obj-62", 0 ],
					"hidden" : 0,
					"midpoints" : [ 243.0, 211.0, 285.5, 211.0 ]
				}

			}
, 			{
				"patchline" : 				{
					"source" : [ "obj-27", 0 ],
					"destination" : [ "obj-63", 1 ],
					"hidden" : 0,
					"color" : [ 0.870588, 0.0, 0.0, 1.0 ],
					"midpoints" : [  ]
				}

			}
, 			{
				"patchline" : 				{
					"source" : [ "obj-98", 0 ],
					"destination" : [ "obj-67", 0 ],
					"hidden" : 0,
					"color" : [ 0.227451, 0.431373, 0.329412, 1.0 ],
					"midpoints" : [  ]
				}

			}
, 			{
				"patchline" : 				{
					"source" : [ "obj-67", 0 ],
					"destination" : [ "obj-62", 1 ],
					"hidden" : 0,
					"color" : [ 0.227451, 0.431373, 0.329412, 1.0 ],
					"midpoints" : [  ]
				}

			}
, 			{
				"patchline" : 				{
					"source" : [ "obj-56", 1 ],
					"destination" : [ "obj-64", 0 ],
					"hidden" : 0,
					"color" : [ 0.101961, 0.294118, 0.929412, 1.0 ],
					"midpoints" : [  ]
				}

			}
, 			{
				"patchline" : 				{
					"source" : [ "obj-57", 0 ],
					"destination" : [ "obj-63", 0 ],
					"hidden" : 0,
					"color" : [ 0.227451, 0.431373, 0.329412, 1.0 ],
					"midpoints" : [ 227.5, 296.5, 316.5, 296.5 ]
				}

			}
, 			{
				"patchline" : 				{
					"source" : [ "obj-24", 0 ],
					"destination" : [ "obj-14", 0 ],
					"hidden" : 1,
					"midpoints" : [  ]
				}

			}
, 			{
				"patchline" : 				{
					"source" : [ "obj-14", 0 ],
					"destination" : [ "obj-198", 0 ],
					"hidden" : 1,
					"midpoints" : [  ]
				}

			}
, 			{
				"patchline" : 				{
					"source" : [ "obj-198", 0 ],
					"destination" : [ "obj-14", 0 ],
					"hidden" : 1,
					"midpoints" : [ 287.5, 639.5, 271.5, 639.5, 271.5, 581.0, 287.5, 581.0 ]
				}

			}
 ]
	}

}
