{
	"patcher" : 	{
		"fileversion" : 1,
		"appversion" : 		{
			"major" : 5,
			"minor" : 1,
			"revision" : 9
		}
,
		"rect" : [ 256.0, 44.0, 750.0, 533.0 ],
		"bglocked" : 0,
		"defrect" : [ 256.0, 44.0, 750.0, 533.0 ],
		"openrect" : [ 0.0, 0.0, 0.0, 0.0 ],
		"openinpresentation" : 0,
		"default_fontsize" : 12.0,
		"default_fontface" : 0,
		"default_fontname" : "Arial",
		"gridonopen" : 0,
		"gridsize" : [ 15.0, 15.0 ],
		"gridsnaponopen" : 0,
		"toolbarvisible" : 1,
		"boxanimatetime" : 200,
		"imprint" : 0,
		"enablehscroll" : 1,
		"enablevscroll" : 1,
		"devicewidth" : 0.0,
		"boxes" : [ 			{
				"box" : 				{
					"maxclass" : "comment",
					"text" : "To change a file from the slot window, Shift+click on its name, and the selectin dialog window appears. To add a file, simply click on \"Add File\"; to delete a file, Cmd+click on it, as usual.",
					"linecount" : 4,
					"numinlets" : 1,
					"numoutlets" : 0,
					"patching_rect" : [ 425.0, 428.0, 303.0, 62.0 ],
					"id" : "obj-25",
					"fontname" : "Arial",
					"fontsize" : 12.0
				}

			}
, 			{
				"box" : 				{
					"maxclass" : "comment",
					"text" : "Yet, searching in the search path might be heavier and trickier (e.g. if you have multiple files with the same name). So we suggest, when possible, to give the complete file path, to avoid possible misunderstandings.",
					"linecount" : 5,
					"numinlets" : 1,
					"numoutlets" : 0,
					"patching_rect" : [ 465.0, 336.0, 264.0, 75.0 ],
					"id" : "obj-21",
					"fontname" : "Arial",
					"fontsize" : 12.0
				}

			}
, 			{
				"box" : 				{
					"maxclass" : "comment",
					"text" : "When a file cannot be identified (such as \"this_does_not_exists.aif\") a warning message will appear in the Max window.",
					"linecount" : 3,
					"numinlets" : 1,
					"numoutlets" : 0,
					"patching_rect" : [ 490.0, 288.0, 231.0, 48.0 ],
					"id" : "obj-45",
					"fontname" : "Arial",
					"fontsize" : 12.0
				}

			}
, 			{
				"box" : 				{
					"maxclass" : "message",
					"text" : "slots ( (((2 \"Slot Machines - sample1.aif\" ))) (((2 \"Slot Machines - sample1.aif\" \"Slot Machines - sample2.aif\" 2 ))) (((2 \"Slot Machines - sample1.aif\" \"Slot Machines - sample2.aif\" \"Slot Machines - sample3.aif\" this_does_not_exists.aif 3 ))) ), bang",
					"linecount" : 6,
					"numinlets" : 2,
					"numoutlets" : 1,
					"patching_rect" : [ 489.0, 189.0, 242.0, 87.0 ],
					"id" : "obj-22",
					"fontname" : "Arial",
					"outlettype" : [ "" ],
					"fontsize" : 12.0
				}

			}
, 			{
				"box" : 				{
					"maxclass" : "comment",
					"text" : "You are not obliged to give a full path for every file: bach will look in the search path to properly identify the file:",
					"linecount" : 3,
					"numinlets" : 1,
					"numoutlets" : 0,
					"patching_rect" : [ 490.0, 136.0, 226.0, 48.0 ],
					"id" : "obj-23",
					"fontname" : "Arial",
					"fontsize" : 12.0
				}

			}
, 			{
				"box" : 				{
					"maxclass" : "comment",
					"text" : "^^^^^^^^^^^^^^^",
					"numinlets" : 1,
					"numoutlets" : 0,
					"patching_rect" : [ 190.0, 278.631592, 89.0, 19.0 ],
					"id" : "obj-32",
					"fontname" : "Arial",
					"fontsize" : 10.603884
				}

			}
, 			{
				"box" : 				{
					"maxclass" : "comment",
					"text" : "here we're inserting all the three soundfiles in the slot for the last note, but specifying that the \"active\" file is the third",
					"linecount" : 4,
					"numinlets" : 1,
					"numoutlets" : 0,
					"patching_rect" : [ 188.0, 288.0, 172.0, 62.0 ],
					"id" : "obj-31",
					"fontname" : "Arial",
					"fontsize" : 12.0
				}

			}
, 			{
				"box" : 				{
					"maxclass" : "comment",
					"text" : "So: if the last element of the data is an integer, bach associates it to the index of the currently active file",
					"linecount" : 5,
					"numinlets" : 1,
					"numoutlets" : 0,
					"patching_rect" : [ 311.0, 156.0, 150.0, 75.0 ],
					"id" : "obj-29",
					"fontname" : "Arial",
					"fontsize" : 12.0
				}

			}
, 			{
				"box" : 				{
					"maxclass" : "comment",
					"text" : "Instead of just sending for the filelist slot a list containing\n(2 <filename>), we can send a list containing \n(2 <file1> <file2> ... <file_n> active_file_index)",
					"linecount" : 3,
					"numinlets" : 1,
					"numoutlets" : 0,
					"patching_rect" : [ 99.0, 104.0, 373.0, 48.0 ],
					"id" : "obj-26",
					"fontname" : "Arial",
					"fontsize" : 12.0
				}

			}
, 			{
				"box" : 				{
					"maxclass" : "newobj",
					"text" : "pack s s s",
					"numinlets" : 3,
					"numoutlets" : 1,
					"patching_rect" : [ 8.0, 236.0, 69.0, 20.0 ],
					"id" : "obj-59",
					"fontname" : "Arial",
					"outlettype" : [ "" ],
					"fontsize" : 12.0
				}

			}
, 			{
				"box" : 				{
					"maxclass" : "newobj",
					"text" : "t s s s",
					"numinlets" : 1,
					"numoutlets" : 3,
					"patching_rect" : [ 8.0, 142.0, 69.0, 20.0 ],
					"id" : "obj-58",
					"fontname" : "Arial",
					"outlettype" : [ "", "", "" ],
					"fontsize" : 12.0
				}

			}
, 			{
				"box" : 				{
					"maxclass" : "message",
					"text" : "slots ( (((2 $1 ))) (((2 $1 $2 2 ))) (((2 $1 $2 $3 3 ))) ), bang",
					"numinlets" : 2,
					"numoutlets" : 1,
					"patching_rect" : [ 8.0, 262.0, 315.0, 18.0 ],
					"id" : "obj-57",
					"fontname" : "Arial",
					"outlettype" : [ "" ],
					"fontsize" : 12.0
				}

			}
, 			{
				"box" : 				{
					"maxclass" : "newobj",
					"text" : "sprintf symout %sSlot Machines - sample3.aif",
					"numinlets" : 1,
					"numoutlets" : 1,
					"patching_rect" : [ 58.0, 214.0, 253.0, 20.0 ],
					"id" : "obj-53",
					"fontname" : "Arial",
					"outlettype" : [ "" ],
					"fontsize" : 12.0
				}

			}
, 			{
				"box" : 				{
					"maxclass" : "newobj",
					"text" : "sprintf symout %sSlot Machines - sample2.aif",
					"numinlets" : 1,
					"numoutlets" : 1,
					"patching_rect" : [ 33.0, 189.0, 253.0, 20.0 ],
					"id" : "obj-52",
					"fontname" : "Arial",
					"outlettype" : [ "" ],
					"fontsize" : 12.0
				}

			}
, 			{
				"box" : 				{
					"maxclass" : "newobj",
					"text" : "sprintf symout %sSlot Machines - sample1.aif",
					"numinlets" : 1,
					"numoutlets" : 1,
					"patching_rect" : [ 8.0, 165.0, 253.0, 20.0 ],
					"id" : "obj-51",
					"fontname" : "Arial",
					"outlettype" : [ "" ],
					"fontsize" : 12.0
				}

			}
, 			{
				"box" : 				{
					"maxclass" : "message",
					"text" : "path",
					"numinlets" : 2,
					"numoutlets" : 1,
					"patching_rect" : [ 7.0, 92.0, 34.0, 18.0 ],
					"id" : "obj-48",
					"fontname" : "Arial",
					"outlettype" : [ "" ],
					"fontsize" : 12.0
				}

			}
, 			{
				"box" : 				{
					"maxclass" : "newobj",
					"text" : "thispatcher",
					"numinlets" : 1,
					"numoutlets" : 2,
					"patching_rect" : [ 7.0, 115.0, 69.0, 20.0 ],
					"id" : "obj-47",
					"fontname" : "Arial",
					"outlettype" : [ "", "" ],
					"fontsize" : 12.0,
					"save" : [ "#N", "thispatcher", ";", "#Q", "end", ";" ]
				}

			}
, 			{
				"box" : 				{
					"maxclass" : "bach.roll",
					"automessage" : [  ],
					"voicespacing" : [ -5.142858, 18.714285 ],
					"numinlets" : 6,
					"popupmenuslots" : [  ],
					"numoutlets" : 8,
					"patching_rect" : [ 6.0, 372.0, 418.0, 115.833344 ],
					"bgslots" : [  ],
					"id" : "obj-27",
					"versionnumber" : 6500,
					"fontname" : "Arial",
					"outlettype" : [ "", "", "", "", "", "", "", "bang" ],
					"textcolor" : [ 0.0, 0.0, 0.0, 1.0 ],
					"fontsize" : 12.0,
					"whole_roll_data_0000000000" : [ "roll", "(", "slotinfo", "(", 1, "(", "name", "amplienv", ")", "(", "type", "function", ")", "(", "key", "a", ")", "(", "range", "_x_x_x_x_bach_float64_x_x_x_x_", 0, 0, "_x_x_x_x_bach_float64_x_x_x_x_", 0, 1072693248, ")", "(", "slope", "_x_x_x_x_bach_float64_x_x_x_x_", 0, 0, ")", "(", "representation", ")", "(", "ysnap", "(", ")", ")", "(", "domain", "_x_x_x_x_bach_float64_x_x_x_x_", 0, 0, "_x_x_x_x_bach_float64_x_x_x_x_", 0, 1072693248, ")", "(", "domainslope", "_x_x_x_x_bach_float64_x_x_x_x_", 0, 0, ")", "(", "width", "temporal", ")", ")", "(", 2, "(", "name", "filetoplay", ")", "(", "type", "filelist", ")", "(", "key", "s", ")", "(", "width", "_x_x_x_x_bach_float64_x_x_x_x_", 0, 1080213504, ")", ")", "(", 3, "(", "name", "loop", ")", "(", "type", "int", ")", "(", "key", "l", ")", "(", "range", "_x_x_x_x_bach_float64_x_x_x_x_", 0, 0, "_x_x_x_x_bach_float64_x_x_x_x_", 0, 1072693248, ")", "(", "slope", "_x_x_x_x_bach_float64_x_x_x_x_", 0, 0, ")", "(", "representation", ")", "(", "width", "_x_x_x_x_bach_float64_x_x_x_x_", 0, 1079574528, ")", ")", "(", 4, "(", "name", "slot floatlist", ")", "(", "type", "floatlist", ")", "(", "key", 0, ")", "(", "range", "_x_x_x_x_bach_float64_x_x_x_x_", 0, 0, "_x_x_x_x_bach_float64_x_x_x_x_", 0, 1072693248, ")", "(", "slope", "_x_x_x_x_bach_float64_x_x_x_x_", 0, 0, ")", "(", "representation", ")", "(", "width", "_x_x_x_x_bach_float64_x_x_x_x_", 0, 1079574528, ")", ")", "(", 5, "(", "name", "slot long", ")", "(", "type", "int", ")", "(", "key", 0, ")", "(", "range", "_x_x_x_x_bach_float64_x_x_x_x_", 0, 0, "_x_x_x_x_bach_float64_x_x_x_x_", 0, 1080016896, ")", "(", "slope", "_x_x_x_x_bach_float64_x_x_x_x_", 0, 0, ")", "(", "representation", ")", "(", "width", "_x_x_x_x_bach_float64_x_x_x_x_", 0, 1079574528, ")", ")", "(", 6, "(", "name", "slot float", ")", "(", "type", "float", ")", "(", "key", 0, ")", "(", "range", "_x_x_x_x_bach_float64_x_x_x_x_", 0, 0, "_x_x_x_x_bach_float64_x_x_x_x_", 0, 1072693248, ")", "(", "slope", "_x_x_x_x_bach_float64_x_x_x_x_", 0, 0, ")", "(", "representation", ")", "(", "width", "_x_x_x_x_bach_float64_x_x_x_x_", 0, 1079574528, ")", ")", "(", 7, "(", "name", "slot text", ")", "(", "type", "text", ")", "(", "key", 0, ")", "(", "width", "_x_x_x_x_bach_float64_x_x_x_x_", 0, 1079574528, ")", ")", "(", 8, "(", "name", "filelist", ")", "(", "type", "filelist", ")", "(", "key", 0, ")", "(", "width", "_x_x_x_x_bach_float64_x_x_x_x_", 0, 1080213504, ")", ")", "(", 9, "(", "name", "spat", ")", "(", "type", "spat", ")", "(", "key", 0, ")", "(", "range", "_x_x_x_x_bach_float64_x_x_x_x_", 0, 0, "_x_x_x_x_bach_float64_x_x_x_x_", 0, 1076101120, ")", "(", "slope", "_x_x_x_x_bach_float64_x_x_x_x_", 0, 0, ")", "(", "representation", ")", "(", "width", "temporal", ")", ")", "(", 10, "(", "name", "slot 10", ")", "(", "type", "none", ")", "(", "key", 0, ")", "(", "width", "_x_x_x_x_bach_float64_x_x_x_x_", 0, 1079574528, ")", ")", "(", 11, "(", "name", "slot 11", ")", "(", "type", "none", ")", "(", "key", 0, ")", "(", "width", "_x_x_x_x_bach_float64_x_x_x_x_", 0, 1079574528, ")", ")", "(", 12, "(", "name", "slot 12", ")", "(", "type", "none", ")", "(", "key", 0, ")", "(", "width", "_x_x_x_x_bach_float64_x_x_x_x_", 0, 1079574528, ")", ")", "(", 13, "(", "name", "slot 13", ")", "(", "type", "none", ")", "(", "key", 0, ")", "(", "width", "_x_x_x_x_bach_float64_x_x_x_x_", 0, 1079574528, ")", ")", "(", 14, "(", "name", "slot 14", ")", "(", "type", "none", ")", "(", "key", 0, ")", "(", "width", "_x_x_x_x_bach_float64_x_x_x_x_", 0, 1079574528, ")", ")", "(", 15, "(", "name", "slot 15", ")", "(", "type", "none", ")", "(", "key", 0, ")", "(", "width", "_x_x_x_x_bach_float64_x_x_x_x_", 0, 1079574528, ")", ")", "(", 16, "(", "name", "slot 16", ")", "(", "type", "none", ")", "(", "key", 0, ")", "(", "width", "_x_x_x_x_bach_float64_x_x_x_x_", 0, 1079574528, ")", ")", "(", 17, "(", "name", "slot 17", ")", "(", "type", "none", ")", "(", "key", 0, ")", "(", "width", "_x_x_x_x_bach_float64_x_x_x_x_", 0, 1079574528, ")", ")", "(", 18, "(", "name", "slot 18", ")", "(", "type", "none", ")", "(", "key", 0, ")", "(", "width", "_x_x_x_x_bach_float64_x_x_x_x_", 0, 1079574528, ")", ")", "(", 19, "(", "name", "slot 19", ")", "(", "type", "none", ")", "(", "key", 0, ")", "(", "width", "_x_x_x_x_bach_float64_x_x_x_x_", 0, 1079574528, ")", ")", "(", 20, "(", "name", "slot 20", ")", "(", "type", "none", ")", "(", "key", 0, ")", "(", "width", "_x_x_x_x_bach_float64_x_x_x_x_", 0, 1079574528, ")", ")", "(", 21, "(", "name", "slot 21", ")", "(", "type", "none", ")", "(", "key", 0, ")", "(", "width", "_x_x_x_x_bach_float64_x_x_x_x_", 0, 1079574528, ")", ")", "(", 22, "(", "name", "slot 22", ")", "(", "type", "none", ")", "(", "key", 0, ")", "(", "width", "_x_x_x_x_bach_float64_x_x_x_x_", 0, 1079574528, ")", ")", "(", 23, "(", "name", "slot 23", ")", "(", "type", "none", ")", "(", "key", 0, ")", "(", "width", "_x_x_x_x_bach_float64_x_x_x_x_", 0, 1079574528, ")", ")", "(", 24, "(", "name", "slot 24", ")", "(", "type", "none", ")", "(", "key", 0, ")", "(", "width", "_x_x_x_x_bach_float64_x_x_x_x_", 0, 1079574528, ")", ")", "(", 25, "(", "name", "slot 25", ")", "(", "type", "none", ")", "(", "key", 0, ")", "(", "width", "_x_x_x_x_bach_float64_x_x_x_x_", 0, 1079574528, ")", ")", "(", 26, "(", "name", "slot 26", ")", "(", "type", "none", ")", "(", "key", 0, ")", "(", "width", "_x_x_x_x_bach_float64_x_x_x_x_", 0, 1079574528, ")", ")", "(", 27, "(", "name", "slot 27", ")", "(", "type", "none", ")", "(", "key", 0, ")", "(", "width", "_x_x_x_x_bach_float64_x_x_x_x_", 0, 1079574528, ")", ")", "(", 28, "(", "name", "slot 28", ")", "(", "type", "none", ")", "(", "key", 0, ")", "(", "width", "_x_x_x_x_bach_float64_x_x_x_x_", 0, 1079574528, ")", ")", "(", 29, "(", "name", "slot 29", ")", "(", "type", "none", ")", "(", "key", 0, ")", "(", "width", "_x_x_x_x_bach_float64_x_x_x_x_", 0, 1079574528, ")", ")", "(", 30, "(", "name", "slot 30", ")", "(", "type", "none", ")", "(", "key", 0, ")", "(", "width", "_x_x_x_x_bach_float64_x_x_x_x_", 0, 1079574528, ")", ")", ")", "(", "commands", "(", 1, "notecmd", "chordcmd", 0, ")", "(", 2, "notecmd", "chordcmd", 0, ")", "(", 3, "notecmd", "chordcmd", 0, ")", "(", 4, "notecmd", "chordcmd", 0, ")", "(", 5, "notecmd", "chordcmd", 0, ")", ")", "(", "markers", ")", "(", "midichannels", 1, ")", "(", "(", "_x_x_x_x_bach_float64_x_x_x_x_", 0, 1079356074, "(", "_x_x_x_x_bach_float64_x_x_x_x_", 0, 1085993984, "_x_x_x_x_bach_float64_x_x_x_x_", 0, 1081184256, 100, "(", "slots", "(", 1, "(", "_x_x_x_x_bach_float64_x_x_x_x_", 0, 0, "_x_x_x_x_bach_float64_x_x_x_x_", 0, 0, "_x_x_x_x_bach_float64_x_x_x_x_", 0, 0, ")", "(", "_x_x_x_x_bach_float64_x_x_x_x_", 0, 1071644672, "_x_x_x_x_bach_float64_x_x_x_x_", 0, 1072693248, "_x_x_x_x_bach_float64_x_x_x_x_", 0, 1071644672, ")", "(", "_x_x_x_x_bach_float64_x_x_x_x_", 0, 1072693248, "_x_x_x_x_bach_float64_x_x_x_x_", 0, 0, "_x_x_x_x_bach_float64_x_x_x_x_", 0, 0, ")", ")", "(", 2, "Macintosh HD:/Applications/Max5/Cycling '74/bach/tutorials/Slot Machines - sample1.aif", 1, ")", "(", 3, 1, ")", ")", 0, ")", 0, ")", "(", "_x_x_x_x_bach_float64_x_x_x_x_", 0, 1082160469, "(", "_x_x_x_x_bach_float64_x_x_x_x_", 0, 1086121984, "_x_x_x_x_bach_float64_x_x_x_x_", 0, 1083237376, 100, "(", "slots", "(", 1, "(", "_x_x_x_x_bach_float64_x_x_x_x_", 0, 0, "_x_x_x_x_bach_float64_x_x_x_x_", 0, 0, "_x_x_x_x_bach_float64_x_x_x_x_", 0, 0, ")", "(", "_x_x_x_x_bach_float64_x_x_x_x_", 0, 1071644672, "_x_x_x_x_bach_float64_x_x_x_x_", 0, 1072693248, "_x_x_x_x_bach_float64_x_x_x_x_", 0, 1071644672, ")", "(", "_x_x_x_x_bach_float64_x_x_x_x_", 0, 1072693248, "_x_x_x_x_bach_float64_x_x_x_x_", 0, 0, "_x_x_x_x_bach_float64_x_x_x_x_", 0, 0, ")", ")", "(", 2, "Macintosh HD:/Applications/Max5/Cycling '74/bach/tutorials/Slot Machines - sample1.aif", "Macintosh HD:/Applications/Max5/Cycling '74/bach/tutorials/Slot Machines - sample2.aif", 2, ")", "(", 3, 1, ")", ")", 0, ")", 0, ")", "(", "_x_x_x_x_bach_float64_x_x_x_x_", 0, 1083157162, "(", "_x_x_x_x_bach_float64_x_x_x_x_", 0, 1085763584, "_x_x_x_x_bach_float64_x_x_x_x_", 0, 1083646976, 100, "(", "slots", "(", 1, "(", "_x_x_x_x_bach_float64_x_x_x_x_", 0, 0, "_x_x_x_x_bach_float64_x_x_x_x_", 0, 0, "_x_x_x_x_bach_float64_x_x_x_x_", 0, 0, ")", "(", "_x_x_x_x_bach_float64_x_x_x_x_", 0, 1071644672, "_x_x_x_x_bach_float64_x_x_x_x_", 0, 1072693248, "_x_x_x_x_bach_float64_x_x_x_x_", 0, 1071644672, ")", "(", "_x_x_x_x_bach_float64_x_x_x_x_", 0, 1072693248, "_x_x_x_x_bach_float64_x_x_x_x_", 0, 0, "_x_x_x_x_bach_float64_x_x_x_x_", 0, 0, ")", ")", "(", 2, "Macintosh HD:/Applications/Max5/Cycling '74/bach/tutorials/Slot Machines - sample1.aif", "Macintosh HD:/Applications/Max5/Cycling '74/bach/tutorials/Slot Machines - sample2.aif", "Macintosh HD:/Applications/Max5/Cycling '74/bach/tutorials/Slot Machines - sample3.aif", 3, ")", "(", 3, 0, ")", ")", 0, ")", 0, ")", 0, ")" ],
					"whole_roll_data_count" : [ 1 ]
				}

			}
, 			{
				"box" : 				{
					"maxclass" : "message",
					"varname" : "wclose",
					"text" : "clean, wclose",
					"numinlets" : 2,
					"numoutlets" : 1,
					"patching_rect" : [ 210.0, 546.0, 81.0, 18.0 ],
					"id" : "obj-19",
					"fontname" : "Arial",
					"outlettype" : [ "" ],
					"hidden" : 1,
					"fontsize" : 12.0
				}

			}
, 			{
				"box" : 				{
					"maxclass" : "newobj",
					"text" : "linksections 1 1 f \"Slot Machines\"",
					"numinlets" : 1,
					"numoutlets" : 1,
					"patching_rect" : [ 210.0, 598.5, 186.0, 20.0 ],
					"id" : "obj-198",
					"fontname" : "Arial",
					"outlettype" : [ "" ],
					"hidden" : 1,
					"fontsize" : 12.0
				}

			}
, 			{
				"box" : 				{
					"maxclass" : "newobj",
					"text" : "thispatcher",
					"numinlets" : 1,
					"numoutlets" : 2,
					"patching_rect" : [ 210.0, 571.0, 69.0, 20.0 ],
					"id" : "obj-90",
					"fontname" : "Arial",
					"outlettype" : [ "", "" ],
					"hidden" : 1,
					"fontsize" : 12.0,
					"save" : [ "#N", "thispatcher", ";", "#Q", "end", ";" ]
				}

			}
, 			{
				"box" : 				{
					"maxclass" : "comment",
					"text" : "So abstract, so abstract!!! When will you come down on earth?!",
					"linecount" : 2,
					"frgb" : [ 0.0, 0.168627, 0.67451, 1.0 ],
					"numinlets" : 1,
					"numoutlets" : 0,
					"patching_rect" : [ 175.0, 494.0, 194.0, 34.0 ],
					"id" : "obj-61",
					"fontname" : "Arial",
					"textcolor" : [ 0.0, 0.168627, 0.67451, 1.0 ],
					"fontface" : 2,
					"fontsize" : 12.0
				}

			}
, 			{
				"box" : 				{
					"maxclass" : "comment",
					"text" : "_________________________________________________________________",
					"numinlets" : 1,
					"numoutlets" : 0,
					"patching_rect" : [ 5.0, 19.0, 444.0, 20.0 ],
					"id" : "obj-87",
					"fontname" : "Arial",
					"fontsize" : 12.0
				}

			}
, 			{
				"box" : 				{
					"maxclass" : "comment",
					"text" : "- filelist slots",
					"numinlets" : 1,
					"numoutlets" : 0,
					"patching_rect" : [ 174.0, 7.74086, 102.0, 26.0 ],
					"id" : "obj-2",
					"fontname" : "Arial Italic",
					"fontsize" : 16.787033
				}

			}
, 			{
				"box" : 				{
					"maxclass" : "comment",
					"text" : "Slot Machine (f)",
					"numinlets" : 1,
					"numoutlets" : 0,
					"patching_rect" : [ 5.0, 2.924051, 173.0, 32.0 ],
					"id" : "obj-3",
					"fontname" : "Arial",
					"fontsize" : 22.256727
				}

			}
, 			{
				"box" : 				{
					"maxclass" : "comment",
					"text" : "As the name suggests, a filelist slot may also contain more than one soundfile. Indeed, if you open the slot window, you can repeatedly click on the \"Add file...\" label to have more than one file in the list. Clicking on a given file will make it \"active\", so we can choose a currently associated file within the list of files. All this, of course, can be handled via messages.",
					"linecount" : 3,
					"numinlets" : 1,
					"numoutlets" : 0,
					"patching_rect" : [ 5.0, 40.0, 694.0, 48.0 ],
					"id" : "obj-13",
					"fontname" : "Arial",
					"fontsize" : 12.0
				}

			}
, 			{
				"box" : 				{
					"maxclass" : "newobj",
					"varname" : "pcontrolA",
					"text" : "pcontrol",
					"numinlets" : 1,
					"numoutlets" : 1,
					"patching_rect" : [ 5.0, 633.0, 140.0, 20.0 ],
					"id" : "obj-1",
					"fontname" : "Arial",
					"outlettype" : [ "" ],
					"hidden" : 1,
					"fontsize" : 12.0
				}

			}
, 			{
				"box" : 				{
					"maxclass" : "newobj",
					"varname" : "prependA",
					"text" : "prepend load",
					"numinlets" : 1,
					"numoutlets" : 1,
					"patching_rect" : [ 5.0, 608.0, 140.0, 20.0 ],
					"id" : "obj-4",
					"fontname" : "Arial",
					"outlettype" : [ "" ],
					"hidden" : 1,
					"fontsize" : 12.0
				}

			}
, 			{
				"box" : 				{
					"maxclass" : "newobj",
					"varname" : "tosymbolA",
					"text" : "tosymbol",
					"numinlets" : 1,
					"numoutlets" : 1,
					"patching_rect" : [ 5.0, 583.0, 140.0, 20.0 ],
					"id" : "obj-5",
					"fontname" : "Arial",
					"outlettype" : [ "" ],
					"hidden" : 1,
					"fontsize" : 12.0
				}

			}
, 			{
				"box" : 				{
					"maxclass" : "message",
					"varname" : "messageA",
					"text" : "Slot Machines (e)",
					"numinlets" : 2,
					"numoutlets" : 1,
					"patching_rect" : [ 5.0, 558.0, 140.0, 18.0 ],
					"id" : "obj-7",
					"fontname" : "Arial",
					"outlettype" : [ "" ],
					"hidden" : 1,
					"fontsize" : 12.0
				}

			}
, 			{
				"box" : 				{
					"maxclass" : "newobj",
					"varname" : "triggerA",
					"text" : "t b b",
					"numinlets" : 1,
					"numoutlets" : 2,
					"patching_rect" : [ 5.0, 533.0, 40.0, 20.0 ],
					"id" : "obj-8",
					"fontname" : "Arial",
					"outlettype" : [ "bang", "bang" ],
					"hidden" : 1,
					"fontsize" : 12.0
				}

			}
, 			{
				"box" : 				{
					"maxclass" : "textbutton",
					"varname" : "textbuttonA",
					"numinlets" : 1,
					"bordercolor" : [ 0.63, 0.7, 0.75, 1.0 ],
					"text" : "Back to section (e)",
					"bgovercolor" : [ 0.64, 0.65, 0.72, 1.0 ],
					"numoutlets" : 3,
					"patching_rect" : [ 5.0, 508.0, 151.0, 20.0 ],
					"id" : "obj-10",
					"fontname" : "Arial",
					"outlettype" : [ "", "", "int" ],
					"bgoncolor" : [ 0.51, 0.59, 0.64, 1.0 ],
					"fontface" : 2,
					"fontsize" : 12.0
				}

			}
, 			{
				"box" : 				{
					"maxclass" : "newobj",
					"varname" : "pcontrolB",
					"text" : "pcontrol",
					"numinlets" : 1,
					"numoutlets" : 1,
					"patching_rect" : [ 595.0, 633.0, 140.0, 20.0 ],
					"id" : "obj-11",
					"fontname" : "Arial",
					"outlettype" : [ "" ],
					"hidden" : 1,
					"fontsize" : 12.0
				}

			}
, 			{
				"box" : 				{
					"maxclass" : "newobj",
					"varname" : "prependB",
					"text" : "prepend load",
					"numinlets" : 1,
					"numoutlets" : 1,
					"patching_rect" : [ 595.0, 608.0, 140.0, 20.0 ],
					"id" : "obj-12",
					"fontname" : "Arial",
					"outlettype" : [ "" ],
					"hidden" : 1,
					"fontsize" : 12.0
				}

			}
, 			{
				"box" : 				{
					"maxclass" : "newobj",
					"varname" : "tosymbolB",
					"text" : "tosymbol",
					"numinlets" : 1,
					"numoutlets" : 1,
					"patching_rect" : [ 595.0, 583.0, 140.0, 20.0 ],
					"id" : "obj-14",
					"fontname" : "Arial",
					"outlettype" : [ "" ],
					"hidden" : 1,
					"fontsize" : 12.0
				}

			}
, 			{
				"box" : 				{
					"maxclass" : "message",
					"varname" : "messageB",
					"text" : "Slot Machines (g)",
					"numinlets" : 2,
					"numoutlets" : 1,
					"patching_rect" : [ 595.0, 558.0, 140.0, 18.0 ],
					"id" : "obj-16",
					"fontname" : "Arial",
					"outlettype" : [ "" ],
					"hidden" : 1,
					"fontsize" : 12.0
				}

			}
, 			{
				"box" : 				{
					"maxclass" : "newobj",
					"varname" : "triggerB",
					"text" : "t b b",
					"numinlets" : 1,
					"numoutlets" : 2,
					"patching_rect" : [ 595.0, 533.0, 40.0, 20.0 ],
					"id" : "obj-17",
					"fontname" : "Arial",
					"outlettype" : [ "bang", "bang" ],
					"hidden" : 1,
					"fontsize" : 12.0
				}

			}
, 			{
				"box" : 				{
					"maxclass" : "textbutton",
					"varname" : "textbuttonB",
					"numinlets" : 1,
					"bordercolor" : [ 0.63, 0.7, 0.75, 1.0 ],
					"text" : "Continue to section (g)",
					"bgovercolor" : [ 0.64, 0.65, 0.72, 1.0 ],
					"numoutlets" : 3,
					"patching_rect" : [ 595.0, 508.0, 151.0, 20.0 ],
					"id" : "obj-20",
					"fontname" : "Arial",
					"outlettype" : [ "", "", "int" ],
					"bgoncolor" : [ 0.51, 0.59, 0.64, 1.0 ],
					"fontface" : 2,
					"fontsize" : 12.0
				}

			}
 ],
		"lines" : [ 			{
				"patchline" : 				{
					"source" : [ "obj-17", 0 ],
					"destination" : [ "obj-19", 0 ],
					"hidden" : 1,
					"midpoints" : [  ]
				}

			}
, 			{
				"patchline" : 				{
					"source" : [ "obj-12", 0 ],
					"destination" : [ "obj-11", 0 ],
					"hidden" : 1,
					"midpoints" : [  ]
				}

			}
, 			{
				"patchline" : 				{
					"source" : [ "obj-14", 0 ],
					"destination" : [ "obj-12", 0 ],
					"hidden" : 1,
					"midpoints" : [  ]
				}

			}
, 			{
				"patchline" : 				{
					"source" : [ "obj-16", 0 ],
					"destination" : [ "obj-14", 0 ],
					"hidden" : 1,
					"midpoints" : [  ]
				}

			}
, 			{
				"patchline" : 				{
					"source" : [ "obj-17", 1 ],
					"destination" : [ "obj-16", 0 ],
					"hidden" : 1,
					"midpoints" : [  ]
				}

			}
, 			{
				"patchline" : 				{
					"source" : [ "obj-20", 0 ],
					"destination" : [ "obj-17", 0 ],
					"hidden" : 1,
					"midpoints" : [  ]
				}

			}
, 			{
				"patchline" : 				{
					"source" : [ "obj-8", 0 ],
					"destination" : [ "obj-19", 0 ],
					"hidden" : 1,
					"midpoints" : [  ]
				}

			}
, 			{
				"patchline" : 				{
					"source" : [ "obj-4", 0 ],
					"destination" : [ "obj-1", 0 ],
					"hidden" : 1,
					"midpoints" : [  ]
				}

			}
, 			{
				"patchline" : 				{
					"source" : [ "obj-5", 0 ],
					"destination" : [ "obj-4", 0 ],
					"hidden" : 1,
					"midpoints" : [  ]
				}

			}
, 			{
				"patchline" : 				{
					"source" : [ "obj-7", 0 ],
					"destination" : [ "obj-5", 0 ],
					"hidden" : 1,
					"midpoints" : [  ]
				}

			}
, 			{
				"patchline" : 				{
					"source" : [ "obj-8", 1 ],
					"destination" : [ "obj-7", 0 ],
					"hidden" : 1,
					"midpoints" : [  ]
				}

			}
, 			{
				"patchline" : 				{
					"source" : [ "obj-10", 0 ],
					"destination" : [ "obj-8", 0 ],
					"hidden" : 1,
					"midpoints" : [  ]
				}

			}
, 			{
				"patchline" : 				{
					"source" : [ "obj-90", 0 ],
					"destination" : [ "obj-198", 0 ],
					"hidden" : 1,
					"midpoints" : [  ]
				}

			}
, 			{
				"patchline" : 				{
					"source" : [ "obj-198", 0 ],
					"destination" : [ "obj-90", 0 ],
					"hidden" : 1,
					"midpoints" : [ 219.5, 624.5, 201.5, 624.5, 201.5, 566.0, 219.5, 566.0 ]
				}

			}
, 			{
				"patchline" : 				{
					"source" : [ "obj-53", 0 ],
					"destination" : [ "obj-59", 2 ],
					"hidden" : 0,
					"midpoints" : [  ]
				}

			}
, 			{
				"patchline" : 				{
					"source" : [ "obj-58", 2 ],
					"destination" : [ "obj-53", 0 ],
					"hidden" : 0,
					"midpoints" : [  ]
				}

			}
, 			{
				"patchline" : 				{
					"source" : [ "obj-52", 0 ],
					"destination" : [ "obj-59", 1 ],
					"hidden" : 0,
					"midpoints" : [  ]
				}

			}
, 			{
				"patchline" : 				{
					"source" : [ "obj-58", 1 ],
					"destination" : [ "obj-52", 0 ],
					"hidden" : 0,
					"midpoints" : [  ]
				}

			}
, 			{
				"patchline" : 				{
					"source" : [ "obj-51", 0 ],
					"destination" : [ "obj-59", 0 ],
					"hidden" : 0,
					"midpoints" : [  ]
				}

			}
, 			{
				"patchline" : 				{
					"source" : [ "obj-58", 0 ],
					"destination" : [ "obj-51", 0 ],
					"hidden" : 0,
					"midpoints" : [  ]
				}

			}
, 			{
				"patchline" : 				{
					"source" : [ "obj-57", 0 ],
					"destination" : [ "obj-27", 5 ],
					"hidden" : 0,
					"midpoints" : [ 17.5, 365.0, 414.5, 365.0 ]
				}

			}
, 			{
				"patchline" : 				{
					"source" : [ "obj-47", 1 ],
					"destination" : [ "obj-58", 0 ],
					"hidden" : 0,
					"midpoints" : [  ]
				}

			}
, 			{
				"patchline" : 				{
					"source" : [ "obj-48", 0 ],
					"destination" : [ "obj-47", 0 ],
					"hidden" : 0,
					"midpoints" : [  ]
				}

			}
, 			{
				"patchline" : 				{
					"source" : [ "obj-59", 0 ],
					"destination" : [ "obj-57", 0 ],
					"hidden" : 0,
					"midpoints" : [  ]
				}

			}
, 			{
				"patchline" : 				{
					"source" : [ "obj-19", 0 ],
					"destination" : [ "obj-90", 0 ],
					"hidden" : 1,
					"midpoints" : [  ]
				}

			}
, 			{
				"patchline" : 				{
					"source" : [ "obj-22", 0 ],
					"destination" : [ "obj-27", 5 ],
					"hidden" : 0,
					"midpoints" : [  ]
				}

			}
 ]
	}

}
