{
	"patcher" : 	{
		"fileversion" : 1,
		"appversion" : 		{
			"major" : 5,
			"minor" : 1,
			"revision" : 9
		}
,
		"rect" : [ 512.0, 47.0, 644.0, 543.0 ],
		"bglocked" : 0,
		"defrect" : [ 512.0, 47.0, 644.0, 543.0 ],
		"openrect" : [ 0.0, 0.0, 0.0, 0.0 ],
		"openinpresentation" : 0,
		"default_fontsize" : 12.0,
		"default_fontface" : 0,
		"default_fontname" : "Arial",
		"gridonopen" : 0,
		"gridsize" : [ 15.0, 15.0 ],
		"gridsnaponopen" : 0,
		"toolbarvisible" : 1,
		"boxanimatetime" : 200,
		"imprint" : 0,
		"enablehscroll" : 1,
		"enablevscroll" : 1,
		"devicewidth" : 0.0,
		"boxes" : [ 			{
				"box" : 				{
					"maxclass" : "newobj",
					"text" : "if $f1 <= 0.0001 then 0 else $f1",
					"linecount" : 2,
					"numinlets" : 1,
					"numoutlets" : 1,
					"patching_rect" : [ 293.0, 380.0, 95.0, 34.0 ],
					"id" : "obj-14",
					"fontname" : "Arial",
					"outlettype" : [ "" ],
					"fontsize" : 12.0
				}

			}
, 			{
				"box" : 				{
					"maxclass" : "newobj",
					"text" : "dbtoa",
					"numinlets" : 1,
					"numoutlets" : 1,
					"patching_rect" : [ 293.0, 356.0, 41.0, 20.0 ],
					"id" : "obj-19",
					"fontname" : "Arial",
					"outlettype" : [ "" ],
					"fontsize" : 12.0
				}

			}
, 			{
				"box" : 				{
					"maxclass" : "newobj",
					"text" : "curve~",
					"numinlets" : 3,
					"numoutlets" : 2,
					"patching_rect" : [ 179.0, 358.0, 47.0, 20.0 ],
					"id" : "obj-17",
					"fontname" : "Arial",
					"outlettype" : [ "signal", "bang" ],
					"fontsize" : 12.0
				}

			}
, 			{
				"box" : 				{
					"maxclass" : "newobj",
					"text" : "*~ 1",
					"numinlets" : 2,
					"numoutlets" : 1,
					"patching_rect" : [ 13.0, 390.0, 184.5, 20.0 ],
					"id" : "obj-13",
					"fontname" : "Arial",
					"outlettype" : [ "signal" ],
					"fontsize" : 12.0
				}

			}
, 			{
				"box" : 				{
					"maxclass" : "newobj",
					"text" : "bach.slot2curve @out t",
					"numinlets" : 4,
					"numoutlets" : 2,
					"patching_rect" : [ 179.0, 332.0, 133.0, 20.0 ],
					"id" : "obj-6",
					"fontname" : "Arial",
					"outlettype" : [ "", "" ],
					"fontsize" : 12.0
				}

			}
, 			{
				"box" : 				{
					"maxclass" : "newobj",
					"text" : "expr pow(2.\\,($f1-6000)/1200)",
					"numinlets" : 1,
					"numoutlets" : 1,
					"patching_rect" : [ 144.0, 289.0, 164.0, 20.0 ],
					"id" : "obj-35",
					"fontname" : "Arial",
					"outlettype" : [ "" ],
					"fontsize" : 11.595187
				}

			}
, 			{
				"box" : 				{
					"maxclass" : "newobj",
					"text" : "pfft~ gizmo_loadme 2048 4",
					"numinlets" : 2,
					"numoutlets" : 1,
					"patching_rect" : [ 13.0, 315.0, 150.0, 20.0 ],
					"id" : "obj-34",
					"fontname" : "Arial",
					"outlettype" : [ "signal" ],
					"fontsize" : 11.595187
				}

			}
, 			{
				"box" : 				{
					"maxclass" : "newobj",
					"text" : "*~ 1.",
					"numinlets" : 2,
					"numoutlets" : 1,
					"patching_rect" : [ 13.0, 289.0, 78.0, 20.0 ],
					"id" : "obj-33",
					"fontname" : "Arial",
					"outlettype" : [ "signal" ],
					"fontsize" : 12.0
				}

			}
, 			{
				"box" : 				{
					"maxclass" : "newobj",
					"text" : "scale 0 127 0. 1.5 1.06",
					"numinlets" : 6,
					"numoutlets" : 1,
					"patching_rect" : [ 72.0, 262.0, 132.0, 20.0 ],
					"id" : "obj-5",
					"fontname" : "Arial",
					"outlettype" : [ "" ],
					"fontsize" : 12.0
				}

			}
, 			{
				"box" : 				{
					"maxclass" : "newobj",
					"text" : "t b f f",
					"numinlets" : 1,
					"numoutlets" : 3,
					"patching_rect" : [ 131.0, 66.0, 46.0, 20.0 ],
					"id" : "obj-27",
					"fontname" : "Arial",
					"outlettype" : [ "bang", "float", "float" ],
					"fontsize" : 12.0
				}

			}
, 			{
				"box" : 				{
					"maxclass" : "newobj",
					"text" : "delay",
					"numinlets" : 2,
					"numoutlets" : 1,
					"patching_rect" : [ 131.0, 93.0, 39.0, 20.0 ],
					"id" : "obj-26",
					"fontname" : "Arial",
					"outlettype" : [ "bang" ],
					"fontsize" : 12.0
				}

			}
, 			{
				"box" : 				{
					"maxclass" : "newobj",
					"text" : "t 1 l b",
					"numinlets" : 1,
					"numoutlets" : 3,
					"patching_rect" : [ 248.0, 177.0, 46.0, 20.0 ],
					"id" : "obj-25",
					"fontname" : "Arial",
					"outlettype" : [ "int", "", "bang" ],
					"fontsize" : 12.0
				}

			}
, 			{
				"box" : 				{
					"maxclass" : "newobj",
					"text" : "prepend open",
					"numinlets" : 1,
					"numoutlets" : 1,
					"patching_rect" : [ 248.0, 152.0, 85.0, 20.0 ],
					"id" : "obj-24",
					"fontname" : "Arial",
					"outlettype" : [ "" ],
					"fontsize" : 12.0
				}

			}
, 			{
				"box" : 				{
					"maxclass" : "newobj",
					"text" : "bach.pick -1",
					"numinlets" : 1,
					"numoutlets" : 1,
					"patching_rect" : [ 262.0, 91.0, 75.0, 20.0 ],
					"id" : "obj-12",
					"fontname" : "Arial",
					"outlettype" : [ "" ],
					"fontsize" : 12.0
				}

			}
, 			{
				"box" : 				{
					"maxclass" : "newobj",
					"text" : "bach.nth @out t",
					"numinlets" : 2,
					"numoutlets" : 1,
					"patching_rect" : [ 248.0, 128.0, 95.0, 20.0 ],
					"id" : "obj-10",
					"fontname" : "Arial",
					"outlettype" : [ "" ],
					"fontsize" : 12.0
				}

			}
, 			{
				"box" : 				{
					"maxclass" : "newobj",
					"text" : "t l l",
					"numinlets" : 1,
					"numoutlets" : 2,
					"patching_rect" : [ 248.0, 67.0, 32.5, 20.0 ],
					"id" : "obj-9",
					"fontname" : "Arial",
					"outlettype" : [ "", "" ],
					"fontsize" : 12.0
				}

			}
, 			{
				"box" : 				{
					"maxclass" : "newobj",
					"text" : "sfplay~",
					"numinlets" : 2,
					"numoutlets" : 2,
					"patching_rect" : [ 13.0, 262.0, 49.0, 20.0 ],
					"id" : "obj-4",
					"fontname" : "Arial",
					"outlettype" : [ "signal", "bang" ],
					"fontsize" : 12.0,
					"save" : [ "#N", "sfplay~", "", 1, 120960, 0, "", ";" ]
				}

			}
, 			{
				"box" : 				{
					"maxclass" : "comment",
					"text" : "here we have: midicents, velocity, duration, amplitude envelope, filenames, loop",
					"linecount" : 2,
					"numinlets" : 1,
					"numoutlets" : 0,
					"patching_rect" : [ 49.0, 5.0, 320.0, 34.0 ],
					"id" : "obj-20",
					"fontname" : "Arial",
					"fontsize" : 12.0
				}

			}
, 			{
				"box" : 				{
					"maxclass" : "newobj",
					"text" : "loadmess mute 1",
					"numinlets" : 1,
					"numoutlets" : 1,
					"patching_rect" : [ 530.0, 307.0, 102.0, 20.0 ],
					"id" : "obj-21",
					"fontname" : "Arial",
					"outlettype" : [ "" ],
					"fontsize" : 12.0
				}

			}
, 			{
				"box" : 				{
					"maxclass" : "message",
					"text" : "1.",
					"numinlets" : 2,
					"numoutlets" : 1,
					"patching_rect" : [ 473.0, 237.0, 32.5, 18.0 ],
					"id" : "obj-16",
					"fontname" : "Arial",
					"outlettype" : [ "" ],
					"fontsize" : 12.0
				}

			}
, 			{
				"box" : 				{
					"maxclass" : "message",
					"text" : "0.",
					"numinlets" : 2,
					"numoutlets" : 1,
					"patching_rect" : [ 433.0, 237.0, 32.5, 18.0 ],
					"id" : "obj-15",
					"fontname" : "Arial",
					"outlettype" : [ "" ],
					"fontsize" : 12.0
				}

			}
, 			{
				"box" : 				{
					"maxclass" : "newobj",
					"text" : "thispoly~",
					"numinlets" : 1,
					"numoutlets" : 2,
					"patching_rect" : [ 515.0, 339.0, 58.0, 20.0 ],
					"id" : "obj-11",
					"fontname" : "Arial",
					"outlettype" : [ "int", "int" ],
					"fontsize" : 12.0
				}

			}
, 			{
				"box" : 				{
					"maxclass" : "newobj",
					"text" : "*~",
					"numinlets" : 2,
					"numoutlets" : 1,
					"patching_rect" : [ 13.0, 458.0, 219.5, 20.0 ],
					"id" : "obj-8",
					"fontname" : "Arial",
					"outlettype" : [ "signal" ],
					"fontsize" : 12.0
				}

			}
, 			{
				"box" : 				{
					"maxclass" : "newobj",
					"text" : "adsr~ 10. 10. 0.8 300.",
					"numinlets" : 5,
					"numoutlets" : 4,
					"patching_rect" : [ 450.0, 266.0, 125.0, 20.0 ],
					"id" : "obj-7",
					"fontname" : "Arial",
					"outlettype" : [ "signal", "signal", "", "" ],
					"fontsize" : 11.595187
				}

			}
, 			{
				"box" : 				{
					"maxclass" : "newobj",
					"text" : "bach.pick 1 2 3 4 5 6 @out t",
					"numinlets" : 1,
					"numoutlets" : 6,
					"patching_rect" : [ 13.0, 39.0, 313.0, 20.0 ],
					"id" : "obj-3",
					"fontname" : "Arial",
					"outlettype" : [ "", "", "", "", "", "" ],
					"fontsize" : 12.0
				}

			}
, 			{
				"box" : 				{
					"maxclass" : "newobj",
					"text" : "out~ 1",
					"numinlets" : 1,
					"numoutlets" : 0,
					"patching_rect" : [ 13.0, 485.0, 44.0, 20.0 ],
					"id" : "obj-2",
					"fontname" : "Arial",
					"fontsize" : 12.0,
					"saved_object_attributes" : 					{

					}

				}

			}
, 			{
				"box" : 				{
					"maxclass" : "newobj",
					"text" : "in 1",
					"numinlets" : 1,
					"numoutlets" : 1,
					"patching_rect" : [ 13.0, 13.0, 30.0, 20.0 ],
					"id" : "obj-1",
					"fontname" : "Arial",
					"outlettype" : [ "" ],
					"fontsize" : 12.0,
					"saved_object_attributes" : 					{
						"attr_comment" : ""
					}

				}

			}
, 			{
				"box" : 				{
					"maxclass" : "message",
					"text" : "loop $1",
					"numinlets" : 2,
					"numoutlets" : 1,
					"patching_rect" : [ 13.0, 232.0, 50.0, 18.0 ],
					"id" : "obj-29",
					"fontname" : "Arial",
					"outlettype" : [ "" ],
					"fontsize" : 12.0
				}

			}
 ],
		"lines" : [ 			{
				"patchline" : 				{
					"source" : [ "obj-26", 0 ],
					"destination" : [ "obj-15", 0 ],
					"hidden" : 0,
					"midpoints" : [ 140.5, 231.5, 442.5, 231.5 ]
				}

			}
, 			{
				"patchline" : 				{
					"source" : [ "obj-25", 0 ],
					"destination" : [ "obj-4", 0 ],
					"hidden" : 0,
					"midpoints" : [  ]
				}

			}
, 			{
				"patchline" : 				{
					"source" : [ "obj-25", 1 ],
					"destination" : [ "obj-4", 0 ],
					"hidden" : 0,
					"midpoints" : [  ]
				}

			}
, 			{
				"patchline" : 				{
					"source" : [ "obj-25", 2 ],
					"destination" : [ "obj-16", 0 ],
					"hidden" : 0,
					"midpoints" : [  ]
				}

			}
, 			{
				"patchline" : 				{
					"source" : [ "obj-24", 0 ],
					"destination" : [ "obj-25", 0 ],
					"hidden" : 0,
					"midpoints" : [  ]
				}

			}
, 			{
				"patchline" : 				{
					"source" : [ "obj-10", 0 ],
					"destination" : [ "obj-24", 0 ],
					"hidden" : 0,
					"midpoints" : [  ]
				}

			}
, 			{
				"patchline" : 				{
					"source" : [ "obj-12", 0 ],
					"destination" : [ "obj-10", 1 ],
					"hidden" : 0,
					"midpoints" : [  ]
				}

			}
, 			{
				"patchline" : 				{
					"source" : [ "obj-9", 0 ],
					"destination" : [ "obj-10", 0 ],
					"hidden" : 0,
					"midpoints" : [  ]
				}

			}
, 			{
				"patchline" : 				{
					"source" : [ "obj-3", 4 ],
					"destination" : [ "obj-9", 0 ],
					"hidden" : 0,
					"midpoints" : [  ]
				}

			}
, 			{
				"patchline" : 				{
					"source" : [ "obj-9", 1 ],
					"destination" : [ "obj-12", 0 ],
					"hidden" : 0,
					"midpoints" : [  ]
				}

			}
, 			{
				"patchline" : 				{
					"source" : [ "obj-1", 0 ],
					"destination" : [ "obj-3", 0 ],
					"hidden" : 0,
					"midpoints" : [  ]
				}

			}
, 			{
				"patchline" : 				{
					"source" : [ "obj-7", 0 ],
					"destination" : [ "obj-8", 1 ],
					"hidden" : 0,
					"midpoints" : [ 459.5, 447.5, 223.0, 447.5 ]
				}

			}
, 			{
				"patchline" : 				{
					"source" : [ "obj-16", 0 ],
					"destination" : [ "obj-7", 0 ],
					"hidden" : 0,
					"midpoints" : [  ]
				}

			}
, 			{
				"patchline" : 				{
					"source" : [ "obj-15", 0 ],
					"destination" : [ "obj-7", 0 ],
					"hidden" : 0,
					"midpoints" : [  ]
				}

			}
, 			{
				"patchline" : 				{
					"source" : [ "obj-7", 2 ],
					"destination" : [ "obj-11", 0 ],
					"hidden" : 0,
					"midpoints" : [  ]
				}

			}
, 			{
				"patchline" : 				{
					"source" : [ "obj-7", 0 ],
					"destination" : [ "obj-11", 0 ],
					"hidden" : 0,
					"midpoints" : [  ]
				}

			}
, 			{
				"patchline" : 				{
					"source" : [ "obj-21", 0 ],
					"destination" : [ "obj-11", 0 ],
					"hidden" : 0,
					"midpoints" : [  ]
				}

			}
, 			{
				"patchline" : 				{
					"source" : [ "obj-29", 0 ],
					"destination" : [ "obj-4", 0 ],
					"hidden" : 0,
					"midpoints" : [  ]
				}

			}
, 			{
				"patchline" : 				{
					"source" : [ "obj-3", 5 ],
					"destination" : [ "obj-29", 0 ],
					"hidden" : 0,
					"color" : [ 0.113725, 0.964706, 0.003922, 0.388235 ],
					"midpoints" : [  ]
				}

			}
, 			{
				"patchline" : 				{
					"source" : [ "obj-4", 0 ],
					"destination" : [ "obj-33", 0 ],
					"hidden" : 0,
					"midpoints" : [  ]
				}

			}
, 			{
				"patchline" : 				{
					"source" : [ "obj-5", 0 ],
					"destination" : [ "obj-33", 1 ],
					"hidden" : 0,
					"midpoints" : [  ]
				}

			}
, 			{
				"patchline" : 				{
					"source" : [ "obj-3", 1 ],
					"destination" : [ "obj-5", 0 ],
					"hidden" : 0,
					"midpoints" : [  ]
				}

			}
, 			{
				"patchline" : 				{
					"source" : [ "obj-8", 0 ],
					"destination" : [ "obj-2", 0 ],
					"hidden" : 0,
					"midpoints" : [  ]
				}

			}
, 			{
				"patchline" : 				{
					"source" : [ "obj-33", 0 ],
					"destination" : [ "obj-34", 0 ],
					"hidden" : 0,
					"midpoints" : [  ]
				}

			}
, 			{
				"patchline" : 				{
					"source" : [ "obj-35", 0 ],
					"destination" : [ "obj-34", 1 ],
					"hidden" : 0,
					"midpoints" : [  ]
				}

			}
, 			{
				"patchline" : 				{
					"source" : [ "obj-3", 0 ],
					"destination" : [ "obj-35", 0 ],
					"hidden" : 0,
					"color" : [ 1.0, 0.0, 0.0, 0.52549 ],
					"midpoints" : [  ]
				}

			}
, 			{
				"patchline" : 				{
					"source" : [ "obj-3", 2 ],
					"destination" : [ "obj-27", 0 ],
					"hidden" : 0,
					"midpoints" : [  ]
				}

			}
, 			{
				"patchline" : 				{
					"source" : [ "obj-27", 1 ],
					"destination" : [ "obj-26", 1 ],
					"hidden" : 0,
					"midpoints" : [  ]
				}

			}
, 			{
				"patchline" : 				{
					"source" : [ "obj-27", 0 ],
					"destination" : [ "obj-26", 0 ],
					"hidden" : 0,
					"midpoints" : [  ]
				}

			}
, 			{
				"patchline" : 				{
					"source" : [ "obj-34", 0 ],
					"destination" : [ "obj-13", 0 ],
					"hidden" : 0,
					"midpoints" : [  ]
				}

			}
, 			{
				"patchline" : 				{
					"source" : [ "obj-13", 0 ],
					"destination" : [ "obj-8", 0 ],
					"hidden" : 0,
					"midpoints" : [  ]
				}

			}
, 			{
				"patchline" : 				{
					"source" : [ "obj-17", 0 ],
					"destination" : [ "obj-13", 1 ],
					"hidden" : 0,
					"midpoints" : [  ]
				}

			}
, 			{
				"patchline" : 				{
					"source" : [ "obj-6", 0 ],
					"destination" : [ "obj-17", 0 ],
					"hidden" : 0,
					"midpoints" : [  ]
				}

			}
, 			{
				"patchline" : 				{
					"source" : [ "obj-27", 2 ],
					"destination" : [ "obj-6", 0 ],
					"hidden" : 0,
					"color" : [ 0.305882, 0.007843, 0.501961, 1.0 ],
					"midpoints" : [  ]
				}

			}
, 			{
				"patchline" : 				{
					"source" : [ "obj-3", 3 ],
					"destination" : [ "obj-6", 1 ],
					"hidden" : 0,
					"color" : [ 0.305882, 0.007843, 0.501961, 1.0 ],
					"midpoints" : [  ]
				}

			}
, 			{
				"patchline" : 				{
					"source" : [ "obj-19", 0 ],
					"destination" : [ "obj-14", 0 ],
					"hidden" : 0,
					"midpoints" : [  ]
				}

			}
, 			{
				"patchline" : 				{
					"source" : [ "obj-14", 0 ],
					"destination" : [ "obj-6", 3 ],
					"hidden" : 0,
					"color" : [ 1.0, 0.0, 0.0, 1.0 ],
					"midpoints" : [ 302.5, 425.0, 392.0, 425.0, 392.0, 327.0, 302.5, 327.0 ]
				}

			}
, 			{
				"patchline" : 				{
					"source" : [ "obj-6", 1 ],
					"destination" : [ "obj-19", 0 ],
					"hidden" : 0,
					"midpoints" : [  ]
				}

			}
 ]
	}

}
