{
	"patcher" : 	{
		"fileversion" : 1,
		"appversion" : 		{
			"major" : 7,
			"minor" : 3,
			"revision" : 4,
			"architecture" : "x64",
			"modernui" : 1
		}
,
		"rect" : [ 309.0, 79.0, 726.0, 638.0 ],
		"bglocked" : 0,
		"openinpresentation" : 0,
		"default_fontsize" : 12.0,
		"default_fontface" : 0,
		"default_fontname" : "Arial",
		"gridonopen" : 1,
		"gridsize" : [ 15.0, 15.0 ],
		"gridsnaponopen" : 1,
		"objectsnaponopen" : 1,
		"statusbarvisible" : 2,
		"toolbarvisible" : 1,
		"lefttoolbarpinned" : 0,
		"toptoolbarpinned" : 0,
		"righttoolbarpinned" : 0,
		"bottomtoolbarpinned" : 0,
		"toolbars_unpinned_last_save" : 0,
		"tallnewobj" : 0,
		"boxanimatetime" : 200,
		"enablehscroll" : 1,
		"enablevscroll" : 1,
		"devicewidth" : 0.0,
		"description" : "",
		"digest" : "",
		"tags" : "",
		"style" : "",
		"subpatcher_template" : "",
		"boxes" : [ 			{
				"box" : 				{
					"id" : "obj-31",
					"linecount" : 2,
					"maxclass" : "comment",
					"numinlets" : 1,
					"numoutlets" : 0,
					"patching_rect" : [ 11.0, 1075.0, 696.0, 33.0 ],
					"presentation_rect" : [ 11.0, 1073.5, 0.0, 0.0 ],
					"style" : "",
					"text" : "This is also true, for instance, for textual slots that contain numbers. Numbers are output as symbols, since they are contained in textual slots. You need to use @out m in order to drop the backticks and be able to use the fromsymbol object."
				}

			}
, 			{
				"box" : 				{
					"id" : "obj-29",
					"maxclass" : "message",
					"numinlets" : 2,
					"numoutlets" : 1,
					"outlettype" : [ "" ],
					"patching_rect" : [ 350.25, 1272.0, 50.0, 22.0 ],
					"presentation_rect" : [ 367.25, 1194.0, 0.0, 0.0 ],
					"style" : "",
					"text" : "`-16"
				}

			}
, 			{
				"box" : 				{
					"id" : "obj-30",
					"maxclass" : "newobj",
					"numinlets" : 1,
					"numoutlets" : 1,
					"outlettype" : [ "" ],
					"patching_rect" : [ 381.25, 1239.0, 73.0, 22.0 ],
					"presentation_rect" : [ 398.25, 1161.0, 0.0, 0.0 ],
					"style" : "",
					"text" : "fromsymbol"
				}

			}
, 			{
				"box" : 				{
					"id" : "obj-28",
					"maxclass" : "message",
					"numinlets" : 2,
					"numoutlets" : 1,
					"outlettype" : [ "" ],
					"patching_rect" : [ 544.25, 1272.0, 50.0, 22.0 ],
					"presentation_rect" : [ 488.75, 1191.0, 0.0, 0.0 ],
					"style" : "",
					"text" : "-16"
				}

			}
, 			{
				"box" : 				{
					"id" : "obj-27",
					"maxclass" : "newobj",
					"numinlets" : 1,
					"numoutlets" : 1,
					"outlettype" : [ "" ],
					"patching_rect" : [ 575.25, 1239.0, 73.0, 22.0 ],
					"style" : "",
					"text" : "fromsymbol"
				}

			}
, 			{
				"box" : 				{
					"id" : "obj-26",
					"maxclass" : "message",
					"numinlets" : 2,
					"numoutlets" : 1,
					"outlettype" : [ "" ],
					"patching_rect" : [ 491.25, 1239.0, 50.0, 22.0 ],
					"presentation_rect" : [ 444.5, 1158.0, 0.0, 0.0 ],
					"style" : "",
					"text" : "\"-16\""
				}

			}
, 			{
				"box" : 				{
					"id" : "obj-25",
					"maxclass" : "message",
					"numinlets" : 2,
					"numoutlets" : 1,
					"outlettype" : [ "" ],
					"patching_rect" : [ 320.5, 1239.0, 50.0, 22.0 ],
					"presentation_rect" : [ 367.0, 1158.0, 0.0, 0.0 ],
					"style" : "",
					"text" : "`-16"
				}

			}
, 			{
				"box" : 				{
					"id" : "obj-23",
					"maxclass" : "newobj",
					"numinlets" : 2,
					"numoutlets" : 1,
					"outlettype" : [ "" ],
					"patching_rect" : [ 491.25, 1201.0, 103.0, 22.0 ],
					"saved_object_attributes" : 					{
						"embed" : 0,
						"versionnumber" : 80000
					}
,
					"style" : "",
					"text" : "bach.reg @out m"
				}

			}
, 			{
				"box" : 				{
					"id" : "obj-15",
					"maxclass" : "newobj",
					"numinlets" : 2,
					"numoutlets" : 1,
					"outlettype" : [ "" ],
					"patching_rect" : [ 317.0, 1201.0, 96.0, 22.0 ],
					"saved_object_attributes" : 					{
						"embed" : 0,
						"versionnumber" : 80000
					}
,
					"style" : "",
					"text" : "bach.reg @out t"
				}

			}
, 			{
				"box" : 				{
					"id" : "obj-14",
					"maxclass" : "message",
					"numinlets" : 2,
					"numoutlets" : 1,
					"outlettype" : [ "" ],
					"patching_rect" : [ 246.0, 1239.0, 50.0, 22.0 ],
					"style" : "",
					"text" : "s"
				}

			}
, 			{
				"box" : 				{
					"id" : "obj-12",
					"maxclass" : "newobj",
					"numinlets" : 1,
					"numoutlets" : 2,
					"outlettype" : [ "int", "" ],
					"patching_rect" : [ 247.0, 1201.0, 49.0, 22.0 ],
					"saved_object_attributes" : 					{
						"versionnumber" : 80000
					}
,
					"style" : "",
					"text" : "bach.is"
				}

			}
, 			{
				"box" : 				{
					"id" : "obj-11",
					"maxclass" : "newobj",
					"numinlets" : 1,
					"numoutlets" : 2,
					"outlettype" : [ "", "bang" ],
					"patching_rect" : [ 254.0, 1157.0, 75.0, 22.0 ],
					"saved_object_attributes" : 					{
						"versionnumber" : 80000
					}
,
					"style" : "",
					"text" : "bach.keys 1"
				}

			}
, 			{
				"box" : 				{
					"id" : "obj-10",
					"maxclass" : "message",
					"numinlets" : 2,
					"numoutlets" : 1,
					"outlettype" : [ "" ],
					"patching_rect" : [ 18.0, 1130.0, 51.0, 22.0 ],
					"style" : "",
					"text" : "dump 1"
				}

			}
, 			{
				"box" : 				{
					"bwcompatibility" : 80000,
					"fontface" : 0,
					"fontname" : "Courier",
					"fontsize" : 11.0,
					"id" : "obj-1",
					"maxclass" : "bach.slot",
					"numinlets" : 1,
					"numoutlets" : 3,
					"out" : "nn",
					"outlettype" : [ "", "", "bang" ],
					"patching_rect" : [ 18.0, 1162.0, 200.0, 100.0 ],
					"textcolor" : [ 0.1, 0.1, 0.1, 1.0 ],
					"versionnumber" : 80000,
					"whole_uislot_data_0000000000" : [ "slot", "(", "slotinfo", "(", 1, "(", "name", "I am a textual slot", ")", "(", "type", "text", ")", "(", "key", 0, ")", "(", "temporalmode", "none", ")", "(", "extend", 0, ")", "(", "width", "temporal", ")", "(", "height", "auto", ")", "(", "copywhensplit", 0, ")", "(", "access", "readandwrite", ")", ")", "(", 2, "(", "name", "slot function", ")", "(", "type", "function", ")", "(", "key", 0, ")", "(", "range", "_x_x_x_x_bach_float64_x_x_x_x_", 0, 0, "_x_x_x_x_bach_float64_x_x_x_x_", 0, 1072693248, ")", "(", "slope", "_x_x_x_x_bach_float64_x_x_x_x_", 0, 0, ")", "(", "representation", ")", "(", "grid", ")", "(", "ysnap", ")", "(", "domain", "_x_x_x_x_bach_float64_x_x_x_x_", 0, 0, "_x_x_x_x_bach_float64_x_x_x_x_", 0, 1072693248, ")", "(", "domainslope", "_x_x_x_x_bach_float64_x_x_x_x_", 0, 0, ")", "(", "temporalmode", "none", ")", "(", "extend", 0, ")", "(", "width", "temporal", ")", "(", "height", "auto", ")", "(", "copywhensplit", 0, ")", "(", "access", "readandwrite", ")", ")", "(", 3, "(", "name", "slot intlist", ")", "(", "type", "intlist", ")", "(", "key", 0, ")", "(", "range", "_x_x_x_x_bach_float64_x_x_x_x_", 0, 0, "_x_x_x_x_bach_float64_x_x_x_x_", 0, 1080016896, ")", "(", "slope", "_x_x_x_x_bach_float64_x_x_x_x_", 0, 0, ")", "(", "representation", ")", "(", "default", "_x_x_x_x_bach_float64_x_x_x_x_", 0, 1078984704, ")", "(", "temporalmode", "none", ")", "(", "extend", 0, ")", "(", "width", "temporal", ")", "(", "height", "auto", ")", "(", "copywhensplit", 1, ")", "(", "access", "readandwrite", ")", ")", "(", 4, "(", "name", "slot floatlist", ")", "(", "type", "floatlist", ")", "(", "key", 0, ")", "(", "range", "_x_x_x_x_bach_float64_x_x_x_x_", 0, 0, "_x_x_x_x_bach_float64_x_x_x_x_", 0, 1072693248, ")", "(", "slope", "_x_x_x_x_bach_float64_x_x_x_x_", 0, 0, ")", "(", "representation", ")", "(", "default", "_x_x_x_x_bach_float64_x_x_x_x_", 0, 0, ")", "(", "temporalmode", "none", ")", "(", "extend", 0, ")", "(", "width", "temporal", ")", "(", "height", "auto", ")", "(", "copywhensplit", 1, ")", "(", "access", "readandwrite", ")", ")", "(", 5, "(", "name", "slot int", ")", "(", "type", "int", ")", "(", "key", 0, ")", "(", "range", "_x_x_x_x_bach_float64_x_x_x_x_", 0, 0, "_x_x_x_x_bach_float64_x_x_x_x_", 0, 1080016896, ")", "(", "slope", "_x_x_x_x_bach_float64_x_x_x_x_", 0, 0, ")", "(", "representation", ")", "(", "default", "_x_x_x_x_bach_float64_x_x_x_x_", 0, 1078984704, ")", "(", "temporalmode", "none", ")", "(", "extend", 0, ")", "(", "width", "temporal", ")", "(", "height", "auto", ")", "(", "copywhensplit", 1, ")", "(", "access", "readandwrite", ")", ")", "(", 6, "(", "name", "slot float", ")", "(", "type", "float", ")", "(", "key", 0, ")", "(", "range", "_x_x_x_x_bach_float64_x_x_x_x_", 0, 0, "_x_x_x_x_bach_float64_x_x_x_x_", 0, 1072693248, ")", "(", "slope", "_x_x_x_x_bach_float64_x_x_x_x_", 0, 0, ")", "(", "representation", ")", "(", "default", "_x_x_x_x_bach_float64_x_x_x_x_", 0, 0, ")", "(", "temporalmode", "none", ")", "(", "extend", 0, ")", "(", "width", "temporal", ")", "(", "height", "auto", ")", "(", "copywhensplit", 1, ")", "(", "access", "readandwrite", ")", ")", "(", 7, "(", "name", "slot text", ")", "(", "type", "text", ")", "(", "key", 0, ")", "(", "temporalmode", "none", ")", "(", "extend", 0, ")", "(", "width", "temporal", ")", "(", "height", "auto", ")", "(", "copywhensplit", 0, ")", "(", "access", "readandwrite", ")", ")", "(", 8, "(", "name", "slot filelist", ")", "(", "type", "filelist", ")", "(", "key", 0, ")", "(", "temporalmode", "none", ")", "(", "extend", 0, ")", "(", "width", "temporal", ")", "(", "height", "auto", ")", "(", "copywhensplit", 1, ")", "(", "access", "readandwrite", ")", ")", "(", 9, "(", "name", "slot spat", ")", "(", "type", "spat", ")", "(", "key", 0, ")", "(", "range", "_x_x_x_x_bach_float64_x_x_x_x_", 0, 0, "_x_x_x_x_bach_float64_x_x_x_x_", 0, 1076101120, ")", "(", "slope", "_x_x_x_x_bach_float64_x_x_x_x_", 0, 0, ")", "(", "representation", ")", "(", "temporalmode", "none", ")", "(", "extend", 0, ")", "(", "width", "temporal", ")", "(", "height", "auto", ")", "(", "copywhensplit", 0, ")", "(", "access", "readandwrite", ")", ")", "(", 10, "(", "name", "slot llll", ")", "(", "type", "llll", ")", "(", "key", 0, ")", "(", "temporalmode", "none", ")", "(", "extend", 0, ")", "(", "width", "temporal", ")", "(", "height", "auto", ")", "(", "copywhensplit", 0, ")", "(", "access", "readandwrite", ")", ")", "(", 11, "(", "name", "slot 11", ")", "(", "type", "none", ")", "(", "key", 0, ")", "(", "temporalmode", "none", ")", "(", "extend", 0, ")", "(", "width", "temporal", ")", "(", "height", "auto", ")", "(", "copywhensplit", 1, ")", "(", "access", "readandwrite", ")", ")", "(", 12, "(", "name", "slot 12", ")", "(", "type", "none", ")", "(", "key", 0, ")", "(", "temporalmode", "none", ")", "(", "extend", 0, ")", "(", "width", "temporal", ")", "(", "height", "auto", ")", "(", "copywhensplit", 1, ")", "(", "access", "readandwrite", ")", ")", "(", 13, "(", "name", "slot 13", ")", "(", "type", "none", ")", "(", "key", 0, ")", "(", "temporalmode", "none", ")", "(", "extend", 0, ")", "(", "width", "temporal", ")", "(", "height", "auto", ")", "(", "copywhensplit", 1, ")", "(", "access", "readandwrite", ")", ")", "(", 14, "(", "name", "slot 14", ")", "(", "type", "none", ")", "(", "key", 0, ")", "(", "temporalmode", "none", ")", "(", "extend", 0, ")", "(", "width", "temporal", ")", "(", "height", "auto", ")", "(", "copywhensplit", 1, ")", "(", "access", "readandwrite", ")", ")", "(", 15, "(", "name", "slot 15", ")", "(", "type", "none", ")", "(", "key", 0, ")", "(", "temporalmode", "none", ")", "(", "extend", 0, ")", "(", "width", "temporal", ")", "(", "height", "auto", ")", "(", "copywhensplit", 1, ")", "(", "access", "readandwrite", ")", ")", "(", 16, "(", "name", "slot 16", ")", "(", "type", "none", ")", "(", "key", 0, ")", "(", "temporalmode", "none", ")", "(", "extend", 0, ")", "(", "width", "temporal", ")", "(", "height", "auto", ")", "(", "copywhensplit", 1, ")", "(", "access", "readandwrite", ")", ")", "(", 17, "(", "name", "slot 17", ")", "(", "type", "none", ")", "(", "key", 0, ")", "(", "temporalmode", "none", ")", "(", "extend", 0, ")", "(", "width", "temporal", ")", "(", "height", "auto", ")", "(", "copywhensplit", 1, ")", "(", "access", "readandwrite", ")", ")", "(", 18, "(", "name", "slot 18", ")", "(", "type", "none", ")", "(", "key", 0, ")", "(", "temporalmode", "none", ")", "(", "extend", 0, ")", "(", "width", "temporal", ")", "(", "height", "auto", ")", "(", "copywhensplit", 1, ")", "(", "access", "readandwrite", ")", ")", "(", 19, "(", "name", "slot 19", ")", "(", "type", "none", ")", "(", "key", 0, ")", "(", "temporalmode", "none", ")", "(", "extend", 0, ")", "(", "width", "temporal", ")", "(", "height", "auto", ")", "(", "copywhensplit", 1, ")", "(", "access", "readandwrite", ")", ")", "(", 20, "(", "name", "dynamics", ")", "(", "type", "dynamics", ")", "(", "key", "d", ")", "(", "temporalmode", "none", ")", "(", "extend", 0, ")", "(", "width", "temporal", ")", "(", "height", "auto", ")", "(", "copywhensplit", 0, ")", "(", "access", "readandwrite", ")", ")", "(", 21, "(", "name", "lyrics", ")", "(", "type", "text", ")", "(", "key", "l", ")", "(", "temporalmode", "none", ")", "(", "extend", 0, ")", "(", "width", "temporal", ")", "(", "height", "auto", ")", "(", "copywhensplit", 0, ")", "(", "access", "readandwrite", ")", ")", "(", 22, "(", "name", "articulations", ")", "(", "type", "articulations", ")", "(", "key", "a", ")", "(", "temporalmode", "none", ")", "(", "extend", 0, ")", "(", "width", "temporal", ")", "(", "height", "auto", ")", "(", "copywhensplit", 1, ")", "(", "access", "readandwrite", ")", ")", "(", 23, "(", "name", "notehead", ")", "(", "type", "notehead", ")", "(", "key", "h", ")", "(", "temporalmode", "none", ")", "(", "extend", 0, ")", "(", "width", "temporal", ")", "(", "height", "auto", ")", "(", "copywhensplit", 1, ")", "(", "access", "readandwrite", ")", ")", "(", 24, "(", "name", "slot 24", ")", "(", "type", "none", ")", "(", "key", 0, ")", "(", "temporalmode", "none", ")", "(", "extend", 0, ")", "(", "width", "temporal", ")", "(", "height", "auto", ")", "(", "copywhensplit", 1, ")", "(", "access", "readandwrite", ")", ")", "(", 25, "(", "name", "slot 25", ")", "(", "type", "none", ")", "(", "key", 0, ")", "(", "temporalmode", "none", ")", "(", "extend", 0, ")", "(", "width", "temporal", ")", "(", "height", "auto", ")", "(", "copywhensplit", 1, ")", "(", "access", "readandwrite", ")", ")", "(", 26, "(", "name", "slot 26", ")", "(", "type", "none", ")", "(", "key", 0, ")", "(", "temporalmode", "none", ")", "(", "extend", 0, ")", "(", "width", "temporal", ")", "(", "height", "auto", ")", "(", "copywhensplit", 1, ")", "(", "access", "readandwrite", ")", ")", "(", 27, "(", "name", "slot 27", ")", "(", "type", "none", ")", "(", "key", 0, ")", "(", "temporalmode", "none", ")", "(", "extend", 0, ")", "(", "width", "temporal", ")", "(", "height", "auto", ")", "(", "copywhensplit", 1, ")", "(", "access", "readandwrite", ")", ")", "(", 28, "(", "name", "slot 28", ")", "(", "type", "none", ")", "(", "key", 0, ")", "(", "temporalmode", "none", ")", "(", "extend", 0, ")", "(", "width", "temporal", ")", "(", "height", "auto", ")", "(", "copywhensplit", 1, ")", "(", "access", "readandwrite", ")", ")", "(", 29, "(", "name", "slot 29", ")", "(", "type", "none", ")", "(", "key", 0, ")", "(", "temporalmode", "none", ")", "(", "extend", 0, ")", "(", "width", "temporal", ")", "(", "height", "auto", ")", "(", "copywhensplit", 1, ")", "(", "access", "readandwrite", ")", ")", "(", 30, "(", "name", "slot 30", ")", "(", "type", "none", ")", "(", "key", 0, ")", "(", "temporalmode", "none", ")", "(", "extend", 0, ")", "(", "width", "temporal", ")", "(", "height", "auto", ")", "(", "copywhensplit", 1, ")", "(", "access", "readandwrite", ")", ")", ")", "(", "slots", "(", 1, "`-16", ")", ")" ],
					"whole_uislot_data_count" : [ 1 ]
				}

			}
, 			{
				"box" : 				{
					"id" : "obj-193",
					"maxclass" : "newobj",
					"numinlets" : 1,
					"numoutlets" : 2,
					"outlettype" : [ "", "" ],
					"patching_rect" : [ 92.5, 1702.0, 140.0, 22.0 ],
					"saved_object_attributes" : 					{
						"versionnumber" : 80000
					}
,
					"style" : "",
					"text" : "bach.textout @escape 0"
				}

			}
, 			{
				"box" : 				{
					"id" : "obj-189",
					"maxclass" : "newobj",
					"numinlets" : 1,
					"numoutlets" : 1,
					"outlettype" : [ "" ],
					"patching_rect" : [ 92.5, 1740.0, 82.0, 22.0 ],
					"style" : "",
					"text" : "prepend read"
				}

			}
, 			{
				"box" : 				{
					"id" : "obj-190",
					"maxclass" : "newobj",
					"numinlets" : 1,
					"numoutlets" : 3,
					"outlettype" : [ "", "bang", "int" ],
					"patching_rect" : [ 92.5, 1771.0, 40.0, 22.0 ],
					"style" : "",
					"text" : "text"
				}

			}
, 			{
				"box" : 				{
					"id" : "obj-191",
					"maxclass" : "newobj",
					"numinlets" : 2,
					"numoutlets" : 1,
					"outlettype" : [ "" ],
					"patching_rect" : [ 92.5, 1670.0, 57.0, 22.0 ],
					"saved_object_attributes" : 					{
						"embed" : 0,
						"versionnumber" : 80000
					}
,
					"style" : "",
					"text" : "bach.reg"
				}

			}
, 			{
				"box" : 				{
					"id" : "obj-192",
					"maxclass" : "message",
					"numinlets" : 2,
					"numoutlets" : 1,
					"outlettype" : [ "" ],
					"patching_rect" : [ 92.5, 1637.5, 89.0, 22.0 ],
					"style" : "",
					"text" : "`HenryIV(1).txt"
				}

			}
, 			{
				"box" : 				{
					"id" : "obj-188",
					"linecount" : 2,
					"maxclass" : "comment",
					"numinlets" : 1,
					"numoutlets" : 0,
					"patching_rect" : [ 238.0, 1696.5, 417.0, 33.0 ],
					"style" : "",
					"text" : "Don't escape: this is equivalent to @out m. \nNotice that bach.textout has not \"out\" attribute: it only outputs in textual form."
				}

			}
, 			{
				"box" : 				{
					"id" : "obj-184",
					"maxclass" : "message",
					"numinlets" : 2,
					"numoutlets" : 1,
					"outlettype" : [ "" ],
					"patching_rect" : [ 38.0, 2022.0, 35.0, 22.0 ],
					"style" : "",
					"text" : "read"
				}

			}
, 			{
				"box" : 				{
					"id" : "obj-182",
					"linecount" : 4,
					"maxclass" : "comment",
					"numinlets" : 1,
					"numoutlets" : 0,
					"patching_rect" : [ 167.5, 2037.5, 101.0, 60.0 ],
					"style" : "",
					"text" : "reads a file, but ignore pitches, e.g. taking A001 as a symbol"
				}

			}
, 			{
				"box" : 				{
					"id" : "obj-181",
					"maxclass" : "newobj",
					"numinlets" : 1,
					"numoutlets" : 2,
					"outlettype" : [ "", "bang" ],
					"patching_rect" : [ 38.0, 2057.0, 123.0, 22.0 ],
					"saved_object_attributes" : 					{
						"versionnumber" : 80000
					}
,
					"style" : "",
					"text" : "bach.read @ignore p"
				}

			}
, 			{
				"box" : 				{
					"id" : "obj-180",
					"maxclass" : "message",
					"numinlets" : 2,
					"numoutlets" : 1,
					"outlettype" : [ "" ],
					"patching_rect" : [ 296.5, 2037.5, 49.0, 22.0 ],
					"style" : "",
					"text" : "writetxt"
				}

			}
, 			{
				"box" : 				{
					"id" : "obj-178",
					"linecount" : 4,
					"maxclass" : "comment",
					"numinlets" : 1,
					"numoutlets" : 0,
					"patching_rect" : [ 434.0, 2067.0, 239.25, 60.0 ],
					"style" : "",
					"text" : "bach.write has also some additional escaping modes, such as the double quotes instead of backticks (which corresponds to value 2)"
				}

			}
, 			{
				"box" : 				{
					"id" : "obj-176",
					"maxclass" : "newobj",
					"numinlets" : 1,
					"numoutlets" : 1,
					"outlettype" : [ "" ],
					"patching_rect" : [ 406.5, 2037.5, 127.0, 22.0 ],
					"saved_object_attributes" : 					{
						"versionnumber" : 80000
					}
,
					"style" : "",
					"text" : "bach.textin @ignore L"
				}

			}
, 			{
				"box" : 				{
					"id" : "obj-177",
					"maxclass" : "message",
					"numinlets" : 2,
					"numoutlets" : 1,
					"outlettype" : [ "" ],
					"patching_rect" : [ 360.5, 1996.0, 85.0, 22.0 ],
					"style" : "",
					"text" : "HenryIV(1).txt"
				}

			}
, 			{
				"box" : 				{
					"id" : "obj-173",
					"maxclass" : "newobj",
					"numinlets" : 2,
					"numoutlets" : 0,
					"patching_rect" : [ 296.5, 2086.0, 129.0, 22.0 ],
					"saved_object_attributes" : 					{
						"versionnumber" : 80000
					}
,
					"style" : "",
					"text" : "bach.write @escape 2"
				}

			}
, 			{
				"box" : 				{
					"id" : "obj-172",
					"linecount" : 2,
					"maxclass" : "comment",
					"numinlets" : 1,
					"numoutlets" : 0,
					"patching_rect" : [ 16.0, 1955.5, 664.0, 33.0 ],
					"style" : "",
					"text" : "It is important to know that the same attributes allowing textin to tailor its behavior are also owned by bach.read; and the attributes used by bach.textout are owned by bach.write."
				}

			}
, 			{
				"box" : 				{
					"id" : "obj-171",
					"maxclass" : "comment",
					"numinlets" : 1,
					"numoutlets" : 0,
					"patching_rect" : [ 16.0, 1606.5, 664.0, 20.0 ],
					"style" : "",
					"text" : "Instead, bach.textout lets you choose the escaping format"
				}

			}
, 			{
				"box" : 				{
					"id" : "obj-170",
					"maxclass" : "comment",
					"numinlets" : 1,
					"numoutlets" : 0,
					"patching_rect" : [ 16.0, 2144.5, 664.0, 20.0 ],
					"style" : "",
					"text" : "There is of course more to these stories, and you can discover it by looking at the help files!"
				}

			}
, 			{
				"box" : 				{
					"id" : "obj-168",
					"linecount" : 2,
					"maxclass" : "comment",
					"numinlets" : 1,
					"numoutlets" : 0,
					"patching_rect" : [ 238.0, 1525.0, 119.25, 33.0 ],
					"style" : "",
					"text" : "...unless you decide to ignore them!"
				}

			}
, 			{
				"box" : 				{
					"id" : "obj-167",
					"linecount" : 2,
					"maxclass" : "comment",
					"numinlets" : 1,
					"numoutlets" : 0,
					"patching_rect" : [ 102.0, 1467.0, 178.0, 33.0 ],
					"style" : "",
					"text" : "Symbols like B001 B002... are pitch names for bach..."
				}

			}
, 			{
				"box" : 				{
					"id" : "obj-166",
					"linecount" : 3,
					"maxclass" : "comment",
					"numinlets" : 1,
					"numoutlets" : 0,
					"patching_rect" : [ 482.0, 1505.0, 178.0, 47.0 ],
					"style" : "",
					"text" : "Yep, this is now a symbol, because lllls have NOT been parsed by textin"
				}

			}
, 			{
				"box" : 				{
					"id" : "obj-165",
					"maxclass" : "newobj",
					"numinlets" : 1,
					"numoutlets" : 2,
					"outlettype" : [ "int", "" ],
					"patching_rect" : [ 424.25, 1472.5, 49.0, 22.0 ],
					"saved_object_attributes" : 					{
						"versionnumber" : 80000
					}
,
					"style" : "",
					"text" : "bach.is"
				}

			}
, 			{
				"box" : 				{
					"id" : "obj-164",
					"maxclass" : "newobj",
					"numinlets" : 1,
					"numoutlets" : 1,
					"outlettype" : [ "" ],
					"patching_rect" : [ 424.25, 1437.5, 127.0, 22.0 ],
					"saved_object_attributes" : 					{
						"versionnumber" : 80000
					}
,
					"style" : "",
					"text" : "bach.textin @ignore L"
				}

			}
, 			{
				"box" : 				{
					"id" : "obj-159",
					"maxclass" : "message",
					"numinlets" : 2,
					"numoutlets" : 1,
					"outlettype" : [ "" ],
					"patching_rect" : [ 436.25, 1505.0, 37.0, 22.0 ],
					"style" : "",
					"text" : "s"
				}

			}
, 			{
				"box" : 				{
					"id" : "obj-163",
					"maxclass" : "message",
					"numinlets" : 2,
					"numoutlets" : 1,
					"outlettype" : [ "" ],
					"patching_rect" : [ 424.25, 1405.0, 85.0, 22.0 ],
					"style" : "",
					"text" : "HenryIV(1).txt"
				}

			}
, 			{
				"box" : 				{
					"id" : "obj-7",
					"maxclass" : "newobj",
					"numinlets" : 1,
					"numoutlets" : 0,
					"patching_rect" : [ 92.5, 1566.0, 161.0, 22.0 ],
					"saved_object_attributes" : 					{
						"versionnumber" : 70911
					}
,
					"style" : "",
					"text" : "bach.print IgnoringPitches"
				}

			}
, 			{
				"box" : 				{
					"id" : "obj-5",
					"maxclass" : "newobj",
					"numinlets" : 1,
					"numoutlets" : 1,
					"outlettype" : [ "" ],
					"patching_rect" : [ 92.5, 1530.5, 137.0, 22.0 ],
					"saved_object_attributes" : 					{
						"versionnumber" : 70911
					}
,
					"style" : "",
					"text" : "bach.textin @ignore p"
				}

			}
, 			{
				"box" : 				{
					"id" : "obj-3",
					"maxclass" : "newobj",
					"numinlets" : 1,
					"numoutlets" : 0,
					"patching_rect" : [ 27.0, 1478.0, 68.0, 22.0 ],
					"saved_object_attributes" : 					{
						"versionnumber" : 70911
					}
,
					"style" : "",
					"text" : "bach.print"
				}

			}
, 			{
				"box" : 				{
					"fontname" : "Arial",
					"fontsize" : 13.0,
					"id" : "obj-9",
					"linecount" : 2,
					"maxclass" : "message",
					"numinlets" : 2,
					"numoutlets" : 1,
					"outlettype" : [ "" ],
					"patching_rect" : [ 27.0, 1397.0, 246.0, 38.0 ],
					"style" : "",
					"text" : "(ListOfCodes B001 B002 B003 B004) (ListOfOwners John George Paul Ringo)"
				}

			}
, 			{
				"box" : 				{
					"id" : "obj-156",
					"linecount" : 7,
					"maxclass" : "comment",
					"numinlets" : 1,
					"numoutlets" : 0,
					"patching_rect" : [ 105.5, 1817.0, 229.0, 100.0 ],
					"style" : "",
					"text" : "bach.textout also can take care of automatically backticking object attributes, which is handy if you want to take them literally\n(but beware, it does NOT work with abstractions! Use the @selector attribute instead)"
				}

			}
, 			{
				"box" : 				{
					"id" : "obj-24",
					"maxclass" : "newobj",
					"numinlets" : 1,
					"numoutlets" : 0,
					"patching_rect" : [ 351.0, 1911.0, 68.0, 22.0 ],
					"saved_object_attributes" : 					{
						"versionnumber" : 70911
					}
,
					"style" : "",
					"text" : "bach.print"
				}

			}
, 			{
				"box" : 				{
					"id" : "obj-22",
					"maxclass" : "newobj",
					"numinlets" : 3,
					"numoutlets" : 1,
					"outlettype" : [ "int" ],
					"patching_rect" : [ 511.5, 1911.0, 40.0, 22.0 ],
					"style" : "",
					"text" : "itoa"
				}

			}
, 			{
				"box" : 				{
					"id" : "obj-21",
					"maxclass" : "newobj",
					"numinlets" : 2,
					"numoutlets" : 2,
					"outlettype" : [ "", "" ],
					"patching_rect" : [ 511.5, 1873.0, 42.0, 22.0 ],
					"style" : "",
					"text" : "zl.rev"
				}

			}
, 			{
				"box" : 				{
					"id" : "obj-155",
					"maxclass" : "newobj",
					"numinlets" : 3,
					"numoutlets" : 1,
					"outlettype" : [ "list" ],
					"patching_rect" : [ 511.5, 1841.0, 40.0, 22.0 ],
					"style" : "",
					"text" : "atoi"
				}

			}
, 			{
				"box" : 				{
					"id" : "obj-19",
					"maxclass" : "message",
					"numinlets" : 2,
					"numoutlets" : 1,
					"outlettype" : [ "" ],
					"patching_rect" : [ 351.0, 1781.0, 190.0, 22.0 ],
					"style" : "",
					"text" : "maxdepth moodepth meedepth"
				}

			}
, 			{
				"box" : 				{
					"id" : "obj-17",
					"maxclass" : "newobj",
					"numinlets" : 2,
					"numoutlets" : 2,
					"outlettype" : [ "", "" ],
					"patching_rect" : [ 351.0, 1873.0, 145.0, 22.0 ],
					"saved_object_attributes" : 					{
						"versionnumber" : 70911
					}
,
					"style" : "",
					"text" : "bach.mapelem @out nt"
				}

			}
, 			{
				"box" : 				{
					"id" : "obj-16",
					"maxclass" : "newobj",
					"numinlets" : 1,
					"numoutlets" : 2,
					"outlettype" : [ "", "" ],
					"patching_rect" : [ 351.0, 1817.0, 81.0, 22.0 ],
					"saved_object_attributes" : 					{
						"versionnumber" : 70911
					}
,
					"style" : "",
					"text" : "bach.textout"
				}

			}
, 			{
				"box" : 				{
					"id" : "obj-153",
					"linecount" : 4,
					"maxclass" : "comment",
					"numinlets" : 1,
					"numoutlets" : 0,
					"patching_rect" : [ 11.0, 1315.5, 664.0, 60.0 ],
					"style" : "",
					"text" : "On the other hand, bach now features two objects, bach.textin and bach.textout, customizing the way in which text can be understood and output.\nThe bach.textin objects lets you decide what should be interpreted literally by bach (without parsing it). This is done via the \"ignore\" attribute."
				}

			}
, 			{
				"box" : 				{
					"id" : "obj-152",
					"maxclass" : "message",
					"numinlets" : 2,
					"numoutlets" : 1,
					"outlettype" : [ "" ],
					"patching_rect" : [ 365.5, 1005.0, 37.0, 22.0 ],
					"style" : "",
					"text" : "open"
				}

			}
, 			{
				"box" : 				{
					"id" : "obj-150",
					"linecount" : 2,
					"maxclass" : "comment",
					"numinlets" : 1,
					"numoutlets" : 0,
					"patching_rect" : [ 412.0, 999.5, 178.0, 33.0 ],
					"style" : "",
					"text" : "Nothing to complain now!\nOpen the text to verify."
				}

			}
, 			{
				"box" : 				{
					"id" : "obj-149",
					"linecount" : 3,
					"maxclass" : "comment",
					"numinlets" : 1,
					"numoutlets" : 0,
					"patching_rect" : [ 468.0, 425.0, 103.0, 47.0 ],
					"style" : "",
					"text" : "Look what happens without backtick!"
				}

			}
, 			{
				"box" : 				{
					"id" : "obj-148",
					"maxclass" : "message",
					"numinlets" : 2,
					"numoutlets" : 1,
					"outlettype" : [ "" ],
					"patching_rect" : [ 573.0, 482.0, 98.0, 22.0 ],
					"style" : "",
					"text" : "HenryIV ( 1 ) .txt"
				}

			}
, 			{
				"box" : 				{
					"id" : "obj-146",
					"maxclass" : "newobj",
					"numinlets" : 2,
					"numoutlets" : 1,
					"outlettype" : [ "" ],
					"patching_rect" : [ 573.0, 437.5, 96.0, 22.0 ],
					"saved_object_attributes" : 					{
						"embed" : 0,
						"versionnumber" : 80000
					}
,
					"style" : "",
					"text" : "bach.reg @out t"
				}

			}
, 			{
				"box" : 				{
					"id" : "obj-145",
					"maxclass" : "message",
					"numinlets" : 2,
					"numoutlets" : 1,
					"outlettype" : [ "" ],
					"patching_rect" : [ 573.0, 402.5, 85.0, 22.0 ],
					"style" : "",
					"text" : "HenryIV(1).txt"
				}

			}
, 			{
				"box" : 				{
					"id" : "obj-139",
					"maxclass" : "newobj",
					"numinlets" : 1,
					"numoutlets" : 1,
					"outlettype" : [ "" ],
					"patching_rect" : [ 254.25, 1005.0, 82.0, 22.0 ],
					"style" : "",
					"text" : "prepend read"
				}

			}
, 			{
				"box" : 				{
					"id" : "obj-141",
					"maxclass" : "newobj",
					"numinlets" : 1,
					"numoutlets" : 3,
					"outlettype" : [ "", "bang", "int" ],
					"patching_rect" : [ 254.25, 1036.0, 40.0, 22.0 ],
					"style" : "",
					"text" : "text"
				}

			}
, 			{
				"box" : 				{
					"id" : "obj-143",
					"maxclass" : "newobj",
					"numinlets" : 2,
					"numoutlets" : 1,
					"outlettype" : [ "" ],
					"patching_rect" : [ 254.25, 974.0, 103.0, 22.0 ],
					"saved_object_attributes" : 					{
						"embed" : 0,
						"versionnumber" : 80000
					}
,
					"style" : "",
					"text" : "bach.reg @out m"
				}

			}
, 			{
				"box" : 				{
					"id" : "obj-144",
					"maxclass" : "message",
					"numinlets" : 2,
					"numoutlets" : 1,
					"outlettype" : [ "" ],
					"patching_rect" : [ 254.25, 941.5, 89.0, 22.0 ],
					"style" : "",
					"text" : "`HenryIV(1).txt"
				}

			}
, 			{
				"box" : 				{
					"id" : "obj-138",
					"linecount" : 3,
					"maxclass" : "comment",
					"numinlets" : 1,
					"numoutlets" : 0,
					"patching_rect" : [ 66.0, 974.0, 178.0, 47.0 ],
					"style" : "",
					"text" : "This should be the new standard when communicating with Max objects..."
				}

			}
, 			{
				"box" : 				{
					"fontface" : 0,
					"fontname" : "Arial",
					"fontsize" : 12.0,
					"id" : "obj-136",
					"linecount" : 4,
					"maxclass" : "bach.hypercomment",
					"numinlets" : 1,
					"numoutlets" : 1,
					"outlettype" : [ "" ],
					"patching_rect" : [ 15.0, 190.5, 689.0, 60.0 ],
					"text" : "What has been improved is the way in which lllls are converted to text and created from text. \nYou might or might not be familiar with the bach \"backtick\", which is this symbol: `\nIt is a weird symbol, we agree on that, but it had to be weird because it is the default escaping character for bach. This means that anything preceded by ` will NOT be interpreted by bach in any particular way, but only considered as a pure symbol."
				}

			}
, 			{
				"box" : 				{
					"id" : "obj-135",
					"linecount" : 3,
					"maxclass" : "comment",
					"numinlets" : 1,
					"numoutlets" : 0,
					"patching_rect" : [ 11.0, 882.5, 692.0, 47.0 ],
					"style" : "",
					"text" : "The answer solution is twofold: \nOn one side, bach now provides a new outlet type named \"m\" (standing for Max), providing the ability to output the llll in textual form, but without any escaping backtick. "
				}

			}
, 			{
				"box" : 				{
					"id" : "obj-134",
					"linecount" : 3,
					"maxclass" : "comment",
					"numinlets" : 1,
					"numoutlets" : 0,
					"patching_rect" : [ 353.0, 811.0, 248.0, 47.0 ],
					"style" : "",
					"text" : "A file \"HenryIV(1).txt\" exists in bach media folder, but certainly does not have a backtick before it!!!"
				}

			}
, 			{
				"box" : 				{
					"id" : "obj-133",
					"maxclass" : "newobj",
					"numinlets" : 1,
					"numoutlets" : 1,
					"outlettype" : [ "" ],
					"patching_rect" : [ 297.25, 787.0, 82.0, 22.0 ],
					"style" : "",
					"text" : "prepend read"
				}

			}
, 			{
				"box" : 				{
					"id" : "obj-131",
					"maxclass" : "newobj",
					"numinlets" : 1,
					"numoutlets" : 3,
					"outlettype" : [ "", "bang", "int" ],
					"patching_rect" : [ 297.25, 818.0, 40.0, 22.0 ],
					"style" : "",
					"text" : "text"
				}

			}
, 			{
				"box" : 				{
					"id" : "obj-128",
					"maxclass" : "newobj",
					"numinlets" : 2,
					"numoutlets" : 1,
					"outlettype" : [ "" ],
					"patching_rect" : [ 297.25, 756.0, 96.0, 22.0 ],
					"saved_object_attributes" : 					{
						"embed" : 0,
						"versionnumber" : 80000
					}
,
					"style" : "",
					"text" : "bach.reg @out t"
				}

			}
, 			{
				"box" : 				{
					"id" : "obj-129",
					"maxclass" : "message",
					"numinlets" : 2,
					"numoutlets" : 1,
					"outlettype" : [ "" ],
					"patching_rect" : [ 297.25, 723.5, 89.0, 22.0 ],
					"style" : "",
					"text" : "`HenryIV(1).txt"
				}

			}
, 			{
				"box" : 				{
					"id" : "obj-130",
					"linecount" : 6,
					"maxclass" : "comment",
					"numinlets" : 1,
					"numoutlets" : 0,
					"patching_rect" : [ 71.0, 732.5, 189.0, 87.0 ],
					"style" : "",
					"text" : "On the other hand, it is sometimes annoying, because standard Max objects don't know what to do with it! They don't recognize it as an escape character, only bach objects do!"
				}

			}
, 			{
				"box" : 				{
					"id" : "obj-122",
					"maxclass" : "message",
					"numinlets" : 2,
					"numoutlets" : 1,
					"outlettype" : [ "" ],
					"patching_rect" : [ 280.0, 593.5, 89.0, 22.0 ],
					"style" : ""
				}

			}
, 			{
				"box" : 				{
					"id" : "obj-120",
					"linecount" : 4,
					"maxclass" : "comment",
					"numinlets" : 1,
					"numoutlets" : 0,
					"patching_rect" : [ 288.0, 638.0, 192.0, 60.0 ],
					"style" : "",
					"text" : "Even if we have used @out t, our message is still recognized as a symbol, because the backtick says so"
				}

			}
, 			{
				"box" : 				{
					"id" : "obj-119",
					"maxclass" : "message",
					"numinlets" : 2,
					"numoutlets" : 1,
					"outlettype" : [ "" ],
					"patching_rect" : [ 222.0, 661.0, 50.0, 22.0 ],
					"style" : "",
					"text" : "s"
				}

			}
, 			{
				"box" : 				{
					"id" : "obj-118",
					"maxclass" : "newobj",
					"numinlets" : 1,
					"numoutlets" : 2,
					"outlettype" : [ "int", "" ],
					"patching_rect" : [ 211.0, 626.0, 49.0, 22.0 ],
					"saved_object_attributes" : 					{
						"versionnumber" : 80000
					}
,
					"style" : "",
					"text" : "bach.is"
				}

			}
, 			{
				"box" : 				{
					"id" : "obj-117",
					"maxclass" : "newobj",
					"numinlets" : 2,
					"numoutlets" : 1,
					"outlettype" : [ "" ],
					"patching_rect" : [ 211.0, 593.5, 57.0, 22.0 ],
					"saved_object_attributes" : 					{
						"embed" : 0,
						"versionnumber" : 80000
					}
,
					"style" : "",
					"text" : "bach.reg"
				}

			}
, 			{
				"box" : 				{
					"id" : "obj-116",
					"maxclass" : "newobj",
					"numinlets" : 2,
					"numoutlets" : 1,
					"outlettype" : [ "" ],
					"patching_rect" : [ 211.0, 557.0, 96.0, 22.0 ],
					"saved_object_attributes" : 					{
						"embed" : 0,
						"versionnumber" : 80000
					}
,
					"style" : "",
					"text" : "bach.reg @out t"
				}

			}
, 			{
				"box" : 				{
					"id" : "obj-115",
					"maxclass" : "message",
					"numinlets" : 2,
					"numoutlets" : 1,
					"outlettype" : [ "" ],
					"patching_rect" : [ 211.0, 524.5, 89.0, 22.0 ],
					"style" : "",
					"text" : "`HenryIV(1).txt"
				}

			}
, 			{
				"box" : 				{
					"id" : "obj-114",
					"linecount" : 5,
					"maxclass" : "comment",
					"numinlets" : 1,
					"numoutlets" : 0,
					"patching_rect" : [ 11.0, 553.5, 185.0, 74.0 ],
					"style" : "",
					"text" : "On one side the backtick is important, because even if you use @out t, the bach objects are able to properly interpret the content of your message:"
				}

			}
, 			{
				"box" : 				{
					"id" : "obj-112",
					"maxclass" : "comment",
					"numinlets" : 1,
					"numoutlets" : 0,
					"patching_rect" : [ 11.0, 469.5, 400.0, 20.0 ],
					"style" : "",
					"text" : "and so on. Ok, this is probably nothing new. It has been around for long. "
				}

			}
, 			{
				"box" : 				{
					"id" : "obj-107",
					"maxclass" : "comment",
					"numinlets" : 1,
					"numoutlets" : 0,
					"patching_rect" : [ 100.0, 441.5, 358.0, 20.0 ],
					"style" : "",
					"text" : "this is not an llll, it is the symbol \"Orwell(1984)\""
				}

			}
, 			{
				"box" : 				{
					"id" : "obj-108",
					"maxclass" : "message",
					"numinlets" : 2,
					"numoutlets" : 1,
					"outlettype" : [ "" ],
					"patching_rect" : [ 11.0, 441.5, 89.0, 22.0 ],
					"style" : "",
					"text" : "`HenryIV(1).txt"
				}

			}
, 			{
				"box" : 				{
					"id" : "obj-106",
					"maxclass" : "comment",
					"numinlets" : 1,
					"numoutlets" : 0,
					"patching_rect" : [ 49.0, 414.5, 358.0, 20.0 ],
					"style" : "",
					"text" : "this is not an integer, it is the symbol \"-12\""
				}

			}
, 			{
				"box" : 				{
					"id" : "obj-105",
					"maxclass" : "message",
					"numinlets" : 2,
					"numoutlets" : 1,
					"outlettype" : [ "" ],
					"patching_rect" : [ 11.0, 414.5, 32.0, 22.0 ],
					"style" : "",
					"text" : "`-12"
				}

			}
, 			{
				"box" : 				{
					"id" : "obj-91",
					"maxclass" : "message",
					"numinlets" : 2,
					"numoutlets" : 1,
					"outlettype" : [ "" ],
					"patching_rect" : [ 594.0, 266.5, 43.0, 22.0 ],
					"style" : "",
					"text" : "`A001"
				}

			}
, 			{
				"box" : 				{
					"id" : "obj-86",
					"maxclass" : "message",
					"numinlets" : 2,
					"numoutlets" : 1,
					"outlettype" : [ "" ],
					"patching_rect" : [ 556.0, 266.5, 29.5, 22.0 ],
					"style" : "",
					"text" : "`A0"
				}

			}
, 			{
				"box" : 				{
					"id" : "obj-76",
					"maxclass" : "message",
					"numinlets" : 2,
					"numoutlets" : 1,
					"outlettype" : [ "" ],
					"patching_rect" : [ 222.0, 266.5, 39.0, 22.0 ],
					"style" : "",
					"text" : "A001"
				}

			}
, 			{
				"box" : 				{
					"id" : "obj-75",
					"maxclass" : "message",
					"numinlets" : 2,
					"numoutlets" : 1,
					"outlettype" : [ "" ],
					"patching_rect" : [ 187.0, 266.5, 29.5, 22.0 ],
					"style" : "",
					"text" : "A0"
				}

			}
, 			{
				"box" : 				{
					"id" : "obj-71",
					"maxclass" : "comment",
					"numinlets" : 1,
					"numoutlets" : 0,
					"patching_rect" : [ 328.0, 272.0, 169.0, 20.0 ],
					"style" : "",
					"text" : "...while these are all symbols"
				}

			}
, 			{
				"box" : 				{
					"id" : "obj-41",
					"maxclass" : "message",
					"numinlets" : 2,
					"numoutlets" : 1,
					"outlettype" : [ "" ],
					"patching_rect" : [ 510.0, 266.5, 35.0, 22.0 ],
					"style" : "",
					"text" : "`Fb6"
				}

			}
, 			{
				"box" : 				{
					"id" : "obj-20",
					"maxclass" : "message",
					"numinlets" : 2,
					"numoutlets" : 1,
					"outlettype" : [ "" ],
					"patching_rect" : [ 288.0, 351.0, 50.0, 22.0 ],
					"style" : ""
				}

			}
, 			{
				"box" : 				{
					"id" : "obj-6",
					"maxclass" : "newobj",
					"numinlets" : 1,
					"numoutlets" : 2,
					"outlettype" : [ "int", "" ],
					"patching_rect" : [ 289.0, 317.0, 49.0, 22.0 ],
					"saved_object_attributes" : 					{
						"versionnumber" : 80000
					}
,
					"style" : "",
					"text" : "bach.is"
				}

			}
, 			{
				"box" : 				{
					"id" : "obj-4",
					"maxclass" : "message",
					"numinlets" : 2,
					"numoutlets" : 1,
					"outlettype" : [ "" ],
					"patching_rect" : [ 142.0, 266.5, 33.0, 22.0 ],
					"style" : "",
					"text" : "Fb6"
				}

			}
, 			{
				"box" : 				{
					"id" : "obj-2",
					"linecount" : 2,
					"maxclass" : "comment",
					"numinlets" : 1,
					"numoutlets" : 0,
					"patching_rect" : [ 15.0, 261.0, 121.0, 33.0 ],
					"style" : "",
					"text" : "For instance, these are all pitches..."
				}

			}
, 			{
				"box" : 				{
					"fontname" : "Arial",
					"fontsize" : 12.0,
					"hidden" : 1,
					"id" : "obj-140",
					"maxclass" : "newobj",
					"numinlets" : 1,
					"numoutlets" : 0,
					"patching_rect" : [ 771.25, 245.183655, 119.0, 22.0 ],
					"style" : "",
					"text" : "bach.help.searchtag"
				}

			}
, 			{
				"box" : 				{
					"fontface" : 0,
					"fontname" : "Arial",
					"fontsize" : 12.0,
					"id" : "obj-142",
					"linecount" : 3,
					"maxclass" : "bach.hypercomment",
					"numinlets" : 1,
					"numoutlets" : 1,
					"outlettype" : [ "" ],
					"patching_rect" : [ 15.0, 133.68367, 689.0, 47.0 ],
					"text" : "Lisp-like linked lists, or lllls for short, haven't changed much in their shape: they are exactly the same contenious beasts that they were in previous bach versions ;-)\nOnly, now, they can hold pitches within themselves (see #pitch in the Help Center!)."
				}

			}
, 			{
				"box" : 				{
					"fontface" : 2,
					"id" : "obj-90",
					"maxclass" : "comment",
					"numinlets" : 1,
					"numoutlets" : 0,
					"patching_rect" : [ 270.75, 80.18367, 173.0, 20.0 ],
					"style" : "",
					"text" : "the ultimate scrolldown primer!"
				}

			}
, 			{
				"box" : 				{
					"id" : "obj-81",
					"maxclass" : "live.line",
					"numinlets" : 1,
					"numoutlets" : 0,
					"patching_rect" : [ 15.0, 75.18367, 240.75, 38.568211 ]
				}

			}
, 			{
				"box" : 				{
					"id" : "obj-77",
					"maxclass" : "live.line",
					"numinlets" : 1,
					"numoutlets" : 0,
					"patching_rect" : [ 468.75, 75.18367, 235.25, 32.0 ]
				}

			}
, 			{
				"box" : 				{
					"fontname" : "Arial",
					"fontsize" : 67.199997,
					"id" : "obj-67",
					"maxclass" : "comment",
					"numinlets" : 1,
					"numoutlets" : 0,
					"patching_rect" : [ 15.0, 11.183674, 689.0, 82.0 ],
					"style" : "",
					"text" : "lllls",
					"textjustification" : 1
				}

			}
, 			{
				"box" : 				{
					"fontsize" : 67.199997,
					"id" : "obj-74",
					"maxclass" : "comment",
					"numinlets" : 1,
					"numoutlets" : 0,
					"patching_rect" : [ 19.0, 14.183674, 689.0, 82.0 ],
					"style" : "",
					"text" : "lllls",
					"textcolor" : [ 0.34, 0.45, 0.16, 1.0 ],
					"textjustification" : 1
				}

			}
, 			{
				"box" : 				{
					"fontsize" : 18.0,
					"id" : "obj-62",
					"linecount" : 2,
					"maxclass" : "comment",
					"numinlets" : 1,
					"numoutlets" : 0,
					"patching_rect" : [ 15.0, 28.683674, 221.0, 47.0 ],
					"style" : "",
					"text" : "What's new in\nbach 0.8 ",
					"textcolor" : [ 0.34, 0.45, 0.16, 1.0 ]
				}

			}
, 			{
				"box" : 				{
					"id" : "obj-18",
					"maxclass" : "comment",
					"numinlets" : 1,
					"numoutlets" : 0,
					"patching_rect" : [ 11.0, 390.0, 358.0, 20.0 ],
					"style" : "",
					"text" : "And this is true for many more things:"
				}

			}
 ],
		"lines" : [ 			{
				"patchline" : 				{
					"destination" : [ "obj-11", 0 ],
					"midpoints" : [ 27.5, 1272.0, 230.5, 1272.0, 230.5, 1146.0, 263.5, 1146.0 ],
					"source" : [ "obj-1", 0 ]
				}

			}
, 			{
				"patchline" : 				{
					"destination" : [ "obj-1", 0 ],
					"source" : [ "obj-10", 0 ]
				}

			}
, 			{
				"patchline" : 				{
					"destination" : [ "obj-12", 0 ],
					"order" : 2,
					"source" : [ "obj-11", 0 ]
				}

			}
, 			{
				"patchline" : 				{
					"destination" : [ "obj-15", 0 ],
					"order" : 1,
					"source" : [ "obj-11", 0 ]
				}

			}
, 			{
				"patchline" : 				{
					"destination" : [ "obj-23", 0 ],
					"order" : 0,
					"source" : [ "obj-11", 0 ]
				}

			}
, 			{
				"patchline" : 				{
					"destination" : [ "obj-116", 0 ],
					"source" : [ "obj-115", 0 ]
				}

			}
, 			{
				"patchline" : 				{
					"destination" : [ "obj-117", 0 ],
					"order" : 1,
					"source" : [ "obj-116", 0 ]
				}

			}
, 			{
				"patchline" : 				{
					"destination" : [ "obj-122", 1 ],
					"order" : 0,
					"source" : [ "obj-116", 0 ]
				}

			}
, 			{
				"patchline" : 				{
					"destination" : [ "obj-118", 0 ],
					"source" : [ "obj-117", 0 ]
				}

			}
, 			{
				"patchline" : 				{
					"destination" : [ "obj-119", 1 ],
					"source" : [ "obj-118", 1 ]
				}

			}
, 			{
				"patchline" : 				{
					"destination" : [ "obj-14", 1 ],
					"source" : [ "obj-12", 1 ]
				}

			}
, 			{
				"patchline" : 				{
					"destination" : [ "obj-133", 0 ],
					"source" : [ "obj-128", 0 ]
				}

			}
, 			{
				"patchline" : 				{
					"destination" : [ "obj-128", 0 ],
					"source" : [ "obj-129", 0 ]
				}

			}
, 			{
				"patchline" : 				{
					"destination" : [ "obj-131", 0 ],
					"source" : [ "obj-133", 0 ]
				}

			}
, 			{
				"patchline" : 				{
					"destination" : [ "obj-141", 0 ],
					"source" : [ "obj-139", 0 ]
				}

			}
, 			{
				"patchline" : 				{
					"destination" : [ "obj-140", 0 ],
					"hidden" : 1,
					"source" : [ "obj-142", 0 ]
				}

			}
, 			{
				"patchline" : 				{
					"destination" : [ "obj-139", 0 ],
					"source" : [ "obj-143", 0 ]
				}

			}
, 			{
				"patchline" : 				{
					"destination" : [ "obj-143", 0 ],
					"source" : [ "obj-144", 0 ]
				}

			}
, 			{
				"patchline" : 				{
					"destination" : [ "obj-146", 0 ],
					"source" : [ "obj-145", 0 ]
				}

			}
, 			{
				"patchline" : 				{
					"destination" : [ "obj-148", 1 ],
					"source" : [ "obj-146", 0 ]
				}

			}
, 			{
				"patchline" : 				{
					"destination" : [ "obj-25", 1 ],
					"order" : 1,
					"source" : [ "obj-15", 0 ]
				}

			}
, 			{
				"patchline" : 				{
					"destination" : [ "obj-30", 0 ],
					"order" : 0,
					"source" : [ "obj-15", 0 ]
				}

			}
, 			{
				"patchline" : 				{
					"destination" : [ "obj-141", 0 ],
					"source" : [ "obj-152", 0 ]
				}

			}
, 			{
				"patchline" : 				{
					"destination" : [ "obj-21", 0 ],
					"source" : [ "obj-155", 0 ]
				}

			}
, 			{
				"patchline" : 				{
					"destination" : [ "obj-17", 0 ],
					"source" : [ "obj-16", 1 ]
				}

			}
, 			{
				"patchline" : 				{
					"destination" : [ "obj-17", 0 ],
					"source" : [ "obj-16", 0 ]
				}

			}
, 			{
				"patchline" : 				{
					"destination" : [ "obj-164", 0 ],
					"source" : [ "obj-163", 0 ]
				}

			}
, 			{
				"patchline" : 				{
					"destination" : [ "obj-165", 0 ],
					"source" : [ "obj-164", 0 ]
				}

			}
, 			{
				"patchline" : 				{
					"destination" : [ "obj-159", 1 ],
					"source" : [ "obj-165", 1 ]
				}

			}
, 			{
				"patchline" : 				{
					"destination" : [ "obj-155", 0 ],
					"source" : [ "obj-17", 1 ]
				}

			}
, 			{
				"patchline" : 				{
					"destination" : [ "obj-24", 0 ],
					"source" : [ "obj-17", 0 ]
				}

			}
, 			{
				"patchline" : 				{
					"destination" : [ "obj-173", 1 ],
					"source" : [ "obj-176", 0 ]
				}

			}
, 			{
				"patchline" : 				{
					"destination" : [ "obj-176", 0 ],
					"order" : 0,
					"source" : [ "obj-177", 0 ]
				}

			}
, 			{
				"patchline" : 				{
					"destination" : [ "obj-180", 0 ],
					"order" : 1,
					"source" : [ "obj-177", 0 ]
				}

			}
, 			{
				"patchline" : 				{
					"destination" : [ "obj-173", 0 ],
					"source" : [ "obj-180", 0 ]
				}

			}
, 			{
				"patchline" : 				{
					"destination" : [ "obj-181", 0 ],
					"source" : [ "obj-184", 0 ]
				}

			}
, 			{
				"patchline" : 				{
					"destination" : [ "obj-190", 0 ],
					"source" : [ "obj-189", 0 ]
				}

			}
, 			{
				"patchline" : 				{
					"destination" : [ "obj-16", 0 ],
					"source" : [ "obj-19", 0 ]
				}

			}
, 			{
				"patchline" : 				{
					"destination" : [ "obj-193", 0 ],
					"source" : [ "obj-191", 0 ]
				}

			}
, 			{
				"patchline" : 				{
					"destination" : [ "obj-191", 0 ],
					"source" : [ "obj-192", 0 ]
				}

			}
, 			{
				"patchline" : 				{
					"destination" : [ "obj-189", 0 ],
					"source" : [ "obj-193", 0 ]
				}

			}
, 			{
				"patchline" : 				{
					"destination" : [ "obj-22", 0 ],
					"source" : [ "obj-21", 0 ]
				}

			}
, 			{
				"patchline" : 				{
					"destination" : [ "obj-17", 1 ],
					"source" : [ "obj-22", 0 ]
				}

			}
, 			{
				"patchline" : 				{
					"destination" : [ "obj-26", 1 ],
					"order" : 1,
					"source" : [ "obj-23", 0 ]
				}

			}
, 			{
				"patchline" : 				{
					"destination" : [ "obj-27", 0 ],
					"order" : 0,
					"source" : [ "obj-23", 0 ]
				}

			}
, 			{
				"patchline" : 				{
					"destination" : [ "obj-28", 1 ],
					"source" : [ "obj-27", 0 ]
				}

			}
, 			{
				"patchline" : 				{
					"destination" : [ "obj-29", 1 ],
					"source" : [ "obj-30", 0 ]
				}

			}
, 			{
				"patchline" : 				{
					"destination" : [ "obj-6", 0 ],
					"source" : [ "obj-4", 0 ]
				}

			}
, 			{
				"patchline" : 				{
					"destination" : [ "obj-6", 0 ],
					"source" : [ "obj-41", 0 ]
				}

			}
, 			{
				"patchline" : 				{
					"destination" : [ "obj-7", 0 ],
					"source" : [ "obj-5", 0 ]
				}

			}
, 			{
				"patchline" : 				{
					"destination" : [ "obj-20", 1 ],
					"source" : [ "obj-6", 1 ]
				}

			}
, 			{
				"patchline" : 				{
					"destination" : [ "obj-6", 0 ],
					"source" : [ "obj-75", 0 ]
				}

			}
, 			{
				"patchline" : 				{
					"destination" : [ "obj-6", 0 ],
					"source" : [ "obj-76", 0 ]
				}

			}
, 			{
				"patchline" : 				{
					"destination" : [ "obj-6", 0 ],
					"source" : [ "obj-86", 0 ]
				}

			}
, 			{
				"patchline" : 				{
					"destination" : [ "obj-3", 0 ],
					"order" : 1,
					"source" : [ "obj-9", 0 ]
				}

			}
, 			{
				"patchline" : 				{
					"destination" : [ "obj-5", 0 ],
					"midpoints" : [ 36.5, 1443.0, 102.0, 1443.0 ],
					"order" : 0,
					"source" : [ "obj-9", 0 ]
				}

			}
, 			{
				"patchline" : 				{
					"destination" : [ "obj-6", 0 ],
					"source" : [ "obj-91", 0 ]
				}

			}
 ],
		"dependency_cache" : [ 			{
				"name" : "bach.help.searchtag.maxpat",
				"bootpath" : "~/Documents/Max 7/Packages/bach/help",
				"patcherrelativepath" : "../../help",
				"type" : "JSON",
				"implicit" : 1
			}
, 			{
				"name" : "bach.hypercomment.mxo",
				"type" : "iLaX"
			}
, 			{
				"name" : "bach.is.mxo",
				"type" : "iLaX"
			}
, 			{
				"name" : "bach.reg.mxo",
				"type" : "iLaX"
			}
, 			{
				"name" : "bach.textout.mxo",
				"type" : "iLaX"
			}
, 			{
				"name" : "bach.mapelem.mxo",
				"type" : "iLaX"
			}
, 			{
				"name" : "bach.print.mxo",
				"type" : "iLaX"
			}
, 			{
				"name" : "bach.textin.mxo",
				"type" : "iLaX"
			}
, 			{
				"name" : "bach.write.mxo",
				"type" : "iLaX"
			}
, 			{
				"name" : "bach.read.mxo",
				"type" : "iLaX"
			}
, 			{
				"name" : "bach.slot.mxo",
				"type" : "iLaX"
			}
, 			{
				"name" : "bach.keys.mxo",
				"type" : "iLaX"
			}
 ],
		"autosave" : 0
	}

}
